<?xml version="1.0" encoding="utf-8"?>
<svg width="429px" height="473px" viewBox="0 0 429 473" version="1.1" xmlns:xlink="http://www.w3.org/1999/xlink" xmlns="http://www.w3.org/2000/svg">
  <desc>Created with Lunacy</desc>
  <path d="M0 0L333 0L333 331L0 331L0 0Z" transform="translate(2 140.1663)" id="Rectangle-3" fill="#F5F6FA" stroke="#27262B" stroke-width="2" />
  <path d="M0 0L240 0L240 240L0 240L0 0Z" transform="translate(3 230.1663)" id="Rectangle-2" fill="#F5F6FA" stroke="#27262B" stroke-width="2" />
  <path d="M0 0L154 0L154 154L0 154L0 0Z" transform="translate(3 316.1663)" id="Rectangle" fill="#F5F6FA" stroke="#27262B" stroke-width="2" />
  <g id="Printed-Books:-sequential-text" transform="translate(17 362.1663)">
    <g id="Printed-Books:">
      <path d="M56.14 16.45L56.08 14.39L56.22 4.37L54.64 4.51L54.66 9.29Q53.84 9.09 52.9 9.09Q50.82 9.09 49.64 10.34Q48.46 11.59 48.46 13.85Q48.46 16.09 49.52 17.3Q50.58 18.51 52.56 18.51Q53.18 18.27 53.66 17.96Q54.14 17.65 54.74 17.13L54.88 17.13Q54.96 17.75 55.31 18.11Q55.66 18.47 56.28 18.53Q56.86 18.47 57.4 18.13L57.56 17.23L57.4 17.09Q57.04 17.21 56.72 17.21Q56.4 17.21 56.28 17.04Q56.16 16.87 56.14 16.45ZM94.92 18.41L94.82 14.39L94.94 4.37L93.36 4.51L93.46 14.51L93.34 18.41L94.92 18.41ZM19.94 5.39Q19.7 5.15 19.3 5.15Q18.86 5.15 18.61 5.41Q18.36 5.67 18.36 6.09Q18.36 6.53 18.59 6.77Q18.82 7.01 19.24 7.01Q19.68 7.01 19.93 6.75Q20.18 6.49 20.18 6.05Q20.18 5.63 19.94 5.39ZM5.78 5.57Q7.66 5.57 8.68 6.54Q9.7 7.51 9.7 9.33Q9.7 11.47 8.43 12.69Q7.16 13.91 4.92 13.91L3.4 13.91L3.4 14.41L3.48 18.41L1.86 18.41L1.96 14.55L1.86 5.59L5.78 5.57ZM68.52 11.73Q71.24 12.27 71.24 14.83Q71.24 16.65 69.92 17.57Q68.6 18.49 65.98 18.49Q64.22 18.49 63.16 18.41L63.14 18.41L63.24 14.55L63.14 5.59L66.7 5.57Q68.5 5.57 69.47 6.37Q70.44 7.17 70.44 8.69Q70.44 9.77 69.94 10.55Q69.44 11.33 68.52 11.73ZM5.52 12.61Q6.76 12.41 7.41 11.61Q8.06 10.81 8.06 9.47Q8.06 6.99 5.42 6.89L3.48 6.95L3.42 12.57L5.52 12.61ZM68.8 8.87Q68.8 7.83 68.23 7.36Q67.66 6.89 66.38 6.89L64.76 6.89L64.72 11.19L66.92 11.25Q68.8 10.81 68.8 8.87ZM37.94 16.79Q37.16 17.19 36.5 17.19Q35.82 17.19 35.52 16.87Q35.22 16.55 35.24 15.75L35.34 10.33L38.04 10.33L38.14 9.39L38.06 9.27L35.34 9.27L35.38 7.33L35.22 7.19L33.84 7.79L33.84 9.27L32.62 9.27L32.52 10.21L32.6 10.33L33.86 10.33L33.88 14.47L33.82 15.89Q33.82 17.07 34.32 17.69Q34.82 18.31 35.96 18.53Q36.88 18.45 37.96 17.95L38.12 16.91L37.94 16.79ZM40.72 13.77L40.72 13.81Q40.72 15.49 41.48 16.39Q42.24 17.29 43.64 17.29Q44.34 17.29 45.04 17.06Q45.74 16.83 46.32 16.41L46.48 16.53L46.24 17.89Q44.84 18.57 43.44 18.57Q41.48 18.57 40.36 17.32Q39.24 16.07 39.24 13.89Q39.24 11.69 40.36 10.39Q41.48 9.09 43.38 9.09Q44.98 9.09 45.86 10Q46.74 10.91 46.74 12.53Q46.74 13.07 46.66 13.55L46.46 13.75L40.72 13.77ZM79.93 10.3Q78.9 9.09 77.04 9.09Q75.04 9.09 73.95 10.36Q72.86 11.63 72.86 13.95Q72.86 16.15 73.89 17.36Q74.92 18.57 76.8 18.57Q78.8 18.57 79.88 17.3Q80.96 16.03 80.96 13.71Q80.96 11.51 79.93 10.3ZM86.86 9.09Q88.72 9.09 89.75 10.3Q90.78 11.51 90.78 13.71Q90.78 16.03 89.7 17.3Q88.62 18.57 86.62 18.57Q84.74 18.57 83.71 17.36Q82.68 16.15 82.68 13.95Q82.68 11.63 83.77 10.36Q84.86 9.09 86.86 9.09ZM104.88 9.11Q106.02 9.11 107.08 9.55L106.86 10.85L106.62 10.91Q105.62 10.25 104.7 10.25Q104.02 10.25 103.6 10.63Q103.18 11.01 103.18 11.55Q103.18 12.09 103.61 12.42Q104.04 12.75 104.94 13.17Q105.72 13.53 106.19 13.82Q106.66 14.11 107 14.59Q107.34 15.07 107.34 15.77Q107.34 16.51 106.96 17.15Q106.58 17.79 105.84 18.18Q105.1 18.57 104.08 18.57Q102.68 18.57 101.42 17.91L101.62 16.55L101.8 16.43Q102.36 16.91 103.01 17.17Q103.66 17.43 104.24 17.43Q104.98 17.43 105.44 17.02Q105.9 16.61 105.9 16.05Q105.9 15.51 105.47 15.18Q105.04 14.85 104.14 14.43Q103.36 14.07 102.88 13.78Q102.4 13.49 102.06 12.99Q101.72 12.49 101.72 11.75Q101.72 10.59 102.57 9.85Q103.42 9.11 104.88 9.11ZM29.08 12.19Q29.1 11.37 28.7 10.91Q28.3 10.45 27.52 10.45Q26.26 10.45 24.8 11.87L24.8 14.39L24.88 18.41L23.3 18.41L23.4 14.53L23.32 9.35L24.82 9.21L24.82 10.55L24.94 10.55Q26.18 9.45 27.48 9.13Q28.98 9.13 29.77 9.83Q30.56 10.53 30.54 11.83L30.5 14.43L30.58 18.41L28.98 18.41L29.08 12.19ZM16.2 9.23Q16.44 9.23 16.72 9.27L16.72 10.81L16.54 10.87Q16.2 10.77 15.8 10.77Q15.14 10.77 14.59 11.3Q14.04 11.83 13.5 12.99L13.48 14.39L13.58 18.41L12 18.41L12.1 14.53L12.02 9.35L13.52 9.21L13.5 11.09L13.62 11.09Q14.18 10.09 14.86 9.66Q15.54 9.23 16.2 9.23ZM18.5 9.35L18.56 14.53L18.48 18.41L20.04 18.41L20 14.39L20.04 9.21L18.5 9.35ZM100.62 18.13Q98.16 15.31 96.78 13.45L100.38 9.25L98.58 9.25L98.06 10.07L95.2 13.45L95.2 13.59Q96.74 15.83 99 18.51L99.2 18.59Q99.34 18.57 99.79 18.5Q100.24 18.43 100.62 18.31L100.62 18.13ZM43.38 10.21Q42.38 10.21 41.71 10.86Q41.04 11.51 40.82 12.69L45.24 12.61L45.28 12.33Q45.28 11.31 44.79 10.76Q44.3 10.21 43.38 10.21ZM50.7 11.08Q51.44 10.21 52.72 10.21Q53.6 10.21 54.66 10.71L54.72 14.51L54.68 15.95Q54.1 16.61 53.57 16.89Q53.04 17.17 52.48 17.17Q51.3 17.17 50.63 16.23Q49.96 15.29 49.96 13.59Q49.96 11.95 50.7 11.08ZM75.02 11.07Q75.68 10.21 76.94 10.21Q78.18 10.21 78.83 11.19Q79.48 12.17 79.48 14.07Q79.48 15.75 78.82 16.59Q78.16 17.43 76.9 17.43Q75.66 17.43 75.01 16.47Q74.36 15.51 74.36 13.59Q74.36 11.93 75.02 11.07ZM86.76 10.21Q85.5 10.21 84.84 11.07Q84.18 11.93 84.18 13.59Q84.18 15.51 84.83 16.47Q85.48 17.43 86.72 17.43Q87.98 17.43 88.64 16.59Q89.3 15.75 89.3 14.07Q89.3 12.17 88.65 11.19Q88 10.21 86.76 10.21ZM111.06 11.49Q110.82 11.25 110.42 11.25Q109.98 11.25 109.73 11.51Q109.48 11.77 109.48 12.19Q109.48 12.63 109.71 12.87Q109.94 13.11 110.36 13.11Q110.8 13.11 111.05 12.85Q111.3 12.59 111.3 12.15Q111.3 11.73 111.06 11.49ZM66.22 17.15Q67.86 17.15 68.74 16.53Q69.62 15.91 69.62 14.75Q69.62 12.79 67.16 12.51L64.7 12.53L64.68 14.41L64.74 17.09Q65.52 17.15 66.22 17.15ZM111.06 16.89Q110.82 16.65 110.42 16.65Q109.98 16.65 109.73 16.91Q109.48 17.17 109.48 17.59Q109.48 18.03 109.71 18.27Q109.94 18.51 110.36 18.51Q110.8 18.51 111.05 18.25Q111.3 17.99 111.3 17.55Q111.3 17.13 111.06 16.89Z" />
    </g>
    <g id="sequential-text">
      <path d="M80.28 43.002L80.18 38.982L80.3 28.962L78.72 29.102L78.82 39.102L78.7 43.002L80.28 43.002ZM66.02 29.982Q65.78 29.742 65.38 29.742Q64.94 29.742 64.69 30.002Q64.44 30.262 64.44 30.682Q64.44 31.122 64.67 31.362Q64.9 31.602 65.32 31.602Q65.76 31.602 66.01 31.342Q66.26 31.082 66.26 30.642Q66.26 30.222 66.02 29.982ZM61.04 41.782Q61.7 41.782 62.48 41.382L62.66 41.502L62.5 42.542Q61.42 43.042 60.5 43.122Q59.36 42.902 58.86 42.282Q58.36 41.662 58.36 40.482L58.42 39.062L58.4 34.922L57.14 34.922L57.06 34.802L57.16 33.862L58.38 33.862L58.38 32.382L59.76 31.782L59.92 31.922L59.88 33.862L62.6 33.862L62.68 33.982L62.58 34.922L59.88 34.922L59.78 40.342Q59.76 41.142 60.06 41.462Q60.36 41.782 61.04 41.782ZM89.74 41.782Q90.4 41.782 91.18 41.382L91.36 41.502L91.2 42.542Q90.12 43.042 89.2 43.122Q88.06 42.902 87.56 42.282Q87.06 41.662 87.06 40.482L87.12 39.062L87.1 34.922L85.84 34.922L85.76 34.802L85.86 33.862L87.08 33.862L87.08 32.382L88.46 31.782L88.62 31.922L88.58 33.862L91.3 33.862L91.38 33.982L91.28 34.922L88.58 34.922L88.48 40.342Q88.46 41.142 88.76 41.462Q89.06 41.782 89.74 41.782ZM115.48 41.382Q114.7 41.782 114.04 41.782Q113.36 41.782 113.06 41.462Q112.76 41.142 112.78 40.342L112.88 34.922L115.58 34.922L115.68 33.982L115.6 33.862L112.88 33.862L112.92 31.922L112.76 31.782L111.38 32.382L111.38 33.862L110.16 33.862L110.06 34.802L110.14 34.922L111.4 34.922L111.42 39.062L111.36 40.482Q111.36 41.662 111.86 42.282Q112.36 42.902 113.5 43.122Q114.42 43.042 115.5 42.542L115.66 41.502L115.48 41.382ZM9.72 38.402L9.72 38.362L15.46 38.342L15.66 38.142Q15.74 37.662 15.74 37.122Q15.74 35.502 14.86 34.592Q13.98 33.682 12.38 33.682Q10.48 33.682 9.36 34.982Q8.24 36.282 8.24 38.482Q8.24 40.662 9.36 41.912Q10.48 43.162 12.44 43.162Q13.84 43.162 15.24 42.482L15.48 41.122L15.32 41.002Q14.74 41.422 14.04 41.652Q13.34 41.882 12.64 41.882Q11.24 41.882 10.48 40.982Q9.72 40.082 9.72 38.402ZM25.06 33.722L25.22 33.822L25.08 39.022L25.2 46.702L23.64 46.702L23.7 42.302L23.7 41.922L23.54 41.922Q23 42.362 22.55 42.622Q22.1 42.882 21.48 43.102Q19.54 43.102 18.5 41.892Q17.46 40.682 17.46 38.502Q17.46 36.182 18.63 34.932Q19.8 33.682 21.88 33.682Q23.02 33.682 24.26 34.042L25.06 33.722ZM39.34 38.362L39.34 38.402Q39.34 40.082 40.1 40.982Q40.86 41.882 42.26 41.882Q42.96 41.882 43.66 41.652Q44.36 41.422 44.94 41.002L45.1 41.122L44.86 42.482Q43.46 43.162 42.06 43.162Q40.1 43.162 38.98 41.912Q37.86 40.662 37.86 38.482Q37.86 36.282 38.98 34.982Q40.1 33.682 42 33.682Q43.6 33.682 44.48 34.592Q45.36 35.502 45.36 37.122Q45.36 37.662 45.28 38.142L45.08 38.342L39.34 38.362ZM72.4 33.682Q73.7 33.682 74.45 34.322Q75.2 34.962 75.2 36.082Q75.2 36.422 75.08 38.542Q74.96 40.662 74.96 41.022Q74.96 41.462 75.1 41.632Q75.24 41.802 75.58 41.802Q75.88 41.802 76.26 41.682L76.42 41.822L76.26 42.722Q75.68 43.062 75.12 43.122Q74.5 43.062 74.13 42.682Q73.76 42.302 73.74 41.642L73.6 41.642Q72.52 42.742 71.46 43.142Q70.12 43.142 69.37 42.472Q68.62 41.802 68.62 40.642Q68.62 39.762 69.09 39.242Q69.56 38.722 70.48 38.502L73.72 37.742L73.74 36.442Q73.74 35.662 73.33 35.242Q72.92 34.822 72.16 34.822Q71.48 34.822 70.8 35.142Q70.12 35.462 69.34 36.142L69.18 36.062L68.98 34.922Q70.64 33.682 72.4 33.682ZM93.96 38.402L93.96 38.362L99.7 38.342L99.9 38.142Q99.98 37.662 99.98 37.122Q99.98 35.502 99.1 34.592Q98.22 33.682 96.62 33.682Q94.72 33.682 93.6 34.982Q92.48 36.282 92.48 38.482Q92.48 40.662 93.6 41.912Q94.72 43.162 96.68 43.162Q98.08 43.162 99.48 42.482L99.72 41.122L99.56 41.002Q98.98 41.422 98.28 41.652Q97.58 41.882 96.88 41.882Q95.48 41.882 94.72 40.982Q93.96 40.082 93.96 38.402ZM6.3 34.142Q5.24 33.702 4.1 33.702Q2.64 33.702 1.79 34.442Q0.94 35.182 0.94 36.342Q0.94 37.082 1.28 37.582Q1.62 38.082 2.1 38.372Q2.58 38.662 3.36 39.022Q4.26 39.442 4.69 39.772Q5.12 40.102 5.12 40.642Q5.12 41.202 4.66 41.612Q4.2 42.022 3.46 42.022Q2.88 42.022 2.23 41.762Q1.58 41.502 1.02 41.022L0.84 41.142L0.64 42.502Q1.9 43.162 3.3 43.162Q4.32 43.162 5.06 42.772Q5.8 42.382 6.18 41.742Q6.56 41.102 6.56 40.362Q6.56 39.662 6.22 39.182Q5.88 38.702 5.41 38.412Q4.94 38.122 4.16 37.762Q3.26 37.342 2.83 37.012Q2.4 36.682 2.4 36.142Q2.4 35.602 2.82 35.222Q3.24 34.842 3.92 34.842Q4.84 34.842 5.84 35.502L6.08 35.442L6.3 34.142ZM53.24 35.502Q53.64 35.962 53.62 36.782L53.52 43.002L55.12 43.002L55.04 39.022L55.08 36.422Q55.1 35.122 54.31 34.422Q53.52 33.722 52.02 33.722Q50.72 34.042 49.48 35.142L49.36 35.142L49.36 33.802L47.86 33.942L47.94 39.122L47.84 43.002L49.42 43.002L49.34 38.982L49.34 36.462Q50.8 35.042 52.06 35.042Q52.84 35.042 53.24 35.502ZM103.42 34.642L105.32 37.422L107.06 34.662L107.52 33.842L109 33.842L106.14 38.322L109.2 42.922L107.52 43.082L107.08 42.142L105.12 39.242L103.2 42.222L102.8 43.002L101.32 43.002L104.26 38.342L101.34 33.902L103.04 33.782L103.42 34.642ZM36.46 42.722L36.62 41.822L36.46 41.682Q36.08 41.802 35.76 41.802Q35.44 41.802 35.31 41.632Q35.18 41.462 35.18 41.042L35.28 33.802L33.76 33.942L33.76 40.582Q32.52 41.782 31.28 41.782Q30.52 41.782 30.13 41.322Q29.74 40.862 29.74 40.042L29.86 33.802L28.26 33.942L28.32 37.882L28.3 40.422Q28.28 41.722 29.05 42.422Q29.82 43.122 31.3 43.122Q32.58 42.802 33.78 41.722L33.9 41.722Q34.04 42.382 34.39 42.712Q34.74 43.042 35.32 43.122Q35.88 43.062 36.46 42.722ZM64.58 33.942L64.64 39.122L64.56 43.002L66.12 43.002L66.08 38.982L66.12 33.802L64.58 33.942ZM10.71 35.452Q11.38 34.802 12.38 34.802Q13.3 34.802 13.79 35.352Q14.28 35.902 14.28 36.922L14.24 37.202L9.82 37.282Q10.04 36.102 10.71 35.452ZM42 34.802Q41 34.802 40.33 35.452Q39.66 36.102 39.44 37.282L43.86 37.202L43.9 36.922Q43.9 35.902 43.41 35.352Q42.92 34.802 42 34.802ZM94.95 35.452Q95.62 34.802 96.62 34.802Q97.54 34.802 98.03 35.352Q98.52 35.902 98.52 36.922L98.48 37.202L94.06 37.282Q94.28 36.102 94.95 35.452ZM21.7 34.822Q20.42 34.822 19.69 35.682Q18.96 36.542 18.96 38.242Q18.96 39.902 19.61 40.832Q20.26 41.762 21.4 41.762Q21.98 41.762 22.53 41.482Q23.08 41.202 23.7 40.542L23.72 39.182L23.66 35.362Q22.62 34.822 21.7 34.822ZM70.8 39.462Q70.4 39.582 70.22 39.792Q70.04 40.002 70.04 40.422Q70.04 41.082 70.41 41.452Q70.78 41.822 71.4 41.822Q72.5 41.822 73.64 40.402L73.7 38.762L70.8 39.462Z" />
    </g>
  </g>
  <g id="Web-Books:-sequential,--interl" transform="translate(17.23999 251.1664)">
    <g id="Web-Books:">
      <path d="M35.59 10.3Q34.68 9.15 32.94 9.15Q32.22 9.35 31.66 9.65Q31.1 9.95 30.42 10.51L30.3 10.51L30.36 4.37L28.78 4.51L28.88 14.57L28.76 18.47L29.04 18.63L30.14 18.13Q31.14 18.57 32.1 18.57Q34.18 18.57 35.34 17.26Q36.5 15.95 36.5 13.55Q36.5 11.45 35.59 10.3ZM74.3 18.41L74.2 14.39L74.32 4.37L72.74 4.51L72.84 14.51L72.72 18.41L74.3 18.41ZM47.9 11.73Q50.62 12.27 50.62 14.83Q50.62 16.65 49.3 17.57Q47.98 18.49 45.36 18.49Q43.6 18.49 42.54 18.41L42.52 18.41L42.62 14.55L42.52 5.59L46.08 5.57Q47.88 5.57 48.85 6.37Q49.82 7.17 49.82 8.69Q49.82 9.77 49.32 10.55Q48.82 11.33 47.9 11.73ZM13.1 18.41L11.44 18.41L8.94 10.97L8.8 10.97L6.16 18.41L4.5 18.41L0.42 5.59L2.02 5.59L2.24 6.83L5.36 16.63L5.5 16.63L8.26 8.83L7.18 5.59L8.82 5.59L9.12 6.97L12.28 16.63L12.4 16.63L15.88 6.91L16.18 5.59L17.7 5.59L13.1 18.41ZM48.18 8.87Q48.18 7.83 47.61 7.36Q47.04 6.89 45.76 6.89L44.14 6.89L44.1 11.19L46.3 11.25Q48.18 10.81 48.18 8.87ZM20.18 13.77L20.18 13.81Q20.18 15.49 20.94 16.39Q21.7 17.29 23.1 17.29Q23.8 17.29 24.5 17.06Q25.2 16.83 25.78 16.41L25.94 16.53L25.7 17.89Q24.3 18.57 22.9 18.57Q20.94 18.57 19.82 17.32Q18.7 16.07 18.7 13.89Q18.7 11.69 19.82 10.39Q20.94 9.09 22.84 9.09Q24.44 9.09 25.32 10Q26.2 10.91 26.2 12.53Q26.2 13.07 26.12 13.55L25.92 13.75L20.18 13.77ZM59.31 10.3Q58.28 9.09 56.42 9.09Q54.42 9.09 53.33 10.36Q52.24 11.63 52.24 13.95Q52.24 16.15 53.27 17.36Q54.3 18.57 56.18 18.57Q58.18 18.57 59.26 17.3Q60.34 16.03 60.34 13.71Q60.34 11.51 59.31 10.3ZM66.24 9.09Q68.1 9.09 69.13 10.3Q70.16 11.51 70.16 13.71Q70.16 16.03 69.08 17.3Q68 18.57 66 18.57Q64.12 18.57 63.09 17.36Q62.06 16.15 62.06 13.95Q62.06 11.63 63.15 10.36Q64.24 9.09 66.24 9.09ZM84.26 9.11Q85.4 9.11 86.46 9.55L86.24 10.85L86 10.91Q85 10.25 84.08 10.25Q83.4 10.25 82.98 10.63Q82.56 11.01 82.56 11.55Q82.56 12.09 82.99 12.42Q83.42 12.75 84.32 13.17Q85.1 13.53 85.57 13.82Q86.04 14.11 86.38 14.59Q86.72 15.07 86.72 15.77Q86.72 16.51 86.34 17.15Q85.96 17.79 85.22 18.18Q84.48 18.57 83.46 18.57Q82.06 18.57 80.8 17.91L81 16.55L81.18 16.43Q81.74 16.91 82.39 17.17Q83.04 17.43 83.62 17.43Q84.36 17.43 84.82 17.02Q85.28 16.61 85.28 16.05Q85.28 15.51 84.85 15.18Q84.42 14.85 83.52 14.43Q82.74 14.07 82.26 13.78Q81.78 13.49 81.44 12.99Q81.1 12.49 81.1 11.75Q81.1 10.59 81.95 9.85Q82.8 9.11 84.26 9.11ZM80 18.13Q77.54 15.31 76.16 13.45L79.76 9.25L77.96 9.25L77.44 10.07L74.58 13.45L74.58 13.59Q76.12 15.83 78.38 18.51L78.58 18.59Q78.72 18.57 79.17 18.5Q79.62 18.43 80 18.31L80 18.13ZM22.84 10.21Q21.84 10.21 21.17 10.86Q20.5 11.51 20.28 12.69L24.7 12.61L24.74 12.33Q24.74 11.31 24.25 10.76Q23.76 10.21 22.84 10.21ZM54.4 11.07Q55.06 10.21 56.32 10.21Q57.56 10.21 58.21 11.19Q58.86 12.17 58.86 14.07Q58.86 15.75 58.2 16.59Q57.54 17.43 56.28 17.43Q55.04 17.43 54.39 16.47Q53.74 15.51 53.74 13.59Q53.74 11.93 54.4 11.07ZM66.14 10.21Q64.88 10.21 64.22 11.07Q63.56 11.93 63.56 13.59Q63.56 15.51 64.21 16.47Q64.86 17.43 66.1 17.43Q67.36 17.43 68.02 16.59Q68.68 15.75 68.68 14.07Q68.68 12.17 68.03 11.19Q67.38 10.21 66.14 10.21ZM34.26 16.51Q33.52 17.41 32.24 17.41Q31.28 17.41 30.32 16.77L30.26 14.39L30.28 11.85Q30.96 11.13 31.57 10.79Q32.18 10.45 32.8 10.45Q33.86 10.45 34.43 11.34Q35 12.23 35 13.85Q35 15.61 34.26 16.51ZM90.44 11.49Q90.2 11.25 89.8 11.25Q89.36 11.25 89.11 11.51Q88.86 11.77 88.86 12.19Q88.86 12.63 89.09 12.87Q89.32 13.11 89.74 13.11Q90.18 13.11 90.43 12.85Q90.68 12.59 90.68 12.15Q90.68 11.73 90.44 11.49ZM45.6 17.15Q47.24 17.15 48.12 16.53Q49 15.91 49 14.75Q49 12.79 46.54 12.51L44.08 12.53L44.06 14.41L44.12 17.09Q44.9 17.15 45.6 17.15ZM90.44 16.89Q90.2 16.65 89.8 16.65Q89.36 16.65 89.11 16.91Q88.86 17.17 88.86 17.59Q88.86 18.03 89.09 18.27Q89.32 18.51 89.74 18.51Q90.18 18.51 90.43 18.25Q90.68 17.99 90.68 17.55Q90.68 17.13 90.44 16.89Z" />
    </g>
    <g id="sequential,-interlinked--text">
      <path d="M80.28 43.002L80.18 38.982L80.3 28.962L78.72 29.102L78.82 39.102L78.7 43.002L80.28 43.002ZM130.22 38.982L130.32 43.002L128.74 43.002L128.86 39.102L128.76 29.102L130.34 28.962L130.22 38.982ZM150.42 43.002L150.32 38.982L150.44 28.962L148.86 29.102L148.96 39.102L148.84 43.002L150.42 43.002ZM174.02 41.042L173.96 38.982L174.1 28.962L172.52 29.102L172.54 33.882Q171.72 33.682 170.78 33.682Q168.7 33.682 167.52 34.932Q166.34 36.182 166.34 38.442Q166.34 40.682 167.4 41.892Q168.46 43.102 170.44 43.102Q171.06 42.862 171.54 42.552Q172.02 42.242 172.62 41.722L172.76 41.722Q172.84 42.342 173.19 42.702Q173.54 43.062 174.16 43.122Q174.74 43.062 175.28 42.722L175.44 41.822L175.28 41.682Q174.92 41.802 174.6 41.802Q174.28 41.802 174.16 41.632Q174.04 41.462 174.02 41.042ZM66.02 29.982Q65.78 29.742 65.38 29.742Q64.94 29.742 64.69 30.002Q64.44 30.262 64.44 30.682Q64.44 31.122 64.67 31.362Q64.9 31.602 65.32 31.602Q65.76 31.602 66.01 31.342Q66.26 31.082 66.26 30.642Q66.26 30.222 66.02 29.982ZM92.92 29.982Q92.68 29.742 92.28 29.742Q91.84 29.742 91.59 30.002Q91.34 30.262 91.34 30.682Q91.34 31.122 91.57 31.362Q91.8 31.602 92.22 31.602Q92.66 31.602 92.91 31.342Q93.16 31.082 93.16 30.642Q93.16 30.222 92.92 29.982ZM135.08 29.982Q134.84 29.742 134.44 29.742Q134 29.742 133.75 30.002Q133.5 30.262 133.5 30.682Q133.5 31.122 133.73 31.362Q133.96 31.602 134.38 31.602Q134.82 31.602 135.07 31.342Q135.32 31.082 135.32 30.642Q135.32 30.222 135.08 29.982ZM61.04 41.782Q61.7 41.782 62.48 41.382L62.66 41.502L62.5 42.542Q61.42 43.042 60.5 43.122Q59.36 42.902 58.86 42.282Q58.36 41.662 58.36 40.482L58.42 39.062L58.4 34.922L57.14 34.922L57.06 34.802L57.16 33.862L58.38 33.862L58.38 32.382L59.76 31.782L59.92 31.922L59.88 33.862L62.6 33.862L62.68 33.982L62.58 34.922L59.88 34.922L59.78 40.342Q59.76 41.142 60.06 41.462Q60.36 41.782 61.04 41.782ZM110.92 41.382Q110.14 41.782 109.48 41.782Q108.8 41.782 108.5 41.462Q108.2 41.142 108.22 40.342L108.32 34.922L111.02 34.922L111.12 33.982L111.04 33.862L108.32 33.862L108.36 31.922L108.2 31.782L106.82 32.382L106.82 33.862L105.6 33.862L105.5 34.802L105.58 34.922L106.84 34.922L106.86 39.062L106.8 40.482Q106.8 41.662 107.3 42.282Q107.8 42.902 108.94 43.122Q109.86 43.042 110.94 42.542L111.1 41.502L110.92 41.382ZM186.94 41.782Q187.6 41.782 188.38 41.382L188.56 41.502L188.4 42.542Q187.32 43.042 186.4 43.122Q185.26 42.902 184.76 42.282Q184.26 41.662 184.26 40.482L184.32 39.062L184.3 34.922L183.04 34.922L182.96 34.802L183.06 33.862L184.28 33.862L184.28 32.382L185.66 31.782L185.82 31.922L185.78 33.862L188.5 33.862L188.58 33.982L188.48 34.922L185.78 34.922L185.68 40.342Q185.66 41.142 185.96 41.462Q186.26 41.782 186.94 41.782ZM212.68 41.382Q211.9 41.782 211.24 41.782Q210.56 41.782 210.26 41.462Q209.96 41.142 209.98 40.342L210.08 34.922L212.78 34.922L212.88 33.982L212.8 33.862L210.08 33.862L210.12 31.922L209.96 31.782L208.58 32.382L208.58 33.862L207.36 33.862L207.26 34.802L207.34 34.922L208.6 34.922L208.62 39.062L208.56 40.482Q208.56 41.662 209.06 42.282Q209.56 42.902 210.7 43.122Q211.62 43.042 212.7 42.542L212.86 41.502L212.68 41.382ZM9.72 38.402L9.72 38.362L15.46 38.342L15.66 38.142Q15.74 37.662 15.74 37.122Q15.74 35.502 14.86 34.592Q13.98 33.682 12.38 33.682Q10.48 33.682 9.36 34.982Q8.24 36.282 8.24 38.482Q8.24 40.662 9.36 41.912Q10.48 43.162 12.44 43.162Q13.84 43.162 15.24 42.482L15.48 41.122L15.32 41.002Q14.74 41.422 14.04 41.652Q13.34 41.882 12.64 41.882Q11.24 41.882 10.48 40.982Q9.72 40.082 9.72 38.402ZM25.06 33.722L25.22 33.822L25.08 39.022L25.2 46.702L23.64 46.702L23.7 42.302L23.7 41.922L23.54 41.922Q23 42.362 22.55 42.622Q22.1 42.882 21.48 43.102Q19.54 43.102 18.5 41.892Q17.46 40.682 17.46 38.502Q17.46 36.182 18.63 34.932Q19.8 33.682 21.88 33.682Q23.02 33.682 24.26 34.042L25.06 33.722ZM39.34 38.362L39.34 38.402Q39.34 40.082 40.1 40.982Q40.86 41.882 42.26 41.882Q42.96 41.882 43.66 41.652Q44.36 41.422 44.94 41.002L45.1 41.122L44.86 42.482Q43.46 43.162 42.06 43.162Q40.1 43.162 38.98 41.912Q37.86 40.662 37.86 38.482Q37.86 36.282 38.98 34.982Q40.1 33.682 42 33.682Q43.6 33.682 44.48 34.592Q45.36 35.502 45.36 37.122Q45.36 37.662 45.28 38.142L45.08 38.342L39.34 38.362ZM72.4 33.682Q73.7 33.682 74.45 34.322Q75.2 34.962 75.2 36.082Q75.2 36.422 75.08 38.542Q74.96 40.662 74.96 41.022Q74.96 41.462 75.1 41.632Q75.24 41.802 75.58 41.802Q75.88 41.802 76.26 41.682L76.42 41.822L76.26 42.722Q75.68 43.062 75.12 43.122Q74.5 43.062 74.13 42.682Q73.76 42.302 73.74 41.642L73.6 41.642Q72.52 42.742 71.46 43.142Q70.12 43.142 69.37 42.472Q68.62 41.802 68.62 40.642Q68.62 39.762 69.09 39.242Q69.56 38.722 70.48 38.502L73.72 37.742L73.74 36.442Q73.74 35.662 73.33 35.242Q72.92 34.822 72.16 34.822Q71.48 34.822 70.8 35.142Q70.12 35.462 69.34 36.142L69.18 36.062L68.98 34.922Q70.64 33.682 72.4 33.682ZM113.7 38.362L113.7 38.402Q113.7 40.082 114.46 40.982Q115.22 41.882 116.62 41.882Q117.32 41.882 118.02 41.652Q118.72 41.422 119.3 41.002L119.46 41.122L119.22 42.482Q117.82 43.162 116.42 43.162Q114.46 43.162 113.34 41.912Q112.22 40.662 112.22 38.482Q112.22 36.282 113.34 34.982Q114.46 33.682 116.36 33.682Q117.96 33.682 118.84 34.592Q119.72 35.502 119.72 37.122Q119.72 37.662 119.64 38.142L119.44 38.342L113.7 38.362ZM158.6 38.362L158.6 38.402Q158.6 40.082 159.36 40.982Q160.12 41.882 161.52 41.882Q162.22 41.882 162.92 41.652Q163.62 41.422 164.2 41.002L164.36 41.122L164.12 42.482Q162.72 43.162 161.32 43.162Q159.36 43.162 158.24 41.912Q157.12 40.662 157.12 38.482Q157.12 36.282 158.24 34.982Q159.36 33.682 161.26 33.682Q162.86 33.682 163.74 34.592Q164.62 35.502 164.62 37.122Q164.62 37.662 164.54 38.142L164.34 38.342L158.6 38.362ZM191.16 38.402L191.16 38.362L196.9 38.342L197.1 38.142Q197.18 37.662 197.18 37.122Q197.18 35.502 196.3 34.592Q195.42 33.682 193.82 33.682Q191.92 33.682 190.8 34.982Q189.68 36.282 189.68 38.482Q189.68 40.662 190.8 41.912Q191.92 43.162 193.88 43.162Q195.28 43.162 196.68 42.482L196.92 41.122L196.76 41.002Q196.18 41.422 195.48 41.652Q194.78 41.882 194.08 41.882Q192.68 41.882 191.92 40.982Q191.16 40.082 191.16 38.402ZM6.3 34.142Q5.24 33.702 4.1 33.702Q2.64 33.702 1.79 34.442Q0.94 35.182 0.94 36.342Q0.94 37.082 1.28 37.582Q1.62 38.082 2.1 38.372Q2.58 38.662 3.36 39.022Q4.26 39.442 4.69 39.772Q5.12 40.102 5.12 40.642Q5.12 41.202 4.66 41.612Q4.2 42.022 3.46 42.022Q2.88 42.022 2.23 41.762Q1.58 41.502 1.02 41.022L0.84 41.142L0.64 42.502Q1.9 43.162 3.3 43.162Q4.32 43.162 5.06 42.772Q5.8 42.382 6.18 41.742Q6.56 41.102 6.56 40.362Q6.56 39.662 6.22 39.182Q5.88 38.702 5.41 38.412Q4.94 38.122 4.16 37.762Q3.26 37.342 2.83 37.012Q2.4 36.682 2.4 36.142Q2.4 35.602 2.82 35.222Q3.24 34.842 3.92 34.842Q4.84 34.842 5.84 35.502L6.08 35.442L6.3 34.142ZM53.24 35.502Q53.64 35.962 53.62 36.782L53.52 43.002L55.12 43.002L55.04 39.022L55.08 36.422Q55.1 35.122 54.31 34.422Q53.52 33.722 52.02 33.722Q50.72 34.042 49.48 35.142L49.36 35.142L49.36 33.802L47.86 33.942L47.94 39.122L47.84 43.002L49.42 43.002L49.34 38.982L49.34 36.462Q50.8 35.042 52.06 35.042Q52.84 35.042 53.24 35.502ZM102.06 36.782Q102.08 35.962 101.68 35.502Q101.28 35.042 100.5 35.042Q99.24 35.042 97.78 36.462L97.78 38.982L97.86 43.002L96.28 43.002L96.38 39.122L96.3 33.942L97.8 33.802L97.8 35.142L97.92 35.142Q99.16 34.042 100.46 33.722Q101.96 33.722 102.75 34.422Q103.54 35.122 103.52 36.422L103.48 39.022L103.56 43.002L101.96 43.002L102.06 36.782ZM144.22 36.782Q144.24 35.962 143.84 35.502Q143.44 35.042 142.66 35.042Q141.4 35.042 139.94 36.462L139.94 38.982L140.02 43.002L138.44 43.002L138.54 39.122L138.46 33.942L139.96 33.802L139.96 35.142L140.08 35.142Q141.32 34.042 142.62 33.722Q144.12 33.722 144.91 34.422Q145.7 35.122 145.68 36.422L145.64 39.022L145.72 43.002L144.12 43.002L144.22 36.782ZM200.62 34.642L202.52 37.422L204.26 34.662L204.72 33.842L206.2 33.842L203.34 38.322L206.4 42.922L204.72 43.082L204.28 42.142L202.32 39.242L200.4 42.222L200 43.002L198.52 43.002L201.46 38.342L198.54 33.902L200.24 33.782L200.62 34.642ZM36.46 42.722L36.62 41.822L36.46 41.682Q36.08 41.802 35.76 41.802Q35.44 41.802 35.31 41.632Q35.18 41.462 35.18 41.042L35.28 33.802L33.76 33.942L33.76 40.582Q32.52 41.782 31.28 41.782Q30.52 41.782 30.13 41.322Q29.74 40.862 29.74 40.042L29.86 33.802L28.26 33.942L28.32 37.882L28.3 40.422Q28.28 41.722 29.05 42.422Q29.82 43.122 31.3 43.122Q32.58 42.802 33.78 41.722L33.9 41.722Q34.04 42.382 34.39 42.712Q34.74 43.042 35.32 43.122Q35.88 43.062 36.46 42.722ZM64.58 33.942L64.64 39.122L64.56 43.002L66.12 43.002L66.08 38.982L66.12 33.802L64.58 33.942ZM91.48 33.942L91.54 39.122L91.46 43.002L93.02 43.002L92.98 38.982L93.02 33.802L91.48 33.942ZM126.92 33.862Q126.64 33.822 126.4 33.822Q125.74 33.822 125.06 34.252Q124.38 34.682 123.82 35.682L123.7 35.682L123.72 33.802L122.22 33.942L122.3 39.122L122.2 43.002L123.78 43.002L123.68 38.982L123.7 37.582Q124.24 36.422 124.79 35.892Q125.34 35.362 126 35.362Q126.4 35.362 126.74 35.462L126.92 35.402L126.92 33.862ZM133.64 33.942L133.7 39.122L133.62 43.002L135.18 43.002L135.14 38.982L135.18 33.802L133.64 33.942ZM156.12 42.722Q153.66 39.902 152.28 38.042L155.88 33.842L154.08 33.842L153.56 34.662L150.7 38.042L150.7 38.182Q152.24 40.422 154.5 43.102L154.7 43.182Q154.84 43.162 155.29 43.092Q155.74 43.022 156.12 42.902L156.12 42.722ZM10.71 35.452Q11.38 34.802 12.38 34.802Q13.3 34.802 13.79 35.352Q14.28 35.902 14.28 36.922L14.24 37.202L9.82 37.282Q10.04 36.102 10.71 35.452ZM42 34.802Q41 34.802 40.33 35.452Q39.66 36.102 39.44 37.282L43.86 37.202L43.9 36.922Q43.9 35.902 43.41 35.352Q42.92 34.802 42 34.802ZM116.36 34.802Q115.36 34.802 114.69 35.452Q114.02 36.102 113.8 37.282L118.22 37.202L118.26 36.922Q118.26 35.902 117.77 35.352Q117.28 34.802 116.36 34.802ZM161.26 34.802Q160.26 34.802 159.59 35.452Q158.92 36.102 158.7 37.282L163.12 37.202L163.16 36.922Q163.16 35.902 162.67 35.352Q162.18 34.802 161.26 34.802ZM168.58 35.672Q169.32 34.802 170.6 34.802Q171.48 34.802 172.54 35.302L172.6 39.102L172.56 40.542Q171.98 41.202 171.45 41.482Q170.92 41.762 170.36 41.762Q169.18 41.762 168.51 40.822Q167.84 39.882 167.84 38.182Q167.84 36.542 168.58 35.672ZM192.15 35.452Q192.82 34.802 193.82 34.802Q194.74 34.802 195.23 35.352Q195.72 35.902 195.72 36.922L195.68 37.202L191.26 37.282Q191.48 36.102 192.15 35.452ZM21.7 34.822Q20.42 34.822 19.69 35.682Q18.96 36.542 18.96 38.242Q18.96 39.902 19.61 40.832Q20.26 41.762 21.4 41.762Q21.98 41.762 22.53 41.482Q23.08 41.202 23.7 40.542L23.72 39.182L23.66 35.362Q22.62 34.822 21.7 34.822ZM70.8 39.462Q70.4 39.582 70.22 39.792Q70.04 40.002 70.04 40.422Q70.04 41.082 70.41 41.452Q70.78 41.822 71.4 41.822Q72.5 41.822 73.64 40.402L73.7 38.762L70.8 39.462ZM84.5 41.262Q85.34 41.782 85.34 42.602Q85.34 43.902 83.46 45.282L82.92 44.782L82.92 44.642Q84.02 43.782 84.02 42.882Q84.02 42.342 83.4 41.942L83.4 41.782Q83.96 41.402 84.5 41.262Z" />
    </g>
  </g>
  <g id="Enhanced-Web-Books:-sequential" transform="translate(17.99998 150.1663)">
    <g id="Enhanced-Web-Books:">
      <path d="M27.04 10.91Q27.44 11.37 27.42 12.19L27.32 18.41L28.92 18.41L28.84 14.43L28.88 11.83Q28.9 10.53 28.12 9.83Q27.34 9.13 25.82 9.13Q24.52 9.45 23.28 10.55L23.16 10.55L23.24 4.37L21.66 4.51L21.76 14.51L21.64 18.41L23.22 18.41L23.12 14.39L23.16 11.87Q24.54 10.45 25.86 10.45Q26.64 10.45 27.04 10.91ZM75.3 14.39L75.36 16.45Q75.38 16.87 75.5 17.04Q75.62 17.21 75.94 17.21Q76.26 17.21 76.62 17.09L76.78 17.23L76.62 18.13Q76.08 18.47 75.5 18.53Q74.88 18.47 74.53 18.11Q74.18 17.75 74.1 17.13L73.96 17.13Q73.36 17.65 72.88 17.96Q72.4 18.27 71.78 18.51Q69.8 18.51 68.74 17.3Q67.68 16.09 67.68 13.85Q67.68 11.59 68.86 10.34Q70.04 9.09 72.12 9.09Q73.06 9.09 73.88 9.29L73.86 4.51L75.44 4.37L75.3 14.39ZM116.09 10.3Q115.18 9.15 113.44 9.15Q112.72 9.35 112.16 9.65Q111.6 9.95 110.92 10.51L110.8 10.51L110.86 4.37L109.28 4.51L109.38 14.57L109.26 18.47L109.54 18.63L110.64 18.13Q111.64 18.57 112.6 18.57Q114.68 18.57 115.84 17.26Q117 15.95 117 13.55Q117 11.45 116.09 10.3ZM154.8 18.41L154.7 14.39L154.82 4.37L153.24 4.51L153.34 14.51L153.22 18.41L154.8 18.41ZM128.4 11.73Q131.12 12.27 131.12 14.83Q131.12 16.65 129.8 17.57Q128.48 18.49 125.86 18.49Q124.1 18.49 123.04 18.41L123.02 18.41L123.12 14.55L123.02 5.59L126.58 5.57Q128.38 5.57 129.35 6.37Q130.32 7.17 130.32 8.69Q130.32 9.77 129.82 10.55Q129.32 11.33 128.4 11.73ZM9.18 17.17L9.06 18.41L1.86 18.41L1.96 14.55L1.86 5.59L9.08 5.59L9.16 5.75L9.04 6.99L6.02 6.93L3.48 6.97L3.44 11.17L5.84 11.21L7.96 11.15L8.08 11.29L7.94 12.53L5.7 12.49L3.42 12.51L3.4 14.41L3.46 17.07L6 17.09L9.08 17.01L9.18 17.17ZM91.94 18.41L93.6 18.41L98.2 5.59L96.68 5.59L96.38 6.91L92.9 16.63L92.78 16.63L89.62 6.97L89.32 5.59L87.68 5.59L88.76 8.83L86 16.63L85.86 16.63L82.74 6.83L82.52 5.59L80.92 5.59L85 18.41L86.66 18.41L89.3 10.97L89.44 10.97L91.94 18.41ZM128.68 8.87Q128.68 7.83 128.11 7.36Q127.54 6.89 126.26 6.89L124.64 6.89L124.6 11.19L126.8 11.25Q128.68 10.81 128.68 8.87ZM34.98 9.09Q36.28 9.09 37.03 9.73Q37.78 10.37 37.78 11.49Q37.78 11.83 37.66 13.95Q37.54 16.07 37.54 16.43Q37.54 16.87 37.68 17.04Q37.82 17.21 38.16 17.21Q38.46 17.21 38.84 17.09L39 17.23L38.84 18.13Q38.26 18.47 37.7 18.53Q37.08 18.47 36.71 18.09Q36.34 17.71 36.32 17.05L36.18 17.05Q35.1 18.15 34.04 18.55Q32.7 18.55 31.95 17.88Q31.2 17.21 31.2 16.05Q31.2 15.17 31.67 14.65Q32.14 14.13 33.06 13.91L36.3 13.15L36.32 11.85Q36.32 11.07 35.91 10.65Q35.5 10.23 34.74 10.23Q34.06 10.23 33.38 10.55Q32.7 10.87 31.92 11.55L31.76 11.47L31.56 10.33Q33.22 9.09 34.98 9.09ZM54.82 9.09Q55.44 9.09 56.11 9.24Q56.78 9.39 57.28 9.63L57 11.01L56.82 11.07Q55.78 10.39 54.76 10.39Q53.58 10.39 52.92 11.29Q52.26 12.19 52.26 13.81Q52.26 15.43 52.95 16.36Q53.64 17.29 54.86 17.29Q55.4 17.29 55.99 17.11Q56.58 16.93 57.1 16.61L57.28 16.71L57.1 18.05Q55.88 18.57 54.66 18.57Q52.84 18.57 51.8 17.32Q50.76 16.07 50.76 13.89Q50.76 11.67 51.85 10.38Q52.94 9.09 54.82 9.09ZM59.94 13.81L59.94 13.77L65.68 13.75L65.88 13.55Q65.96 13.07 65.96 12.53Q65.96 10.91 65.08 10Q64.2 9.09 62.6 9.09Q60.7 9.09 59.58 10.39Q58.46 11.69 58.46 13.89Q58.46 16.07 59.58 17.32Q60.7 18.57 62.66 18.57Q64.06 18.57 65.46 17.89L65.7 16.53L65.54 16.41Q64.96 16.83 64.26 17.06Q63.56 17.29 62.86 17.29Q61.46 17.29 60.7 16.39Q59.94 15.49 59.94 13.81ZM100.68 13.77L100.68 13.81Q100.68 15.49 101.44 16.39Q102.2 17.29 103.6 17.29Q104.3 17.29 105 17.06Q105.7 16.83 106.28 16.41L106.44 16.53L106.2 17.89Q104.8 18.57 103.4 18.57Q101.44 18.57 100.32 17.32Q99.2 16.07 99.2 13.89Q99.2 11.69 100.32 10.39Q101.44 9.09 103.34 9.09Q104.94 9.09 105.82 10Q106.7 10.91 106.7 12.53Q106.7 13.07 106.62 13.55L106.42 13.75L100.68 13.77ZM139.81 10.3Q138.78 9.09 136.92 9.09Q134.92 9.09 133.83 10.36Q132.74 11.63 132.74 13.95Q132.74 16.15 133.77 17.36Q134.8 18.57 136.68 18.57Q138.68 18.57 139.76 17.3Q140.84 16.03 140.84 13.71Q140.84 11.51 139.81 10.3ZM146.74 9.09Q148.6 9.09 149.63 10.3Q150.66 11.51 150.66 13.71Q150.66 16.03 149.58 17.3Q148.5 18.57 146.5 18.57Q144.62 18.57 143.59 17.36Q142.56 16.15 142.56 13.95Q142.56 11.63 143.65 10.36Q144.74 9.09 146.74 9.09ZM164.76 9.11Q165.9 9.11 166.96 9.55L166.74 10.85L166.5 10.91Q165.5 10.25 164.58 10.25Q163.9 10.25 163.48 10.63Q163.06 11.01 163.06 11.55Q163.06 12.09 163.49 12.42Q163.92 12.75 164.82 13.17Q165.6 13.53 166.07 13.82Q166.54 14.11 166.88 14.59Q167.22 15.07 167.22 15.77Q167.22 16.51 166.84 17.15Q166.46 17.79 165.72 18.18Q164.98 18.57 163.96 18.57Q162.56 18.57 161.3 17.91L161.5 16.55L161.68 16.43Q162.24 16.91 162.89 17.17Q163.54 17.43 164.12 17.43Q164.86 17.43 165.32 17.02Q165.78 16.61 165.78 16.05Q165.78 15.51 165.35 15.18Q164.92 14.85 164.02 14.43Q163.24 14.07 162.76 13.78Q162.28 13.49 161.94 12.99Q161.6 12.49 161.6 11.75Q161.6 10.59 162.45 9.85Q163.3 9.11 164.76 9.11ZM17.02 12.19Q17.04 11.37 16.64 10.91Q16.24 10.45 15.46 10.45Q14.2 10.45 12.74 11.87L12.74 14.39L12.82 18.41L11.24 18.41L11.34 14.53L11.26 9.35L12.76 9.21L12.76 10.55L12.88 10.55Q14.12 9.45 15.42 9.13Q16.92 9.13 17.71 9.83Q18.5 10.53 18.48 11.83L18.44 14.43L18.52 18.41L16.92 18.41L17.02 12.19ZM46.6 10.91Q47 11.37 46.98 12.19L46.88 18.41L48.48 18.41L48.4 14.43L48.44 11.83Q48.46 10.53 47.67 9.83Q46.88 9.13 45.38 9.13Q44.08 9.45 42.84 10.55L42.72 10.55L42.72 9.21L41.22 9.35L41.3 14.53L41.2 18.41L42.78 18.41L42.7 14.39L42.7 11.87Q44.16 10.45 45.42 10.45Q46.2 10.45 46.6 10.91ZM160.5 18.13Q158.04 15.31 156.66 13.45L160.26 9.25L158.46 9.25L157.94 10.07L155.08 13.45L155.08 13.59Q156.62 15.83 158.88 18.51L159.08 18.59Q159.22 18.57 159.67 18.5Q160.12 18.43 160.5 18.31L160.5 18.13ZM60.93 10.86Q61.6 10.21 62.6 10.21Q63.52 10.21 64.01 10.76Q64.5 11.31 64.5 12.33L64.46 12.61L60.04 12.69Q60.26 11.51 60.93 10.86ZM71.94 10.21Q70.66 10.21 69.92 11.08Q69.18 11.95 69.18 13.59Q69.18 15.29 69.85 16.23Q70.52 17.17 71.7 17.17Q72.26 17.17 72.79 16.89Q73.32 16.61 73.9 15.95L73.94 14.51L73.88 10.71Q72.82 10.21 71.94 10.21ZM103.34 10.21Q102.34 10.21 101.67 10.86Q101 11.51 100.78 12.69L105.2 12.61L105.24 12.33Q105.24 11.31 104.75 10.76Q104.26 10.21 103.34 10.21ZM134.9 11.07Q135.56 10.21 136.82 10.21Q138.06 10.21 138.71 11.19Q139.36 12.17 139.36 14.07Q139.36 15.75 138.7 16.59Q138.04 17.43 136.78 17.43Q135.54 17.43 134.89 16.47Q134.24 15.51 134.24 13.59Q134.24 11.93 134.9 11.07ZM146.64 10.21Q145.38 10.21 144.72 11.07Q144.06 11.93 144.06 13.59Q144.06 15.51 144.71 16.47Q145.36 17.43 146.6 17.43Q147.86 17.43 148.52 16.59Q149.18 15.75 149.18 14.07Q149.18 12.17 148.53 11.19Q147.88 10.21 146.64 10.21ZM114.76 16.51Q114.02 17.41 112.74 17.41Q111.78 17.41 110.82 16.77L110.76 14.39L110.78 11.85Q111.46 11.13 112.07 10.79Q112.68 10.45 113.3 10.45Q114.36 10.45 114.93 11.34Q115.5 12.23 115.5 13.85Q115.5 15.61 114.76 16.51ZM170.94 11.49Q170.7 11.25 170.3 11.25Q169.86 11.25 169.61 11.51Q169.36 11.77 169.36 12.19Q169.36 12.63 169.59 12.87Q169.82 13.11 170.24 13.11Q170.68 13.11 170.93 12.85Q171.18 12.59 171.18 12.15Q171.18 11.73 170.94 11.49ZM126.1 17.15Q127.74 17.15 128.62 16.53Q129.5 15.91 129.5 14.75Q129.5 12.79 127.04 12.51L124.58 12.53L124.56 14.41L124.62 17.09Q125.4 17.15 126.1 17.15ZM33.38 14.87Q32.98 14.99 32.8 15.2Q32.62 15.41 32.62 15.83Q32.62 16.49 32.99 16.86Q33.36 17.23 33.98 17.23Q35.08 17.23 36.22 15.81L36.28 14.17L33.38 14.87ZM170.94 16.89Q170.7 16.65 170.3 16.65Q169.86 16.65 169.61 16.91Q169.36 17.17 169.36 17.59Q169.36 18.03 169.59 18.27Q169.82 18.51 170.24 18.51Q170.68 18.51 170.93 18.25Q171.18 17.99 171.18 17.55Q171.18 17.13 170.94 16.89Z" />
    </g>
    <g id="sequential,-interlinked--text">
      <path d="M80.28 42.41L80.18 38.39L80.3 28.37L78.72 28.51L78.82 38.51L78.7 42.41L80.28 42.41ZM130.22 38.39L130.32 42.41L128.74 42.41L128.86 38.51L128.76 28.51L130.34 28.37L130.22 38.39ZM150.42 42.41L150.32 38.39L150.44 28.37L148.86 28.51L148.96 38.51L148.84 42.41L150.42 42.41ZM174.02 40.45L173.96 38.39L174.1 28.37L172.52 28.51L172.54 33.29Q171.72 33.09 170.78 33.09Q168.7 33.09 167.52 34.34Q166.34 35.59 166.34 37.85Q166.34 40.09 167.4 41.3Q168.46 42.51 170.44 42.51Q171.06 42.27 171.54 41.96Q172.02 41.65 172.62 41.13L172.76 41.13Q172.84 41.75 173.19 42.11Q173.54 42.47 174.16 42.53Q174.74 42.47 175.28 42.13L175.44 41.23L175.28 41.09Q174.92 41.21 174.6 41.21Q174.28 41.21 174.16 41.04Q174.04 40.87 174.02 40.45ZM66.02 29.39Q65.78 29.15 65.38 29.15Q64.94 29.15 64.69 29.41Q64.44 29.67 64.44 30.09Q64.44 30.53 64.67 30.77Q64.9 31.01 65.32 31.01Q65.76 31.01 66.01 30.75Q66.26 30.49 66.26 30.05Q66.26 29.63 66.02 29.39ZM92.92 29.39Q92.68 29.15 92.28 29.15Q91.84 29.15 91.59 29.41Q91.34 29.67 91.34 30.09Q91.34 30.53 91.57 30.77Q91.8 31.01 92.22 31.01Q92.66 31.01 92.91 30.75Q93.16 30.49 93.16 30.05Q93.16 29.63 92.92 29.39ZM135.08 29.39Q134.84 29.15 134.44 29.15Q134 29.15 133.75 29.41Q133.5 29.67 133.5 30.09Q133.5 30.53 133.73 30.77Q133.96 31.01 134.38 31.01Q134.82 31.01 135.07 30.75Q135.32 30.49 135.32 30.05Q135.32 29.63 135.08 29.39ZM61.04 41.19Q61.7 41.19 62.48 40.79L62.66 40.91L62.5 41.95Q61.42 42.45 60.5 42.53Q59.36 42.31 58.86 41.69Q58.36 41.07 58.36 39.89L58.42 38.47L58.4 34.33L57.14 34.33L57.06 34.21L57.16 33.27L58.38 33.27L58.38 31.79L59.76 31.19L59.92 31.33L59.88 33.27L62.6 33.27L62.68 33.39L62.58 34.33L59.88 34.33L59.78 39.75Q59.76 40.55 60.06 40.87Q60.36 41.19 61.04 41.19ZM110.92 40.79Q110.14 41.19 109.48 41.19Q108.8 41.19 108.5 40.87Q108.2 40.55 108.22 39.75L108.32 34.33L111.02 34.33L111.12 33.39L111.04 33.27L108.32 33.27L108.36 31.33L108.2 31.19L106.82 31.79L106.82 33.27L105.6 33.27L105.5 34.21L105.58 34.33L106.84 34.33L106.86 38.47L106.8 39.89Q106.8 41.07 107.3 41.69Q107.8 42.31 108.94 42.53Q109.86 42.45 110.94 41.95L111.1 40.91L110.92 40.79ZM186.94 41.19Q187.6 41.19 188.38 40.79L188.56 40.91L188.4 41.95Q187.32 42.45 186.4 42.53Q185.26 42.31 184.76 41.69Q184.26 41.07 184.26 39.89L184.32 38.47L184.3 34.33L183.04 34.33L182.96 34.21L183.06 33.27L184.28 33.27L184.28 31.79L185.66 31.19L185.82 31.33L185.78 33.27L188.5 33.27L188.58 33.39L188.48 34.33L185.78 34.33L185.68 39.75Q185.66 40.55 185.96 40.87Q186.26 41.19 186.94 41.19ZM212.68 40.79Q211.9 41.19 211.24 41.19Q210.56 41.19 210.26 40.87Q209.96 40.55 209.98 39.75L210.08 34.33L212.78 34.33L212.88 33.39L212.8 33.27L210.08 33.27L210.12 31.33L209.96 31.19L208.58 31.79L208.58 33.27L207.36 33.27L207.26 34.21L207.34 34.33L208.6 34.33L208.62 38.47L208.56 39.89Q208.56 41.07 209.06 41.69Q209.56 42.31 210.7 42.53Q211.62 42.45 212.7 41.95L212.86 40.91L212.68 40.79ZM9.72 37.81L9.72 37.77L15.46 37.75L15.66 37.55Q15.74 37.07 15.74 36.53Q15.74 34.91 14.86 34Q13.98 33.09 12.38 33.09Q10.48 33.09 9.36 34.39Q8.24 35.69 8.24 37.89Q8.24 40.07 9.36 41.32Q10.48 42.57 12.44 42.57Q13.84 42.57 15.24 41.89L15.48 40.53L15.32 40.41Q14.74 40.83 14.04 41.06Q13.34 41.29 12.64 41.29Q11.24 41.29 10.48 40.39Q9.72 39.49 9.72 37.81ZM25.06 33.13L25.22 33.23L25.08 38.43L25.2 46.11L23.64 46.11L23.7 41.71L23.7 41.33L23.54 41.33Q23 41.77 22.55 42.03Q22.1 42.29 21.48 42.51Q19.54 42.51 18.5 41.3Q17.46 40.09 17.46 37.91Q17.46 35.59 18.63 34.34Q19.8 33.09 21.88 33.09Q23.02 33.09 24.26 33.45L25.06 33.13ZM39.34 37.77L39.34 37.81Q39.34 39.49 40.1 40.39Q40.86 41.29 42.26 41.29Q42.96 41.29 43.66 41.06Q44.36 40.83 44.94 40.41L45.1 40.53L44.86 41.89Q43.46 42.57 42.06 42.57Q40.1 42.57 38.98 41.32Q37.86 40.07 37.86 37.89Q37.86 35.69 38.98 34.39Q40.1 33.09 42 33.09Q43.6 33.09 44.48 34Q45.36 34.91 45.36 36.53Q45.36 37.07 45.28 37.55L45.08 37.75L39.34 37.77ZM72.4 33.09Q73.7 33.09 74.45 33.73Q75.2 34.37 75.2 35.49Q75.2 35.83 75.08 37.95Q74.96 40.07 74.96 40.43Q74.96 40.87 75.1 41.04Q75.24 41.21 75.58 41.21Q75.88 41.21 76.26 41.09L76.42 41.23L76.26 42.13Q75.68 42.47 75.12 42.53Q74.5 42.47 74.13 42.09Q73.76 41.71 73.74 41.05L73.6 41.05Q72.52 42.15 71.46 42.55Q70.12 42.55 69.37 41.88Q68.62 41.21 68.62 40.05Q68.62 39.17 69.09 38.65Q69.56 38.13 70.48 37.91L73.72 37.15L73.74 35.85Q73.74 35.07 73.33 34.65Q72.92 34.23 72.16 34.23Q71.48 34.23 70.8 34.55Q70.12 34.87 69.34 35.55L69.18 35.47L68.98 34.33Q70.64 33.09 72.4 33.09ZM113.7 37.77L113.7 37.81Q113.7 39.49 114.46 40.39Q115.22 41.29 116.62 41.29Q117.32 41.29 118.02 41.06Q118.72 40.83 119.3 40.41L119.46 40.53L119.22 41.89Q117.82 42.57 116.42 42.57Q114.46 42.57 113.34 41.32Q112.22 40.07 112.22 37.89Q112.22 35.69 113.34 34.39Q114.46 33.09 116.36 33.09Q117.96 33.09 118.84 34Q119.72 34.91 119.72 36.53Q119.72 37.07 119.64 37.55L119.44 37.75L113.7 37.77ZM158.6 37.77L158.6 37.81Q158.6 39.49 159.36 40.39Q160.12 41.29 161.52 41.29Q162.22 41.29 162.92 41.06Q163.62 40.83 164.2 40.41L164.36 40.53L164.12 41.89Q162.72 42.57 161.32 42.57Q159.36 42.57 158.24 41.32Q157.12 40.07 157.12 37.89Q157.12 35.69 158.24 34.39Q159.36 33.09 161.26 33.09Q162.86 33.09 163.74 34Q164.62 34.91 164.62 36.53Q164.62 37.07 164.54 37.55L164.34 37.75L158.6 37.77ZM191.16 37.81L191.16 37.77L196.9 37.75L197.1 37.55Q197.18 37.07 197.18 36.53Q197.18 34.91 196.3 34Q195.42 33.09 193.82 33.09Q191.92 33.09 190.8 34.39Q189.68 35.69 189.68 37.89Q189.68 40.07 190.8 41.32Q191.92 42.57 193.88 42.57Q195.28 42.57 196.68 41.89L196.92 40.53L196.76 40.41Q196.18 40.83 195.48 41.06Q194.78 41.29 194.08 41.29Q192.68 41.29 191.92 40.39Q191.16 39.49 191.16 37.81ZM6.3 33.55Q5.24 33.11 4.1 33.11Q2.64 33.11 1.79 33.85Q0.94 34.59 0.94 35.75Q0.94 36.49 1.28 36.99Q1.62 37.49 2.1 37.78Q2.58 38.07 3.36 38.43Q4.26 38.85 4.69 39.18Q5.12 39.51 5.12 40.05Q5.12 40.61 4.66 41.02Q4.2 41.43 3.46 41.43Q2.88 41.43 2.23 41.17Q1.58 40.91 1.02 40.43L0.84 40.55L0.64 41.91Q1.9 42.57 3.3 42.57Q4.32 42.57 5.06 42.18Q5.8 41.79 6.18 41.15Q6.56 40.51 6.56 39.77Q6.56 39.07 6.22 38.59Q5.88 38.11 5.41 37.82Q4.94 37.53 4.16 37.17Q3.26 36.75 2.83 36.42Q2.4 36.09 2.4 35.55Q2.4 35.01 2.82 34.63Q3.24 34.25 3.92 34.25Q4.84 34.25 5.84 34.91L6.08 34.85L6.3 33.55ZM53.24 34.91Q53.64 35.37 53.62 36.19L53.52 42.41L55.12 42.41L55.04 38.43L55.08 35.83Q55.1 34.53 54.31 33.83Q53.52 33.13 52.02 33.13Q50.72 33.45 49.48 34.55L49.36 34.55L49.36 33.21L47.86 33.35L47.94 38.53L47.84 42.41L49.42 42.41L49.34 38.39L49.34 35.87Q50.8 34.45 52.06 34.45Q52.84 34.45 53.24 34.91ZM102.06 36.19Q102.08 35.37 101.68 34.91Q101.28 34.45 100.5 34.45Q99.24 34.45 97.78 35.87L97.78 38.39L97.86 42.41L96.28 42.41L96.38 38.53L96.3 33.35L97.8 33.21L97.8 34.55L97.92 34.55Q99.16 33.45 100.46 33.13Q101.96 33.13 102.75 33.83Q103.54 34.53 103.52 35.83L103.48 38.43L103.56 42.41L101.96 42.41L102.06 36.19ZM144.22 36.19Q144.24 35.37 143.84 34.91Q143.44 34.45 142.66 34.45Q141.4 34.45 139.94 35.87L139.94 38.39L140.02 42.41L138.44 42.41L138.54 38.53L138.46 33.35L139.96 33.21L139.96 34.55L140.08 34.55Q141.32 33.45 142.62 33.13Q144.12 33.13 144.91 33.83Q145.7 34.53 145.68 35.83L145.64 38.43L145.72 42.41L144.12 42.41L144.22 36.19ZM200.62 34.05L202.52 36.83L204.26 34.07L204.72 33.25L206.2 33.25L203.34 37.73L206.4 42.33L204.72 42.49L204.28 41.55L202.32 38.65L200.4 41.63L200 42.41L198.52 42.41L201.46 37.75L198.54 33.31L200.24 33.19L200.62 34.05ZM36.46 42.13L36.62 41.23L36.46 41.09Q36.08 41.21 35.76 41.21Q35.44 41.21 35.31 41.04Q35.18 40.87 35.18 40.45L35.28 33.21L33.76 33.35L33.76 39.99Q32.52 41.19 31.28 41.19Q30.52 41.19 30.13 40.73Q29.74 40.27 29.74 39.45L29.86 33.21L28.26 33.35L28.32 37.29L28.3 39.83Q28.28 41.13 29.05 41.83Q29.82 42.53 31.3 42.53Q32.58 42.21 33.78 41.13L33.9 41.13Q34.04 41.79 34.39 42.12Q34.74 42.45 35.32 42.53Q35.88 42.47 36.46 42.13ZM64.58 33.35L64.64 38.53L64.56 42.41L66.12 42.41L66.08 38.39L66.12 33.21L64.58 33.35ZM91.48 33.35L91.54 38.53L91.46 42.41L93.02 42.41L92.98 38.39L93.02 33.21L91.48 33.35ZM126.92 33.27Q126.64 33.23 126.4 33.23Q125.74 33.23 125.06 33.66Q124.38 34.09 123.82 35.09L123.7 35.09L123.72 33.21L122.22 33.35L122.3 38.53L122.2 42.41L123.78 42.41L123.68 38.39L123.7 36.99Q124.24 35.83 124.79 35.3Q125.34 34.77 126 34.77Q126.4 34.77 126.74 34.87L126.92 34.81L126.92 33.27ZM133.64 33.35L133.7 38.53L133.62 42.41L135.18 42.41L135.14 38.39L135.18 33.21L133.64 33.35ZM156.12 42.13Q153.66 39.31 152.28 37.45L155.88 33.25L154.08 33.25L153.56 34.07L150.7 37.45L150.7 37.59Q152.24 39.83 154.5 42.51L154.7 42.59Q154.84 42.57 155.29 42.5Q155.74 42.43 156.12 42.31L156.12 42.13ZM10.71 34.86Q11.38 34.21 12.38 34.21Q13.3 34.21 13.79 34.76Q14.28 35.31 14.28 36.33L14.24 36.61L9.82 36.69Q10.04 35.51 10.71 34.86ZM42 34.21Q41 34.21 40.33 34.86Q39.66 35.51 39.44 36.69L43.86 36.61L43.9 36.33Q43.9 35.31 43.41 34.76Q42.92 34.21 42 34.21ZM116.36 34.21Q115.36 34.21 114.69 34.86Q114.02 35.51 113.8 36.69L118.22 36.61L118.26 36.33Q118.26 35.31 117.77 34.76Q117.28 34.21 116.36 34.21ZM161.26 34.21Q160.26 34.21 159.59 34.86Q158.92 35.51 158.7 36.69L163.12 36.61L163.16 36.33Q163.16 35.31 162.67 34.76Q162.18 34.21 161.26 34.21ZM168.58 35.08Q169.32 34.21 170.6 34.21Q171.48 34.21 172.54 34.71L172.6 38.51L172.56 39.95Q171.98 40.61 171.45 40.89Q170.92 41.17 170.36 41.17Q169.18 41.17 168.51 40.23Q167.84 39.29 167.84 37.59Q167.84 35.95 168.58 35.08ZM192.15 34.86Q192.82 34.21 193.82 34.21Q194.74 34.21 195.23 34.76Q195.72 35.31 195.72 36.33L195.68 36.61L191.26 36.69Q191.48 35.51 192.15 34.86ZM21.7 34.23Q20.42 34.23 19.69 35.09Q18.96 35.95 18.96 37.65Q18.96 39.31 19.61 40.24Q20.26 41.17 21.4 41.17Q21.98 41.17 22.53 40.89Q23.08 40.61 23.7 39.95L23.72 38.59L23.66 34.77Q22.62 34.23 21.7 34.23ZM70.8 38.87Q70.4 38.99 70.22 39.2Q70.04 39.41 70.04 39.83Q70.04 40.49 70.41 40.86Q70.78 41.23 71.4 41.23Q72.5 41.23 73.64 39.81L73.7 38.17L70.8 38.87ZM84.5 40.67Q85.34 41.19 85.34 42.01Q85.34 43.31 83.46 44.69L82.92 44.19L82.92 44.05Q84.02 43.19 84.02 42.29Q84.02 41.75 83.4 41.35L83.4 41.19Q83.96 40.81 84.5 40.67Z" />
    </g>
    <g id="with-interactive-elements">
      <path d="M32.16 60.782Q32.18 59.962 31.78 59.502Q31.38 59.042 30.6 59.042Q29.28 59.042 27.9 60.462L27.86 62.982L27.96 67.002L26.38 67.002L26.5 63.102L26.4 53.102L27.98 52.962L27.9 59.142L28.02 59.142Q29.26 58.042 30.56 57.722Q32.08 57.722 32.86 58.422Q33.64 59.122 33.62 60.422L33.58 63.022L33.66 67.002L32.06 67.002L32.16 60.782ZM137.24 67.002L137.14 62.982L137.26 52.962L135.68 53.102L135.78 63.102L135.66 67.002L137.24 67.002ZM15.92 53.742Q16.32 53.742 16.56 53.982Q16.8 54.222 16.8 54.642Q16.8 55.082 16.55 55.342Q16.3 55.602 15.86 55.602Q15.44 55.602 15.21 55.362Q14.98 55.122 14.98 54.682Q14.98 54.262 15.23 54.002Q15.48 53.742 15.92 53.742ZM41.48 53.982Q41.24 53.742 40.84 53.742Q40.4 53.742 40.15 54.002Q39.9 54.262 39.9 54.682Q39.9 55.122 40.13 55.362Q40.36 55.602 40.78 55.602Q41.22 55.602 41.47 55.342Q41.72 55.082 41.72 54.642Q41.72 54.222 41.48 53.982ZM102.02 53.982Q101.78 53.742 101.38 53.742Q100.94 53.742 100.69 54.002Q100.44 54.262 100.44 54.682Q100.44 55.122 100.67 55.362Q100.9 55.602 101.32 55.602Q101.76 55.602 102.01 55.342Q102.26 55.082 102.26 54.642Q102.26 54.222 102.02 53.982ZM24.24 65.382Q23.46 65.782 22.8 65.782Q22.12 65.782 21.82 65.462Q21.52 65.142 21.54 64.3419L21.64 58.922L24.34 58.922L24.44 57.982L24.36 57.862L21.64 57.862L21.68 55.922L21.52 55.782L20.14 56.382L20.14 57.862L18.92 57.862L18.82 58.802L18.9 58.922L20.16 58.922L20.18 63.062L20.12 64.482Q20.12 65.662 20.62 66.282Q21.12 66.902 22.26 67.122Q23.18 67.042 24.26 66.542L24.42 65.502L24.24 65.382ZM59.48 65.382Q58.7 65.782 58.04 65.782Q57.36 65.782 57.06 65.462Q56.76 65.142 56.78 64.3419L56.88 58.922L59.58 58.922L59.68 57.982L59.6 57.862L56.88 57.862L56.92 55.922L56.76 55.782L55.38 56.382L55.38 57.862L54.16 57.862L54.06 58.802L54.14 58.922L55.4 58.922L55.42 63.062L55.36 64.482Q55.36 65.662 55.86 66.282Q56.36 66.902 57.5 67.122Q58.42 67.042 59.5 66.542L59.66 65.502L59.48 65.382ZM97.04 65.782Q97.7 65.782 98.48 65.382L98.66 65.502L98.5 66.542Q97.42 67.042 96.5 67.122Q95.36 66.902 94.86 66.282Q94.36 65.662 94.36 64.482L94.42 63.062L94.4 58.922L93.14 58.922L93.06 58.802L93.16 57.862L94.38 57.862L94.38 56.382L95.76 55.782L95.92 55.922L95.88 57.862L98.6 57.862L98.68 57.982L98.58 58.922L95.88 58.922L95.78 64.3419Q95.76 65.142 96.06 65.462Q96.36 65.782 97.04 65.782ZM188.16 65.782Q188.82 65.782 189.6 65.382L189.78 65.502L189.62 66.542Q188.54 67.042 187.62 67.122Q186.48 66.902 185.98 66.282Q185.48 65.662 185.48 64.482L185.54 63.062L185.52 58.922L184.26 58.922L184.18 58.802L184.28 57.862L185.5 57.862L185.5 56.382L186.88 55.782L187.04 55.922L187 57.862L189.72 57.862L189.8 57.982L189.7 58.922L187 58.922L186.9 64.3419Q186.88 65.142 187.18 65.462Q187.48 65.782 188.16 65.782ZM62.26 62.362L62.26 62.402Q62.26 64.082 63.02 64.982Q63.78 65.882 65.18 65.882Q65.88 65.882 66.58 65.652Q67.28 65.422 67.86 65.002L68.02 65.122L67.78 66.482Q66.38 67.162 64.98 67.162Q63.02 67.162 61.9 65.912Q60.78 64.662 60.78 62.482Q60.78 60.282 61.9 58.982Q63.02 57.682 64.92 57.682Q66.52 57.682 67.4 58.592Q68.28 59.502 68.28 61.122Q68.28 61.662 68.2 62.142L68 62.342L62.26 62.362ZM80.24 57.682Q81.54 57.682 82.29 58.322Q83.04 58.962 83.04 60.082Q83.04 60.422 82.92 62.542Q82.8 64.6619 82.8 65.0219Q82.8 65.462 82.94 65.632Q83.08 65.802 83.42 65.802Q83.72 65.802 84.1 65.682L84.26 65.822L84.1 66.722Q83.52 67.062 82.96 67.122Q82.34 67.062 81.97 66.682Q81.6 66.302 81.58 65.642L81.44 65.642Q80.36 66.742 79.3 67.142Q77.96 67.142 77.21 66.472Q76.46 65.802 76.46 64.642Q76.46 63.762 76.93 63.242Q77.4 62.722 78.32 62.502L81.56 61.742L81.58 60.442Q81.58 59.662 81.17 59.242Q80.76 58.822 80 58.822Q79.32 58.822 78.64 59.142Q77.96 59.462 77.18 60.142L77.02 60.062L76.82 58.922Q78.48 57.682 80.24 57.682ZM91.05 57.832Q90.38 57.682 89.76 57.682Q87.88 57.682 86.79 58.972Q85.7 60.262 85.7 62.482Q85.7 64.662 86.74 65.912Q87.78 67.162 89.6 67.162Q90.82 67.162 92.04 66.642L92.22 65.302L92.04 65.202Q91.52 65.5219 90.93 65.702Q90.34 65.882 89.8 65.882Q88.58 65.882 87.89 64.952Q87.2 64.0219 87.2 62.402Q87.2 60.782 87.86 59.882Q88.52 58.982 89.7 58.982Q90.72 58.982 91.76 59.662L91.94 59.602L92.22 58.222Q91.72 57.982 91.05 57.832ZM114.56 62.402L114.56 62.362L120.3 62.342L120.5 62.142Q120.58 61.662 120.58 61.122Q120.58 59.502 119.7 58.592Q118.82 57.682 117.22 57.682Q115.32 57.682 114.2 58.982Q113.08 60.282 113.08 62.482Q113.08 64.662 114.2 65.912Q115.32 67.162 117.28 67.162Q118.68 67.162 120.08 66.482L120.32 65.122L120.16 65.002Q119.58 65.422 118.88 65.652Q118.18 65.882 117.48 65.882Q116.08 65.882 115.32 64.982Q114.56 64.082 114.56 62.402ZM127.08 62.362L127.08 62.402Q127.08 64.082 127.84 64.982Q128.6 65.882 130 65.882Q130.7 65.882 131.4 65.652Q132.1 65.422 132.68 65.002L132.84 65.122L132.6 66.482Q131.2 67.162 129.8 67.162Q127.84 67.162 126.72 65.912Q125.6 64.662 125.6 62.482Q125.6 60.282 126.72 58.982Q127.84 57.682 129.74 57.682Q131.34 57.682 132.22 58.592Q133.1 59.502 133.1 61.122Q133.1 61.662 133.02 62.142L132.82 62.342L127.08 62.362ZM141.24 62.362L141.24 62.402Q141.24 64.082 142 64.982Q142.76 65.882 144.16 65.882Q144.86 65.882 145.56 65.652Q146.26 65.422 146.84 65.002L147 65.122L146.76 66.482Q145.36 67.162 143.96 67.162Q142 67.162 140.88 65.912Q139.76 64.662 139.76 62.482Q139.76 60.282 140.88 58.982Q142 57.682 143.9 57.682Q145.5 57.682 146.38 58.592Q147.26 59.502 147.26 61.122Q147.26 61.662 147.18 62.142L146.98 62.342L141.24 62.362ZM166.46 62.362L166.46 62.402Q166.46 64.082 167.22 64.982Q167.98 65.882 169.38 65.882Q170.08 65.882 170.78 65.652Q171.48 65.422 172.06 65.002L172.22 65.122L171.98 66.482Q170.58 67.162 169.18 67.162Q167.22 67.162 166.1 65.912Q164.98 64.662 164.98 62.482Q164.98 60.282 166.1 58.982Q167.22 57.682 169.12 57.682Q170.72 57.682 171.6 58.592Q172.48 59.502 172.48 61.122Q172.48 61.662 172.4 62.142L172.2 62.342L166.46 62.362ZM196.36 58.142Q195.3 57.702 194.16 57.702Q192.7 57.702 191.85 58.442Q191 59.182 191 60.342Q191 61.082 191.34 61.582Q191.68 62.082 192.16 62.372Q192.64 62.662 193.42 63.022Q194.32 63.442 194.75 63.772Q195.18 64.102 195.18 64.642Q195.18 65.202 194.72 65.612Q194.26 66.0219 193.52 66.0219Q192.94 66.0219 192.29 65.762Q191.64 65.502 191.08 65.0219L190.9 65.142L190.7 66.502Q191.96 67.162 193.36 67.162Q194.38 67.162 195.12 66.7719Q195.86 66.382 196.24 65.742Q196.62 65.102 196.62 64.362Q196.62 63.662 196.28 63.182Q195.94 62.702 195.47 62.412Q195 62.122 194.22 61.762Q193.32 61.342 192.89 61.012Q192.46 60.682 192.46 60.142Q192.46 59.602 192.88 59.222Q193.3 58.842 193.98 58.842Q194.9 58.842 195.9 59.502L196.14 59.442L196.36 58.142ZM50.62 60.782Q50.64 59.962 50.24 59.502Q49.84 59.042 49.06 59.042Q47.8 59.042 46.34 60.462L46.34 62.982L46.42 67.002L44.84 67.002L44.94 63.122L44.86 57.942L46.36 57.802L46.36 59.142L46.48 59.142Q47.72 58.042 49.02 57.722Q50.52 57.722 51.31 58.422Q52.1 59.122 52.08 60.422L52.04 63.022L52.12 67.002L50.52 67.002L50.62 60.782ZM160.82 59.502Q161.22 59.962 161.2 60.782L161.1 67.002L162.7 67.002L162.62 63.022L162.66 60.422Q162.68 59.122 161.9 58.422Q161.12 57.722 159.6 57.722Q158.16 58.102 156.9 59.242L156.78 59.242Q156.48 58.502 155.76 58.112Q155.04 57.722 153.92 57.722Q152.62 58.042 151.38 59.142L151.26 59.142L151.26 57.802L149.76 57.942L149.84 63.122L149.74 67.002L151.32 67.002L151.24 62.982L151.24 60.462Q152.7 59.042 153.96 59.042Q154.74 59.042 155.14 59.502Q155.54 59.962 155.52 60.782L155.4 67.002L157.02 67.002L156.94 63.022L156.98 60.422Q158.36 59.042 159.64 59.042Q160.42 59.042 160.82 59.502ZM180.36 59.502Q180.76 59.962 180.74 60.782L180.64 67.002L182.24 67.002L182.16 63.022L182.2 60.422Q182.22 59.122 181.43 58.422Q180.64 57.722 179.14 57.722Q177.84 58.042 176.6 59.142L176.48 59.142L176.48 57.802L174.98 57.942L175.06 63.122L174.96 67.002L176.54 67.002L176.46 62.982L176.46 60.462Q177.92 59.042 179.18 59.042Q179.96 59.042 180.36 59.502ZM2.08 58.962L3.76 65.282L3.88 65.282L5.82 59.042L6.12 57.842L7.68 57.842L7.9 58.962L9.58 65.282L9.7 65.282L11.64 59.042L11.94 57.842L13.32 57.842L10.3 67.002L8.8 67.002L6.88 59.902L6.74 59.902L4.52 67.002L2.96 67.002L0.4 57.882L1.86 57.782L2.08 58.962ZM105.92 59.002L107.9 65.422L108.02 65.422L110.34 59.082L110.66 57.842L112.08 57.842L108.72 67.002L107.02 67.002L104.18 57.882L105.66 57.782L105.92 59.002ZM15.18 63.122L15.12 57.942L16.66 57.802L16.62 62.982L16.66 67.002L15.1 67.002L15.18 63.122ZM40.04 57.942L40.1 63.122L40.02 67.002L41.58 67.002L41.54 62.982L41.58 57.802L40.04 57.942ZM75.48 57.862Q75.2 57.822 74.96 57.822Q74.3 57.822 73.62 58.252Q72.94 58.682 72.38 59.682L72.26 59.682L72.28 57.802L70.78 57.942L70.86 63.122L70.76 67.002L72.34 67.002L72.24 62.982L72.26 61.582Q72.8 60.422 73.35 59.892Q73.9 59.362 74.56 59.362Q74.96 59.362 75.3 59.462L75.48 59.402L75.48 57.862ZM100.58 57.942L100.64 63.122L100.56 67.002L102.12 67.002L102.08 62.982L102.12 57.802L100.58 57.942ZM64.92 58.802Q63.92 58.802 63.25 59.452Q62.58 60.102 62.36 61.282L66.78 61.202L66.82 60.922Q66.82 59.902 66.33 59.352Q65.84 58.802 64.92 58.802ZM115.55 59.452Q116.22 58.802 117.22 58.802Q118.14 58.802 118.63 59.352Q119.12 59.902 119.12 60.922L119.08 61.202L114.66 61.282Q114.88 60.102 115.55 59.452ZM129.74 58.802Q128.74 58.802 128.07 59.452Q127.4 60.102 127.18 61.282L131.6 61.202L131.64 60.922Q131.64 59.902 131.15 59.352Q130.66 58.802 129.74 58.802ZM143.9 58.802Q142.9 58.802 142.23 59.452Q141.56 60.102 141.34 61.282L145.76 61.202L145.8 60.922Q145.8 59.902 145.31 59.352Q144.82 58.802 143.9 58.802ZM169.12 58.802Q168.12 58.802 167.45 59.452Q166.78 60.102 166.56 61.282L170.98 61.202L171.02 60.922Q171.02 59.902 170.53 59.352Q170.04 58.802 169.12 58.802ZM78.64 63.462Q78.24 63.582 78.06 63.792Q77.88 64.002 77.88 64.422Q77.88 65.082 78.25 65.452Q78.62 65.822 79.24 65.822Q80.34 65.822 81.48 64.402L81.54 62.762L78.64 63.462Z" />
    </g>
  </g>
  <path d="M0 450.5L89 298.5L91.5 0L0 120.5L0 450.5Z" transform="translate(336 16.66631)" id="New-shape" fill="#F5F6FA" stroke="#27262B" stroke-width="2" />
  <path d="M0 124L102.824 4.06557L427 0L333.8 124L0 124Z" transform="translate(1 15.16631)" id="New-shape-2" fill="#F5F6FA" stroke="#27262B" stroke-width="2" />
  <path d="M45.6663 9.28553L48.6273 7.46304L55.3176 3.50386L53.7628 2.93166L49.5613 5.52072L46.264 4.32178L43.0159 3.11182L47.3325 0.56514L45.7969 0L39.136 4.07192L36.184 5.7958L37.7004 6.35387L40.6422 4.52432L41.9961 3.72666L45.1399 4.86909L48.5416 6.13557L47.121 7.01065L44.1499 8.72745L45.6663 9.28553ZM55.4381 7.0283L52.8105 10.6626L52.9449 10.712L59.7671 8.72343L60.9998 8.25976L62.3626 8.76132L52.5862 11.5993C51.5864 11.8914 50.7092 12.0879 49.9546 12.1888C49.1999 12.2897 48.451 12.3125 47.7078 12.2574C46.9646 12.2023 46.0908 12.0676 45.0862 11.8532L44.9518 11.8038C44.8931 11.5783 44.9169 11.3589 45.0232 11.1457L45.1966 11.0784C46.3191 11.3459 47.2769 11.4922 48.0702 11.5171C48.8634 11.5421 49.8088 11.4411 50.9066 11.2141L54.5203 5.90427L56.0349 6.38887L55.4381 7.0283ZM69.8559 12.2762C69.8371 11.716 69.2775 11.2334 68.177 10.8284C67.6391 10.7178 67.116 10.6418 66.6078 10.6003C66.0995 10.5589 65.4765 10.5431 64.7386 10.5531L64.6043 10.5036L65.5982 9.92299L64.0344 9.4494L60.2463 11.8266L54.4666 15.2181L55.9638 15.7691L58.7148 14.0732C59.2006 14.3394 59.7123 14.5713 60.2497 14.7691Q62.3036 15.525 64.3992 15.3425C65.7962 15.2208 67.0946 14.7983 68.2944 14.075C69.3542 13.436 69.8746 12.8364 69.8559 12.2762ZM61.3115 14.3154C62.156 14.6262 63.0387 14.7277 63.9592 14.62C64.8798 14.5122 65.765 14.2022 66.6148 13.6898C67.4446 13.1895 67.8972 12.7396 67.9723 12.3402C68.0475 11.9407 67.746 11.6162 67.0678 11.3666C66.6711 11.2206 66.1926 11.127 65.6324 11.0859C65.0721 11.0447 64.3945 11.0526 63.5995 11.1094L61.6757 12.2507L59.8203 13.388C60.1874 13.7755 60.6844 14.0846 61.3115 14.3154ZM28.7256 15.0636C28.7516 15.2965 28.5533 15.5341 28.1306 15.7765L23.3706 18.5532L24.9062 19.1184L27.8138 17.2908L29.8017 16.1295C30.4644 15.7424 30.7179 15.3503 30.5624 14.9533Q30.3291 14.3578 28.8895 13.828C27.8977 13.6183 26.7302 13.5333 25.387 13.5728L25.2718 13.5304L26.2766 12.9246L24.732 12.4581L20.9246 14.8282L17.9193 16.547L19.4357 17.105L22.3732 15.2594L24.2628 14.1201C25.9068 14.0359 27.1319 14.1422 27.9381 14.4389C28.4371 14.6226 28.6997 14.8308 28.7256 15.0636ZM71.1814 15.2976L71.1514 15.3157C70.3116 15.822 69.9099 16.3003 69.9463 16.7505C69.9826 17.2007 70.4487 17.5907 71.3445 17.9203C71.7924 18.0852 72.2977 18.2153 72.8606 18.3108C73.4234 18.4064 73.9954 18.4591 74.5764 18.4691L74.64 18.5799L73.3899 19.1099C72.1542 18.9852 71.0885 18.758 70.1927 18.4284C68.9386 17.9668 68.2657 17.4158 68.174 16.7754C68.0822 16.1349 68.5813 15.4861 69.671 14.8291C70.7708 14.166 72.0039 13.7704 73.3703 13.6424C74.7368 13.5143 76.0279 13.6739 77.2436 14.1213C78.2673 14.4981 78.8332 14.9272 78.9414 15.4087C79.0495 15.8902 78.6987 16.3751 77.8889 16.8633C77.6189 17.0261 77.3384 17.1704 77.0473 17.2962L76.7053 17.316L71.1814 15.2976ZM74.3135 14.3317C75.0671 14.2935 75.7638 14.3922 76.4037 14.6277C76.9923 14.8443 77.3059 15.0932 77.3445 15.3744C77.3831 15.6555 77.1474 15.9498 76.6375 16.2572L76.3892 16.3697L72.0871 14.8446C72.8177 14.5408 73.5599 14.3698 74.3135 14.3317ZM86.7744 17.731C86.928 17.7875 87.0844 17.8548 87.2435 17.9327L86.0888 18.629L85.871 18.5925C85.7035 18.4823 85.4917 18.3801 85.2358 18.2859C84.8135 18.1305 84.2939 18.0679 83.6771 18.0981C83.0602 18.1284 82.2891 18.2547 81.3637 18.4772L80.2948 19.103L77.3764 20.9558L75.86 20.3977L78.8653 18.6789L82.6727 16.3088L84.2173 16.7753L82.7884 17.6182L82.9036 17.6606C83.7618 17.4911 84.5159 17.4216 85.1659 17.4521C85.816 17.4826 86.3522 17.5756 86.7744 17.731ZM39.9611 18.7545C39.9069 18.1473 39.2848 17.6247 38.0947 17.1867C36.8151 16.7158 35.5091 16.5434 34.1768 16.6695C32.8445 16.7956 31.5986 17.2082 30.4388 17.9075C29.339 18.5705 28.8162 19.2057 28.8704 19.8129C28.9245 20.4201 29.5531 20.9451 30.7559 21.3878C32.0356 21.8587 33.3384 22.03 34.6642 21.9015C35.9901 21.7731 37.2329 21.3592 38.3927 20.66C39.4925 19.9969 40.0152 19.3618 39.9611 18.7545ZM37.159 17.6578C36.3528 17.3611 35.5236 17.2646 34.6714 17.3684C33.8192 17.4722 32.9782 17.7742 32.1484 18.2746C31.1886 18.8532 30.6767 19.3638 30.6127 19.8062Q30.5167 20.4698 31.7068 20.9077C32.5129 21.2044 33.3371 21.3039 34.1793 21.2061C35.0215 21.1084 35.8625 20.8063 36.7023 20.3C37.6521 19.7274 38.164 19.2168 38.238 18.7684C38.312 18.32 37.9523 17.9498 37.159 17.6578ZM87.4208 23.4729C86.7218 23.4097 86.1611 23.3005 85.7388 23.1451C85.3038 22.9849 85.0702 22.8213 85.0382 22.6542C85.0062 22.4872 85.1966 22.2854 85.6093 22.049L89.7694 19.634L92.3607 20.5877L93.1615 20.198L93.1747 20.1155L90.5642 19.1548L92.0573 18.2919L92.0087 18.1721L90.2344 17.9559L89.1246 18.625L87.9537 18.194L87.1529 18.5837L87.1397 18.6662L88.349 19.1112L85.2638 20.99L84.1415 21.6107C83.5516 21.9664 83.2617 22.2965 83.2717 22.6011C83.2817 22.9057 83.5964 23.2254 84.2158 23.5601C84.8444 23.7527 85.6292 23.9007 86.5702 24.0043L87.5036 23.5907L87.4208 23.4729ZM47.4598 22.8903C47.8825 22.6479 48.0809 22.4103 48.0549 22.1774C48.0289 21.9446 47.7664 21.7363 47.2673 21.5527C46.4612 21.256 45.236 21.1497 43.592 21.2339L41.7025 22.3732L38.7649 24.2188L37.2485 23.6608L40.2538 21.942L44.0612 19.5719L45.6058 20.0384L44.601 20.6442L44.7162 20.6866C46.0595 20.6471 47.227 20.7321 48.2187 20.9418C49.1785 21.295 49.7361 21.6701 49.8916 22.0671C50.0472 22.4641 49.7937 22.8562 49.131 23.2433L47.143 24.4046L44.2355 26.2321L42.6999 25.667L47.4598 22.8903ZM10.8064 25.9421C10.8323 26.175 10.634 26.4126 10.2113 26.655L5.45133 29.4317L6.98694 29.9968L9.89447 28.1693L11.8825 27.008C12.5451 26.6209 12.8019 26.23 12.6527 25.8353C12.5035 25.4407 11.9427 25.0644 10.9702 24.7065Q9.48257 24.392 7.46767 24.4513L7.35249 24.4089L12.0633 21.6433L10.4419 21.1485L3.03951 25.7047L-1.5211e-05 27.4255L1.51638 27.9835L4.43473 26.1308L6.36273 25.0057C7.95551 24.9026 9.17422 25.0065 10.0188 25.3174C10.5179 25.501 10.7804 25.7093 10.8064 25.9421ZM92.3533 23.0895L92.3233 23.1076C91.4835 23.6139 91.0818 24.0922 91.1181 24.5424C91.1545 24.9926 91.6206 25.3826 92.5163 25.7123C92.9642 25.8771 93.4696 26.0073 94.0324 26.1028C94.5953 26.1983 95.1673 26.251 95.7483 26.261L95.8119 26.3718L94.5618 26.9019C93.3261 26.7771 92.2604 26.55 91.3646 26.2203C90.1105 25.7588 89.4376 25.2078 89.3459 24.5673C89.2541 23.9268 89.7531 23.2781 90.8429 22.621C91.9426 21.958 93.1757 21.5624 94.5422 21.4343C95.9087 21.3062 97.1998 21.4659 98.4154 21.9133C99.4392 22.29 100.005 22.7192 100.113 23.2007C100.221 23.6821 99.8706 24.167 99.0608 24.6553C98.7908 24.818 98.5103 24.9623 98.2192 25.0881L97.8772 25.1079L92.3533 23.0895ZM95.4856 22.1236C96.2392 22.0855 96.9359 22.1841 97.5758 22.4196C98.1644 22.6363 98.478 22.8851 98.5166 23.1663C98.5552 23.4474 98.3195 23.7417 97.8096 24.0491L97.5613 24.1616L93.2592 22.6366C93.9899 22.3327 94.732 22.1617 95.4856 22.1236ZM104.222 24.7491L103.961 26.677L107.7 26.0438L108.757 25.8356L110.177 26.3583L104.073 27.3735L103.561 30.534L101.828 30.0129L102.111 29.4325L102.404 27.4292L98.327 28.0982L97.3583 28.3096L95.9379 27.7868L102.254 26.7185L102.781 23.6799L104.502 24.2261L104.222 24.7491ZM54.5979 26.5075L55.3477 26.0554L55.3184 25.9427L50.1633 24.5406L49.4135 24.9926L49.4471 25.1215L54.5979 26.5075ZM20.6536 25.3726C20.9095 25.4668 21.0543 25.5783 21.0879 25.7072C21.1215 25.836 21.0333 25.9637 20.8233 26.0903C20.6034 26.2229 20.3484 26.299 20.0585 26.3185C19.7686 26.338 19.4829 26.2959 19.2013 26.1923C18.9326 26.0934 18.7846 25.9807 18.7574 25.8542C18.7303 25.7277 18.8267 25.5982 19.0466 25.4656C19.2565 25.339 19.5065 25.2659 19.7964 25.2465C20.0864 25.227 20.3721 25.269 20.6536 25.3726ZM64.2002 27.1292C63.742 26.7469 63.1482 26.4216 62.4188 26.1532C61.4846 25.8094 60.5606 25.6489 59.6469 25.6718C58.7331 25.6947 57.9862 25.8809 57.4064 26.2305C57.0364 26.4536 56.8353 26.6805 56.8029 26.9112C56.7705 27.142 56.8354 27.3576 56.9975 27.558C57.1597 27.7584 57.4003 28.0047 57.7194 28.2969C58.0853 28.6354 58.3233 28.905 58.4335 29.1057C58.5437 29.3065 58.4638 29.4882 58.1938 29.6509C57.9139 29.8197 57.5243 29.9117 57.025 29.927C56.5257 29.9423 56.0394 29.8627 55.5659 29.6885C55.1948 29.5519 54.8663 29.3679 54.5804 29.1365C54.2944 28.9051 54.0923 28.6511 53.974 28.3746L53.7112 28.3652L52.4995 28.9095C52.9757 29.4051 53.6617 29.8177 54.5575 30.1474C55.2101 30.3876 55.8707 30.536 56.5391 30.5927C57.2075 30.6494 57.8233 30.6261 58.3863 30.5227C58.9494 30.4192 59.4159 30.256 59.7858 30.033C60.1358 29.822 60.3219 29.6042 60.3443 29.3794C60.3667 29.1547 60.3001 28.9433 60.1443 28.7452C59.9885 28.5471 59.7511 28.302 59.432 28.0098C59.0661 27.6713 58.8281 27.4017 58.7179 27.201C58.6077 27.0003 58.6876 26.8186 58.9576 26.6558C59.2275 26.4931 59.5918 26.4039 60.0505 26.3882C60.5092 26.3726 60.9561 26.4449 61.3912 26.605C61.9798 26.8216 62.4291 27.1471 62.739 27.5815L63.0144 27.6392L64.2002 27.1292ZM109.061 31.7281C109.483 31.8835 110.044 31.9927 110.743 32.0559L110.825 32.1737L109.892 32.5873C108.951 32.4837 108.166 32.3357 107.538 32.1431C106.918 31.8084 106.603 31.4887 106.593 31.1841C106.583 30.8795 106.873 30.5494 107.463 30.1937L108.586 29.573L111.671 27.6942L110.461 27.2492L110.475 27.1667L111.275 26.7771L112.446 27.208L113.556 26.5389L115.33 26.7551L115.379 26.8749L113.886 27.7378L116.496 28.6985L116.483 28.781L115.682 29.1707L113.091 28.217L108.931 30.632C108.518 30.8684 108.328 31.0702 108.36 31.2373C108.392 31.4043 108.625 31.5679 109.061 31.7281ZM16.7365 26.9889L12.91 29.3519L9.92386 31.0778L11.421 31.6288L14.397 29.7973L18.3195 27.4696L16.7365 26.9889ZM64.3183 30.2449L64.2883 30.263C63.4485 30.7694 63.0468 31.2476 63.0831 31.6979C63.1195 32.1481 63.5856 32.538 64.4813 32.8677C64.9292 33.0325 65.4346 33.1627 65.9974 33.2582C66.5603 33.3537 67.1323 33.4065 67.7133 33.4164L67.7769 33.5272L66.5268 34.0573C65.2911 33.9326 64.2254 33.7054 63.3296 33.3757C62.0755 32.9142 61.4026 32.3632 61.3109 31.7227C61.2191 31.0822 61.7182 30.4335 62.8079 29.7764C63.9077 29.1134 65.1408 28.7178 66.5072 28.5897C67.8737 28.4616 69.1648 28.6213 70.3805 29.0687C71.4042 29.4455 71.9701 29.8746 72.0783 30.3561C72.1864 30.8376 71.8356 31.3224 71.0258 31.8107C70.7558 31.9734 70.4753 32.1177 70.1842 32.2436L69.8422 32.2633L64.3183 30.2449ZM125.38 36.0159C126.66 35.2443 126.564 34.4569 125.094 33.6536C125.882 33.7497 126.632 33.7391 127.342 33.6217C128.051 33.5044 128.676 33.283 129.216 32.9575C129.976 32.4993 130.246 32.0355 130.025 31.566C129.804 31.0965 129.118 30.6498 127.966 30.2259L124.534 28.9775L117.912 33.0636L114.922 34.7733L114.941 34.7804C115.579 35.0541 116.461 35.3982 117.587 35.8126C119.264 36.4296 120.754 36.7548 122.059 36.7884C123.363 36.8219 124.47 36.5644 125.38 36.0159ZM28.6073 31.8528C28.1206 31.761 27.427 31.6077 26.5264 31.3927L26.4281 31.4148C26.3597 31.7294 26.0755 32.0374 25.5756 32.3388C24.8458 32.7788 23.9556 33.0142 22.9051 33.045C21.8545 33.0758 20.7982 32.8957 19.7361 32.5048C19.3138 32.3494 18.9571 32.1793 18.666 31.9945C18.3185 31.9928 18.0663 32.002 17.9095 32.0219C17.7528 32.0419 17.6244 32.082 17.5244 32.1423C17.3145 32.2689 17.3334 32.419 17.5811 32.5927C17.8289 32.7664 18.2852 33.0193 18.9502 33.3514C19.6125 33.6727 20.1303 33.9507 20.5038 34.1852C20.8773 34.4198 21.1244 34.6684 21.2449 34.9312C21.3655 35.194 21.2258 35.4459 20.8259 35.687Q20.196 36.0668 19.1241 36.1819C18.4094 36.2587 17.6354 36.2408 16.802 36.1282C15.9687 36.0157 15.1745 35.8205 14.4195 35.5426C13.3957 35.1658 12.7816 34.7627 12.5771 34.3331C12.3725 33.9035 12.5602 33.5139 13.1401 33.1643C13.9271 32.9879 14.9251 32.933 16.134 32.9993L16.2089 32.9541C15.8583 32.7182 15.6506 32.4986 15.586 32.2953C15.5215 32.0919 15.6492 31.8938 15.9691 31.7009C16.5877 31.5888 17.2829 31.5486 18.0547 31.5803L18.1147 31.5441C17.9052 31.2728 17.8573 31.0004 17.9711 30.7268C18.0849 30.4532 18.3567 30.1868 18.7866 29.9276C19.5365 29.4755 20.4342 29.2356 21.4797 29.2078C22.5252 29.18 23.5663 29.3569 24.6028 29.7383C25.281 29.9879 25.7669 30.2541 26.0604 30.5369C27.0733 30.7834 28.171 31.0224 29.3535 31.2537L29.4171 31.3645L28.6073 31.8528ZM67.4505 29.2791C68.2041 29.241 68.9008 29.3396 69.5407 29.5751C70.1293 29.7917 70.443 30.0406 70.4815 30.3218C70.5201 30.6029 70.2844 30.8972 69.7746 31.2046L69.5262 31.3171L65.2242 29.7921C65.9548 29.4882 66.6969 29.3172 67.4505 29.2791ZM20.6227 32.0447C21.2625 32.2802 21.8984 32.3783 22.5302 32.339C23.162 32.2998 23.7279 32.1294 24.2278 31.828C24.7077 31.5387 24.9113 31.2544 24.8385 30.9753C24.7657 30.6961 24.4158 30.4411 23.7888 30.2104C23.149 29.9749 22.5149 29.8726 21.8867 29.9035C21.2584 29.9344 20.6944 30.1005 20.1945 30.4019C19.7146 30.6912 19.5092 30.9797 19.5784 31.2672C19.6475 31.5548 19.9957 31.8139 20.6227 32.0447ZM34.7808 34.7654C34.8068 34.9982 34.6084 35.2359 34.1857 35.4783L29.4258 38.255L30.9614 38.8201L33.8689 36.9925L35.8569 35.8312C36.5195 35.4441 36.7763 35.0532 36.6271 34.6586C36.478 34.264 35.9171 33.8877 34.9446 33.5298C33.9529 33.3201 32.7854 33.235 31.4421 33.2746L31.3269 33.2322L36.0377 30.4665L34.4163 29.9717L27.0139 34.528L23.9744 36.2487L25.4908 36.8068L28.4092 34.9541L30.3372 33.8289C31.9299 33.7259 33.1486 33.8298 33.9932 34.1406Q34.7418 34.4161 34.7808 34.7654ZM127.507 32.4595C128.027 32.1461 128.222 31.8514 128.092 31.5755C127.963 31.2996 127.488 31.011 126.669 30.7096L125.114 30.1374L121.852 32.0673L123.918 32.8714C125.341 33.1815 126.537 33.0442 127.507 32.4595ZM82.5986 33.6673L82.5201 33.5656L81.5123 33.4277C80.8989 33.0272 80.2275 32.6927 79.498 32.4243C78.1672 31.9345 76.815 31.7402 75.4416 31.8414C74.0681 31.9427 72.8015 32.3429 71.6418 33.0421C70.552 33.6992 70.0374 34.3325 70.098 34.9421C70.1585 35.5516 70.8094 36.0849 72.0507 36.5417C72.5574 36.6214 73.0197 36.675 73.4375 36.7026C73.8554 36.7302 74.3471 36.7413 74.9126 36.7358L75.0662 36.7923L74.7812 36.9641L71.4244 38.9321L72.9215 39.4831L78.5651 35.9687L82.5986 33.6673ZM78.4704 32.8762C77.6514 32.5748 76.7935 32.4677 75.8965 32.555C74.9995 32.6423 74.1261 32.9422 73.2763 33.4545C72.4465 33.9548 72.0071 34.4217 71.958 34.855C71.909 35.2884 72.2492 35.6393 72.9787 35.9077Q73.5353 36.1126 74.2731 36.1803C74.765 36.2254 75.3743 36.2215 76.1009 36.1686L77.1398 35.5608L79.9466 33.8126C79.5511 33.405 79.0591 33.0928 78.4704 32.8762ZM121.706 35.9014C120.833 35.8811 119.872 35.6778 118.822 35.2916C118.374 35.1268 117.916 34.9435 117.447 34.7418L119.399 33.509L120.828 32.6661L123.204 33.526C124.638 34.1896 124.865 34.8168 123.885 35.4076C123.305 35.7572 122.579 35.9218 121.706 35.9014ZM19.2573 35.3282C19.5873 35.1293 19.6029 34.9117 19.3041 34.6756C19.0054 34.4395 18.4709 34.1311 17.7008 33.7506L17.1615 33.4794C16.4453 33.439 15.8574 33.4362 15.398 33.471C14.9384 33.5057 14.5938 33.5924 14.3638 33.7311C14.0738 33.9059 14.0163 34.1177 14.191 34.3664C14.3657 34.6152 14.7794 34.8596 15.432 35.0998C16.1743 35.373 16.9124 35.5306 17.6464 35.5726Q18.7474 35.6356 19.2573 35.3282ZM86.7126 41.6609L87.541 41.3106L87.4924 41.1907C87.1893 41.1374 86.9354 41.0731 86.7306 40.9977C86.5259 40.9224 86.4244 40.8438 86.4262 40.762C86.428 40.6801 86.5339 40.5759 86.7438 40.4493L92.2686 37.2115L90.7048 36.7379L85.7259 39.7398C84.3327 39.8095 83.2393 39.6983 82.446 39.4063C81.9597 39.2274 81.7068 39.0226 81.6872 38.7922C81.6676 38.5617 81.8627 38.3229 82.2727 38.0757L87.0668 35.2971L85.4262 34.7952L82.5294 36.5977L80.6057 37.7389C79.943 38.126 79.6831 38.5157 79.8258 38.908C79.9686 39.3003 80.5134 39.6707 81.4604 40.0192C82.4393 40.2241 83.5826 40.3052 84.8903 40.2622L85.0055 40.3046C84.7651 40.5365 84.6744 40.7434 84.7334 40.9253C84.7924 41.1071 84.9874 41.2784 85.3185 41.4391C85.7068 41.5529 86.1715 41.6268 86.7126 41.6609ZM135.251 35.4695C136.441 35.9075 137.063 36.4301 137.117 37.0373C137.171 37.6445 136.648 38.2797 135.549 38.9427C134.389 39.642 133.146 40.0558 131.82 40.1843C130.494 40.3127 129.191 40.1415 127.912 39.6705C126.709 39.2278 126.08 38.7029 126.026 38.0957C125.972 37.4884 126.495 36.8533 127.595 36.1902C128.754 35.491 130 35.0783 131.333 34.9522C132.665 34.8261 133.971 34.9985 135.251 35.4695ZM131.827 35.6511C132.679 35.5473 133.509 35.6438 134.315 35.9405C135.108 36.2325 135.468 36.6027 135.394 37.0511C135.32 37.4995 134.808 38.0101 133.858 38.5827C133.018 39.0891 132.177 39.3911 131.335 39.4889C130.493 39.5866 129.669 39.4871 128.862 39.1905C128.069 38.8985 127.704 38.5313 127.768 38.0889C127.832 37.6465 128.344 37.1359 129.304 36.5573C130.134 36.057 130.975 35.7549 131.827 35.6511ZM38.0493 38.0506L38.0193 38.0687C37.1795 38.575 36.7777 39.0533 36.8141 39.5035C36.8505 39.9537 37.3165 40.3437 38.2123 40.6733C38.6602 40.8382 39.1656 40.9683 39.7284 41.0638C40.2913 41.1593 40.8632 41.2121 41.4443 41.2221L41.5079 41.3329L40.2577 41.8629C39.022 41.7382 37.9563 41.511 37.0606 41.1814C35.8065 40.7198 35.1336 40.1688 35.0418 39.5284C34.9501 38.8879 35.4491 38.2391 36.5389 37.5821C37.6386 36.919 38.8717 36.5234 40.2382 36.3954C41.6047 36.2673 42.8958 36.4269 44.1114 36.8743C45.1352 37.2511 45.7011 37.6802 45.8093 38.1617C45.9174 38.6432 45.5665 39.1281 44.7568 39.6163C44.4868 39.7791 44.2063 39.9234 43.9151 40.0492L43.5732 40.069L38.0493 38.0506ZM41.1814 37.0846C41.935 37.0465 42.6317 37.1451 43.2716 37.3806C43.8602 37.5972 44.1738 37.8461 44.2124 38.1273C44.251 38.4084 44.0153 38.7027 43.5054 39.0101L43.2571 39.1226L38.955 37.5976C39.6856 37.2937 40.4278 37.1227 41.1814 37.0846ZM144.675 38.938C145.865 39.376 146.487 39.8986 146.542 40.5058C146.596 41.113 146.073 41.7482 144.973 42.4112C143.813 43.1105 142.571 43.5243 141.245 43.6528C139.919 43.7812 138.616 43.61 137.336 43.139C136.134 42.6964 135.505 42.1714 135.451 41.5642C135.397 40.9569 135.92 40.3218 137.019 39.6587C138.179 38.9595 139.425 38.5468 140.757 38.4207C142.09 38.2946 143.396 38.467 144.675 38.938ZM92.716 40.7252L92.746 40.7072L98.27 42.7256L98.6119 42.7058C98.903 42.5799 99.1836 42.4357 99.4535 42.2729C100.263 41.7846 100.614 41.2998 100.506 40.8183C100.398 40.3368 99.8319 39.9077 98.8082 39.5309C97.5925 39.0835 96.3015 38.9239 94.935 39.0519C93.5685 39.18 92.3354 39.5756 91.2356 40.2387C90.1459 40.8957 89.6469 41.5444 89.7386 42.1849C89.8304 42.8254 90.5033 43.3764 91.7574 43.8379C92.6531 44.1676 93.7188 44.3948 94.9545 44.5195L96.2046 43.9894L96.141 43.8787C95.56 43.8687 94.988 43.8159 94.4252 43.7204C93.8624 43.6249 93.357 43.4947 92.9091 43.3299C92.0133 43.0002 91.5473 42.6103 91.5109 42.1601C91.4745 41.7099 91.8762 41.2316 92.716 40.7252ZM53.6423 40.4839C53.7958 40.5404 53.9522 40.6076 54.1113 40.6856L52.9566 41.3818L52.7388 41.3454C52.5713 41.2352 52.3595 41.133 52.1036 41.0388C51.6813 40.8834 51.1617 40.8208 50.5449 40.851C49.9281 40.8812 49.1569 41.0076 48.2315 41.23L47.1626 41.8559L44.2442 43.7086L42.7278 43.1506L45.7332 41.4318L49.5405 39.0617L51.0851 39.5282L49.6562 40.3711L49.7714 40.4135C50.6296 40.2439 51.3837 40.1744 52.0338 40.2049C52.6838 40.2355 53.2199 40.3284 53.6423 40.4839ZM141.252 39.1196C142.104 39.0158 142.933 39.1122 143.739 39.4089C144.533 39.7009 144.893 40.0711 144.819 40.5196C144.745 40.968 144.233 41.4785 143.283 42.0512C142.443 42.5575 141.602 42.8596 140.76 42.9573C139.918 43.0551 139.093 42.9556 138.287 42.6589C137.494 42.3669 137.129 41.9997 137.193 41.5573C137.257 41.1149 137.769 40.6044 138.729 40.0257C139.559 39.5254 140.4 39.2234 141.252 39.1196ZM148.341 44.1457L145.422 45.9985L143.906 45.4404L146.945 43.7196L154.348 39.1634L155.969 39.6582L148.341 44.1457ZM95.8782 39.7413C96.6318 39.7031 97.3285 39.8018 97.9683 40.0373C98.557 40.2539 98.8706 40.5028 98.9092 40.7839C98.9477 41.0651 98.7121 41.3594 98.2022 41.6668L97.9538 41.7792L93.6518 40.2542C94.3824 39.9504 95.1246 39.7794 95.8782 39.7413ZM107.636 45.0367C108.059 44.7943 108.257 44.5567 108.231 44.3238C108.205 44.091 107.942 43.8828 107.443 43.6991C106.637 43.4024 105.412 43.2961 103.768 43.3803L101.879 44.5196L98.941 46.3652L97.4246 45.8072L100.43 44.0884L104.237 41.7183L105.782 42.1848L104.777 42.7906L104.892 42.833C106.236 42.7935 107.403 42.8785 108.395 43.0882C109.355 43.4414 109.912 43.8165 110.068 44.2135C110.223 44.6105 109.97 45.0026 109.307 45.3897L107.319 46.551L104.412 48.3785L102.876 47.8134L107.636 45.0367ZM56.3726 44.6338L57.1224 44.1817L57.093 44.069L51.938 42.6668L51.1881 43.1189L51.2217 43.2478L56.3726 44.6338ZM150.927 44.4129C150.88 45.2985 150.939 46.4559 151.103 47.885L150.968 47.9664C150.665 47.9131 150.352 47.844 150.029 47.7592C149.706 47.6743 149.495 47.6184 149.395 47.5914L149.263 47.4846C149.157 46.1447 149.171 44.9559 149.305 43.9182L149.41 43.8549L154.69 43.337L155.803 43.1499L157.531 43.7857L150.927 44.4129ZM62.9317 49.1591L64.4188 48.2066L72.0665 43.7261L70.4451 43.2314L66.8801 45.3994C66.4554 45.146 65.9423 44.9087 65.3409 44.6873C64.0101 44.1975 62.6547 44.0021 61.2748 44.101Q59.2051 44.2493 57.5104 45.271C56.3907 45.9462 55.8675 46.5909 55.9408 47.2051C56.0142 47.8194 56.6843 48.3597 57.9512 48.8259C58.4678 48.8996 58.9572 48.9462 59.4193 48.9658C59.8814 48.9854 60.4344 48.9875 61.0782 48.972L61.2126 49.0215C60.9538 49.2272 60.8464 49.4255 60.8904 49.6164C60.9344 49.8074 61.1397 49.9848 61.5064 50.1489C61.9075 50.2674 62.3658 50.339 62.8813 50.3637L63.7097 50.0133L63.6611 49.8935C63.3708 49.8449 63.1232 49.7829 62.9185 49.7076C62.7137 49.6322 62.6155 49.5548 62.6237 49.4753C62.6319 49.3958 62.7346 49.2904 62.9317 49.1591ZM111.008 49.918C111.43 50.0735 111.991 50.1827 112.69 50.2458L112.773 50.3637L111.839 50.7773C110.898 50.6737 110.114 50.5256 109.485 50.3331C108.866 49.9984 108.551 49.6787 108.541 49.3741C108.531 49.0695 108.821 48.7394 109.411 48.3837L110.533 47.7629L113.618 45.8842L112.409 45.4392L112.422 45.3567L113.223 44.967L114.394 45.3979L115.504 44.7289L117.278 44.945L117.327 45.0648L115.833 45.9278L118.444 46.8885L118.431 46.971L117.63 47.3606L115.039 46.407L110.879 48.822C110.466 49.0584 110.275 49.2601 110.307 49.4272C110.339 49.5943 110.573 49.7579 111.008 49.918ZM61.7375 44.8099C62.6459 44.722 63.5095 44.8287 64.3285 45.1301C64.8916 45.3373 65.3872 45.6411 65.8155 46.0414L63.0237 47.7805L61.9056 48.4174C61.2045 48.4797 60.6145 48.4907 60.1354 48.4503C59.6563 48.4099 59.2376 48.3237 58.8793 48.1919C58.1243 47.914 57.7674 47.5545 57.8086 47.1135C57.8499 46.6724 58.2954 46.1957 59.1452 45.6833C59.965 45.189 60.8291 44.8979 61.7375 44.8099ZM161.955 45.3119C162.684 45.5803 163.278 45.9056 163.736 46.2878L162.55 46.7979L162.275 46.7402C161.965 46.3058 161.516 45.9803 160.927 45.7637C160.492 45.6035 160.045 45.5313 159.587 45.5469C159.128 45.5626 158.764 45.6517 158.494 45.8145C158.224 45.9772 158.144 46.159 158.254 46.3597C158.364 46.5604 158.602 46.83 158.968 47.1685C159.287 47.4607 159.525 47.7058 159.68 47.9039C159.836 48.102 159.903 48.3134 159.88 48.5381C159.858 48.7628 159.672 48.9807 159.322 49.1917C158.952 49.4147 158.485 49.5779 157.922 49.6813C157.359 49.7848 156.744 49.8081 156.075 49.7514C155.407 49.6947 154.746 49.5462 154.094 49.3061C153.198 48.9764 152.512 48.5638 152.036 48.0681L153.247 47.5239L153.51 47.5333C153.628 47.8098 153.831 48.0638 154.116 48.2952C154.402 48.5266 154.731 48.7106 155.102 48.8472C155.575 49.0214 156.062 49.1009 156.561 49.0857C157.06 49.0704 157.45 48.9784 157.73 48.8096C158 48.6469 158.08 48.4652 157.97 48.2644C157.859 48.0637 157.621 47.7941 157.256 47.4556C156.936 47.1634 156.696 46.9171 156.534 46.7167C156.371 46.5163 156.307 46.3007 156.339 46.0699C156.371 45.8392 156.573 45.6123 156.942 45.3892C157.522 45.0396 158.269 44.8534 159.183 44.8305C160.097 44.8076 161.021 44.9681 161.955 45.3119ZM75.9469 45.8967C75.9133 45.7678 75.7685 45.6563 75.5126 45.5621C75.231 45.4585 74.9453 45.4165 74.6554 45.436C74.3655 45.4555 74.1155 45.5285 73.9056 45.6551C73.6856 45.7877 73.5893 45.9173 73.6164 46.0437C73.6436 46.1702 73.7916 46.2829 74.0603 46.3818C74.3418 46.4854 74.6275 46.5275 74.9175 46.508C75.2074 46.4885 75.4624 46.4125 75.6823 46.2798C75.8923 46.1533 75.9804 46.0256 75.9469 45.8967ZM124.201 46.0077C124.457 46.1019 124.602 46.2134 124.636 46.3423C124.669 46.4711 124.581 46.5989 124.371 46.7254C124.151 46.8581 123.896 46.9341 123.606 46.9536C123.316 46.9731 123.031 46.931 122.749 46.8274C122.48 46.7285 122.332 46.6158 122.305 46.4893C122.278 46.3629 122.374 46.2333 122.594 46.1007C122.804 45.9741 123.054 45.9011 123.344 45.8816C123.634 45.8621 123.92 45.9041 124.201 46.0077ZM71.5955 47.1783L67.769 49.5414L64.7828 51.2672L66.28 51.8182L69.2559 49.9867L73.1785 47.659L71.5955 47.1783ZM116.458 49.987L120.284 47.624L121.867 48.1046L117.945 50.4323L114.969 52.2638L113.472 51.7128L116.458 49.987ZM166.101 48.5707C166.068 48.4418 165.923 48.3303 165.667 48.2361C165.386 48.1325 165.1 48.0905 164.81 48.1099C164.52 48.1294 164.27 48.2025 164.06 48.3291C163.84 48.4617 163.744 48.5912 163.771 48.7177C163.798 48.8442 163.946 48.9569 164.215 49.0558C164.496 49.1594 164.782 49.2015 165.072 49.182C165.362 49.1625 165.617 49.0864 165.837 48.9538C166.047 48.8272 166.135 48.6995 166.101 48.5707ZM85.0716 54.2056C85.4943 53.9632 85.6926 53.7256 85.6667 53.4927C85.6407 53.2599 85.3782 53.0517 84.8791 52.868C84.0601 52.5666 82.8642 52.4614 81.2914 52.5523L79.3034 53.7136L76.3959 55.5412L74.8411 54.969L79.6202 52.1994C80.0429 51.957 80.2413 51.7193 80.2153 51.4865Q80.1763 51.1372 79.4277 50.8617C78.6215 50.565 77.3965 50.4588 75.7525 50.543L73.8629 51.6822L70.9253 53.5279L69.4089 52.9698L72.4143 51.251L76.2216 48.881L77.7662 49.3475L76.7614 49.9533L76.8766 49.9957Q78.8915 49.9364 80.3791 50.2509C81.0958 50.5146 81.5869 50.79 81.8526 51.0771C82.1183 51.3642 82.1622 51.6545 81.9843 51.9482L82.0994 51.9906C83.4755 51.9437 84.7192 52.0325 85.8305 52.2571C86.803 52.615 87.3639 52.9913 87.513 53.3859C87.6622 53.7806 87.4054 54.1715 86.7428 54.5586L84.7548 55.7199L81.8472 57.5475L80.3117 56.9823L85.0716 54.2056ZM129.472 51.2819C129.312 50.9124 128.816 50.5746 127.984 50.2685C126.858 49.8541 125.454 49.6383 123.772 49.6211L123.109 50.2071L123.203 50.2998C124.042 50.2785 124.759 50.2998 125.354 50.3634C125.949 50.4271 126.464 50.539 126.899 50.6991C127.385 50.8781 127.655 51.0791 127.707 51.3023C127.76 51.5254 127.591 51.7545 127.201 51.9896L126.207 52.5702L122.527 51.7694C121.829 51.6191 121.199 51.5669 120.638 51.613C120.078 51.6591 119.577 51.8147 119.138 52.0799C118.558 52.4295 118.34 52.7936 118.485 53.1722C118.63 53.5507 119.131 53.8977 119.989 54.2133C120.867 54.3423 121.926 54.3682 123.167 54.291L123.302 54.3405C122.985 54.5441 122.849 54.7467 122.896 54.9484C122.943 55.15 123.15 55.3329 123.516 55.497C123.905 55.6108 124.369 55.6847 124.91 55.7188L125.739 55.3684L125.69 55.2486C125.387 55.1953 125.14 55.1333 124.948 55.0627C124.73 54.9826 124.619 54.9005 124.614 54.8163C124.61 54.7321 124.718 54.6237 124.937 54.4911C125.117 54.3826 125.776 54.023 126.912 53.4123C128.049 52.8016 128.702 52.445 128.872 52.3425C129.432 52.005 129.632 51.6514 129.472 51.2819ZM131.477 55.4126L128.559 57.2653L127.042 56.7072L130.082 54.9865L137.484 50.4302L139.106 50.925L131.477 55.4126ZM162.052 51.0121C162.019 50.8832 161.874 50.7717 161.618 50.6775C161.337 50.5739 161.051 50.5319 160.761 50.5514C160.471 50.5709 160.221 50.6439 160.011 50.7705C159.791 50.9031 159.695 51.0326 159.722 51.1591C159.749 51.2856 159.897 51.3983 160.166 51.4972C160.447 51.6008 160.733 51.6429 161.023 51.6234C161.313 51.6039 161.568 51.5278 161.788 51.3952C161.998 51.2686 162.086 51.1409 162.052 51.0121ZM122.115 52.3165C121.799 52.2585 121.531 52.2399 121.311 52.2608C121.091 52.2817 120.875 52.3555 120.665 52.4821C120.336 52.681 120.197 52.8798 120.248 53.0784C120.3 53.277 120.524 53.4494 120.921 53.5953C121.625 53.8544 122.696 53.9041 124.136 53.7446L125.423 53.0243L122.115 52.3165ZM88.905 56.7958L88.935 56.7777L94.459 58.7961L94.8009 58.7764C95.0921 58.6505 95.3726 58.5062 95.6425 58.3435C96.4523 57.8552 96.8032 57.3704 96.695 56.8889C96.5869 56.4074 96.0209 55.9783 94.9972 55.6015C93.7815 55.1541 92.4905 54.9944 91.124 55.1225C89.7575 55.2506 88.5244 55.6462 87.4247 56.3092C86.3349 56.9663 85.8359 57.615 85.9276 58.2555C86.0194 58.896 86.6923 59.447 87.9464 59.9085C88.8421 60.2382 89.9078 60.4654 91.1435 60.5901L92.3936 60.06L92.3301 59.9492C91.749 59.9393 91.177 59.8865 90.6142 59.791C90.0514 59.6955 89.546 59.5653 89.0981 59.4005C88.2023 59.0708 87.7363 58.6809 87.6999 58.2307C87.6635 57.7804 88.0652 57.3022 88.905 56.7958ZM150.019 55.5092C150.275 55.6034 150.419 55.715 150.453 55.8438C150.486 55.9727 150.398 56.1004 150.188 56.227C149.968 56.3596 149.713 56.4356 149.423 56.4551C149.134 56.4746 148.848 56.4326 148.566 56.3289C148.298 56.23 148.15 56.1173 148.122 55.9909C148.095 55.8644 148.192 55.7348 148.412 55.6022C148.622 55.4756 148.871 55.4026 149.161 55.3831C149.451 55.3636 149.737 55.4056 150.019 55.5092ZM92.0671 55.8119C92.8207 55.7738 93.5174 55.8725 94.1572 56.1079C94.7459 56.3246 95.0595 56.5735 95.0981 56.8546C95.1366 57.1358 94.901 57.43 94.3911 57.7375L94.1428 57.8499L89.8407 56.3249C90.5713 56.021 91.3135 55.8501 92.0671 55.8119ZM142.275 59.4884L146.101 57.1253L147.684 57.606L143.762 59.9337L140.786 61.7652L139.289 61.2142L142.275 59.4884ZM104.42 60.3945C104.446 60.6273 104.248 60.8649 103.825 61.1074L99.065 63.884L100.601 64.4492L103.508 62.6216L105.496 61.4603C106.159 61.0732 106.412 60.6812 106.257 60.2842C106.101 59.8872 105.544 59.5121 104.584 59.1588C103.592 58.9492 102.425 58.8641 101.081 58.9036L100.966 58.8613L101.971 58.2555L100.426 57.7889L96.619 60.159L93.6136 61.8778L95.13 62.4359L98.0676 60.5902L99.9572 59.451C101.601 59.3668 102.826 59.473 103.632 59.7697C104.132 59.9534 104.394 60.1616 104.42 60.3945ZM133.914 57.9692C134.191 58.3238 134.125 58.6246 133.715 58.8717C133.065 59.2635 131.794 59.4461 129.901 59.4193L129.758 59.0025L129.863 58.9392C130.996 58.9391 131.788 58.8033 132.238 58.5321C132.508 58.3693 132.545 58.1547 132.348 57.8881L132.468 57.8158C133.016 57.8331 133.498 57.8843 133.914 57.9692ZM154.721 61.4335C154.747 61.6663 154.549 61.9039 154.126 62.1463L149.366 64.923L150.902 65.4882L153.809 63.6606L155.797 62.4993C156.46 62.1122 156.713 61.7201 156.558 61.3231C156.402 60.9261 155.845 60.551 154.885 60.1978C153.893 59.9881 152.726 59.9031 151.382 59.9426L151.267 59.9002L152.272 59.2944L150.727 58.8279L146.92 61.198L143.915 62.9168L145.431 63.4749L148.369 61.6292L150.258 60.4899C151.902 60.4057 153.127 60.512 153.933 60.8087C154.432 60.9924 154.695 61.2006 154.721 61.4335ZM112.891 62.2016C113.62 62.47 114.214 62.7953 114.672 63.1776L113.487 63.6876L113.211 63.6299C112.901 63.1955 112.452 62.87 111.863 62.6534C111.428 62.4933 110.981 62.421 110.523 62.4366C110.064 62.4523 109.7 62.5415 109.43 62.7042C109.16 62.867 109.08 63.0487 109.19 63.2494C109.3 63.4501 109.538 63.7197 109.904 64.0582C110.223 64.3504 110.461 64.5956 110.616 64.7936C110.772 64.9917 110.839 65.2031 110.817 65.4278C110.794 65.6526 110.608 65.8704 110.258 66.0814C109.888 66.3044 109.422 66.4676 108.859 66.5711C108.295 66.6745 107.68 66.6978 107.011 66.6411C106.343 66.5844 105.682 66.436 105.03 66.1958C104.134 65.8661 103.448 65.4535 102.972 64.9578L104.183 64.4137L104.446 64.423C104.564 64.6995 104.767 64.9535 105.053 65.1849C105.338 65.4163 105.667 65.6003 106.038 65.7369C106.512 65.9112 106.998 65.9906 107.497 65.9754C107.996 65.9601 108.386 65.8681 108.666 65.6994C108.936 65.5366 109.016 65.3549 108.906 65.1542C108.796 64.9534 108.557 64.6838 108.192 64.3453C107.873 64.0531 107.632 63.8068 107.47 63.6064C107.308 63.406 107.243 63.1904 107.275 62.9596C107.307 62.7289 107.509 62.502 107.879 62.2789C108.458 61.9293 109.205 61.7431 110.119 61.7202C111.033 61.6973 111.957 61.8578 112.891 62.2016ZM159.18 67.3554C158.481 67.2923 157.92 67.183 157.498 67.0276C157.063 66.8675 156.83 66.7039 156.798 66.5368C156.766 66.3697 156.956 66.1679 157.369 65.9315L161.529 63.5165L164.12 64.4702L164.921 64.0806L164.934 63.9981L162.324 63.0373L163.817 62.1744L163.768 62.0546L161.994 61.8384L160.884 62.5075L159.713 62.0766L158.912 62.4662L158.899 62.5487L160.108 62.9938L157.023 64.8725L155.901 65.4933C155.311 65.8489 155.021 66.179 155.031 66.4836C155.041 66.7882 155.356 67.1079 155.975 67.4427C156.604 67.6352 157.389 67.7833 158.329 67.8869L159.263 67.4732L159.18 67.3554ZM121.369 62.4386C121.625 62.5328 121.77 62.6443 121.804 62.7732C121.837 62.902 121.749 63.0297 121.539 63.1563C121.319 63.2889 121.064 63.365 120.774 63.3845C120.484 63.404 120.199 63.3619 119.917 63.2583C119.648 63.1594 119.5 63.0467 119.473 62.9202C119.446 62.7937 119.542 62.6642 119.762 62.5316C119.972 62.405 120.222 62.3319 120.512 62.3124C120.802 62.2929 121.088 62.335 121.369 62.4386ZM117.452 64.0549L113.626 66.4179L110.639 68.1437L112.137 68.6947L115.113 66.8632L119.035 64.5355L117.452 64.0549ZM164.113 66.9719L164.083 66.99C163.243 67.4963 162.841 67.9746 162.878 68.4248C162.914 68.8751 163.38 69.265 164.276 69.5947C164.724 69.7595 165.229 69.8897 165.792 69.9852C166.355 70.0807 166.927 70.1334 167.508 70.1434L167.571 70.2542L166.321 70.7843C165.086 70.6596 164.02 70.4324 163.124 70.1027C161.87 69.6412 161.197 69.0902 161.105 68.4497C161.014 67.8092 161.513 67.1605 162.602 66.5034C163.702 65.8404 164.935 65.4448 166.302 65.3167C167.668 65.1886 168.959 65.3483 170.175 65.7957C171.199 66.1725 171.765 66.6016 171.873 67.0831C171.981 67.5646 171.63 68.0494 170.82 68.5377C170.55 68.7004 170.27 68.8447 169.979 68.9705L169.637 68.9903L164.113 66.9719ZM167.245 66.0061C167.999 65.9679 168.695 66.0666 169.335 66.3021C169.924 66.5187 170.237 66.7676 170.276 67.0488C170.314 67.3299 170.079 67.6242 169.569 67.9316L169.321 68.0441L165.018 66.5191C165.749 66.2152 166.491 66.0442 167.245 66.0061ZM125.536 66.8408C126.726 67.2788 127.349 67.8014 127.403 68.4086C127.457 69.0158 126.934 69.651 125.834 70.314C124.675 71.0133 123.432 71.4271 122.106 71.5556C120.78 71.684 119.477 71.5128 118.198 71.0418C116.995 70.5991 116.366 70.0742 116.312 69.467C116.258 68.8597 116.781 68.2246 117.88 67.5615C119.04 66.8623 120.286 66.4496 121.618 66.3235C122.951 66.1974 124.257 66.3698 125.536 66.8408ZM122.113 67.0224C122.965 66.9187 123.794 67.0151 124.601 67.3118C125.394 67.6038 125.754 67.974 125.68 68.4224C125.606 68.8708 125.094 69.3814 124.144 69.954C123.304 70.4604 122.463 70.7624 121.621 70.8602C120.779 70.9579 119.955 70.8584 119.148 70.5618C118.355 70.2698 117.99 69.9026 118.054 69.4602C118.118 69.0178 118.63 68.5072 119.59 67.9286C120.42 67.4283 121.261 67.1262 122.113 67.0224ZM179.706 69.4052C179.859 69.4617 180.016 69.529 180.175 69.607L179.02 70.3032L178.802 70.2667C178.635 70.1565 178.423 70.0544 178.167 69.9602Q177.534 69.727 176.608 69.7724C175.991 69.8026 175.22 69.929 174.295 70.1514L173.226 70.7773L170.308 72.63L168.791 72.0719L171.797 70.3531L175.604 67.9831L177.149 68.4496L175.72 69.2924L175.835 69.3348C176.693 69.1653 177.447 69.0958 178.097 69.1263C178.747 69.1568 179.283 69.2498 179.706 69.4052ZM176.584 74.9401L179.503 73.0874L187.131 68.5998L185.51 68.105L178.108 72.6613L175.068 74.382L176.584 74.9401ZM134.901 72.5443C135.324 72.3019 135.523 72.0642 135.497 71.8314C135.471 71.5986 135.208 71.3903 134.709 71.2067C133.903 70.91 132.678 70.8037 131.034 70.8879L129.144 72.0272L126.207 73.8728L124.69 73.3147L127.696 71.596L131.503 69.2259L133.047 69.6924L132.043 70.2982L132.158 70.3406C133.501 70.301 134.669 70.3861 135.66 70.5958C136.62 70.949 137.178 71.3241 137.333 71.7211C137.489 72.1181 137.235 72.5101 136.573 72.8972L134.585 74.0586L131.677 75.8861L130.142 75.321L134.901 72.5443ZM190.916 70.7351C190.882 70.6063 190.737 70.4948 190.481 70.4006C190.2 70.297 189.914 70.2549 189.624 70.2744C189.334 70.2939 189.084 70.3669 188.874 70.4935C188.654 70.6261 188.558 70.7557 188.585 70.8822C188.612 71.0087 188.76 71.1214 189.029 71.2203C189.311 71.3239 189.596 71.3659 189.886 71.3464C190.176 71.327 190.431 71.2509 190.651 71.1183C190.861 70.9917 190.949 70.864 190.916 70.7351ZM182.738 74.3797L186.564 72.0167L188.147 72.4974L184.225 74.8251L181.249 76.6566L179.752 76.1056L182.738 74.3797ZM145.969 74.8266C145.809 74.4571 145.313 74.1193 144.482 73.8131C143.356 73.3987 141.951 73.1829 140.27 73.1657L139.607 73.7518L139.7 73.8445C140.539 73.8232 141.256 73.8444 141.851 73.9081C142.446 73.9717 142.961 74.0836 143.396 74.2438C143.883 74.4227 144.152 74.6238 144.204 74.8469C144.257 75.07 144.088 75.2991 143.698 75.5342L142.704 76.1149L139.025 75.3141C138.326 75.1637 137.696 75.1116 137.136 75.1576C136.575 75.2037 136.075 75.3593 135.635 75.6245C135.055 75.9742 134.838 76.3382 134.983 76.7168C135.127 77.0953 135.629 77.4424 136.486 77.7579C137.364 77.8869 138.424 77.9129 139.665 77.8356L139.799 77.8851C139.482 78.0887 139.347 78.2914 139.393 78.493C139.44 78.6947 139.647 78.8775 140.014 79.0416C140.402 79.1554 140.867 79.2293 141.408 79.2634L142.236 78.9131L142.188 78.7933C141.884 78.7399 141.637 78.678 141.445 78.6073C141.227 78.5273 141.116 78.4451 141.112 78.3609C141.107 78.2767 141.215 78.1683 141.435 78.0357C141.615 77.9272 142.273 77.5676 143.41 76.9569C144.546 76.3462 145.199 75.9896 145.369 75.8872C145.929 75.5496 146.129 75.1961 145.969 74.8266ZM194.589 77.0377C195.012 76.7953 195.21 76.5577 195.184 76.3248C195.158 76.092 194.895 75.8837 194.396 75.7001C193.59 75.4034 192.365 75.2971 190.721 75.3813L188.832 76.5206L185.894 78.3662L184.378 77.8081L187.383 76.0894L191.19 73.7193L192.735 74.1858L191.73 74.7916L191.845 74.834C193.189 74.7944 194.356 74.8795 195.348 75.0892C196.308 75.4424 196.865 75.8175 197.021 76.2145C197.176 76.6115 196.923 77.0036 196.26 77.3906L194.272 78.552L191.365 80.3795L189.829 79.8144L194.589 77.0377ZM145.056 80.8099L147.974 78.9572L155.603 74.4696L153.981 73.9749L146.579 78.5311L143.539 80.2518L145.056 80.8099ZM198.794 80.1869L195.875 82.0396L194.359 81.4815L197.398 79.7607L204.801 75.2045L206.422 75.6993L198.794 80.1869ZM137.808 75.8054C138.028 75.7845 138.296 75.8031 138.612 75.8611L141.92 76.569L140.633 77.2892C139.194 77.4487 138.122 77.399 137.418 77.14C137.022 76.994 136.797 76.8216 136.745 76.623C136.694 76.4244 136.833 76.2256 137.163 76.0267C137.373 75.9001 137.588 75.8263 137.808 75.8054ZM201.38 80.4542C201.333 81.3398 201.392 82.4972 201.556 83.9264L201.421 84.0077C201.118 83.9544 200.805 83.8853 200.482 83.8005C200.159 83.7156 199.948 83.6597 199.848 83.6328L199.716 83.5259C199.61 82.186 199.624 80.9972 199.758 79.9594L199.863 79.8961L205.143 79.3783L206.256 79.1912L207.984 79.827L201.38 80.4542ZM159.899 85.0932C159.2 85.0301 158.64 84.9208 158.217 84.7654C157.782 84.6053 157.549 84.4417 157.517 84.2746C157.485 84.1075 157.675 83.9058 158.088 83.6694L162.248 81.2544L164.839 82.208L165.64 81.8184L165.653 81.7359L163.043 80.7751L164.536 79.9122L164.487 79.7924L162.713 79.5762L161.603 80.2453L160.432 79.8144L159.631 80.204L159.618 80.2866L160.827 80.7316L157.742 82.6103L156.62 83.2311C156.03 83.5867 155.74 83.9169 155.75 84.2215C155.76 84.5261 156.075 84.8457 156.694 85.1805C157.323 85.373 158.108 85.5211 159.049 85.6247L159.982 85.2111L159.899 85.0932ZM207.205 82.8312L207.175 82.8493C206.335 83.3556 205.934 83.8339 205.97 84.2841C206.006 84.7343 206.473 85.1242 207.368 85.4539C207.816 85.6187 208.322 85.7489 208.884 85.8444C209.447 85.9399 210.019 85.9927 210.6 86.0027L210.664 86.1134L209.414 86.6435C208.178 86.5188 207.112 86.2916 206.217 85.9619C204.962 85.5004 204.29 84.9494 204.198 84.3089C204.106 83.6685 204.605 83.0197 205.695 82.3627C206.795 81.6996 208.028 81.304 209.394 81.1759C210.761 81.0479 212.052 81.2075 213.267 81.6549C214.291 82.0317 214.857 82.4608 214.965 82.9423C215.073 83.4238 214.723 83.9087 213.913 84.3969C213.643 84.5596 213.362 84.704 213.071 84.8298L212.729 84.8495L207.205 82.8312ZM210.337 81.8652C211.091 81.8271 211.788 81.9258 212.428 82.1612C213.016 82.3779 213.33 82.6268 213.369 82.9079C213.407 83.1891 213.171 83.4834 212.662 83.7908L212.413 83.9033L208.111 82.3782C208.842 82.0744 209.584 81.9034 210.337 81.8652ZM164.832 84.7099L164.802 84.7279C163.962 85.2343 163.56 85.7126 163.596 86.1628C163.633 86.613 164.099 87.0029 164.995 87.3326C165.443 87.4974 165.948 87.6276 166.511 87.7231C167.074 87.8186 167.646 87.8714 168.227 87.8814L168.29 87.9921L167.04 88.5222C165.804 88.3975 164.739 88.1703 163.843 87.8406C162.589 87.3791 161.916 86.8281 161.824 86.1876C161.732 85.5472 162.231 84.8984 163.321 84.2414C164.421 83.5783 165.654 83.1827 167.021 83.0546C168.387 82.9266 169.678 83.0862 170.894 83.5336C171.917 83.9104 172.483 84.3395 172.592 84.821C172.7 85.3025 172.349 85.7873 171.539 86.2756C171.269 86.4383 170.989 86.5826 170.697 86.7085L170.356 86.7282L164.832 84.7099ZM219.995 89.4893L221.482 88.5368L229.13 84.0562L227.508 83.5615L223.943 85.7295C223.519 85.4762 223.006 85.2388 222.404 85.0174C221.073 84.5277 219.718 84.3322 218.338 84.4311C216.958 84.53 215.703 84.92 214.574 85.6011C213.454 86.2763 212.931 86.921 213.004 87.5353C213.077 88.1496 213.748 88.6898 215.014 89.1561C215.531 89.2297 216.02 89.2764 216.483 89.2959C216.945 89.3155 217.498 89.3176 218.141 89.3022L218.276 89.3516C218.017 89.5573 217.91 89.7556 217.954 89.9465C217.998 90.1375 218.203 90.315 218.57 90.479C218.971 90.5975 219.429 90.6691 219.944 90.6938L220.773 90.3434L220.724 90.2236C220.434 90.175 220.186 90.1131 219.982 90.0377C219.777 89.9623 219.679 89.8849 219.687 89.8054C219.695 89.7259 219.798 89.6205 219.995 89.4893ZM170.054 84.0398C169.414 83.8044 168.718 83.7057 167.964 83.7438C167.21 83.782 166.468 83.9529 165.738 84.2568L170.04 85.7818L170.288 85.6693C170.798 85.3619 171.034 85.0676 170.995 84.7865C170.956 84.5053 170.643 84.2564 170.054 84.0398ZM218.801 85.1401C219.709 85.0521 220.573 85.1588 221.392 85.4602C221.955 85.6674 222.45 85.9712 222.879 86.3715L220.087 88.1106L218.969 88.7475C218.268 88.8099 217.678 88.8208 217.199 88.7804C216.719 88.74 216.301 88.6539 215.942 88.522C215.188 88.2441 214.831 87.8847 214.872 87.4436C214.913 87.0025 215.359 86.5258 216.208 86.0134C217.028 85.5191 217.892 85.228 218.801 85.1401ZM176.7 86.3694L176.439 88.2973L180.179 87.6641L181.235 87.4559L182.656 87.9786L176.552 88.9938L176.039 92.1542L174.307 91.6332L174.589 91.0528L174.883 89.0494L170.806 89.7185L169.837 89.9298L168.416 89.4071L174.732 88.3388L175.259 85.3001L176.981 85.8463L176.7 86.3694ZM183.221 93.6762C182.522 93.6131 181.961 93.5038 181.539 93.3484C181.104 93.1883 180.87 93.0247 180.838 92.8576C180.806 92.6905 180.997 92.4888 181.409 92.2524L185.57 89.8373L188.161 90.791L188.962 90.4014L188.975 90.3189L186.364 89.3581L187.857 88.4952L187.809 88.3754L186.034 88.1592L184.925 88.8283L183.754 88.3974L182.953 88.787L182.94 88.8695L184.149 89.3146L181.064 91.1933L179.942 91.8141C179.352 92.1697 179.062 92.4999 179.072 92.8044C179.082 93.1091 179.396 93.4287 180.016 93.7635C180.645 93.956 181.429 94.1041 182.37 94.2077L183.304 93.794L183.221 93.6762ZM224.034 91.1357C224.311 91.4903 224.245 91.7911 223.835 92.0382C223.185 92.4301 221.914 92.6126 220.021 92.5858L219.878 92.169L219.983 92.1057C221.117 92.1055 221.908 91.9698 222.358 91.6986C222.628 91.5358 222.665 91.3212 222.468 91.0546L222.588 90.9823C223.136 90.9996 223.618 91.0508 224.034 91.1357Z" transform="matrix(0.9396927 -0.3420201 0.3420201 0.9396927 55.18594 78.36699)" id="Vector" fill="#7253ED" fill-rule="evenodd" stroke="none" />
</svg>