<?xml version="1.0" encoding="utf-8"?>
<svg width="428px" height="456px" viewBox="0 0 428 456" version="1.1" xmlns:xlink="http://www.w3.org/1999/xlink" xmlns="http://www.w3.org/2000/svg">
  <desc>Created with Lunacy</desc>
  <path d="M0 450.5L91.4317 298.5L94 0L0 120.5L0 450.5Z" transform="translate(333 2)" id="New-shape" fill="#F5F6FA" stroke="#27262B" stroke-width="1" stroke-dasharray="6 6" />
  <path d="M0 126L102.824 4.13115L427 0L333.8 126L0 126Z" transform="translate(0.5 0.5)" id="New-shape-2" fill="#F5F6FA" stroke="#27262B" stroke-width="1" stroke-dasharray="6 6" />
  <path d="M0 0L333 0L333 328L0 328L0 0Z" transform="translate(1.5 125.5)" id="Rectangle-3" fill="#F5F6FA" stroke="#27262B" stroke-width="1" />
  <path d="M0 0L241 0L241 239L0 239L0 0Z" transform="translate(1.5 215.5)" id="Rectangle-2" fill="#F5F6FA" stroke="#27262B" stroke-width="1" />
  <path d="M0 0L156 0L156 154L0 154L0 0Z" transform="translate(0.5 301.5)" id="Rectangle" fill="#F5F6FA" stroke="#27262B" stroke-width="1" />
  <g id="Analog-Books:-sequential-text" transform="translate(16.5 347.5)">
    <g id="Analog-Books:" fill="#3C334D">
      <path d="M34.38 18.41L34.28 14.39L34.4 4.37L32.82 4.51L32.92 14.51L32.8 18.41L34.38 18.41ZM92.56 18.41L92.46 14.39L92.58 4.37L91 4.51L91.1 14.51L90.98 18.41L92.56 18.41ZM66.16 11.73Q68.88 12.27 68.88 14.83Q68.88 16.65 67.56 17.57Q66.24 18.49 63.62 18.49Q61.86 18.49 60.8 18.41L60.78 18.41L60.88 14.55L60.78 5.59L64.34 5.57Q66.14 5.57 67.11 6.37Q68.08 7.17 68.08 8.69Q68.08 9.77 67.58 10.55Q67.08 11.33 66.16 11.73ZM9.48 18.41L11.12 18.41L6.84 5.59L4.98 5.59L0.28 18.41L1.88 18.41L2.2 17.05L2.98 14.93L5.58 14.87L8.46 14.93L9.18 17.13L9.48 18.41ZM66.44 8.87Q66.44 7.83 65.87 7.36Q65.3 6.89 64.02 6.89L62.4 6.89L62.36 11.19L64.56 11.25Q66.44 10.81 66.44 8.87ZM5.94 7.25L8.02 13.57L5.72 13.61L3.48 13.57L5.8 7.25L5.94 7.25ZM53.74 10.45Q54.96 10.21 55.58 10.03L55.58 8.95L55.42 8.83Q53.9 9.25 52.52 9.51Q51.78 9.15 50.72 9.15Q49.1 9.15 48.13 10Q47.16 10.85 47.16 12.35Q47.16 13.21 47.49 13.86Q47.82 14.51 48.46 14.91L48.46 14.99Q47.66 15.51 47.24 16.21Q47.24 16.85 47.63 17.22Q48.02 17.59 48.74 17.81L48.74 17.91Q47.46 18.69 46.98 19.65Q46.98 20.81 47.87 21.54Q48.76 22.27 50.36 22.27Q51.54 22.27 52.53 21.87Q53.52 21.47 54.09 20.77Q54.66 20.07 54.66 19.23C54.66 18.6967 54.48 18.28 54.12 17.98Q53.58 17.53 52.84 17.33Q52.1 17.13 50.94 16.97Q49.76 16.79 49.24 16.62Q48.72 16.45 48.72 16.03Q48.72 15.83 48.84 15.67Q48.96 15.51 49.3 15.25Q49.88 15.41 50.54 15.41Q52.2 15.41 53.17 14.55Q54.14 13.69 54.14 12.23Q54.14 11.23 53.7 10.53L53.74 10.45ZM26.5 9.09Q27.8 9.09 28.55 9.73Q29.3 10.37 29.3 11.49Q29.3 11.83 29.18 13.95Q29.06 16.07 29.06 16.43Q29.06 16.87 29.2 17.04Q29.34 17.21 29.68 17.21Q29.98 17.21 30.36 17.09L30.52 17.23L30.36 18.13Q29.78 18.47 29.22 18.53Q28.6 18.47 28.23 18.09Q27.86 17.71 27.84 17.05L27.7 17.05Q26.62 18.15 25.56 18.55Q24.22 18.55 23.47 17.88Q22.72 17.21 22.72 16.05Q22.72 15.17 23.19 14.65Q23.66 14.13 24.58 13.91L27.82 13.15L27.84 11.85Q27.84 11.07 27.43 10.65Q27.02 10.23 26.26 10.23Q25.58 10.23 24.9 10.55Q24.22 10.87 23.44 11.55L23.28 11.47L23.08 10.33Q24.74 9.09 26.5 9.09ZM41.08 9.09Q42.94 9.09 43.97 10.3Q45 11.51 45 13.71Q45 16.03 43.92 17.3Q42.84 18.57 40.84 18.57Q38.96 18.57 37.93 17.36Q36.9 16.15 36.9 13.95Q36.9 11.63 37.99 10.36Q39.08 9.09 41.08 9.09ZM77.57 10.3Q76.54 9.09 74.68 9.09Q72.68 9.09 71.59 10.36Q70.5 11.63 70.5 13.95Q70.5 16.15 71.53 17.36Q72.56 18.57 74.44 18.57Q76.44 18.57 77.52 17.3Q78.6 16.03 78.6 13.71Q78.6 11.51 77.57 10.3ZM84.5 9.09Q86.36 9.09 87.39 10.3Q88.42 11.51 88.42 13.71Q88.42 16.03 87.34 17.3Q86.26 18.57 84.26 18.57Q82.38 18.57 81.35 17.36Q80.32 16.15 80.32 13.95Q80.32 11.63 81.41 10.36Q82.5 9.09 84.5 9.09ZM102.52 9.11Q103.66 9.11 104.72 9.55L104.5 10.85L104.26 10.91Q103.26 10.25 102.34 10.25Q101.66 10.25 101.24 10.63Q100.82 11.01 100.82 11.55Q100.82 12.09 101.25 12.42Q101.68 12.75 102.58 13.17Q103.36 13.53 103.83 13.82Q104.3 14.11 104.64 14.59Q104.98 15.07 104.98 15.77Q104.98 16.51 104.6 17.15Q104.22 17.79 103.48 18.18Q102.74 18.57 101.72 18.57Q100.32 18.57 99.06 17.91L99.26 16.55L99.44 16.43Q100 16.91 100.65 17.17Q101.3 17.43 101.88 17.43Q102.62 17.43 103.08 17.02Q103.54 16.61 103.54 16.05Q103.54 15.51 103.11 15.18Q102.68 14.85 101.78 14.43Q101 14.07 100.52 13.78Q100.04 13.49 99.7 12.99Q99.36 12.49 99.36 11.75Q99.36 10.59 100.21 9.85Q101.06 9.11 102.52 9.11ZM18.56 10.91Q18.96 11.37 18.94 12.19L18.84 18.41L20.44 18.41L20.36 14.43L20.4 11.83Q20.42 10.53 19.63 9.83Q18.84 9.13 17.34 9.13Q16.04 9.45 14.8 10.55L14.68 10.55L14.68 9.21L13.18 9.35L13.26 14.53L13.16 18.41L14.74 18.41L14.66 14.39L14.66 11.87Q16.12 10.45 17.38 10.45Q18.16 10.45 18.56 10.91ZM98.26 18.13Q95.8 15.31 94.42 13.45L98.02 9.25L96.22 9.25L95.7 10.07L92.84 13.45L92.84 13.59Q94.38 15.83 96.64 18.51L96.84 18.59Q96.98 18.57 97.43 18.5Q97.88 18.43 98.26 18.31L98.26 18.13ZM40.98 10.21Q39.72 10.21 39.06 11.07Q38.4 11.93 38.4 13.59Q38.4 15.51 39.05 16.47Q39.7 17.43 40.94 17.43Q42.2 17.43 42.86 16.59Q43.52 15.75 43.52 14.07Q43.52 12.17 42.87 11.19Q42.22 10.21 40.98 10.21ZM52.17 13.77Q51.62 14.33 50.62 14.33Q49.64 14.33 49.11 13.79Q48.58 13.25 48.58 12.29Q48.58 11.29 49.14 10.75Q49.7 10.21 50.7 10.21Q51.68 10.21 52.2 10.73Q52.72 11.25 52.72 12.21Q52.72 13.21 52.17 13.77ZM72.66 11.07Q73.32 10.21 74.58 10.21Q75.82 10.21 76.47 11.19Q77.12 12.17 77.12 14.07Q77.12 15.75 76.46 16.59Q75.8 17.43 74.54 17.43Q73.3 17.43 72.65 16.47Q72 15.51 72 13.59Q72 11.93 72.66 11.07ZM84.4 10.21Q83.14 10.21 82.48 11.07Q81.82 11.93 81.82 13.59Q81.82 15.51 82.47 16.47Q83.12 17.43 84.36 17.43Q85.62 17.43 86.28 16.59Q86.94 15.75 86.94 14.07Q86.94 12.17 86.29 11.19Q85.64 10.21 84.4 10.21ZM108.7 11.49Q108.46 11.25 108.06 11.25Q107.62 11.25 107.37 11.51Q107.12 11.77 107.12 12.19Q107.12 12.63 107.35 12.87Q107.58 13.11 108 13.11Q108.44 13.11 108.69 12.85Q108.94 12.59 108.94 12.15Q108.94 11.73 108.7 11.49ZM63.86 17.15Q65.5 17.15 66.38 16.53Q67.26 15.91 67.26 14.75Q67.26 12.79 64.8 12.51L62.34 12.53L62.32 14.41L62.38 17.09Q63.16 17.15 63.86 17.15ZM24.9 14.87Q24.5 14.99 24.32 15.2Q24.14 15.41 24.14 15.83Q24.14 16.49 24.51 16.86Q24.88 17.23 25.5 17.23Q26.6 17.23 27.74 15.81L27.8 14.17L24.9 14.87ZM108.7 16.89Q108.46 16.65 108.06 16.65Q107.62 16.65 107.37 16.91Q107.12 17.17 107.12 17.59Q107.12 18.03 107.35 18.27Q107.58 18.51 108 18.51Q108.44 18.51 108.69 18.25Q108.94 17.99 108.94 17.55Q108.94 17.13 108.7 16.89ZM52.59 18.61Q53.26 18.87 53.26 19.53Q53.26 20.21 52.48 20.68Q51.7 21.15 50.54 21.15Q49.52 21.15 48.95 20.77Q48.38 20.39 48.38 19.81Q48.38 19.35 48.77 18.93Q49.16 18.51 49.92 18.05L50.56 18.15Q51.92 18.35 52.59 18.61Z" />
    </g>
    <g id="sequential-text" fill="#3C334D">
      <path d="M56.196 37.4014L56.126 34.5874L56.21 27.5734L55.104 27.6714L55.174 34.6714L55.09 37.4014L56.196 37.4014ZM46.214 28.2874Q46.046 28.1194 45.766 28.1194Q45.458 28.1194 45.283 28.3014Q45.108 28.4834 45.108 28.7774Q45.108 29.0854 45.269 29.2534Q45.43 29.4214 45.724 29.4214Q46.032 29.4214 46.207 29.2394Q46.382 29.0574 46.382 28.7494Q46.382 28.4554 46.214 28.2874ZM42.728 36.5474Q43.19 36.5474 43.736 36.2674L43.862 36.3514L43.75 37.0794Q42.994 37.4294 42.35 37.4854Q41.552 37.3314 41.202 36.8974Q40.852 36.4634 40.852 35.6374L40.894 34.6434L40.88 31.7454L39.998 31.7454L39.942 31.6614L40.012 31.0034L40.866 31.0034L40.866 29.9674L41.832 29.5474L41.944 29.6454L41.916 31.0034L43.82 31.0034L43.876 31.0874L43.806 31.7454L41.916 31.7454L41.846 35.5394Q41.832 36.0994 42.042 36.3234Q42.252 36.5474 42.728 36.5474ZM62.818 36.5474Q63.28 36.5474 63.826 36.2674L63.952 36.3514L63.84 37.0794Q63.084 37.4294 62.44 37.4854Q61.642 37.3314 61.292 36.8974Q60.942 36.4634 60.942 35.6374L60.984 34.6434L60.97 31.7454L60.088 31.7454L60.032 31.6614L60.102 31.0034L60.956 31.0034L60.956 29.9674L61.922 29.5474L62.034 29.6454L62.006 31.0034L63.91 31.0034L63.966 31.0874L63.896 31.7454L62.006 31.7454L61.936 35.5394Q61.922 36.0994 62.132 36.3234Q62.342 36.5474 62.818 36.5474ZM80.836 36.2674Q80.29 36.5474 79.828 36.5474Q79.352 36.5474 79.142 36.3234Q78.932 36.0994 78.946 35.5394L79.016 31.7454L80.906 31.7454L80.976 31.0874L80.92 31.0034L79.016 31.0034L79.044 29.6454L78.932 29.5474L77.966 29.9674L77.966 31.0034L77.112 31.0034L77.042 31.6614L77.098 31.7454L77.98 31.7454L77.994 34.6434L77.952 35.6374Q77.952 36.4634 78.302 36.8974Q78.652 37.3314 79.45 37.4854Q80.094 37.4294 80.85 37.0794L80.962 36.3514L80.836 36.2674ZM6.804 34.1814L6.804 34.1534L10.822 34.1394L10.962 33.9994Q11.018 33.6634 11.018 33.2854Q11.018 32.1514 10.402 31.5144Q9.786 30.8774 8.666 30.8774Q7.336 30.8774 6.552 31.7874Q5.768 32.6974 5.768 34.2374Q5.768 35.7634 6.552 36.6384Q7.336 37.5134 8.708 37.5134Q9.688 37.5134 10.668 37.0374L10.836 36.0854L10.724 36.0014Q10.318 36.2954 9.828 36.4564Q9.338 36.6174 8.848 36.6174Q7.868 36.6174 7.336 35.9874Q6.804 35.3574 6.804 34.1814ZM17.542 30.9054L17.654 30.9754L17.556 34.6154L17.64 39.9914L16.548 39.9914L16.59 36.9114L16.59 36.6454L16.478 36.6454Q16.1 36.9534 15.785 37.1354Q15.47 37.3174 15.036 37.4714Q13.678 37.4714 12.95 36.6244Q12.222 35.7774 12.222 34.2514Q12.222 32.6274 13.041 31.7524Q13.86 30.8774 15.316 30.8774Q16.114 30.8774 16.982 31.1294L17.542 30.9054ZM27.538 34.1534L27.538 34.1814Q27.538 35.3574 28.07 35.9874Q28.602 36.6174 29.582 36.6174Q30.072 36.6174 30.562 36.4564Q31.052 36.2954 31.458 36.0014L31.57 36.0854L31.402 37.0374Q30.422 37.5134 29.442 37.5134Q28.07 37.5134 27.286 36.6384Q26.502 35.7634 26.502 34.2374Q26.502 32.6974 27.286 31.7874Q28.07 30.8774 29.4 30.8774Q30.52 30.8774 31.136 31.5144Q31.752 32.1514 31.752 33.2854Q31.752 33.6634 31.696 33.9994L31.556 34.1394L27.538 34.1534ZM50.68 30.8774Q51.59 30.8774 52.115 31.3254Q52.64 31.7734 52.64 32.5574Q52.64 32.7954 52.556 34.2794Q52.472 35.7634 52.472 36.0154Q52.472 36.3234 52.57 36.4424Q52.668 36.5614 52.906 36.5614Q53.116 36.5614 53.382 36.4774L53.494 36.5754L53.382 37.2054Q52.976 37.4434 52.584 37.4854Q52.15 37.4434 51.891 37.1774Q51.632 36.9114 51.618 36.4494L51.52 36.4494Q50.764 37.2194 50.022 37.4994Q49.084 37.4994 48.559 37.0304Q48.034 36.5614 48.034 35.7494Q48.034 35.1334 48.363 34.7694Q48.692 34.4054 49.336 34.2514L51.604 33.7194L51.618 32.8094Q51.618 32.2634 51.331 31.9694Q51.044 31.6754 50.512 31.6754Q50.036 31.6754 49.56 31.8994Q49.084 32.1234 48.538 32.5994L48.426 32.5434L48.286 31.7454Q49.448 30.8774 50.68 30.8774ZM65.772 34.1814L65.772 34.1534L69.79 34.1394L69.93 33.9994Q69.986 33.6634 69.986 33.2854Q69.986 32.1514 69.37 31.5144Q68.754 30.8774 67.634 30.8774Q66.304 30.8774 65.52 31.7874Q64.736 32.6974 64.736 34.2374Q64.736 35.7634 65.52 36.6384Q66.304 37.5134 67.676 37.5134Q68.656 37.5134 69.636 37.0374L69.804 36.0854L69.692 36.0014Q69.286 36.2954 68.796 36.4564Q68.306 36.6174 67.816 36.6174Q66.836 36.6174 66.304 35.9874Q65.772 35.3574 65.772 34.1814ZM4.41 31.1994Q3.668 30.8914 2.87 30.8914Q1.848 30.8914 1.253 31.4094Q0.658 31.9274 0.658 32.7394Q0.658 33.2574 0.896 33.6074Q1.134 33.9574 1.47 34.1604Q1.806 34.3634 2.352 34.6154Q2.982 34.9094 3.283 35.1404Q3.584 35.3714 3.584 35.7494Q3.584 36.1414 3.262 36.4284Q2.94 36.7154 2.422 36.7154Q2.016 36.7154 1.561 36.5334Q1.106 36.3514 0.714 36.0154L0.588 36.0994L0.448 37.0514Q1.33 37.5134 2.31 37.5134Q3.024 37.5134 3.542 37.2404Q4.06 36.9674 4.326 36.5194Q4.592 36.0714 4.592 35.5534Q4.592 35.0634 4.354 34.7274Q4.116 34.3914 3.787 34.1884Q3.458 33.9854 2.912 33.7334Q2.282 33.4394 1.981 33.2084Q1.68 32.9774 1.68 32.5994Q1.68 32.2214 1.974 31.9554Q2.268 31.6894 2.744 31.6894Q3.388 31.6894 4.088 32.1514L4.256 32.1094L4.41 31.1994ZM37.268 32.1514Q37.548 32.4734 37.534 33.0474L37.464 37.4014L38.584 37.4014L38.528 34.6154L38.556 32.7954Q38.57 31.8854 38.017 31.3954Q37.464 30.9054 36.414 30.9054Q35.504 31.1294 34.636 31.8994L34.552 31.8994L34.552 30.9614L33.502 31.0594L33.558 34.6854L33.488 37.4014L34.594 37.4014L34.538 34.5874L34.538 32.8234Q35.56 31.8294 36.442 31.8294Q36.988 31.8294 37.268 32.1514ZM72.394 31.5494L73.724 33.4954L74.942 31.5634L75.264 30.9894L76.3 30.9894L74.298 34.1254L76.44 37.3454L75.264 37.4574L74.956 36.7994L73.584 34.7694L72.24 36.8554L71.96 37.4014L70.924 37.4014L72.982 34.1394L70.938 31.0314L72.128 30.9474L72.394 31.5494ZM25.522 37.2054L25.634 36.5754L25.522 36.4774Q25.256 36.5614 25.032 36.5614Q24.808 36.5614 24.717 36.4424Q24.626 36.3234 24.626 36.0294L24.696 30.9614L23.632 31.0594L23.632 35.7074Q22.764 36.5474 21.896 36.5474Q21.364 36.5474 21.091 36.2254Q20.818 35.9034 20.818 35.3294L20.902 30.9614L19.782 31.0594L19.824 33.8174L19.81 35.5954Q19.796 36.5054 20.335 36.9954Q20.874 37.4854 21.91 37.4854Q22.806 37.2614 23.646 36.5054L23.73 36.5054Q23.828 36.9674 24.073 37.1984Q24.318 37.4294 24.724 37.4854Q25.116 37.4434 25.522 37.2054ZM45.206 31.0594L45.248 34.6854L45.192 37.4014L46.284 37.4014L46.256 34.5874L46.284 30.9614L45.206 31.0594ZM7.497 32.1164Q7.966 31.6614 8.666 31.6614Q9.31 31.6614 9.653 32.0464Q9.996 32.4314 9.996 33.1454L9.968 33.3414L6.874 33.3974Q7.028 32.5714 7.497 32.1164ZM29.4 31.6614Q28.7 31.6614 28.231 32.1164Q27.762 32.5714 27.608 33.3974L30.702 33.3414L30.73 33.1454Q30.73 32.4314 30.387 32.0464Q30.044 31.6614 29.4 31.6614ZM66.465 32.1164Q66.934 31.6614 67.634 31.6614Q68.278 31.6614 68.621 32.0464Q68.964 32.4314 68.964 33.1454L68.936 33.3414L65.842 33.3974Q65.996 32.5714 66.465 32.1164ZM15.19 31.6754Q14.294 31.6754 13.783 32.2774Q13.272 32.8794 13.272 34.0694Q13.272 35.2314 13.727 35.8824Q14.182 36.5334 14.98 36.5334Q15.386 36.5334 15.771 36.3374Q16.156 36.1414 16.59 35.6794L16.604 34.7274L16.562 32.0534Q15.834 31.6754 15.19 31.6754ZM49.56 34.9234Q49.28 35.0074 49.154 35.1544Q49.028 35.3014 49.028 35.5954Q49.028 36.0574 49.287 36.3164Q49.546 36.5754 49.98 36.5754Q50.75 36.5754 51.548 35.5814L51.59 34.4334L49.56 34.9234Z" />
    </g>
  </g>
  <g id="Digital-Books:-sequential,-int" transform="translate(16.73999 236.5001)">
    <g id="Digital-Books:" fill="#3C334D">
      <path d="M51.22 18.41L51.12 14.39L51.24 4.37L49.66 4.51L49.76 14.51L49.64 18.41L51.22 18.41ZM89.84 18.41L89.74 14.39L89.86 4.37L88.28 4.51L88.38 14.51L88.26 18.41L89.84 18.41ZM15.36 5.15Q15.76 5.15 16 5.39Q16.24 5.63 16.24 6.05Q16.24 6.49 15.99 6.75Q15.74 7.01 15.3 7.01Q14.88 7.01 14.65 6.77Q14.42 6.53 14.42 6.09Q14.42 5.67 14.67 5.41Q14.92 5.15 15.36 5.15ZM29.94 5.15Q30.34 5.15 30.58 5.39Q30.82 5.63 30.82 6.05Q30.82 6.49 30.57 6.75Q30.32 7.01 29.88 7.01Q29.46 7.01 29.23 6.77Q29 6.53 29 6.09Q29 5.67 29.25 5.41Q29.5 5.15 29.94 5.15ZM6.5 5.51Q9.24 5.51 10.7 7.07Q12.16 8.63 12.16 11.55Q12.16 14.93 10.58 16.73Q9 18.53 6.04 18.53Q5.22 18.53 4.05 18.5Q2.88 18.47 1.88 18.41L1.86 18.41L1.96 14.55L1.86 5.59L1.88 5.59L6.5 5.51ZM63.44 11.73Q66.16 12.27 66.16 14.83Q66.16 16.65 64.84 17.57Q63.52 18.49 60.9 18.49Q59.14 18.49 58.08 18.41L58.06 18.41L58.16 14.55L58.06 5.59L61.62 5.57Q63.42 5.57 64.39 6.37Q65.36 7.17 65.36 8.69Q65.36 9.77 64.86 10.55Q64.36 11.33 63.44 11.73ZM6.3 17.19Q8.34 17.19 9.43 15.86Q10.52 14.53 10.52 11.89Q10.52 8.88058 9.04394 7.66811Q8.04798 6.85 6.38 6.85Q5.12 6.85 3.48 6.93L3.4 14.41L3.46 17.07Q4.08 17.13 4.95 17.16Q5.82 17.19 6.3 17.19ZM63.72 8.87Q63.72 7.83 63.15 7.36Q62.58 6.89 61.3 6.89L59.68 6.89L59.64 11.19L61.84 11.25Q63.72 10.81 63.72 8.87ZM38.26 16.79Q37.48 17.19 36.82 17.19Q36.14 17.19 35.84 16.87Q35.54 16.55 35.56 15.75L35.66 10.33L38.36 10.33L38.46 9.39L38.38 9.27L35.66 9.27L35.7 7.33L35.54 7.19L34.16 7.79L34.16 9.27L32.94 9.27L32.84 10.21L32.92 10.33L34.18 10.33L34.2 14.47L34.14 15.89Q34.14 17.07 34.64 17.69Q35.14 18.31 36.28 18.53Q37.2 18.45 38.28 17.95L38.44 16.91L38.26 16.79ZM25.62 10.45Q26.84 10.21 27.46 10.03L27.46 8.95L27.3 8.83Q25.78 9.25 24.4 9.51Q23.66 9.15 22.6 9.15Q20.98 9.15 20.01 10Q19.04 10.85 19.04 12.35Q19.04 13.21 19.37 13.86Q19.7 14.51 20.34 14.91L20.34 14.99Q19.54 15.51 19.12 16.21Q19.12 16.85 19.51 17.22Q19.9 17.59 20.62 17.81L20.62 17.91Q19.34 18.69 18.86 19.65Q18.86 20.81 19.75 21.54Q20.64 22.27 22.24 22.27Q23.42 22.27 24.41 21.87Q25.4 21.47 25.97 20.77Q26.54 20.07 26.54 19.23C26.54 18.6967 26.36 18.28 26 17.98Q25.46 17.53 24.72 17.33Q23.98 17.13 22.82 16.97Q21.64 16.79 21.12 16.62Q20.6 16.45 20.6 16.03Q20.6 15.83 20.72 15.67Q20.84 15.51 21.18 15.25Q21.76 15.41 22.42 15.41Q24.08 15.41 25.05 14.55Q26.02 13.69 26.02 12.23Q26.02 11.23 25.58 10.53L25.62 10.45ZM43.34 9.09Q44.64 9.09 45.39 9.73Q46.14 10.37 46.14 11.49Q46.14 11.83 46.02 13.95Q45.9 16.07 45.9 16.43Q45.9 16.87 46.04 17.04Q46.18 17.21 46.52 17.21Q46.82 17.21 47.2 17.09L47.36 17.23L47.2 18.13Q46.62 18.47 46.06 18.53Q45.44 18.47 45.07 18.09Q44.7 17.71 44.68 17.05L44.54 17.05Q43.46 18.15 42.4 18.55Q41.06 18.55 40.31 17.88Q39.56 17.21 39.56 16.05Q39.56 15.17 40.03 14.65Q40.5 14.13 41.42 13.91L44.66 13.15L44.68 11.85Q44.68 11.07 44.27 10.65Q43.86 10.23 43.1 10.23Q42.42 10.23 41.74 10.55Q41.06 10.87 40.28 11.55L40.12 11.47L39.92 10.33Q41.58 9.09 43.34 9.09ZM74.85 10.3Q73.82 9.09 71.96 9.09Q69.96 9.09 68.87 10.36Q67.78 11.63 67.78 13.95Q67.78 16.15 68.81 17.36Q69.84 18.57 71.72 18.57Q73.72 18.57 74.8 17.3Q75.88 16.03 75.88 13.71Q75.88 11.51 74.85 10.3ZM81.78 9.09Q83.64 9.09 84.67 10.3Q85.7 11.51 85.7 13.71Q85.7 16.03 84.62 17.3Q83.54 18.57 81.54 18.57Q79.66 18.57 78.63 17.36Q77.6 16.15 77.6 13.95Q77.6 11.63 78.69 10.36Q79.78 9.09 81.78 9.09ZM99.8 9.11Q100.94 9.11 102 9.55L101.78 10.85L101.54 10.91Q100.54 10.25 99.62 10.25Q98.94 10.25 98.52 10.63Q98.1 11.01 98.1 11.55Q98.1 12.09 98.53 12.42Q98.96 12.75 99.86 13.17Q100.64 13.53 101.11 13.82Q101.58 14.11 101.92 14.59Q102.26 15.07 102.26 15.77Q102.26 16.51 101.88 17.15Q101.5 17.79 100.76 18.18Q100.02 18.57 99 18.57Q97.6 18.57 96.34 17.91L96.54 16.55L96.72 16.43Q97.28 16.91 97.93 17.17Q98.58 17.43 99.16 17.43Q99.9 17.43 100.36 17.02Q100.82 16.61 100.82 16.05Q100.82 15.51 100.39 15.18Q99.96 14.85 99.06 14.43Q98.28 14.07 97.8 13.78Q97.32 13.49 96.98 12.99Q96.64 12.49 96.64 11.75Q96.64 10.59 97.49 9.85Q98.34 9.11 99.8 9.11ZM14.62 14.53L14.56 9.35L16.1 9.21L16.06 14.39L16.1 18.41L14.54 18.41L14.62 14.53ZM29.2 14.53L29.14 9.35L30.68 9.21L30.64 14.39L30.68 18.41L29.12 18.41L29.2 14.53ZM95.54 18.13Q93.08 15.31 91.7 13.45L95.3 9.25L93.5 9.25L92.98 10.07L90.12 13.45L90.12 13.59Q91.66 15.83 93.92 18.51L94.12 18.59Q94.26 18.57 94.71 18.5Q95.16 18.43 95.54 18.31L95.54 18.13ZM24.05 13.77Q23.5 14.33 22.5 14.33Q21.52 14.33 20.99 13.79Q20.46 13.25 20.46 12.29Q20.46 11.29 21.02 10.75Q21.58 10.21 22.58 10.21Q23.56 10.21 24.08 10.73Q24.6 11.25 24.6 12.21Q24.6 13.21 24.05 13.77ZM69.94 11.07Q70.6 10.21 71.86 10.21Q73.1 10.21 73.75 11.19Q74.4 12.17 74.4 14.07Q74.4 15.75 73.74 16.59Q73.08 17.43 71.82 17.43Q70.58 17.43 69.93 16.47Q69.28 15.51 69.28 13.59Q69.28 11.93 69.94 11.07ZM81.68 10.21Q80.42 10.21 79.76 11.07Q79.1 11.93 79.1 13.59Q79.1 15.51 79.75 16.47Q80.4 17.43 81.64 17.43Q82.9 17.43 83.56 16.59Q84.22 15.75 84.22 14.07Q84.22 12.17 83.57 11.19Q82.92 10.21 81.68 10.21ZM105.98 11.49Q105.74 11.25 105.34 11.25Q104.9 11.25 104.65 11.51Q104.4 11.77 104.4 12.19Q104.4 12.63 104.63 12.87Q104.86 13.11 105.28 13.11Q105.72 13.11 105.97 12.85Q106.22 12.59 106.22 12.15Q106.22 11.73 105.98 11.49ZM61.14 17.15Q62.78 17.15 63.66 16.53Q64.54 15.91 64.54 14.75Q64.54 12.79 62.08 12.51L59.62 12.53L59.6 14.41L59.66 17.09Q60.44 17.15 61.14 17.15ZM41.74 14.87Q41.34 14.99 41.16 15.2Q40.98 15.41 40.98 15.83Q40.98 16.49 41.35 16.86Q41.72 17.23 42.34 17.23Q43.44 17.23 44.58 15.81L44.64 14.17L41.74 14.87ZM105.98 16.89Q105.74 16.65 105.34 16.65Q104.9 16.65 104.65 16.91Q104.4 17.17 104.4 17.59Q104.4 18.03 104.63 18.27Q104.86 18.51 105.28 18.51Q105.72 18.51 105.97 18.25Q106.22 17.99 106.22 17.55Q106.22 17.13 105.98 16.89ZM24.47 18.61Q25.14 18.87 25.14 19.53Q25.14 20.21 24.36 20.68Q23.58 21.15 22.42 21.15Q21.4 21.15 20.83 20.77Q20.26 20.39 20.26 19.81Q20.26 19.35 20.65 18.93Q21.04 18.51 21.8 18.05L22.44 18.15Q23.8 18.35 24.47 18.61Z" />
    </g>
    <g id="sequential,-interlinked--text" fill="#3C334D">
      <path d="M56.196 37.4014L56.126 34.5874L56.21 27.5734L55.104 27.6714L55.174 34.6714L55.09 37.4014L56.196 37.4014ZM91.154 34.5874L91.224 37.4014L90.118 37.4014L90.202 34.6714L90.132 27.6714L91.238 27.5734L91.154 34.5874ZM105.294 37.4014L105.224 34.5874L105.308 27.5734L104.202 27.6714L104.272 34.6714L104.188 37.4014L105.294 37.4014ZM121.814 36.0294L121.772 34.5874L121.87 27.5734L120.764 27.6714L120.778 31.0174Q120.204 30.8774 119.546 30.8774Q118.09 30.8774 117.264 31.7524Q116.438 32.6274 116.438 34.2094Q116.438 35.7774 117.18 36.6244Q117.922 37.4714 119.308 37.4714Q119.742 37.3034 120.078 37.0864Q120.414 36.8694 120.834 36.5054L120.932 36.5054Q120.988 36.9394 121.233 37.1914Q121.478 37.4434 121.912 37.4854Q122.318 37.4434 122.696 37.2054L122.808 36.5754L122.696 36.4774Q122.444 36.5614 122.22 36.5614Q121.996 36.5614 121.912 36.4424Q121.828 36.3234 121.814 36.0294ZM46.214 28.2874Q46.046 28.1194 45.766 28.1194Q45.458 28.1194 45.283 28.3014Q45.108 28.4834 45.108 28.7774Q45.108 29.0854 45.269 29.2534Q45.43 29.4214 45.724 29.4214Q46.032 29.4214 46.207 29.2394Q46.382 29.0574 46.382 28.7494Q46.382 28.4554 46.214 28.2874ZM65.044 28.2874Q64.876 28.1194 64.596 28.1194Q64.288 28.1194 64.113 28.3014Q63.938 28.4834 63.938 28.7774Q63.938 29.0854 64.099 29.2534Q64.26 29.4214 64.554 29.4214Q64.862 29.4214 65.037 29.2394Q65.212 29.0574 65.212 28.7494Q65.212 28.4554 65.044 28.2874ZM94.556 28.2874Q94.388 28.1194 94.108 28.1194Q93.8 28.1194 93.625 28.3014Q93.45 28.4834 93.45 28.7774Q93.45 29.0854 93.611 29.2534Q93.772 29.4214 94.066 29.4214Q94.374 29.4214 94.549 29.2394Q94.724 29.0574 94.724 28.7494Q94.724 28.4554 94.556 28.2874ZM42.728 36.5474Q43.19 36.5474 43.736 36.2674L43.862 36.3514L43.75 37.0794Q42.994 37.4294 42.35 37.4854Q41.552 37.3314 41.202 36.8974Q40.852 36.4634 40.852 35.6374L40.894 34.6434L40.88 31.7454L39.998 31.7454L39.942 31.6614L40.012 31.0034L40.866 31.0034L40.866 29.9674L41.832 29.5474L41.944 29.6454L41.916 31.0034L43.82 31.0034L43.876 31.0874L43.806 31.7454L41.916 31.7454L41.846 35.5394Q41.832 36.0994 42.042 36.3234Q42.252 36.5474 42.728 36.5474ZM77.644 36.2674Q77.098 36.5474 76.636 36.5474Q76.16 36.5474 75.95 36.3234Q75.74 36.0994 75.754 35.5394L75.824 31.7454L77.714 31.7454L77.784 31.0874L77.728 31.0034L75.824 31.0034L75.852 29.6454L75.74 29.5474L74.774 29.9674L74.774 31.0034L73.92 31.0034L73.85 31.6614L73.906 31.7454L74.788 31.7454L74.802 34.6434L74.76 35.6374Q74.76 36.4634 75.11 36.8974Q75.46 37.3314 76.258 37.4854Q76.902 37.4294 77.658 37.0794L77.77 36.3514L77.644 36.2674ZM130.858 36.5474Q131.32 36.5474 131.866 36.2674L131.992 36.3514L131.88 37.0794Q131.124 37.4294 130.48 37.4854Q129.682 37.3314 129.332 36.8974Q128.982 36.4634 128.982 35.6374L129.024 34.6434L129.01 31.7454L128.128 31.7454L128.072 31.6614L128.142 31.0034L128.996 31.0034L128.996 29.9674L129.962 29.5474L130.074 29.6454L130.046 31.0034L131.95 31.0034L132.006 31.0874L131.936 31.7454L130.046 31.7454L129.976 35.5394Q129.962 36.0994 130.172 36.3234Q130.382 36.5474 130.858 36.5474ZM148.876 36.2674Q148.33 36.5474 147.868 36.5474Q147.392 36.5474 147.182 36.3234Q146.972 36.0994 146.986 35.5394L147.056 31.7454L148.946 31.7454L149.016 31.0874L148.96 31.0034L147.056 31.0034L147.084 29.6454L146.972 29.5474L146.006 29.9674L146.006 31.0034L145.152 31.0034L145.082 31.6614L145.138 31.7454L146.02 31.7454L146.034 34.6434L145.992 35.6374Q145.992 36.4634 146.342 36.8974Q146.692 37.3314 147.49 37.4854Q148.134 37.4294 148.89 37.0794L149.002 36.3514L148.876 36.2674ZM6.804 34.1814L6.804 34.1534L10.822 34.1394L10.962 33.9994Q11.018 33.6634 11.018 33.2854Q11.018 32.1514 10.402 31.5144Q9.786 30.8774 8.666 30.8774Q7.336 30.8774 6.552 31.7874Q5.768 32.6974 5.768 34.2374Q5.768 35.7634 6.552 36.6384Q7.336 37.5134 8.708 37.5134Q9.688 37.5134 10.668 37.0374L10.836 36.0854L10.724 36.0014Q10.318 36.2954 9.828 36.4564Q9.338 36.6174 8.848 36.6174Q7.868 36.6174 7.336 35.9874Q6.804 35.3574 6.804 34.1814ZM17.542 30.9054L17.654 30.9754L17.556 34.6154L17.64 39.9914L16.548 39.9914L16.59 36.9114L16.59 36.6454L16.478 36.6454Q16.1 36.9534 15.785 37.1354Q15.47 37.3174 15.036 37.4714Q13.678 37.4714 12.95 36.6244Q12.222 35.7774 12.222 34.2514Q12.222 32.6274 13.041 31.7524Q13.86 30.8774 15.316 30.8774Q16.114 30.8774 16.982 31.1294L17.542 30.9054ZM27.538 34.1534L27.538 34.1814Q27.538 35.3574 28.07 35.9874Q28.602 36.6174 29.582 36.6174Q30.072 36.6174 30.562 36.4564Q31.052 36.2954 31.458 36.0014L31.57 36.0854L31.402 37.0374Q30.422 37.5134 29.442 37.5134Q28.07 37.5134 27.286 36.6384Q26.502 35.7634 26.502 34.2374Q26.502 32.6974 27.286 31.7874Q28.07 30.8774 29.4 30.8774Q30.52 30.8774 31.136 31.5144Q31.752 32.1514 31.752 33.2854Q31.752 33.6634 31.696 33.9994L31.556 34.1394L27.538 34.1534ZM50.68 30.8774Q51.59 30.8774 52.115 31.3254Q52.64 31.7734 52.64 32.5574Q52.64 32.7954 52.556 34.2794Q52.472 35.7634 52.472 36.0154Q52.472 36.3234 52.57 36.4424Q52.668 36.5614 52.906 36.5614Q53.116 36.5614 53.382 36.4774L53.494 36.5754L53.382 37.2054Q52.976 37.4434 52.584 37.4854Q52.15 37.4434 51.891 37.1774Q51.632 36.9114 51.618 36.4494L51.52 36.4494Q50.764 37.2194 50.022 37.4994Q49.084 37.4994 48.559 37.0304Q48.034 36.5614 48.034 35.7494Q48.034 35.1334 48.363 34.7694Q48.692 34.4054 49.336 34.2514L51.604 33.7194L51.618 32.8094Q51.618 32.2634 51.331 31.9694Q51.044 31.6754 50.512 31.6754Q50.036 31.6754 49.56 31.8994Q49.084 32.1234 48.538 32.5994L48.426 32.5434L48.286 31.7454Q49.448 30.8774 50.68 30.8774ZM79.59 34.1534L79.59 34.1814Q79.59 35.3574 80.122 35.9874Q80.654 36.6174 81.634 36.6174Q82.124 36.6174 82.614 36.4564Q83.104 36.2954 83.51 36.0014L83.622 36.0854L83.454 37.0374Q82.474 37.5134 81.494 37.5134Q80.122 37.5134 79.338 36.6384Q78.554 35.7634 78.554 34.2374Q78.554 32.6974 79.338 31.7874Q80.122 30.8774 81.452 30.8774Q82.572 30.8774 83.188 31.5144Q83.804 32.1514 83.804 33.2854Q83.804 33.6634 83.748 33.9994L83.608 34.1394L79.59 34.1534ZM111.02 34.1534L111.02 34.1814Q111.02 35.3574 111.552 35.9874Q112.084 36.6174 113.064 36.6174Q113.554 36.6174 114.044 36.4564Q114.534 36.2954 114.94 36.0014L115.052 36.0854L114.884 37.0374Q113.904 37.5134 112.924 37.5134Q111.552 37.5134 110.768 36.6384Q109.984 35.7634 109.984 34.2374Q109.984 32.6974 110.768 31.7874Q111.552 30.8774 112.882 30.8774Q114.002 30.8774 114.618 31.5144Q115.234 32.1514 115.234 33.2854Q115.234 33.6634 115.178 33.9994L115.038 34.1394L111.02 34.1534ZM133.812 34.1814L133.812 34.1534L137.83 34.1394L137.97 33.9994Q138.026 33.6634 138.026 33.2854Q138.026 32.1514 137.41 31.5144Q136.794 30.8774 135.674 30.8774Q134.344 30.8774 133.56 31.7874Q132.776 32.6974 132.776 34.2374Q132.776 35.7634 133.56 36.6384Q134.344 37.5134 135.716 37.5134Q136.696 37.5134 137.676 37.0374L137.844 36.0854L137.732 36.0014Q137.326 36.2954 136.836 36.4564Q136.346 36.6174 135.856 36.6174Q134.876 36.6174 134.344 35.9874Q133.812 35.3574 133.812 34.1814ZM4.41 31.1994Q3.668 30.8914 2.87 30.8914Q1.848 30.8914 1.253 31.4094Q0.658 31.9274 0.658 32.7394Q0.658 33.2574 0.896 33.6074Q1.134 33.9574 1.47 34.1604Q1.806 34.3634 2.352 34.6154Q2.982 34.9094 3.283 35.1404Q3.584 35.3714 3.584 35.7494Q3.584 36.1414 3.262 36.4284Q2.94 36.7154 2.422 36.7154Q2.016 36.7154 1.561 36.5334Q1.106 36.3514 0.714 36.0154L0.588 36.0994L0.448 37.0514Q1.33 37.5134 2.31 37.5134Q3.024 37.5134 3.542 37.2404Q4.06 36.9674 4.326 36.5194Q4.592 36.0714 4.592 35.5534Q4.592 35.0634 4.354 34.7274Q4.116 34.3914 3.787 34.1884Q3.458 33.9854 2.912 33.7334Q2.282 33.4394 1.981 33.2084Q1.68 32.9774 1.68 32.5994Q1.68 32.2214 1.974 31.9554Q2.268 31.6894 2.744 31.6894Q3.388 31.6894 4.088 32.1514L4.256 32.1094L4.41 31.1994ZM37.268 32.1514Q37.548 32.4734 37.534 33.0474L37.464 37.4014L38.584 37.4014L38.528 34.6154L38.556 32.7954Q38.57 31.8854 38.017 31.3954Q37.464 30.9054 36.414 30.9054Q35.504 31.1294 34.636 31.8994L34.552 31.8994L34.552 30.9614L33.502 31.0594L33.558 34.6854L33.488 37.4014L34.594 37.4014L34.538 34.5874L34.538 32.8234Q35.56 31.8294 36.442 31.8294Q36.988 31.8294 37.268 32.1514ZM71.442 33.0474Q71.456 32.4734 71.176 32.1514Q70.896 31.8294 70.35 31.8294Q69.468 31.8294 68.446 32.8234L68.446 34.5874L68.502 37.4014L67.396 37.4014L67.466 34.6854L67.41 31.0594L68.46 30.9614L68.46 31.8994L68.544 31.8994Q69.412 31.1294 70.322 30.9054Q71.372 30.9054 71.925 31.3954Q72.478 31.8854 72.464 32.7954L72.436 34.6154L72.492 37.4014L71.372 37.4014L71.442 33.0474ZM100.954 33.0474Q100.968 32.4734 100.688 32.1514Q100.408 31.8294 99.862 31.8294Q98.98 31.8294 97.958 32.8234L97.958 34.5874L98.014 37.4014L96.908 37.4014L96.978 34.6854L96.922 31.0594L97.972 30.9614L97.972 31.8994L98.056 31.8994Q98.924 31.1294 99.834 30.9054Q100.884 30.9054 101.437 31.3954Q101.99 31.8854 101.976 32.7954L101.948 34.6154L102.004 37.4014L100.884 37.4014L100.954 33.0474ZM140.434 31.5494L141.764 33.4954L142.982 31.5634L143.304 30.9894L144.34 30.9894L142.338 34.1254L144.48 37.3454L143.304 37.4574L142.996 36.7994L141.624 34.7694L140.28 36.8554L140 37.4014L138.964 37.4014L141.022 34.1394L138.978 31.0314L140.168 30.9474L140.434 31.5494ZM25.522 37.2054L25.634 36.5754L25.522 36.4774Q25.256 36.5614 25.032 36.5614Q24.808 36.5614 24.717 36.4424Q24.626 36.3234 24.626 36.0294L24.696 30.9614L23.632 31.0594L23.632 35.7074Q22.764 36.5474 21.896 36.5474Q21.364 36.5474 21.091 36.2254Q20.818 35.9034 20.818 35.3294L20.902 30.9614L19.782 31.0594L19.824 33.8174L19.81 35.5954Q19.796 36.5054 20.335 36.9954Q20.874 37.4854 21.91 37.4854Q22.806 37.2614 23.646 36.5054L23.73 36.5054Q23.828 36.9674 24.073 37.1984Q24.318 37.4294 24.724 37.4854Q25.116 37.4434 25.522 37.2054ZM45.206 31.0594L45.248 34.6854L45.192 37.4014L46.284 37.4014L46.256 34.5874L46.284 30.9614L45.206 31.0594ZM64.036 31.0594L64.078 34.6854L64.022 37.4014L65.114 37.4014L65.086 34.5874L65.114 30.9614L64.036 31.0594ZM88.844 31.0034Q88.648 30.9754 88.48 30.9754Q88.018 30.9754 87.542 31.2764Q87.066 31.5774 86.674 32.2774L86.59 32.2774L86.604 30.9614L85.554 31.0594L85.61 34.6854L85.54 37.4014L86.646 37.4014L86.576 34.5874L86.59 33.6074Q86.968 32.7954 87.353 32.4244Q87.738 32.0534 88.2 32.0534Q88.48 32.0534 88.718 32.1234L88.844 32.0814L88.844 31.0034ZM93.548 31.0594L93.59 34.6854L93.534 37.4014L94.626 37.4014L94.598 34.5874L94.626 30.9614L93.548 31.0594ZM109.284 37.2054Q107.562 35.2314 106.596 33.9294L109.116 30.9894L107.856 30.9894L107.492 31.5634L105.49 33.9294L105.49 34.0274Q106.568 35.5954 108.15 37.4714L108.29 37.5274Q108.388 37.5134 108.703 37.4644Q109.018 37.4154 109.284 37.3314L109.284 37.2054ZM7.497 32.1164Q7.966 31.6614 8.666 31.6614Q9.31 31.6614 9.653 32.0464Q9.996 32.4314 9.996 33.1454L9.968 33.3414L6.874 33.3974Q7.028 32.5714 7.497 32.1164ZM29.4 31.6614Q28.7 31.6614 28.231 32.1164Q27.762 32.5714 27.608 33.3974L30.702 33.3414L30.73 33.1454Q30.73 32.4314 30.387 32.0464Q30.044 31.6614 29.4 31.6614ZM81.452 31.6614Q80.752 31.6614 80.283 32.1164Q79.814 32.5714 79.66 33.3974L82.754 33.3414L82.782 33.1454Q82.782 32.4314 82.439 32.0464Q82.096 31.6614 81.452 31.6614ZM112.882 31.6614Q112.182 31.6614 111.713 32.1164Q111.244 32.5714 111.09 33.3974L114.184 33.3414L114.212 33.1454Q114.212 32.4314 113.869 32.0464Q113.526 31.6614 112.882 31.6614ZM118.006 32.2704Q118.524 31.6614 119.42 31.6614Q120.036 31.6614 120.778 32.0114L120.82 34.6714L120.792 35.6794Q120.386 36.1414 120.015 36.3374Q119.644 36.5334 119.252 36.5334Q118.426 36.5334 117.957 35.8754Q117.488 35.2174 117.488 34.0274Q117.488 32.8794 118.006 32.2704ZM134.505 32.1164Q134.974 31.6614 135.674 31.6614Q136.318 31.6614 136.661 32.0464Q137.004 32.4314 137.004 33.1454L136.976 33.3414L133.882 33.3974Q134.036 32.5714 134.505 32.1164ZM15.19 31.6754Q14.294 31.6754 13.783 32.2774Q13.272 32.8794 13.272 34.0694Q13.272 35.2314 13.727 35.8824Q14.182 36.5334 14.98 36.5334Q15.386 36.5334 15.771 36.3374Q16.156 36.1414 16.59 35.6794L16.604 34.7274L16.562 32.0534Q15.834 31.6754 15.19 31.6754ZM49.56 34.9234Q49.28 35.0074 49.154 35.1544Q49.028 35.3014 49.028 35.5954Q49.028 36.0574 49.287 36.3164Q49.546 36.5754 49.98 36.5754Q50.75 36.5754 51.548 35.5814L51.59 34.4334L49.56 34.9234ZM59.15 36.1834Q59.738 36.5474 59.738 37.1214Q59.738 38.0314 58.422 38.9974L58.044 38.6474L58.044 38.5494Q58.814 37.9474 58.814 37.3174Q58.814 36.9394 58.38 36.6594L58.38 36.5474Q58.772 36.2814 59.15 36.1834Z" />
    </g>
  </g>
  <g id="Enhanced-Digital-Books:-sequen" transform="translate(16.49998 143.4999)">
    <g id="Enhanced-Digital-Books:" fill="#3C334D">
      <path d="M27.04 10.91Q27.44 11.37 27.42 12.19L27.32 18.41L28.92 18.41L28.84 14.43L28.88 11.83Q28.9 10.53 28.12 9.83Q27.34 9.13 25.82 9.13Q24.52 9.45 23.28 10.55L23.16 10.55L23.24 4.37L21.66 4.51L21.76 14.51L21.64 18.41L23.22 18.41L23.12 14.39L23.16 11.87Q24.54 10.45 25.86 10.45Q26.64 10.45 27.04 10.91ZM75.3 14.39L75.36 16.45Q75.38 16.87 75.5 17.04Q75.62 17.21 75.94 17.21Q76.26 17.21 76.62 17.09L76.78 17.23L76.62 18.13Q76.08 18.47 75.5 18.53Q74.88 18.47 74.53 18.11Q74.18 17.75 74.1 17.13L73.96 17.13Q73.36 17.65 72.88 17.96Q72.4 18.27 71.78 18.51Q69.8 18.51 68.74 17.3Q67.68 16.09 67.68 13.85Q67.68 11.59 68.86 10.34Q70.04 9.09 72.12 9.09Q73.06 9.09 73.88 9.29L73.86 4.51L75.44 4.37L75.3 14.39ZM131.72 18.41L131.62 14.39L131.74 4.37L130.16 4.51L130.26 14.51L130.14 18.41L131.72 18.41ZM170.34 18.41L170.24 14.39L170.36 4.37L168.78 4.51L168.88 14.51L168.76 18.41L170.34 18.41ZM95.86 5.15Q96.26 5.15 96.5 5.39Q96.74 5.63 96.74 6.05Q96.74 6.49 96.49 6.75Q96.24 7.01 95.8 7.01Q95.38 7.01 95.15 6.77Q94.92 6.53 94.92 6.09Q94.92 5.67 95.17 5.41Q95.42 5.15 95.86 5.15ZM110.44 5.15Q110.84 5.15 111.08 5.39Q111.32 5.63 111.32 6.05Q111.32 6.49 111.07 6.75Q110.82 7.01 110.38 7.01Q109.96 7.01 109.73 6.77Q109.5 6.53 109.5 6.09Q109.5 5.67 109.75 5.41Q110 5.15 110.44 5.15ZM91.2 7.07Q89.74 5.51 87 5.51L82.38 5.59L82.36 5.59L82.46 14.55L82.36 18.41L82.38 18.41Q83.38 18.47 84.55 18.5Q85.72 18.53 86.54 18.53Q89.5 18.53 91.08 16.73Q92.66 14.93 92.66 11.55Q92.66 8.63 91.2 7.07ZM143.94 11.73Q146.66 12.27 146.66 14.83Q146.66 16.65 145.34 17.57Q144.02 18.49 141.4 18.49Q139.64 18.49 138.58 18.41L138.56 18.41L138.66 14.55L138.56 5.59L142.12 5.57Q143.92 5.57 144.89 6.37Q145.86 7.17 145.86 8.69Q145.86 9.77 145.36 10.55Q144.86 11.33 143.94 11.73ZM9.18 17.17L9.06 18.41L1.86 18.41L1.96 14.55L1.86 5.59L9.08 5.59L9.16 5.75L9.04 6.99L6.02 6.93L3.48 6.97L3.44 11.17L5.84 11.21L7.96 11.15L8.08 11.29L7.94 12.53L5.7 12.49L3.42 12.51L3.4 14.41L3.46 17.07L6 17.09L9.08 17.01L9.18 17.17ZM89.93 15.86Q88.84 17.19 86.8 17.19Q86.32 17.19 85.45 17.16Q84.58 17.13 83.96 17.07L83.9 14.41L83.98 6.93Q85.62 6.85 86.88 6.85Q88.548 6.85 89.5439 7.66811Q91.02 8.88059 91.02 11.89Q91.02 14.53 89.93 15.86ZM144.22 8.87Q144.22 7.83 143.65 7.36Q143.08 6.89 141.8 6.89L140.18 6.89L140.14 11.19L142.34 11.25Q144.22 10.81 144.22 8.87ZM118.76 16.79Q117.98 17.19 117.32 17.19Q116.64 17.19 116.34 16.87Q116.04 16.55 116.06 15.75L116.16 10.33L118.86 10.33L118.96 9.39L118.88 9.27L116.16 9.27L116.2 7.33L116.04 7.19L114.66 7.79L114.66 9.27L113.44 9.27L113.34 10.21L113.42 10.33L114.68 10.33L114.7 14.47L114.64 15.89Q114.64 17.07 115.14 17.69Q115.64 18.31 116.78 18.53Q117.7 18.45 118.78 17.95L118.94 16.91L118.76 16.79ZM106.12 10.45Q107.34 10.21 107.96 10.03L107.96 8.95L107.8 8.83Q106.28 9.25 104.9 9.51Q104.16 9.15 103.1 9.15Q101.48 9.15 100.51 10Q99.54 10.85 99.54 12.35Q99.54 13.21 99.87 13.86Q100.2 14.51 100.84 14.91L100.84 14.99Q100.04 15.51 99.62 16.21Q99.62 16.85 100.01 17.22Q100.4 17.59 101.12 17.81L101.12 17.91Q99.84 18.69 99.36 19.65Q99.36 20.81 100.25 21.54Q101.14 22.27 102.74 22.27Q103.92 22.27 104.91 21.87Q105.9 21.47 106.47 20.77Q107.04 20.07 107.04 19.23C107.04 18.6967 106.86 18.28 106.5 17.98Q105.96 17.53 105.22 17.33Q104.48 17.13 103.32 16.97Q102.14 16.79 101.62 16.62Q101.1 16.45 101.1 16.03Q101.1 15.83 101.22 15.67Q101.34 15.51 101.68 15.25Q102.26 15.41 102.92 15.41Q104.58 15.41 105.55 14.55Q106.52 13.69 106.52 12.23Q106.52 11.23 106.08 10.53L106.12 10.45ZM34.98 9.09Q36.28 9.09 37.03 9.73Q37.78 10.37 37.78 11.49Q37.78 11.83 37.66 13.95Q37.54 16.07 37.54 16.43Q37.54 16.87 37.68 17.04Q37.82 17.21 38.16 17.21Q38.46 17.21 38.84 17.09L39 17.23L38.84 18.13Q38.26 18.47 37.7 18.53Q37.08 18.47 36.71 18.09Q36.34 17.71 36.32 17.05L36.18 17.05Q35.1 18.15 34.04 18.55Q32.7 18.55 31.95 17.88Q31.2 17.21 31.2 16.05Q31.2 15.17 31.67 14.65Q32.14 14.13 33.06 13.91L36.3 13.15L36.32 11.85Q36.32 11.07 35.91 10.65Q35.5 10.23 34.74 10.23Q34.06 10.23 33.38 10.55Q32.7 10.87 31.92 11.55L31.76 11.47L31.56 10.33Q33.22 9.09 34.98 9.09ZM54.82 9.09Q55.44 9.09 56.11 9.24Q56.78 9.39 57.28 9.63L57 11.01L56.82 11.07Q55.78 10.39 54.76 10.39Q53.58 10.39 52.92 11.29Q52.26 12.19 52.26 13.81Q52.26 15.43 52.95 16.36Q53.64 17.29 54.86 17.29Q55.4 17.29 55.99 17.11Q56.58 16.93 57.1 16.61L57.28 16.71L57.1 18.05Q55.88 18.57 54.66 18.57Q52.84 18.57 51.8 17.32Q50.76 16.07 50.76 13.89Q50.76 11.67 51.85 10.38Q52.94 9.09 54.82 9.09ZM59.94 13.81L59.94 13.77L65.68 13.75L65.88 13.55Q65.96 13.07 65.96 12.53Q65.96 10.91 65.08 10Q64.2 9.09 62.6 9.09Q60.7 9.09 59.58 10.39Q58.46 11.69 58.46 13.89Q58.46 16.07 59.58 17.32Q60.7 18.57 62.66 18.57Q64.06 18.57 65.46 17.89L65.7 16.53L65.54 16.41Q64.96 16.83 64.26 17.06Q63.56 17.29 62.86 17.29Q61.46 17.29 60.7 16.39Q59.94 15.49 59.94 13.81ZM123.84 9.09Q125.14 9.09 125.89 9.73Q126.64 10.37 126.64 11.49Q126.64 11.83 126.52 13.95Q126.4 16.07 126.4 16.43Q126.4 16.87 126.54 17.04Q126.68 17.21 127.02 17.21Q127.32 17.21 127.7 17.09L127.86 17.23L127.7 18.13Q127.12 18.47 126.56 18.53Q125.94 18.47 125.57 18.09Q125.2 17.71 125.18 17.05L125.04 17.05Q123.96 18.15 122.9 18.55Q121.56 18.55 120.81 17.88Q120.06 17.21 120.06 16.05Q120.06 15.17 120.53 14.65Q121 14.13 121.92 13.91L125.16 13.15L125.18 11.85Q125.18 11.07 124.77 10.65Q124.36 10.23 123.6 10.23Q122.92 10.23 122.24 10.55Q121.56 10.87 120.78 11.55L120.62 11.47L120.42 10.33Q122.08 9.09 123.84 9.09ZM155.35 10.3Q154.32 9.09 152.46 9.09Q150.46 9.09 149.37 10.36Q148.28 11.63 148.28 13.95Q148.28 16.15 149.31 17.36Q150.34 18.57 152.22 18.57Q154.22 18.57 155.3 17.3Q156.38 16.03 156.38 13.71Q156.38 11.51 155.35 10.3ZM162.28 9.09Q164.14 9.09 165.17 10.3Q166.2 11.51 166.2 13.71Q166.2 16.03 165.12 17.3Q164.04 18.57 162.04 18.57Q160.16 18.57 159.13 17.36Q158.1 16.15 158.1 13.95Q158.1 11.63 159.19 10.36Q160.28 9.09 162.28 9.09ZM180.3 9.11Q181.44 9.11 182.5 9.55L182.28 10.85L182.04 10.91Q181.04 10.25 180.12 10.25Q179.44 10.25 179.02 10.63Q178.6 11.01 178.6 11.55Q178.6 12.09 179.03 12.42Q179.46 12.75 180.36 13.17Q181.14 13.53 181.61 13.82Q182.08 14.11 182.42 14.59Q182.76 15.07 182.76 15.77Q182.76 16.51 182.38 17.15Q182 17.79 181.26 18.18Q180.52 18.57 179.5 18.57Q178.1 18.57 176.84 17.91L177.04 16.55L177.22 16.43Q177.78 16.91 178.43 17.17Q179.08 17.43 179.66 17.43Q180.4 17.43 180.86 17.02Q181.32 16.61 181.32 16.05Q181.32 15.51 180.89 15.18Q180.46 14.85 179.56 14.43Q178.78 14.07 178.3 13.78Q177.82 13.49 177.48 12.99Q177.14 12.49 177.14 11.75Q177.14 10.59 177.99 9.85Q178.84 9.11 180.3 9.11ZM17.02 12.19Q17.04 11.37 16.64 10.91Q16.24 10.45 15.46 10.45Q14.2 10.45 12.74 11.87L12.74 14.39L12.82 18.41L11.24 18.41L11.34 14.53L11.26 9.35L12.76 9.21L12.76 10.55L12.88 10.55Q14.12 9.45 15.42 9.13Q16.92 9.13 17.71 9.83Q18.5 10.53 18.48 11.83L18.44 14.43L18.52 18.41L16.92 18.41L17.02 12.19ZM46.6 10.91Q47 11.37 46.98 12.19L46.88 18.41L48.48 18.41L48.4 14.43L48.44 11.83Q48.46 10.53 47.67 9.83Q46.88 9.13 45.38 9.13Q44.08 9.45 42.84 10.55L42.72 10.55L42.72 9.21L41.22 9.35L41.3 14.53L41.2 18.41L42.78 18.41L42.7 14.39L42.7 11.87Q44.16 10.45 45.42 10.45Q46.2 10.45 46.6 10.91ZM95.12 14.53L95.06 9.35L96.6 9.21L96.56 14.39L96.6 18.41L95.04 18.41L95.12 14.53ZM109.7 14.53L109.64 9.35L111.18 9.21L111.14 14.39L111.18 18.41L109.62 18.41L109.7 14.53ZM176.04 18.13Q173.58 15.31 172.2 13.45L175.8 9.25L174 9.25L173.48 10.07L170.62 13.45L170.62 13.59Q172.16 15.83 174.42 18.51L174.62 18.59Q174.76 18.57 175.21 18.5Q175.66 18.43 176.04 18.31L176.04 18.13ZM60.93 10.86Q61.6 10.21 62.6 10.21Q63.52 10.21 64.01 10.76Q64.5 11.31 64.5 12.33L64.46 12.61L60.04 12.69Q60.26 11.51 60.93 10.86ZM71.94 10.21Q70.66 10.21 69.92 11.08Q69.18 11.95 69.18 13.59Q69.18 15.29 69.85 16.23Q70.52 17.17 71.7 17.17Q72.26 17.17 72.79 16.89Q73.32 16.61 73.9 15.95L73.94 14.51L73.88 10.71Q72.82 10.21 71.94 10.21ZM104.55 13.77Q104 14.33 103 14.33Q102.02 14.33 101.49 13.79Q100.96 13.25 100.96 12.29Q100.96 11.29 101.52 10.75Q102.08 10.21 103.08 10.21Q104.06 10.21 104.58 10.73Q105.1 11.25 105.1 12.21Q105.1 13.21 104.55 13.77ZM150.44 11.07Q151.1 10.21 152.36 10.21Q153.6 10.21 154.25 11.19Q154.9 12.17 154.9 14.07Q154.9 15.75 154.24 16.59Q153.58 17.43 152.32 17.43Q151.08 17.43 150.43 16.47Q149.78 15.51 149.78 13.59Q149.78 11.93 150.44 11.07ZM162.18 10.21Q160.92 10.21 160.26 11.07Q159.6 11.93 159.6 13.59Q159.6 15.51 160.25 16.47Q160.9 17.43 162.14 17.43Q163.4 17.43 164.06 16.59Q164.72 15.75 164.72 14.07Q164.72 12.17 164.07 11.19Q163.42 10.21 162.18 10.21ZM186.48 11.49Q186.24 11.25 185.84 11.25Q185.4 11.25 185.15 11.51Q184.9 11.77 184.9 12.19Q184.9 12.63 185.13 12.87Q185.36 13.11 185.78 13.11Q186.22 13.11 186.47 12.85Q186.72 12.59 186.72 12.15Q186.72 11.73 186.48 11.49ZM141.64 17.15Q143.28 17.15 144.16 16.53Q145.04 15.91 145.04 14.75Q145.04 12.79 142.58 12.51L140.12 12.53L140.1 14.41L140.16 17.09Q140.94 17.15 141.64 17.15ZM33.38 14.87Q32.98 14.99 32.8 15.2Q32.62 15.41 32.62 15.83Q32.62 16.49 32.99 16.86Q33.36 17.23 33.98 17.23Q35.08 17.23 36.22 15.81L36.28 14.17L33.38 14.87ZM122.24 14.87Q121.84 14.99 121.66 15.2Q121.48 15.41 121.48 15.83Q121.48 16.49 121.85 16.86Q122.22 17.23 122.84 17.23Q123.94 17.23 125.08 15.81L125.14 14.17L122.24 14.87ZM186.48 16.89Q186.24 16.65 185.84 16.65Q185.4 16.65 185.15 16.91Q184.9 17.17 184.9 17.59Q184.9 18.03 185.13 18.27Q185.36 18.51 185.78 18.51Q186.22 18.51 186.47 18.25Q186.72 17.99 186.72 17.55Q186.72 17.13 186.48 16.89ZM104.97 18.61Q105.64 18.87 105.64 19.53Q105.64 20.21 104.86 20.68Q104.08 21.15 102.92 21.15Q101.9 21.15 101.33 20.77Q100.76 20.39 100.76 19.81Q100.76 19.35 101.15 18.93Q101.54 18.51 102.3 18.05L102.94 18.15Q104.3 18.35 104.97 18.61Z" />
    </g>
    <g id="sequential,-interlinked--text" fill="#3C334D">
      <path d="M56.196 36.987L56.126 34.173L56.21 27.159L55.104 27.257L55.174 34.257L55.09 36.987L56.196 36.987ZM91.154 34.173L91.224 36.987L90.118 36.987L90.202 34.257L90.132 27.257L91.238 27.159L91.154 34.173ZM105.294 36.987L105.224 34.173L105.308 27.159L104.202 27.257L104.272 34.257L104.188 36.987L105.294 36.987ZM121.814 35.615L121.772 34.173L121.87 27.159L120.764 27.257L120.778 30.603Q120.204 30.463 119.546 30.463Q118.09 30.463 117.264 31.338Q116.438 32.213 116.438 33.795Q116.438 35.363 117.18 36.21Q117.922 37.057 119.308 37.057Q119.742 36.889 120.078 36.672Q120.414 36.455 120.834 36.091L120.932 36.091Q120.988 36.525 121.233 36.777Q121.478 37.029 121.912 37.071Q122.318 37.029 122.696 36.791L122.808 36.161L122.696 36.063Q122.444 36.147 122.22 36.147Q121.996 36.147 121.912 36.028Q121.828 35.909 121.814 35.615ZM46.214 27.873Q46.046 27.705 45.766 27.705Q45.458 27.705 45.283 27.887Q45.108 28.069 45.108 28.363Q45.108 28.671 45.269 28.839Q45.43 29.007 45.724 29.007Q46.032 29.007 46.207 28.825Q46.382 28.643 46.382 28.335Q46.382 28.041 46.214 27.873ZM65.044 27.873Q64.876 27.705 64.596 27.705Q64.288 27.705 64.113 27.887Q63.938 28.069 63.938 28.363Q63.938 28.671 64.099 28.839Q64.26 29.007 64.554 29.007Q64.862 29.007 65.037 28.825Q65.212 28.643 65.212 28.335Q65.212 28.041 65.044 27.873ZM94.556 27.873Q94.388 27.705 94.108 27.705Q93.8 27.705 93.625 27.887Q93.45 28.069 93.45 28.363Q93.45 28.671 93.611 28.839Q93.772 29.007 94.066 29.007Q94.374 29.007 94.549 28.825Q94.724 28.643 94.724 28.335Q94.724 28.041 94.556 27.873ZM42.728 36.133Q43.19 36.133 43.736 35.853L43.862 35.937L43.75 36.665Q42.994 37.015 42.35 37.071Q41.552 36.917 41.202 36.483Q40.852 36.049 40.852 35.223L40.894 34.229L40.88 31.331L39.998 31.331L39.942 31.247L40.012 30.589L40.866 30.589L40.866 29.553L41.832 29.133L41.944 29.231L41.916 30.589L43.82 30.589L43.876 30.673L43.806 31.331L41.916 31.331L41.846 35.125Q41.832 35.685 42.042 35.909Q42.252 36.133 42.728 36.133ZM77.644 35.853Q77.098 36.133 76.636 36.133Q76.16 36.133 75.95 35.909Q75.74 35.685 75.754 35.125L75.824 31.331L77.714 31.331L77.784 30.673L77.728 30.589L75.824 30.589L75.852 29.231L75.74 29.133L74.774 29.553L74.774 30.589L73.92 30.589L73.85 31.247L73.906 31.331L74.788 31.331L74.802 34.229L74.76 35.223Q74.76 36.049 75.11 36.483Q75.46 36.917 76.258 37.071Q76.902 37.015 77.658 36.665L77.77 35.937L77.644 35.853ZM130.858 36.133Q131.32 36.133 131.866 35.853L131.992 35.937L131.88 36.665Q131.124 37.015 130.48 37.071Q129.682 36.917 129.332 36.483Q128.982 36.049 128.982 35.223L129.024 34.229L129.01 31.331L128.128 31.331L128.072 31.247L128.142 30.589L128.996 30.589L128.996 29.553L129.962 29.133L130.074 29.231L130.046 30.589L131.95 30.589L132.006 30.673L131.936 31.331L130.046 31.331L129.976 35.125Q129.962 35.685 130.172 35.909Q130.382 36.133 130.858 36.133ZM148.876 35.853Q148.33 36.133 147.868 36.133Q147.392 36.133 147.182 35.909Q146.972 35.685 146.986 35.125L147.056 31.331L148.946 31.331L149.016 30.673L148.96 30.589L147.056 30.589L147.084 29.231L146.972 29.133L146.006 29.553L146.006 30.589L145.152 30.589L145.082 31.247L145.138 31.331L146.02 31.331L146.034 34.229L145.992 35.223Q145.992 36.049 146.342 36.483Q146.692 36.917 147.49 37.071Q148.134 37.015 148.89 36.665L149.002 35.937L148.876 35.853ZM6.804 33.767L6.804 33.739L10.822 33.725L10.962 33.585Q11.018 33.249 11.018 32.871Q11.018 31.737 10.402 31.1Q9.786 30.463 8.666 30.463Q7.336 30.463 6.552 31.373Q5.768 32.283 5.768 33.823Q5.768 35.349 6.552 36.224Q7.336 37.099 8.708 37.099Q9.688 37.099 10.668 36.623L10.836 35.671L10.724 35.587Q10.318 35.881 9.828 36.042Q9.338 36.203 8.848 36.203Q7.868 36.203 7.336 35.573Q6.804 34.943 6.804 33.767ZM17.542 30.491L17.654 30.561L17.556 34.201L17.64 39.577L16.548 39.577L16.59 36.497L16.59 36.231L16.478 36.231Q16.1 36.539 15.785 36.721Q15.47 36.903 15.036 37.057Q13.678 37.057 12.95 36.21Q12.222 35.363 12.222 33.837Q12.222 32.213 13.041 31.338Q13.86 30.463 15.316 30.463Q16.114 30.463 16.982 30.715L17.542 30.491ZM27.538 33.739L27.538 33.767Q27.538 34.943 28.07 35.573Q28.602 36.203 29.582 36.203Q30.072 36.203 30.562 36.042Q31.052 35.881 31.458 35.587L31.57 35.671L31.402 36.623Q30.422 37.099 29.442 37.099Q28.07 37.099 27.286 36.224Q26.502 35.349 26.502 33.823Q26.502 32.283 27.286 31.373Q28.07 30.463 29.4 30.463Q30.52 30.463 31.136 31.1Q31.752 31.737 31.752 32.871Q31.752 33.249 31.696 33.585L31.556 33.725L27.538 33.739ZM50.68 30.463Q51.59 30.463 52.115 30.911Q52.64 31.359 52.64 32.143Q52.64 32.381 52.556 33.865Q52.472 35.349 52.472 35.601Q52.472 35.909 52.57 36.028Q52.668 36.147 52.906 36.147Q53.116 36.147 53.382 36.063L53.494 36.161L53.382 36.791Q52.976 37.029 52.584 37.071Q52.15 37.029 51.891 36.763Q51.632 36.497 51.618 36.035L51.52 36.035Q50.764 36.805 50.022 37.085Q49.084 37.085 48.559 36.616Q48.034 36.147 48.034 35.335Q48.034 34.719 48.363 34.355Q48.692 33.991 49.336 33.837L51.604 33.305L51.618 32.395Q51.618 31.849 51.331 31.555Q51.044 31.261 50.512 31.261Q50.036 31.261 49.56 31.485Q49.084 31.709 48.538 32.185L48.426 32.129L48.286 31.331Q49.448 30.463 50.68 30.463ZM79.59 33.739L79.59 33.767Q79.59 34.943 80.122 35.573Q80.654 36.203 81.634 36.203Q82.124 36.203 82.614 36.042Q83.104 35.881 83.51 35.587L83.622 35.671L83.454 36.623Q82.474 37.099 81.494 37.099Q80.122 37.099 79.338 36.224Q78.554 35.349 78.554 33.823Q78.554 32.283 79.338 31.373Q80.122 30.463 81.452 30.463Q82.572 30.463 83.188 31.1Q83.804 31.737 83.804 32.871Q83.804 33.249 83.748 33.585L83.608 33.725L79.59 33.739ZM111.02 33.739L111.02 33.767Q111.02 34.943 111.552 35.573Q112.084 36.203 113.064 36.203Q113.554 36.203 114.044 36.042Q114.534 35.881 114.94 35.587L115.052 35.671L114.884 36.623Q113.904 37.099 112.924 37.099Q111.552 37.099 110.768 36.224Q109.984 35.349 109.984 33.823Q109.984 32.283 110.768 31.373Q111.552 30.463 112.882 30.463Q114.002 30.463 114.618 31.1Q115.234 31.737 115.234 32.871Q115.234 33.249 115.178 33.585L115.038 33.725L111.02 33.739ZM133.812 33.767L133.812 33.739L137.83 33.725L137.97 33.585Q138.026 33.249 138.026 32.871Q138.026 31.737 137.41 31.1Q136.794 30.463 135.674 30.463Q134.344 30.463 133.56 31.373Q132.776 32.283 132.776 33.823Q132.776 35.349 133.56 36.224Q134.344 37.099 135.716 37.099Q136.696 37.099 137.676 36.623L137.844 35.671L137.732 35.587Q137.326 35.881 136.836 36.042Q136.346 36.203 135.856 36.203Q134.876 36.203 134.344 35.573Q133.812 34.943 133.812 33.767ZM4.41 30.785Q3.668 30.477 2.87 30.477Q1.848 30.477 1.253 30.995Q0.658 31.513 0.658 32.325Q0.658 32.843 0.896 33.193Q1.134 33.543 1.47 33.746Q1.806 33.949 2.352 34.201Q2.982 34.495 3.283 34.726Q3.584 34.957 3.584 35.335Q3.584 35.727 3.262 36.014Q2.94 36.301 2.422 36.301Q2.016 36.301 1.561 36.119Q1.106 35.937 0.714 35.601L0.588 35.685L0.448 36.637Q1.33 37.099 2.31 37.099Q3.024 37.099 3.542 36.826Q4.06 36.553 4.326 36.105Q4.592 35.657 4.592 35.139Q4.592 34.649 4.354 34.313Q4.116 33.977 3.787 33.774Q3.458 33.571 2.912 33.319Q2.282 33.025 1.981 32.794Q1.68 32.563 1.68 32.185Q1.68 31.807 1.974 31.541Q2.268 31.275 2.744 31.275Q3.388 31.275 4.088 31.737L4.256 31.695L4.41 30.785ZM37.268 31.737Q37.548 32.059 37.534 32.633L37.464 36.987L38.584 36.987L38.528 34.201L38.556 32.381Q38.57 31.471 38.017 30.981Q37.464 30.491 36.414 30.491Q35.504 30.715 34.636 31.485L34.552 31.485L34.552 30.547L33.502 30.645L33.558 34.271L33.488 36.987L34.594 36.987L34.538 34.173L34.538 32.409Q35.56 31.415 36.442 31.415Q36.988 31.415 37.268 31.737ZM71.442 32.633Q71.456 32.059 71.176 31.737Q70.896 31.415 70.35 31.415Q69.468 31.415 68.446 32.409L68.446 34.173L68.502 36.987L67.396 36.987L67.466 34.271L67.41 30.645L68.46 30.547L68.46 31.485L68.544 31.485Q69.412 30.715 70.322 30.491Q71.372 30.491 71.925 30.981Q72.478 31.471 72.464 32.381L72.436 34.201L72.492 36.987L71.372 36.987L71.442 32.633ZM100.954 32.633Q100.968 32.059 100.688 31.737Q100.408 31.415 99.862 31.415Q98.98 31.415 97.958 32.409L97.958 34.173L98.014 36.987L96.908 36.987L96.978 34.271L96.922 30.645L97.972 30.547L97.972 31.485L98.056 31.485Q98.924 30.715 99.834 30.491Q100.884 30.491 101.437 30.981Q101.99 31.471 101.976 32.381L101.948 34.201L102.004 36.987L100.884 36.987L100.954 32.633ZM140.434 31.135L141.764 33.081L142.982 31.149L143.304 30.575L144.34 30.575L142.338 33.711L144.48 36.931L143.304 37.043L142.996 36.385L141.624 34.355L140.28 36.441L140 36.987L138.964 36.987L141.022 33.725L138.978 30.617L140.168 30.533L140.434 31.135ZM25.522 36.791L25.634 36.161L25.522 36.063Q25.256 36.147 25.032 36.147Q24.808 36.147 24.717 36.028Q24.626 35.909 24.626 35.615L24.696 30.547L23.632 30.645L23.632 35.293Q22.764 36.133 21.896 36.133Q21.364 36.133 21.091 35.811Q20.818 35.489 20.818 34.915L20.902 30.547L19.782 30.645L19.824 33.403L19.81 35.181Q19.796 36.091 20.335 36.581Q20.874 37.071 21.91 37.071Q22.806 36.847 23.646 36.091L23.73 36.091Q23.828 36.553 24.073 36.784Q24.318 37.015 24.724 37.071Q25.116 37.029 25.522 36.791ZM45.206 30.645L45.248 34.271L45.192 36.987L46.284 36.987L46.256 34.173L46.284 30.547L45.206 30.645ZM64.036 30.645L64.078 34.271L64.022 36.987L65.114 36.987L65.086 34.173L65.114 30.547L64.036 30.645ZM88.844 30.589Q88.648 30.561 88.48 30.561Q88.018 30.561 87.542 30.862Q87.066 31.163 86.674 31.863L86.59 31.863L86.604 30.547L85.554 30.645L85.61 34.271L85.54 36.987L86.646 36.987L86.576 34.173L86.59 33.193Q86.968 32.381 87.353 32.01Q87.738 31.639 88.2 31.639Q88.48 31.639 88.718 31.709L88.844 31.667L88.844 30.589ZM93.548 30.645L93.59 34.271L93.534 36.987L94.626 36.987L94.598 34.173L94.626 30.547L93.548 30.645ZM109.284 36.791Q107.562 34.817 106.596 33.515L109.116 30.575L107.856 30.575L107.492 31.149L105.49 33.515L105.49 33.613Q106.568 35.181 108.15 37.057L108.29 37.113Q108.388 37.099 108.703 37.05Q109.018 37.001 109.284 36.917L109.284 36.791ZM7.497 31.702Q7.966 31.247 8.666 31.247Q9.31 31.247 9.653 31.632Q9.996 32.017 9.996 32.731L9.968 32.927L6.874 32.983Q7.028 32.157 7.497 31.702ZM29.4 31.247Q28.7 31.247 28.231 31.702Q27.762 32.157 27.608 32.983L30.702 32.927L30.73 32.731Q30.73 32.017 30.387 31.632Q30.044 31.247 29.4 31.247ZM81.452 31.247Q80.752 31.247 80.283 31.702Q79.814 32.157 79.66 32.983L82.754 32.927L82.782 32.731Q82.782 32.017 82.439 31.632Q82.096 31.247 81.452 31.247ZM112.882 31.247Q112.182 31.247 111.713 31.702Q111.244 32.157 111.09 32.983L114.184 32.927L114.212 32.731Q114.212 32.017 113.869 31.632Q113.526 31.247 112.882 31.247ZM118.006 31.856Q118.524 31.247 119.42 31.247Q120.036 31.247 120.778 31.597L120.82 34.257L120.792 35.265Q120.386 35.727 120.015 35.923Q119.644 36.119 119.252 36.119Q118.426 36.119 117.957 35.461Q117.488 34.803 117.488 33.613Q117.488 32.465 118.006 31.856ZM134.505 31.702Q134.974 31.247 135.674 31.247Q136.318 31.247 136.661 31.632Q137.004 32.017 137.004 32.731L136.976 32.927L133.882 32.983Q134.036 32.157 134.505 31.702ZM15.19 31.261Q14.294 31.261 13.783 31.863Q13.272 32.465 13.272 33.655Q13.272 34.817 13.727 35.468Q14.182 36.119 14.98 36.119Q15.386 36.119 15.771 35.923Q16.156 35.727 16.59 35.265L16.604 34.313L16.562 31.639Q15.834 31.261 15.19 31.261ZM49.56 34.509Q49.28 34.593 49.154 34.74Q49.028 34.887 49.028 35.181Q49.028 35.643 49.287 35.902Q49.546 36.161 49.98 36.161Q50.75 36.161 51.548 35.167L51.59 34.019L49.56 34.509ZM59.15 35.769Q59.738 36.133 59.738 36.707Q59.738 37.617 58.422 38.583L58.044 38.233L58.044 38.135Q58.814 37.533 58.814 36.903Q58.814 36.525 58.38 36.245L58.38 36.133Q58.772 35.867 59.15 35.769Z" />
    </g>
    <g id="with-interactive-elements" fill="#3C334D">
      <path d="M22.512 50.0474Q22.526 49.4734 22.246 49.1514Q21.966 48.8294 21.42 48.8294Q20.496 48.8294 19.53 49.8234L19.502 51.5874L19.572 54.4014L18.466 54.4014L18.55 51.6714L18.48 44.6714L19.586 44.5734L19.53 48.8994L19.614 48.8994Q20.482 48.1294 21.392 47.9054Q22.456 47.9054 23.002 48.3954Q23.548 48.8854 23.534 49.7954L23.506 51.6154L23.562 54.4014L22.442 54.4014L22.512 50.0474ZM96.068 54.4014L95.998 51.5874L96.082 44.5734L94.976 44.6714L95.046 51.6714L94.962 54.4014L96.068 54.4014ZM11.144 45.1194Q11.424 45.1194 11.592 45.2874Q11.76 45.4554 11.76 45.7494Q11.76 46.0574 11.585 46.2394Q11.41 46.4214 11.102 46.4214Q10.808 46.4214 10.647 46.2534Q10.486 46.0854 10.486 45.7774Q10.486 45.4834 10.661 45.3014Q10.836 45.1194 11.144 45.1194ZM29.036 45.2874Q28.868 45.1194 28.588 45.1194Q28.28 45.1194 28.105 45.3014Q27.93 45.4834 27.93 45.7774Q27.93 46.0854 28.091 46.2534Q28.252 46.4214 28.546 46.4214Q28.854 46.4214 29.029 46.2394Q29.204 46.0574 29.204 45.7494Q29.204 45.4554 29.036 45.2874ZM71.414 45.2874Q71.246 45.1194 70.966 45.1194Q70.658 45.1194 70.483 45.3014Q70.308 45.4834 70.308 45.7774Q70.308 46.0854 70.469 46.2534Q70.63 46.4214 70.924 46.4214Q71.232 46.4214 71.407 46.2394Q71.582 46.0574 71.582 45.7494Q71.582 45.4554 71.414 45.2874ZM16.968 53.2674Q16.422 53.5474 15.96 53.5474Q15.484 53.5474 15.274 53.3234Q15.064 53.0994 15.078 52.5394L15.148 48.7454L17.038 48.7454L17.108 48.0874L17.052 48.0034L15.148 48.0034L15.176 46.6454L15.064 46.5474L14.098 46.9674L14.098 48.0034L13.244 48.0034L13.174 48.6614L13.23 48.7454L14.112 48.7454L14.126 51.6434L14.084 52.6374Q14.084 53.4634 14.434 53.8974Q14.784 54.3314 15.582 54.4854Q16.226 54.4294 16.982 54.0794L17.094 53.3514L16.968 53.2674ZM41.636 53.2674Q41.09 53.5474 40.628 53.5474Q40.152 53.5474 39.942 53.3234Q39.732 53.0994 39.746 52.5394L39.816 48.7454L41.706 48.7454L41.776 48.0874L41.72 48.0034L39.816 48.0034L39.844 46.6454L39.732 46.5474L38.766 46.9674L38.766 48.0034L37.912 48.0034L37.842 48.6614L37.898 48.7454L38.78 48.7454L38.794 51.6434L38.752 52.6374Q38.752 53.4634 39.102 53.8974Q39.452 54.3314 40.25 54.4854Q40.894 54.4294 41.65 54.0794L41.762 53.3514L41.636 53.2674ZM67.928 53.5474Q68.39 53.5474 68.936 53.2674L69.062 53.3514L68.95 54.0794Q68.194 54.4294 67.55 54.4854Q66.752 54.3314 66.402 53.8974Q66.052 53.4634 66.052 52.6374L66.094 51.6434L66.08 48.7454L65.198 48.7454L65.142 48.6614L65.212 48.0034L66.066 48.0034L66.066 46.9674L67.032 46.5474L67.144 46.6454L67.116 48.0034L69.02 48.0034L69.076 48.0874L69.006 48.7454L67.116 48.7454L67.046 52.5394Q67.032 53.0994 67.242 53.3234Q67.452 53.5474 67.928 53.5474ZM131.712 53.5474Q132.174 53.5474 132.72 53.2674L132.846 53.3514L132.734 54.0794Q131.978 54.4294 131.334 54.4854Q130.536 54.3314 130.186 53.8974Q129.836 53.4634 129.836 52.6374L129.878 51.6434L129.864 48.7454L128.982 48.7454L128.926 48.6614L128.996 48.0034L129.85 48.0034L129.85 46.9674L130.816 46.5474L130.928 46.6454L130.9 48.0034L132.804 48.0034L132.86 48.0874L132.79 48.7454L130.9 48.7454L130.83 52.5394Q130.816 53.0994 131.026 53.3234Q131.236 53.5474 131.712 53.5474ZM43.582 51.1534L43.582 51.1814Q43.582 52.3574 44.114 52.9874Q44.646 53.6174 45.626 53.6174Q46.116 53.6174 46.606 53.4564Q47.096 53.2954 47.502 53.0014L47.614 53.0854L47.446 54.0374Q46.466 54.5134 45.486 54.5134Q44.114 54.5134 43.33 53.6384Q42.546 52.7634 42.546 51.2374Q42.546 49.6974 43.33 48.7874Q44.114 47.8774 45.444 47.8774Q46.564 47.8774 47.18 48.5144Q47.796 49.1514 47.796 50.2854Q47.796 50.6634 47.74 50.9994L47.6 51.1394L43.582 51.1534ZM56.168 47.8774Q57.078 47.8774 57.603 48.3254Q58.128 48.7734 58.128 49.5574Q58.128 49.7954 58.044 51.2794Q57.96 52.7634 57.96 53.0154Q57.96 53.3234 58.058 53.4424Q58.156 53.5614 58.394 53.5614Q58.604 53.5614 58.87 53.4774L58.982 53.5754L58.87 54.2054Q58.464 54.4434 58.072 54.4854Q57.638 54.4434 57.379 54.1774Q57.12 53.9114 57.106 53.4494L57.008 53.4494Q56.252 54.2194 55.51 54.4994Q54.572 54.4994 54.047 54.0304Q53.522 53.5614 53.522 52.7494Q53.522 52.1334 53.851 51.7694Q54.18 51.4054 54.824 51.2514L57.092 50.7194L57.106 49.8094Q57.106 49.2634 56.819 48.9694Q56.532 48.6754 56 48.6754Q55.524 48.6754 55.048 48.8994Q54.572 49.1234 54.026 49.5994L53.914 49.5434L53.774 48.7454Q54.936 47.8774 56.168 47.8774ZM63.735 47.9824Q63.266 47.8774 62.832 47.8774Q61.516 47.8774 60.753 48.7804Q59.99 49.6834 59.99 51.2374Q59.99 52.7634 60.718 53.6384Q61.446 54.5134 62.72 54.5134Q63.574 54.5134 64.428 54.1494L64.554 53.2114L64.428 53.1414Q64.064 53.3654 63.651 53.4914Q63.238 53.6174 62.86 53.6174Q62.006 53.6174 61.523 52.9664Q61.04 52.3154 61.04 51.1814Q61.04 50.0474 61.502 49.4174Q61.964 48.7874 62.79 48.7874Q63.504 48.7874 64.232 49.2634L64.358 49.2214L64.554 48.2554Q64.204 48.0874 63.735 47.9824ZM80.192 51.1814L80.192 51.1534L84.21 51.1394L84.35 50.9994Q84.406 50.6634 84.406 50.2854Q84.406 49.1514 83.79 48.5144Q83.174 47.8774 82.054 47.8774Q80.724 47.8774 79.94 48.7874Q79.156 49.6974 79.156 51.2374Q79.156 52.7634 79.94 53.6384Q80.724 54.5134 82.096 54.5134Q83.076 54.5134 84.056 54.0374L84.224 53.0854L84.112 53.0014Q83.706 53.2954 83.216 53.4564Q82.726 53.6174 82.236 53.6174Q81.256 53.6174 80.724 52.9874Q80.192 52.3574 80.192 51.1814ZM88.956 51.1534L88.956 51.1814Q88.956 52.3574 89.488 52.9874Q90.02 53.6174 91 53.6174Q91.49 53.6174 91.98 53.4564Q92.47 53.2954 92.876 53.0014L92.988 53.0854L92.82 54.0374Q91.84 54.5134 90.86 54.5134Q89.488 54.5134 88.704 53.6384Q87.92 52.7634 87.92 51.2374Q87.92 49.6974 88.704 48.7874Q89.488 47.8774 90.818 47.8774Q91.938 47.8774 92.554 48.5144Q93.17 49.1514 93.17 50.2854Q93.17 50.6634 93.114 50.9994L92.974 51.1394L88.956 51.1534ZM98.868 51.1534L98.868 51.1814Q98.868 52.3574 99.4 52.9874Q99.932 53.6174 100.912 53.6174Q101.402 53.6174 101.892 53.4564Q102.382 53.2954 102.788 53.0014L102.9 53.0854L102.732 54.0374Q101.752 54.5134 100.772 54.5134Q99.4 54.5134 98.616 53.6384Q97.832 52.7634 97.832 51.2374Q97.832 49.6974 98.616 48.7874Q99.4 47.8774 100.73 47.8774Q101.85 47.8774 102.466 48.5144Q103.082 49.1514 103.082 50.2854Q103.082 50.6634 103.026 50.9994L102.886 51.1394L98.868 51.1534ZM116.522 51.1534L116.522 51.1814Q116.522 52.3574 117.054 52.9874Q117.586 53.6174 118.566 53.6174Q119.056 53.6174 119.546 53.4564Q120.036 53.2954 120.442 53.0014L120.554 53.0854L120.386 54.0374Q119.406 54.5134 118.426 54.5134Q117.054 54.5134 116.27 53.6384Q115.486 52.7634 115.486 51.2374Q115.486 49.6974 116.27 48.7874Q117.054 47.8774 118.384 47.8774Q119.504 47.8774 120.12 48.5144Q120.736 49.1514 120.736 50.2854Q120.736 50.6634 120.68 50.9994L120.54 51.1394L116.522 51.1534ZM137.452 48.1994Q136.71 47.8914 135.912 47.8914Q134.89 47.8914 134.295 48.4094Q133.7 48.9274 133.7 49.7394Q133.7 50.2574 133.938 50.6074Q134.176 50.9574 134.512 51.1604Q134.848 51.3634 135.394 51.6154Q136.024 51.9094 136.325 52.1404Q136.626 52.3714 136.626 52.7494Q136.626 53.1414 136.304 53.4284Q135.982 53.7154 135.464 53.7154Q135.058 53.7154 134.603 53.5334Q134.148 53.3514 133.756 53.0154L133.63 53.0994L133.49 54.0514Q134.372 54.5134 135.352 54.5134Q136.066 54.5134 136.584 54.2404Q137.102 53.9674 137.368 53.5194Q137.634 53.0714 137.634 52.5534Q137.634 52.0634 137.396 51.7274Q137.158 51.3914 136.829 51.1884Q136.5 50.9854 135.954 50.7334Q135.324 50.4394 135.023 50.2084Q134.722 49.9774 134.722 49.5994Q134.722 49.2214 135.016 48.9554Q135.31 48.6894 135.786 48.6894Q136.43 48.6894 137.13 49.1514L137.298 49.1094L137.452 48.1994ZM35.434 50.0474Q35.448 49.4734 35.168 49.1514Q34.888 48.8294 34.342 48.8294Q33.46 48.8294 32.438 49.8234L32.438 51.5874L32.494 54.4014L31.388 54.4014L31.458 51.6854L31.402 48.0594L32.452 47.9614L32.452 48.8994L32.536 48.8994Q33.404 48.1294 34.314 47.9054Q35.364 47.9054 35.917 48.3954Q36.47 48.8854 36.456 49.7954L36.428 51.6154L36.484 54.4014L35.364 54.4014L35.434 50.0474ZM112.574 49.1514Q112.854 49.4734 112.84 50.0474L112.77 54.4014L113.89 54.4014L113.834 51.6154L113.862 49.7954Q113.876 48.8854 113.33 48.3954Q112.784 47.9054 111.72 47.9054Q110.712 48.1714 109.83 48.9694L109.746 48.9694Q109.536 48.4514 109.032 48.1784Q108.528 47.9054 107.744 47.9054Q106.834 48.1294 105.966 48.8994L105.882 48.8994L105.882 47.9614L104.832 48.0594L104.888 51.6854L104.818 54.4014L105.924 54.4014L105.868 51.5874L105.868 49.8234Q106.89 48.8294 107.772 48.8294Q108.318 48.8294 108.598 49.1514Q108.878 49.4734 108.864 50.0474L108.78 54.4014L109.914 54.4014L109.858 51.6154L109.886 49.7954Q110.852 48.8294 111.748 48.8294Q112.294 48.8294 112.574 49.1514ZM126.252 49.1514Q126.532 49.4734 126.518 50.0474L126.448 54.4014L127.568 54.4014L127.512 51.6154L127.54 49.7954Q127.554 48.8854 127.001 48.3954Q126.448 47.9054 125.398 47.9054Q124.488 48.1294 123.62 48.8994L123.536 48.8994L123.536 47.9614L122.486 48.0594L122.542 51.6854L122.472 54.4014L123.578 54.4014L123.522 51.5874L123.522 49.8234Q124.544 48.8294 125.426 48.8294Q125.972 48.8294 126.252 49.1514ZM1.456 48.7734L2.632 53.1974L2.716 53.1974L4.074 48.8294L4.284 47.9894L5.376 47.9894L5.53 48.7734L6.706 53.1974L6.79 53.1974L8.148 48.8294L8.358 47.9894L9.324 47.9894L7.21 54.4014L6.16 54.4014L4.816 49.4314L4.718 49.4314L3.164 54.4014L2.072 54.4014L0.28 48.0174L1.302 47.9474L1.456 48.7734ZM74.144 48.8014L75.53 53.2954L75.614 53.2954L77.238 48.8574L77.462 47.9894L78.456 47.9894L76.104 54.4014L74.914 54.4014L72.926 48.0174L73.962 47.9474L74.144 48.8014ZM10.626 51.6854L10.584 48.0594L11.662 47.9614L11.634 51.5874L11.662 54.4014L10.57 54.4014L10.626 51.6854ZM28.028 48.0594L28.07 51.6854L28.014 54.4014L29.106 54.4014L29.078 51.5874L29.106 47.9614L28.028 48.0594ZM52.836 48.0034Q52.64 47.9754 52.472 47.9754Q52.01 47.9754 51.534 48.2764Q51.058 48.5774 50.666 49.2774L50.582 49.2774L50.596 47.9614L49.546 48.0594L49.602 51.6854L49.532 54.4014L50.638 54.4014L50.568 51.5874L50.582 50.6074Q50.96 49.7954 51.345 49.4244Q51.73 49.0534 52.192 49.0534Q52.472 49.0534 52.71 49.1234L52.836 49.0814L52.836 48.0034ZM70.406 48.0594L70.448 51.6854L70.392 54.4014L71.484 54.4014L71.456 51.5874L71.484 47.9614L70.406 48.0594ZM45.444 48.6614Q44.744 48.6614 44.275 49.1164Q43.806 49.5714 43.652 50.3974L46.746 50.3414L46.774 50.1454Q46.774 49.4314 46.431 49.0464Q46.088 48.6614 45.444 48.6614ZM80.885 49.1164Q81.354 48.6614 82.054 48.6614Q82.698 48.6614 83.041 49.0464Q83.384 49.4314 83.384 50.1454L83.356 50.3414L80.262 50.3974Q80.416 49.5714 80.885 49.1164ZM90.818 48.6614Q90.118 48.6614 89.649 49.1164Q89.18 49.5714 89.026 50.3974L92.12 50.3414L92.148 50.1454Q92.148 49.4314 91.805 49.0464Q91.462 48.6614 90.818 48.6614ZM100.73 48.6614Q100.03 48.6614 99.561 49.1164Q99.092 49.5714 98.938 50.3974L102.032 50.3414L102.06 50.1454Q102.06 49.4314 101.717 49.0464Q101.374 48.6614 100.73 48.6614ZM118.384 48.6614Q117.684 48.6614 117.215 49.1164Q116.746 49.5714 116.592 50.3974L119.686 50.3414L119.714 50.1454Q119.714 49.4314 119.371 49.0464Q119.028 48.6614 118.384 48.6614ZM55.048 51.9234Q54.768 52.0074 54.642 52.1544Q54.516 52.3014 54.516 52.5954Q54.516 53.0574 54.775 53.3164Q55.034 53.5754 55.468 53.5754Q56.238 53.5754 57.036 52.5814L57.078 51.4334L55.048 51.9234Z" />
    </g>
  </g>
  <g id="Hypertext-Books:" fill="#3C334D" transform="translate(95.5 27.49995)">
    <path d="M115.7 19.002L115.6 14.982L115.72 4.96195L114.14 5.10195L114.24 15.102L114.12 19.002L115.7 19.002ZM89.3 12.322Q92.02 12.862 92.02 15.422Q92.02 17.242 90.7 18.162Q89.38 19.082 86.76 19.082Q85 19.082 83.94 19.002L83.92 19.002L84.02 15.142L83.92 6.18195L87.48 6.16195Q89.28 6.16195 90.25 6.96195Q91.22 7.76195 91.22 9.28195Q91.22 10.362 90.72 11.142Q90.22 11.922 89.3 12.322ZM11.72 15.002L11.76 19.002L10.18 19.002L10.26 15.142L10.24 13.222L6.68 13.202L3.42 13.222L3.4 15.002L3.46 19.002L1.88 19.002L1.94 15.142L1.88 6.18195L3.48 6.18195L3.42 11.862L6.82 11.882L10.24 11.862L10.18 6.18195L11.8 6.18195L11.72 15.002ZM89.58 9.46195Q89.58 8.42195 89.01 7.95195Q88.44 7.48195 87.16 7.48195L85.54 7.48195L85.5 11.782L87.7 11.842Q89.58 11.402 89.58 9.46195ZM52.56 17.782Q53.22 17.782 54 17.382L54.18 17.502L54.02 18.542Q52.94 19.042 52.02 19.122Q50.88 18.902 50.38 18.282Q49.88 17.662 49.88 16.482L49.94 15.062L49.92 10.922L48.66 10.922L48.58 10.802L48.68 9.86195L49.9 9.86195L49.9 8.38195L51.28 7.78195L51.44 7.92195L51.4 9.86195L54.12 9.86195L54.2 9.98195L54.1 10.922L51.4 10.922L51.3 16.342Q51.28 17.142 51.58 17.462Q51.88 17.782 52.56 17.782ZM78.3 17.382Q77.52 17.782 76.86 17.782Q76.18 17.782 75.88 17.462Q75.58 17.142 75.6 16.342L75.7 10.922L78.4 10.922L78.5 9.98195L78.42 9.86195L75.7 9.86195L75.74 7.92195L75.58 7.78195L74.2 8.38195L74.2 9.86195L72.98 9.86195L72.88 10.802L72.96 10.922L74.22 10.922L74.24 15.062L74.18 16.482Q74.18 17.662 74.68 18.282Q75.18 18.902 76.32 19.122Q77.24 19.042 78.32 18.542L78.48 17.502L78.3 17.382ZM34.72 14.362L34.72 14.402Q34.72 16.082 35.48 16.982Q36.24 17.882 37.64 17.882Q38.34 17.882 39.04 17.652Q39.74 17.422 40.32 17.002L40.48 17.122L40.24 18.482Q38.84 19.162 37.44 19.162Q35.48 19.162 34.36 17.912Q33.24 16.662 33.24 14.482Q33.24 12.282 34.36 10.982Q35.48 9.68195 37.38 9.68195Q38.98 9.68195 39.86 10.592Q40.74 11.502 40.74 13.122Q40.74 13.662 40.66 14.142L40.46 14.342L34.72 14.362ZM56.78 14.402L56.78 14.362L62.52 14.342L62.72 14.142Q62.8 13.662 62.8 13.122Q62.8 11.502 61.92 10.592Q61.04 9.68195 59.44 9.68195Q57.54 9.68195 56.42 10.982Q55.3 12.282 55.3 14.482Q55.3 16.662 56.42 17.912Q57.54 19.162 59.5 19.162Q60.9 19.162 62.3 18.482L62.54 17.122L62.38 17.002Q61.8 17.422 61.1 17.652Q60.4 17.882 59.7 17.882Q58.3 17.882 57.54 16.982Q56.78 16.082 56.78 14.402ZM100.71 10.892Q99.68 9.68195 97.82 9.68195Q95.82 9.68195 94.73 10.952Q93.64 12.222 93.64 14.542Q93.64 16.742 94.67 17.952Q95.7 19.162 97.58 19.162Q99.58 19.162 100.66 17.892Q101.74 16.622 101.74 14.302Q101.74 12.102 100.71 10.892ZM107.64 9.68195Q109.5 9.68195 110.53 10.892Q111.56 12.102 111.56 14.302Q111.56 16.622 110.48 17.892Q109.4 19.162 107.4 19.162Q105.52 19.162 104.49 17.952Q103.46 16.742 103.46 14.542Q103.46 12.222 104.55 10.952Q105.64 9.68195 107.64 9.68195ZM125.66 9.70195Q126.8 9.70195 127.86 10.142L127.64 11.442L127.4 11.502Q126.4 10.842 125.48 10.842Q124.8 10.842 124.38 11.222Q123.96 11.602 123.96 12.142Q123.96 12.682 124.39 13.012Q124.82 13.342 125.72 13.762Q126.5 14.122 126.97 14.412Q127.44 14.702 127.78 15.182Q128.12 15.662 128.12 16.362Q128.12 17.102 127.74 17.742Q127.36 18.382 126.62 18.772Q125.88 19.162 124.86 19.162Q123.46 19.162 122.2 18.502L122.4 17.142L122.58 17.022Q123.14 17.502 123.79 17.762Q124.44 18.022 125.02 18.022Q125.76 18.022 126.22 17.612Q126.68 17.202 126.68 16.642Q126.68 16.102 126.25 15.772Q125.82 15.442 124.92 15.022Q124.14 14.662 123.66 14.372Q123.18 14.082 122.84 13.582Q122.5 13.082 122.5 12.342Q122.5 11.182 123.35 10.442Q124.2 9.70195 125.66 9.70195ZM30.62 10.882Q29.7 9.74195 27.98 9.74195Q27.28 9.92195 26.72 10.222Q26.16 10.522 25.46 11.102L25.32 11.102L25.34 9.80195L23.82 9.94195L23.92 15.122L23.82 22.702L25.38 22.702L25.34 18.982Q26.24 19.162 27.08 19.162Q29.22 19.162 30.38 17.852Q31.54 16.542 31.54 14.142Q31.54 12.022 30.62 10.882ZM15.66 10.962L17.86 17.282L18 17.282L20.28 11.102L20.58 9.84195L22 9.84195L18.72 18.682Q18.22 20.042 17.65 20.822Q17.08 21.602 16.27 22.052Q15.46 22.502 14.14 22.822L14 22.822Q13.58 22.402 13.34 21.882L13.38 21.702Q14.9 21.402 15.71 20.852Q16.52 20.302 17.22 19.002L13.86 9.88195L15.36 9.78195L15.66 10.962ZM66.24 10.642L68.14 13.422L69.88 10.662L70.34 9.84195L71.82 9.84195L68.96 14.322L72.02 18.922L70.34 19.082L69.9 18.142L67.94 15.242L66.02 18.222L65.62 19.002L64.14 19.002L67.08 14.342L64.16 9.90195L65.86 9.78195L66.24 10.642ZM47.94 9.86195Q47.66 9.82195 47.42 9.82195Q46.76 9.82195 46.08 10.252Q45.4 10.682 44.84 11.682L44.72 11.682L44.74 9.80195L43.24 9.94195L43.32 15.122L43.22 19.002L44.8 19.002L44.7 14.982L44.72 13.582Q45.26 12.422 45.81 11.892Q46.36 11.362 47.02 11.362Q47.42 11.362 47.76 11.462L47.94 11.402L47.94 9.86195ZM121.4 18.722Q118.94 15.902 117.56 14.042L121.16 9.84195L119.36 9.84195L118.84 10.662L115.98 14.042L115.98 14.182Q117.52 16.422 119.78 19.102L119.98 19.182Q120.12 19.162 120.57 19.092Q121.02 19.022 121.4 18.902L121.4 18.722ZM37.38 10.802Q36.38 10.802 35.71 11.452Q35.04 12.102 34.82 13.282L39.24 13.202L39.28 12.922Q39.28 11.902 38.79 11.352Q38.3 10.802 37.38 10.802ZM57.77 11.452Q58.44 10.802 59.44 10.802Q60.36 10.802 60.85 11.352Q61.34 11.902 61.34 12.922L61.3 13.202L56.88 13.282Q57.1 12.102 57.77 11.452ZM95.8 11.662Q96.46 10.802 97.72 10.802Q98.96 10.802 99.61 11.782Q100.26 12.762 100.26 14.662Q100.26 16.342 99.6 17.182Q98.94 18.022 97.68 18.022Q96.44 18.022 95.79 17.062Q95.14 16.102 95.14 14.182Q95.14 12.522 95.8 11.662ZM107.54 10.802Q106.28 10.802 105.62 11.662Q104.96 12.522 104.96 14.182Q104.96 16.102 105.61 17.062Q106.26 18.022 107.5 18.022Q108.76 18.022 109.42 17.182Q110.08 16.342 110.08 14.662Q110.08 12.762 109.43 11.782Q108.78 10.802 107.54 10.802ZM29.32 17.082Q28.6 18.002 27.28 18.002Q26.3 18.002 25.32 17.482L25.3 14.982L25.32 12.442Q26 11.722 26.61 11.382Q27.22 11.042 27.84 11.042Q28.9 11.042 29.47 11.922Q30.04 12.802 30.04 14.462Q30.04 16.162 29.32 17.082ZM131.84 12.082Q131.6 11.842 131.2 11.842Q130.76 11.842 130.51 12.102Q130.26 12.362 130.26 12.782Q130.26 13.222 130.49 13.462Q130.72 13.702 131.14 13.702Q131.58 13.702 131.83 13.442Q132.08 13.182 132.08 12.742Q132.08 12.322 131.84 12.082ZM87 17.742Q88.64 17.742 89.52 17.122Q90.4 16.502 90.4 15.342Q90.4 13.382 87.94 13.102L85.48 13.122L85.46 15.002L85.52 17.682Q86.3 17.742 87 17.742ZM131.84 17.482Q131.6 17.242 131.2 17.242Q130.76 17.242 130.51 17.502Q130.26 17.762 130.26 18.182Q130.26 18.622 130.49 18.862Q130.72 19.102 131.14 19.102Q131.58 19.102 131.83 18.842Q132.08 18.582 132.08 18.142Q132.08 17.722 131.84 17.482Z" />
  </g>
  <g id="non-sequential,-interlinked" fill="#3C334D" transform="translate(76.5 51.49995)">
    <path d="M81.816 13.4014L81.746 10.5874L81.83 3.57337L80.724 3.67137L80.794 10.6714L80.71 13.4014L81.816 13.4014ZM116.774 10.5874L116.844 13.4014L115.738 13.4014L115.822 10.6714L115.752 3.67137L116.858 3.57337L116.774 10.5874ZM130.914 13.4014L130.844 10.5874L130.928 3.57337L129.822 3.67137L129.892 10.6714L129.808 13.4014L130.914 13.4014ZM147.434 12.0294L147.392 10.5874L147.49 3.57337L146.384 3.67137L146.398 7.01737Q145.824 6.87737 145.166 6.87737Q143.71 6.87737 142.884 7.75237Q142.058 8.62737 142.058 10.2094Q142.058 11.7774 142.8 12.6244Q143.542 13.4714 144.928 13.4714Q145.362 13.3034 145.698 13.0864Q146.034 12.8694 146.454 12.5054L146.552 12.5054Q146.608 12.9394 146.853 13.1914Q147.098 13.4434 147.532 13.4854Q147.938 13.4434 148.316 13.2054L148.428 12.5754L148.316 12.4774Q148.064 12.5614 147.84 12.5614Q147.616 12.5614 147.532 12.4424Q147.448 12.3234 147.434 12.0294ZM71.834 4.28737Q71.666 4.11937 71.386 4.11937Q71.078 4.11937 70.903 4.30137Q70.728 4.48337 70.728 4.77737Q70.728 5.08537 70.889 5.25337Q71.05 5.42137 71.344 5.42137Q71.652 5.42137 71.827 5.23937Q72.002 5.05737 72.002 4.74937Q72.002 4.45537 71.834 4.28737ZM90.664 4.28737Q90.496 4.11937 90.216 4.11937Q89.908 4.11937 89.733 4.30137Q89.558 4.48337 89.558 4.77737Q89.558 5.08537 89.719 5.25337Q89.88 5.42137 90.174 5.42137Q90.482 5.42137 90.657 5.23937Q90.832 5.05737 90.832 4.74937Q90.832 4.45537 90.664 4.28737ZM120.176 4.28737Q120.008 4.11937 119.728 4.11937Q119.42 4.11937 119.245 4.30137Q119.07 4.48337 119.07 4.77737Q119.07 5.08537 119.231 5.25337Q119.392 5.42137 119.686 5.42137Q119.994 5.42137 120.169 5.23937Q120.344 5.05737 120.344 4.74937Q120.344 4.45537 120.176 4.28737ZM68.348 12.5474Q68.81 12.5474 69.356 12.2674L69.482 12.3514L69.37 13.0794Q68.614 13.4294 67.97 13.4854Q67.172 13.3314 66.822 12.8974Q66.472 12.4634 66.472 11.6374L66.514 10.6434L66.5 7.74537L65.618 7.74537L65.562 7.66137L65.632 7.00337L66.486 7.00337L66.486 5.96737L67.452 5.54737L67.564 5.64537L67.536 7.00337L69.44 7.00337L69.496 7.08737L69.426 7.74537L67.536 7.74537L67.466 11.5394Q67.452 12.0994 67.662 12.3234Q67.872 12.5474 68.348 12.5474ZM103.264 12.2674Q102.718 12.5474 102.256 12.5474Q101.78 12.5474 101.57 12.3234Q101.36 12.0994 101.374 11.5394L101.444 7.74537L103.334 7.74537L103.404 7.08737L103.348 7.00337L101.444 7.00337L101.472 5.64537L101.36 5.54737L100.394 5.96737L100.394 7.00337L99.54 7.00337L99.47 7.66137L99.526 7.74537L100.408 7.74537L100.422 10.6434L100.38 11.6374Q100.38 12.4634 100.73 12.8974Q101.08 13.3314 101.878 13.4854Q102.522 13.4294 103.278 13.0794L103.39 12.3514L103.264 12.2674ZM12.761 7.72437Q12.04 6.87737 10.738 6.87737Q9.338 6.87737 8.575 7.76637Q7.812 8.65537 7.812 10.2794Q7.812 11.8194 8.533 12.6664Q9.254 13.5134 10.57 13.5134Q11.97 13.5134 12.726 12.6244Q13.482 11.7354 13.482 10.1114Q13.482 8.57137 12.761 7.72437ZM32.424 10.1814L32.424 10.1534L36.442 10.1394L36.582 9.99937Q36.638 9.66337 36.638 9.28537Q36.638 8.15137 36.022 7.51437Q35.406 6.87737 34.286 6.87737Q32.956 6.87737 32.172 7.78737Q31.388 8.69737 31.388 10.2374Q31.388 11.7634 32.172 12.6384Q32.956 13.5134 34.328 13.5134Q35.308 13.5134 36.288 13.0374L36.456 12.0854L36.344 12.0014Q35.938 12.2954 35.448 12.4564Q34.958 12.6174 34.468 12.6174Q33.488 12.6174 32.956 11.9874Q32.424 11.3574 32.424 10.1814ZM43.162 6.90537L43.274 6.97537L43.176 10.6154L43.26 15.9914L42.168 15.9914L42.21 12.9114L42.21 12.6454L42.098 12.6454Q41.72 12.9534 41.405 13.1354Q41.09 13.3174 40.656 13.4714Q39.298 13.4714 38.57 12.6244Q37.842 11.7774 37.842 10.2514Q37.842 8.62737 38.661 7.75237Q39.48 6.87737 40.936 6.87737Q41.734 6.87737 42.602 7.12937L43.162 6.90537ZM53.158 10.1534L53.158 10.1814Q53.158 11.3574 53.69 11.9874Q54.222 12.6174 55.202 12.6174Q55.692 12.6174 56.182 12.4564Q56.672 12.2954 57.078 12.0014L57.19 12.0854L57.022 13.0374Q56.042 13.5134 55.062 13.5134Q53.69 13.5134 52.906 12.6384Q52.122 11.7634 52.122 10.2374Q52.122 8.69737 52.906 7.78737Q53.69 6.87737 55.02 6.87737Q56.14 6.87737 56.756 7.51437Q57.372 8.15137 57.372 9.28537Q57.372 9.66337 57.316 9.99937L57.176 10.1394L53.158 10.1534ZM76.3 6.87737Q77.21 6.87737 77.735 7.32537Q78.26 7.77337 78.26 8.55737Q78.26 8.79537 78.176 10.2794Q78.092 11.7634 78.092 12.0154Q78.092 12.3234 78.19 12.4424Q78.288 12.5614 78.526 12.5614Q78.736 12.5614 79.002 12.4774L79.114 12.5754L79.002 13.2054Q78.596 13.4434 78.204 13.4854Q77.77 13.4434 77.511 13.1774Q77.252 12.9114 77.238 12.4494L77.14 12.4494Q76.384 13.2194 75.642 13.4994Q74.704 13.4994 74.179 13.0304Q73.654 12.5614 73.654 11.7494Q73.654 11.1334 73.983 10.7694Q74.312 10.4054 74.956 10.2514L77.224 9.71937L77.238 8.80937Q77.238 8.26337 76.951 7.96937Q76.664 7.67537 76.132 7.67537Q75.656 7.67537 75.18 7.89937Q74.704 8.12337 74.158 8.59937L74.046 8.54337L73.906 7.74537Q75.068 6.87737 76.3 6.87737ZM105.21 10.1534L105.21 10.1814Q105.21 11.3574 105.742 11.9874Q106.274 12.6174 107.254 12.6174Q107.744 12.6174 108.234 12.4564Q108.724 12.2954 109.13 12.0014L109.242 12.0854L109.074 13.0374Q108.094 13.5134 107.114 13.5134Q105.742 13.5134 104.958 12.6384Q104.174 11.7634 104.174 10.2374Q104.174 8.69737 104.958 7.78737Q105.742 6.87737 107.072 6.87737Q108.192 6.87737 108.808 7.51437Q109.424 8.15137 109.424 9.28537Q109.424 9.66337 109.368 9.99937L109.228 10.1394L105.21 10.1534ZM136.64 10.1534L136.64 10.1814Q136.64 11.3574 137.172 11.9874Q137.704 12.6174 138.684 12.6174Q139.174 12.6174 139.664 12.4564Q140.154 12.2954 140.56 12.0014L140.672 12.0854L140.504 13.0374Q139.524 13.5134 138.544 13.5134Q137.172 13.5134 136.388 12.6384Q135.604 11.7634 135.604 10.2374Q135.604 8.69737 136.388 7.78737Q137.172 6.87737 138.502 6.87737Q139.622 6.87737 140.238 7.51437Q140.854 8.15137 140.854 9.28537Q140.854 9.66337 140.798 9.99937L140.658 10.1394L136.64 10.1534ZM28.49 6.89137Q29.288 6.89137 30.03 7.19937L29.876 8.10937L29.708 8.15137Q29.008 7.68937 28.364 7.68937Q27.888 7.68937 27.594 7.95537Q27.3 8.22137 27.3 8.59937Q27.3 8.97737 27.601 9.20837Q27.902 9.43937 28.532 9.73337Q29.078 9.98537 29.407 10.1884Q29.736 10.3914 29.974 10.7274Q30.212 11.0634 30.212 11.5534Q30.212 12.0714 29.946 12.5194Q29.68 12.9674 29.162 13.2404Q28.644 13.5134 27.93 13.5134Q26.95 13.5134 26.068 13.0514L26.208 12.0994L26.334 12.0154Q26.726 12.3514 27.181 12.5334Q27.636 12.7154 28.042 12.7154Q28.56 12.7154 28.882 12.4284Q29.204 12.1414 29.204 11.7494Q29.204 11.3714 28.903 11.1404Q28.602 10.9094 27.972 10.6154Q27.426 10.3634 27.09 10.1604Q26.754 9.95737 26.516 9.60737Q26.278 9.25737 26.278 8.73937Q26.278 7.92737 26.873 7.40937Q27.468 6.89137 28.49 6.89137ZM4.9 8.15137Q5.18 8.47337 5.166 9.04737L5.096 13.4014L6.216 13.4014L6.16 10.6154L6.188 8.79537Q6.202 7.88537 5.649 7.39537Q5.096 6.90537 4.046 6.90537Q3.136 7.12937 2.268 7.89937L2.184 7.89937L2.184 6.96137L1.134 7.05937L1.19 10.6854L1.12 13.4014L2.226 13.4014L2.17 10.5874L2.17 8.82337Q3.192 7.82937 4.074 7.82937Q4.62 7.82937 4.9 8.15137ZM19.264 9.04737Q19.278 8.47337 18.998 8.15137Q18.718 7.82937 18.172 7.82937Q17.29 7.82937 16.268 8.82337L16.268 10.5874L16.324 13.4014L15.218 13.4014L15.288 10.6854L15.232 7.05937L16.282 6.96137L16.282 7.89937L16.366 7.89937Q17.234 7.12937 18.144 6.90537Q19.194 6.90537 19.747 7.39537Q20.3 7.88537 20.286 8.79537L20.258 10.6154L20.314 13.4014L19.194 13.4014L19.264 9.04737ZM62.888 8.15137Q63.168 8.47337 63.154 9.04737L63.084 13.4014L64.204 13.4014L64.148 10.6154L64.176 8.79537Q64.19 7.88537 63.637 7.39537Q63.084 6.90537 62.034 6.90537Q61.124 7.12937 60.256 7.89937L60.172 7.89937L60.172 6.96137L59.122 7.05937L59.178 10.6854L59.108 13.4014L60.214 13.4014L60.158 10.5874L60.158 8.82337Q61.18 7.82937 62.062 7.82937Q62.608 7.82937 62.888 8.15137ZM97.062 9.04737Q97.076 8.47337 96.796 8.15137Q96.516 7.82937 95.97 7.82937Q95.088 7.82937 94.066 8.82337L94.066 10.5874L94.122 13.4014L93.016 13.4014L93.086 10.6854L93.03 7.05937L94.08 6.96137L94.08 7.89937L94.164 7.89937Q95.032 7.12937 95.942 6.90537Q96.992 6.90537 97.545 7.39537Q98.098 7.88537 98.084 8.79537L98.056 10.6154L98.112 13.4014L96.992 13.4014L97.062 9.04737ZM126.574 9.04737Q126.588 8.47337 126.308 8.15137Q126.028 7.82937 125.482 7.82937Q124.6 7.82937 123.578 8.82337L123.578 10.5874L123.634 13.4014L122.528 13.4014L122.598 10.6854L122.542 7.05937L123.592 6.96137L123.592 7.89937L123.676 7.89937Q124.544 7.12937 125.454 6.90537Q126.504 6.90537 127.057 7.39537Q127.61 7.88537 127.596 8.79537L127.568 10.6154L127.624 13.4014L126.504 13.4014L126.574 9.04737ZM51.142 13.2054L51.254 12.5754L51.142 12.4774Q50.876 12.5614 50.652 12.5614Q50.428 12.5614 50.337 12.4424Q50.246 12.3234 50.246 12.0294L50.316 6.96137L49.252 7.05937L49.252 11.7074Q48.384 12.5474 47.516 12.5474Q46.984 12.5474 46.711 12.2254Q46.438 11.9034 46.438 11.3294L46.522 6.96137L45.402 7.05937L45.444 9.81737L45.43 11.5954Q45.416 12.5054 45.955 12.9954Q46.494 13.4854 47.53 13.4854Q48.426 13.2614 49.266 12.5054L49.35 12.5054Q49.448 12.9674 49.693 13.1984Q49.938 13.4294 50.344 13.4854Q50.736 13.4434 51.142 13.2054ZM70.826 7.05937L70.868 10.6854L70.812 13.4014L71.904 13.4014L71.876 10.5874L71.904 6.96137L70.826 7.05937ZM89.656 7.05937L89.698 10.6854L89.642 13.4014L90.734 13.4014L90.706 10.5874L90.734 6.96137L89.656 7.05937ZM114.464 7.00337Q114.268 6.97537 114.1 6.97537Q113.638 6.97537 113.162 7.27637Q112.686 7.57737 112.294 8.27737L112.21 8.27737L112.224 6.96137L111.174 7.05937L111.23 10.6854L111.16 13.4014L112.266 13.4014L112.196 10.5874L112.21 9.60737Q112.588 8.79537 112.973 8.42437Q113.358 8.05337 113.82 8.05337Q114.1 8.05337 114.338 8.12337L114.464 8.08137L114.464 7.00337ZM119.168 7.05937L119.21 10.6854L119.154 13.4014L120.246 13.4014L120.218 10.5874L120.246 6.96137L119.168 7.05937ZM134.904 13.2054Q133.182 11.2314 132.216 9.92937L134.736 6.98937L133.476 6.98937L133.112 7.56337L131.11 9.92937L131.11 10.0274Q132.188 11.5954 133.77 13.4714L133.91 13.5274Q134.008 13.5134 134.323 13.4644Q134.638 13.4154 134.904 13.3314L134.904 13.2054ZM9.324 8.26337Q9.786 7.66137 10.668 7.66137Q11.536 7.66137 11.991 8.34737Q12.446 9.03337 12.446 10.3634Q12.446 11.5394 11.984 12.1274Q11.522 12.7154 10.64 12.7154Q9.772 12.7154 9.317 12.0434Q8.862 11.3714 8.862 10.0274Q8.862 8.86537 9.324 8.26337ZM33.117 8.11637Q33.586 7.66137 34.286 7.66137Q34.93 7.66137 35.273 8.04637Q35.616 8.43137 35.616 9.14537L35.588 9.34137L32.494 9.39737Q32.648 8.57137 33.117 8.11637ZM55.02 7.66137Q54.32 7.66137 53.851 8.11637Q53.382 8.57137 53.228 9.39737L56.322 9.34137L56.35 9.14537Q56.35 8.43137 56.007 8.04637Q55.664 7.66137 55.02 7.66137ZM107.072 7.66137Q106.372 7.66137 105.903 8.11637Q105.434 8.57137 105.28 9.39737L108.374 9.34137L108.402 9.14537Q108.402 8.43137 108.059 8.04637Q107.716 7.66137 107.072 7.66137ZM138.502 7.66137Q137.802 7.66137 137.333 8.11637Q136.864 8.57137 136.71 9.39737L139.804 9.34137L139.832 9.14537Q139.832 8.43137 139.489 8.04637Q139.146 7.66137 138.502 7.66137ZM143.626 8.27037Q144.144 7.66137 145.04 7.66137Q145.656 7.66137 146.398 8.01137L146.44 10.6714L146.412 11.6794Q146.006 12.1414 145.635 12.3374Q145.264 12.5334 144.872 12.5334Q144.046 12.5334 143.577 11.8754Q143.108 11.2174 143.108 10.0274Q143.108 8.87937 143.626 8.27037ZM40.81 7.67537Q39.914 7.67537 39.403 8.27737Q38.892 8.87937 38.892 10.0694Q38.892 11.2314 39.347 11.8824Q39.802 12.5334 40.6 12.5334Q41.006 12.5334 41.391 12.3374Q41.776 12.1414 42.21 11.6794L42.224 10.7274L42.182 8.05337Q41.454 7.67537 40.81 7.67537ZM25.214 9.99937L25.214 9.29937L25.116 9.20137L21.728 9.67737L21.728 10.3774L21.84 10.4894L25.214 9.99937ZM75.18 10.9234Q74.9 11.0074 74.774 11.1544Q74.648 11.3014 74.648 11.5954Q74.648 12.0574 74.907 12.3164Q75.166 12.5754 75.6 12.5754Q76.37 12.5754 77.168 11.5814L77.21 10.4334L75.18 10.9234ZM84.77 12.1834Q85.358 12.5474 85.358 13.1214Q85.358 14.0314 84.042 14.9974L83.664 14.6474L83.664 14.5494Q84.434 13.9474 84.434 13.3174Q84.434 12.9394 84 12.6594L84 12.5474Q84.392 12.2814 84.77 12.1834Z" />
  </g>
  <g id="multi-dimensional-text" fill="#3C334D" transform="translate(62.5 70.49995)">
    <path d="M20.622 13.4014L20.552 10.5874L20.636 3.57337L19.53 3.67137L19.6 10.6714L19.516 13.4014L20.622 13.4014ZM39.914 12.0294L39.872 10.5874L39.97 3.57337L38.864 3.67137L38.878 7.01737Q38.304 6.87737 37.646 6.87737Q36.19 6.87737 35.364 7.75237Q34.538 8.62737 34.538 10.2094Q34.538 11.7774 35.28 12.6244Q36.022 13.4714 37.408 13.4714Q37.842 13.3034 38.178 13.0864Q38.514 12.8694 38.934 12.5054L39.032 12.5054Q39.088 12.9394 39.333 13.1914Q39.578 13.4434 40.012 13.4854Q40.418 13.4434 40.796 13.2054L40.908 12.5754L40.796 12.4774Q40.544 12.5614 40.32 12.5614Q40.096 12.5614 40.012 12.4424Q39.928 12.3234 39.914 12.0294ZM100.884 13.4014L100.814 10.5874L100.898 3.57337L99.792 3.67137L99.862 10.6714L99.778 13.4014L100.884 13.4014ZM28.42 4.28737Q28.252 4.11937 27.972 4.11937Q27.664 4.11937 27.489 4.30137Q27.314 4.48337 27.314 4.77737Q27.314 5.08537 27.475 5.25337Q27.636 5.42137 27.93 5.42137Q28.238 5.42137 28.413 5.23937Q28.588 5.05737 28.588 4.74937Q28.588 4.45537 28.42 4.28737ZM42.91 4.11937Q43.19 4.11937 43.358 4.28737Q43.526 4.45537 43.526 4.74937Q43.526 5.05737 43.351 5.23937Q43.176 5.42137 42.868 5.42137Q42.574 5.42137 42.413 5.25337Q42.252 5.08537 42.252 4.77737Q42.252 4.48337 42.427 4.30137Q42.602 4.11937 42.91 4.11937ZM76.804 4.28737Q76.636 4.11937 76.356 4.11937Q76.048 4.11937 75.873 4.30137Q75.698 4.48337 75.698 4.77737Q75.698 5.08537 75.859 5.25337Q76.02 5.42137 76.314 5.42137Q76.622 5.42137 76.797 5.23937Q76.972 5.05737 76.972 4.74937Q76.972 4.45537 76.804 4.28737ZM24.934 12.5474Q25.396 12.5474 25.942 12.2674L26.068 12.3514L25.956 13.0794Q25.2 13.4294 24.556 13.4854Q23.758 13.3314 23.408 12.8974Q23.058 12.4634 23.058 11.6374L23.1 10.6434L23.086 7.74537L22.204 7.74537L22.148 7.66137L22.218 7.00337L23.072 7.00337L23.072 5.96737L24.038 5.54737L24.15 5.64537L24.122 7.00337L26.026 7.00337L26.082 7.08737L26.012 7.74537L24.122 7.74537L24.052 11.5394Q24.038 12.0994 24.248 12.3234Q24.458 12.5474 24.934 12.5474ZM107.506 12.5474Q107.968 12.5474 108.514 12.2674L108.64 12.3514L108.528 13.0794Q107.772 13.4294 107.128 13.4854Q106.33 13.3314 105.98 12.8974Q105.63 12.4634 105.63 11.6374L105.672 10.6434L105.658 7.74537L104.776 7.74537L104.72 7.66137L104.79 7.00337L105.644 7.00337L105.644 5.96737L106.61 5.54737L106.722 5.64537L106.694 7.00337L108.598 7.00337L108.654 7.08737L108.584 7.74537L106.694 7.74537L106.624 11.5394Q106.61 12.0994 106.82 12.3234Q107.03 12.5474 107.506 12.5474ZM125.524 12.2674Q124.978 12.5474 124.516 12.5474Q124.04 12.5474 123.83 12.3234Q123.62 12.0994 123.634 11.5394L123.704 7.74537L125.594 7.74537L125.664 7.08737L125.608 7.00337L123.704 7.00337L123.732 5.64537L123.62 5.54737L122.654 5.96737L122.654 7.00337L121.8 7.00337L121.73 7.66137L121.786 7.74537L122.668 7.74537L122.682 10.6434L122.64 11.6374Q122.64 12.4634 122.99 12.8974Q123.34 13.3314 124.138 13.4854Q124.782 13.4294 125.538 13.0794L125.65 12.3514L125.524 12.2674ZM57.414 10.1534L57.414 10.1814Q57.414 11.3574 57.946 11.9874Q58.478 12.6174 59.458 12.6174Q59.948 12.6174 60.438 12.4564Q60.928 12.2954 61.334 12.0014L61.446 12.0854L61.278 13.0374Q60.298 13.5134 59.318 13.5134Q57.946 13.5134 57.162 12.6384Q56.378 11.7634 56.378 10.2374Q56.378 8.69737 57.162 7.78737Q57.946 6.87737 59.276 6.87737Q60.396 6.87737 61.012 7.51437Q61.628 8.15137 61.628 9.28537Q61.628 9.66337 61.572 9.99937L61.432 10.1394L57.414 10.1534ZM81.55 6.87737Q82.852 6.87737 83.573 7.72437Q84.294 8.57137 84.294 10.1114Q84.294 11.7354 83.538 12.6244Q82.782 13.5134 81.382 13.5134Q80.066 13.5134 79.345 12.6664Q78.624 11.8194 78.624 10.2794Q78.624 8.65537 79.387 7.76637Q80.15 6.87737 81.55 6.87737ZM95.368 6.87737Q96.278 6.87737 96.803 7.32537Q97.328 7.77337 97.328 8.55737Q97.328 8.79537 97.244 10.2794Q97.16 11.7634 97.16 12.0154Q97.16 12.3234 97.258 12.4424Q97.356 12.5614 97.594 12.5614Q97.804 12.5614 98.07 12.4774L98.182 12.5754L98.07 13.2054Q97.664 13.4434 97.272 13.4854Q96.838 13.4434 96.579 13.1774Q96.32 12.9114 96.306 12.4494L96.208 12.4494Q95.452 13.2194 94.71 13.4994Q93.772 13.4994 93.247 13.0304Q92.722 12.5614 92.722 11.7494Q92.722 11.1334 93.051 10.7694Q93.38 10.4054 94.024 10.2514L96.292 9.71937L96.306 8.80937Q96.306 8.26337 96.019 7.96937Q95.732 7.67537 95.2 7.67537Q94.724 7.67537 94.248 7.89937Q93.772 8.12337 93.226 8.59937L93.114 8.54337L92.974 7.74537Q94.136 6.87737 95.368 6.87737ZM110.46 10.1814L110.46 10.1534L114.478 10.1394L114.618 9.99937Q114.674 9.66337 114.674 9.28537Q114.674 8.15137 114.058 7.51437Q113.442 6.87737 112.322 6.87737Q110.992 6.87737 110.208 7.78737Q109.424 8.69737 109.424 10.2374Q109.424 11.7634 110.208 12.6384Q110.992 13.5134 112.364 13.5134Q113.344 13.5134 114.324 13.0374L114.492 12.0854L114.38 12.0014Q113.974 12.2954 113.484 12.4564Q112.994 12.6174 112.504 12.6174Q111.524 12.6174 110.992 11.9874Q110.46 11.3574 110.46 10.1814ZM72.338 6.89137Q73.136 6.89137 73.878 7.19937L73.724 8.10937L73.556 8.15137Q72.856 7.68937 72.212 7.68937Q71.736 7.68937 71.442 7.95537Q71.148 8.22137 71.148 8.59937Q71.148 8.97737 71.449 9.20837Q71.75 9.43937 72.38 9.73337Q72.926 9.98537 73.255 10.1884Q73.584 10.3914 73.822 10.7274Q74.06 11.0634 74.06 11.5534Q74.06 12.0714 73.794 12.5194Q73.528 12.9674 73.01 13.2404Q72.492 13.5134 71.778 13.5134Q70.798 13.5134 69.916 13.0514L70.056 12.0994L70.182 12.0154Q70.574 12.3514 71.029 12.5334Q71.484 12.7154 71.89 12.7154Q72.408 12.7154 72.73 12.4284Q73.052 12.1414 73.052 11.7494Q73.052 11.3714 72.751 11.1404Q72.45 10.9094 71.82 10.6154Q71.274 10.3634 70.938 10.1604Q70.602 9.95737 70.364 9.60737Q70.126 9.25737 70.126 8.73937Q70.126 7.92737 70.721 7.40937Q71.316 6.89137 72.338 6.89137ZM9.142 9.04737Q9.156 8.47337 8.876 8.15137Q8.596 7.82937 8.05 7.82937Q7.154 7.82937 6.188 8.79537L6.16 10.6154L6.216 13.4014L5.082 13.4014L5.166 9.04737Q5.18 8.47337 4.9 8.15137Q4.62 7.82937 4.074 7.82937Q3.192 7.82937 2.17 8.82337L2.17 10.5874L2.226 13.4014L1.12 13.4014L1.19 10.6854L1.134 7.05937L2.184 6.96137L2.184 7.89937L2.268 7.89937Q3.136 7.12937 4.046 6.90537Q4.83 6.90537 5.334 7.17837Q5.838 7.45137 6.048 7.96937L6.132 7.96937Q7.014 7.17137 8.022 6.90537Q9.086 6.90537 9.632 7.39537Q10.178 7.88537 10.164 8.79537L10.136 10.6154L10.192 13.4014L9.072 13.4014L9.142 9.04737ZM53.466 8.15137Q53.746 8.47337 53.732 9.04737L53.662 13.4014L54.782 13.4014L54.726 10.6154L54.754 8.79537Q54.768 7.88537 54.222 7.39537Q53.676 6.90537 52.612 6.90537Q51.604 7.17137 50.722 7.96937L50.638 7.96937Q50.428 7.45137 49.924 7.17837Q49.42 6.90537 48.636 6.90537Q47.726 7.12937 46.858 7.89937L46.774 7.89937L46.774 6.96137L45.724 7.05937L45.78 10.6854L45.71 13.4014L46.816 13.4014L46.76 10.5874L46.76 8.82337Q47.782 7.82937 48.664 7.82937Q49.21 7.82937 49.49 8.15137Q49.77 8.47337 49.756 9.04737L49.672 13.4014L50.806 13.4014L50.75 10.6154L50.778 8.79537Q51.744 7.82937 52.64 7.82937Q53.186 7.82937 53.466 8.15137ZM67.144 8.15137Q67.424 8.47337 67.41 9.04737L67.34 13.4014L68.46 13.4014L68.404 10.6154L68.432 8.79537Q68.446 7.88537 67.893 7.39537Q67.34 6.90537 66.29 6.90537Q65.38 7.12937 64.512 7.89937L64.428 7.89937L64.428 6.96137L63.378 7.05937L63.434 10.6854L63.364 13.4014L64.47 13.4014L64.414 10.5874L64.414 8.82337Q65.436 7.82937 66.318 7.82937Q66.864 7.82937 67.144 8.15137ZM89.81 8.15137Q90.09 8.47337 90.076 9.04737L90.006 13.4014L91.126 13.4014L91.07 10.6154L91.098 8.79537Q91.112 7.88537 90.559 7.39537Q90.006 6.90537 88.956 6.90537Q88.046 7.12937 87.178 7.89937L87.094 7.89937L87.094 6.96137L86.044 7.05937L86.1 10.6854L86.03 13.4014L87.136 13.4014L87.08 10.5874L87.08 8.82337Q88.102 7.82937 88.984 7.82937Q89.53 7.82937 89.81 8.15137ZM117.082 7.54937L118.412 9.49537L119.63 7.56337L119.952 6.98937L120.988 6.98937L118.986 10.1254L121.128 13.3454L119.952 13.4574L119.644 12.7994L118.272 10.7694L116.928 12.8554L116.648 13.4014L115.612 13.4014L117.67 10.1394L115.626 7.03137L116.816 6.94737L117.082 7.54937ZM18.06 12.5754L17.948 13.2054Q17.542 13.4434 17.15 13.4854Q16.744 13.4294 16.499 13.1984Q16.254 12.9674 16.156 12.5054L16.072 12.5054Q15.232 13.2614 14.336 13.4854Q13.3 13.4854 12.761 12.9954Q12.222 12.5054 12.236 11.5954L12.25 9.81737L12.208 7.05937L13.328 6.96137L13.244 11.3294Q13.244 11.9034 13.517 12.2254Q13.79 12.5474 14.322 12.5474Q15.19 12.5474 16.058 11.7074L16.058 7.05937L17.122 6.96137L17.052 12.0294Q17.052 12.3234 17.143 12.4424Q17.234 12.5614 17.458 12.5614Q17.682 12.5614 17.948 12.4774L18.06 12.5754ZM27.412 7.05937L27.454 10.6854L27.398 13.4014L28.49 13.4014L28.462 10.5874L28.49 6.96137L27.412 7.05937ZM42.392 10.6854L42.35 7.05937L43.428 6.96137L43.4 10.5874L43.428 13.4014L42.336 13.4014L42.392 10.6854ZM75.796 7.05937L75.838 10.6854L75.782 13.4014L76.874 13.4014L76.846 10.5874L76.874 6.96137L75.796 7.05937ZM36.106 8.27037Q36.624 7.66137 37.52 7.66137Q38.136 7.66137 38.878 8.01137L38.92 10.6714L38.892 11.6794Q38.486 12.1414 38.115 12.3374Q37.744 12.5334 37.352 12.5334Q36.526 12.5334 36.057 11.8754Q35.588 11.2174 35.588 10.0274Q35.588 8.87937 36.106 8.27037ZM59.276 7.66137Q58.576 7.66137 58.107 8.11637Q57.638 8.57137 57.484 9.39737L60.578 9.34137L60.606 9.14537Q60.606 8.43137 60.263 8.04637Q59.92 7.66137 59.276 7.66137ZM81.48 7.66137Q80.598 7.66137 80.136 8.26337Q79.674 8.86537 79.674 10.0274Q79.674 11.3714 80.129 12.0434Q80.584 12.7154 81.452 12.7154Q82.334 12.7154 82.796 12.1274Q83.258 11.5394 83.258 10.3634Q83.258 9.03337 82.803 8.34737Q82.348 7.66137 81.48 7.66137ZM111.153 8.11637Q111.622 7.66137 112.322 7.66137Q112.966 7.66137 113.309 8.04637Q113.652 8.43137 113.652 9.14537L113.624 9.34137L110.53 9.39737Q110.684 8.57137 111.153 8.11637ZM33.544 9.29937L33.544 9.99937L30.17 10.4894L30.058 10.3774L30.058 9.67737L33.446 9.20137L33.544 9.29937ZM94.248 10.9234Q93.968 11.0074 93.842 11.1544Q93.716 11.3014 93.716 11.5954Q93.716 12.0574 93.975 12.3164Q94.234 12.5754 94.668 12.5754Q95.438 12.5754 96.236 11.5814L96.278 10.4334L94.248 10.9234Z" />
  </g>
</svg>