<?xml version="1.0" encoding="utf-8"?>
<svg width="498px" height="380px" viewBox="0 0 498 380" version="1.1" xmlns:xlink="http://www.w3.org/1999/xlink" xmlns="http://www.w3.org/2000/svg">
  <desc>Created with Lunacy</desc>
  <path d="M1 308L1 0" transform="translate(266 32)" id="Arrow" fill="none" stroke="#808080" stroke-width="2" />
  <path d="M1 308L1 0" transform="translate(242 33)" id="Arrow-2" fill="none" stroke="#808080" stroke-width="2" />
  <path d="M309 0L0 0" transform="translate(112 209.0001)" id="Arrow-3" fill="none" stroke="#808080" stroke-width="2" />
  <path d="M309 0L0 0" transform="translate(113 186)" id="Arrow-4" fill="none" stroke="#808080" stroke-width="2" />
  <g id="Gestalt" transform="translate(231 0)">
    <path d="M47.5576 18.3018L46.1162 18.3018L46.1162 4.97754L47.5576 4.97754L47.5576 18.3018ZM11.0742 17.4404Q9.17578 18.5127 6.85547 18.5127Q4.15723 18.5127 2.4917 16.7725Q0.826172 15.0322 0.826172 12.167Q0.826172 9.24023 2.67627 7.36377Q4.52637 5.48731 7.36523 5.4873Q9.42188 5.4873 10.8193 6.15527L10.8193 7.79004Q9.29004 6.82324 7.19824 6.82324Q5.08008 6.82324 3.72656 8.28223Q2.37305 9.74121 2.37305 12.0615Q2.37305 14.4521 3.62988 15.8188Q4.88672 17.1855 7.04004 17.1855Q8.5166 17.1855 9.59766 16.5967L9.59766 13.0635L6.83789 13.0635L6.83789 11.7275L11.0742 11.7275L11.0742 17.4404ZM35.0332 18.2139Q34.5234 18.4951 33.6885 18.4951Q31.3242 18.4951 31.3242 15.8584L31.3242 10.5322L29.7773 10.5322L29.7773 9.30176L31.3242 9.30176L31.3242 7.10449L32.7656 6.63867L32.7656 9.30176L35.0332 9.30176L35.0332 10.5322L32.7656 10.5322L32.7656 15.6035Q32.7656 16.5088 33.0732 16.8955Q33.3809 17.2822 34.0928 17.2822Q34.6377 17.2822 35.0332 16.9834L35.0332 18.2139ZM53.3057 18.4951Q54.1406 18.4951 54.6504 18.2139L54.6504 16.9834Q54.2549 17.2822 53.71 17.2822Q52.998 17.2822 52.6904 16.8955Q52.3828 16.5088 52.3828 15.6035L52.3828 10.5322L54.6504 10.5322L54.6504 9.30176L52.3828 9.30176L52.3828 6.63867L50.9414 7.10449L50.9414 9.30176L49.3945 9.30176L49.3945 10.5322L50.9414 10.5322L50.9414 15.8584Q50.9414 18.4951 53.3057 18.4951ZM21.041 14.1621L14.6865 14.1621Q14.7217 15.665 15.4951 16.4824Q16.2686 17.2998 17.6221 17.2998Q19.1426 17.2998 20.417 16.2979L20.417 17.6514Q19.2305 18.5127 17.2793 18.5127Q15.3721 18.5127 14.2822 17.2866Q13.1924 16.0605 13.1924 13.8369Q13.1924 11.7363 14.3833 10.4136Q15.5742 9.09082 17.3408 9.09082Q19.1074 9.09082 20.0742 10.2334Q21.041 11.376 21.041 13.4063L21.041 14.1621ZM22.6758 16.4297L22.6758 17.9766Q23.6953 18.5127 25.084 18.5127Q25.7871 18.5127 26.4287 18.3545Q27.0703 18.1963 27.5625 17.8711Q28.0547 17.5459 28.3491 17.0537Q28.6436 16.5615 28.6436 15.8936Q28.6436 15.3486 28.4634 14.9531Q28.2832 14.5576 27.9492 14.2544Q27.6152 13.9512 27.1406 13.7095Q26.666 13.4678 26.0684 13.2393Q25.6201 13.0635 25.2686 12.9141Q24.917 12.7646 24.6709 12.5801Q24.4248 12.3955 24.2974 12.1582Q24.1699 11.9209 24.1699 11.5693Q24.1699 11.2881 24.2974 11.0552Q24.4248 10.8223 24.6577 10.6553Q24.8906 10.4883 25.2158 10.396Q25.541 10.3037 25.9453 10.3037Q27.2373 10.3037 28.2305 10.9541L28.2305 9.49512Q27.3076 9.09082 26.1387 9.09082Q25.4795 9.09082 24.8599 9.25781Q24.2402 9.4248 23.7568 9.75439Q23.2734 10.084 22.9834 10.5718Q22.6934 11.0596 22.6934 11.6924Q22.6934 12.2109 22.8472 12.5977Q23.001 12.9844 23.3042 13.2876Q23.6074 13.5908 24.0601 13.8325Q24.5127 14.0742 25.1104 14.3115Q25.541 14.4785 25.9146 14.6323Q26.2881 14.7861 26.5649 14.9795Q26.8418 15.1729 27.0044 15.4233Q27.167 15.6738 27.167 16.0342Q27.167 17.2998 25.2686 17.2998Q23.8535 17.2998 22.6758 16.4297ZM41.959 18.3018L43.4004 18.3018L43.4004 12.4482Q43.4004 9.09082 40.2275 9.09082Q38.4961 9.09082 37.1689 9.93457L37.1689 11.4111Q38.4785 10.3037 40.1045 10.3037Q41.959 10.3037 41.959 12.5977L39.2607 12.9756Q36.29 13.3887 36.29 15.9111Q36.29 17.0889 37.0503 17.8008Q37.8105 18.5127 39.1553 18.5127Q40.9834 18.5127 41.9238 16.8955L41.959 16.8955L41.959 18.3018ZM19.5645 12.9404Q19.5557 11.6924 18.9624 10.998Q18.3691 10.3037 17.3145 10.3037Q16.2949 10.3037 15.583 11.0332Q14.8711 11.7627 14.7041 12.9404L19.5645 12.9404ZM39.7881 14.0479L41.959 13.749L41.959 14.6455Q41.959 15.7969 41.2603 16.5483Q40.5615 17.2998 39.4893 17.2998Q38.707 17.2998 38.2368 16.8823Q37.7666 16.4648 37.7666 15.8057Q37.7666 14.9004 38.2764 14.5444Q38.7861 14.1885 39.7881 14.0479Z" />
  </g>
  <g id="Scaling-Up" fill="#7253ED" transform="matrix(0.6819984 -0.7313537 0.7313537 0.6819984 287.7636 121.3197)">
    <path d="M29.9355 18.3018L28.4941 18.3018L28.4941 4.97754L29.9355 4.97754L29.9355 18.3018ZM32.9326 6.75293Q33.2051 7.0166 33.5918 7.0166Q33.9873 7.0166 34.2642 6.74414Q34.541 6.47168 34.541 6.08496Q34.541 5.68066 34.2642 5.4126Q33.9873 5.14453 33.5918 5.14453Q33.2051 5.14453 32.9326 5.4126Q32.6602 5.68066 32.6602 6.08496Q32.6602 6.48926 32.9326 6.75293ZM1.06348 17.792L1.06348 16.0518Q1.3623 16.3154 1.77979 16.5264Q2.19727 16.7373 2.65869 16.8823Q3.12012 17.0273 3.58594 17.1064Q4.05176 17.1855 4.44727 17.1855Q5.80957 17.1855 6.48193 16.6802Q7.1543 16.1748 7.1543 15.2256Q7.1543 14.7158 6.93018 14.3379Q6.70605 13.96 6.31055 13.6479Q5.91504 13.3359 5.37451 13.0503Q4.83398 12.7646 4.20996 12.4482Q3.55078 12.1143 2.97949 11.7715Q2.4082 11.4287 1.98633 11.0156Q1.56445 10.6025 1.32275 10.0796Q1.08105 9.55664 1.08105 8.85352Q1.08105 7.99219 1.45898 7.35498Q1.83691 6.71777 2.45215 6.30469Q3.06738 5.8916 3.854 5.68945Q4.64062 5.48731 5.45801 5.4873Q7.32129 5.4873 8.17383 5.93555L8.17383 7.59668Q7.05762 6.82324 5.30859 6.82324Q4.8252 6.82324 4.3418 6.92432Q3.8584 7.02539 3.48047 7.25391Q3.10254 7.48242 2.86523 7.84277Q2.62793 8.20313 2.62793 8.72168Q2.62793 9.20508 2.80811 9.55664Q2.98828 9.9082 3.33984 10.1982Q3.69141 10.4883 4.19678 10.7607Q4.70215 11.0332 5.36133 11.3584Q6.03809 11.6924 6.64453 12.0615Q7.25098 12.4307 7.70801 12.8789Q8.16504 13.3271 8.43311 13.8721Q8.70117 14.417 8.70117 15.1201Q8.70117 16.0518 8.33643 16.6978Q7.97168 17.3438 7.35205 17.748Q6.73242 18.1523 5.92383 18.3325Q5.11523 18.5127 4.21875 18.5127Q3.91992 18.5127 3.48047 18.4644Q3.04102 18.416 2.58398 18.3237Q2.12695 18.2314 1.71826 18.0952Q1.30957 17.959 1.06348 17.792ZM67.5527 18.5127Q62.9648 18.5127 62.9648 13.4063L62.9648 5.69824L64.4414 5.69824L64.4414 13.3096Q64.4414 17.1855 67.7109 17.1855Q70.8662 17.1855 70.8662 13.4414L70.8662 5.69824L72.3428 5.69824L72.3428 13.2041Q72.3428 18.5127 67.5527 18.5127ZM17.1563 17.8887Q16.1191 18.5127 14.6953 18.5127Q12.7705 18.5127 11.5884 17.2603Q10.4063 16.0078 10.4063 14.0127Q10.4063 11.7891 11.6807 10.4399Q12.9551 9.09082 15.082 9.09082Q16.2686 9.09082 17.1738 9.53027L17.1738 11.0068Q16.1719 10.3037 15.0293 10.3037Q13.6494 10.3037 12.7661 11.2925Q11.8828 12.2813 11.8828 13.8896Q11.8828 15.4717 12.7134 16.3857Q13.5439 17.2998 14.9414 17.2998Q16.1191 17.2998 17.1563 16.5176L17.1563 17.8887ZM24.3369 18.3018L25.7783 18.3018L25.7783 12.4482Q25.7783 9.09082 22.6055 9.09082Q20.874 9.09082 19.5469 9.93457L19.5469 11.4111Q20.8564 10.3037 22.4824 10.3037Q24.3369 10.3037 24.3369 12.5977L21.6387 12.9756Q18.668 13.3887 18.668 15.9111Q18.668 17.0889 19.4282 17.8008Q20.1885 18.5127 21.5332 18.5127Q23.3613 18.5127 24.3018 16.8955L24.3369 16.8955L24.3369 18.3018ZM44.6836 18.3018L43.2422 18.3018L43.2422 13.1689Q43.2422 10.3037 41.1504 10.3037Q40.0693 10.3037 39.3618 11.1167Q38.6543 11.9297 38.6543 13.1689L38.6543 18.3018L37.2129 18.3018L37.2129 9.30176L38.6543 9.30176L38.6543 10.7959L38.6895 10.7959Q39.709 9.09082 41.6426 9.09082Q43.1191 9.09082 43.9014 10.0444Q44.6836 10.998 44.6836 12.7998L44.6836 18.3018ZM50.335 22.5381Q55.0811 22.5381 55.0811 17.5811L55.0811 9.30176L53.6396 9.30176L53.6396 10.5498L53.6045 10.5498Q52.7256 9.09082 50.9063 9.09082Q48.9902 9.09082 47.8872 10.4443Q46.7842 11.7979 46.7842 14.0918Q46.7842 16.1133 47.8081 17.313Q48.832 18.5127 50.5107 18.5127Q52.5762 18.5127 53.6045 16.79L53.6396 16.79L53.6396 17.7744Q53.6396 21.3076 50.3174 21.3076Q48.9375 21.3076 47.417 20.4639L47.417 21.9053Q48.665 22.5381 50.335 22.5381ZM76.7373 17.001L76.7725 17.001Q77.7217 18.5127 79.4707 18.5127Q81.3779 18.5127 82.4766 17.1548Q83.5752 15.7969 83.5752 13.5381Q83.5752 11.5078 82.5996 10.2993Q81.624 9.09082 79.8838 9.09082Q77.8359 9.09082 76.7725 10.8838L76.7373 10.8838L76.7373 9.30176L75.2959 9.30176L75.2959 22.4414L76.7373 22.4414L76.7373 17.001ZM32.8535 18.3018L34.2949 18.3018L34.2949 9.30176L32.8535 9.30176L32.8535 18.3018ZM53.6396 12.9053L53.6396 14.2324Q53.6396 15.5771 52.8794 16.4385Q52.1191 17.2998 50.9063 17.2998Q49.7109 17.2998 48.9858 16.3989Q48.2607 15.498 48.2607 13.9951Q48.2607 12.2461 49.0166 11.2749Q49.7725 10.3037 51.1084 10.3037Q52.1895 10.3037 52.9146 11.0684Q53.6396 11.833 53.6396 12.9053ZM76.7373 14.6279L76.7373 13.3711Q76.7373 12.0527 77.502 11.1782Q78.2666 10.3037 79.5234 10.3037Q80.71 10.3037 81.4043 11.1563Q82.0986 12.0088 82.0986 13.5117Q82.0986 15.2959 81.356 16.2979Q80.6133 17.2998 79.3037 17.2998Q78.1875 17.2998 77.4624 16.522Q76.7373 15.7441 76.7373 14.6279ZM22.166 14.0479L24.3369 13.749L24.3369 14.6455Q24.3369 15.7969 23.6382 16.5483Q22.9395 17.2998 21.8672 17.2998Q21.085 17.2998 20.6147 16.8823Q20.1445 16.4648 20.1445 15.8057Q20.1445 14.9004 20.6543 14.5444Q21.1641 14.1885 22.166 14.0479Z" />
  </g>
  <g id="(Contemplation)" fill="#7253ED" transform="matrix(0.6819984 -0.7313537 0.7313537 0.6819984 307.0682 155.1506)">
    <path d="M80.3672 18.3018L81.8086 18.3018L81.8086 4.97754L80.3672 4.97754L80.3672 18.3018ZM100.723 7.0166Q100.336 7.0166 100.063 6.75293Q99.791 6.48926 99.791 6.08496Q99.791 5.68066 100.063 5.4126Q100.336 5.14453 100.723 5.14453Q101.118 5.14453 101.395 5.4126Q101.672 5.68066 101.672 6.08496Q101.672 6.47168 101.395 6.74414Q101.118 7.0166 100.723 7.0166ZM15.6621 17.7744Q14.2646 18.5127 12.1816 18.5127Q9.49219 18.5127 7.875 16.7813Q6.25781 15.0498 6.25781 12.2373Q6.25781 9.21387 8.07715 7.35059Q9.89648 5.48731 12.6914 5.4873Q14.4844 5.4873 15.6621 6.00586L15.6621 7.5791Q14.3086 6.82324 12.6738 6.82324Q10.5029 6.82324 9.15381 8.27344Q7.80469 9.72363 7.80469 12.1494Q7.80469 14.4521 9.06592 15.8188Q10.3271 17.1855 12.375 17.1855Q14.2734 17.1855 15.6621 16.3418L15.6621 17.7744ZM5.23828 21.167L3.95508 21.167Q1.23047 18.0557 1.23047 13.4941Q1.23047 8.91504 3.95508 5.69824L5.25586 5.69824Q2.49609 9.03809 2.49609 13.4766Q2.49609 17.8799 5.23828 21.167ZM123.829 21.167L125.112 21.167Q127.854 18.0557 127.854 13.4941Q127.854 8.91504 125.112 5.69824L123.812 5.69824Q126.571 9.03809 126.571 13.4766Q126.571 17.8799 123.829 21.167ZM41.5986 18.4951Q42.4336 18.4951 42.9434 18.2139L42.9434 16.9834Q42.5479 17.2822 42.0029 17.2822Q41.291 17.2822 40.9834 16.8955Q40.6758 16.5088 40.6758 15.6035L40.6758 10.5322L42.9434 10.5322L42.9434 9.30176L40.6758 9.30176L40.6758 6.63867L39.2344 7.10449L39.2344 9.30176L37.6875 9.30176L37.6875 10.5322L39.2344 10.5322L39.2344 15.8584Q39.2344 18.4951 41.5986 18.4951ZM96.7148 18.4951Q97.5498 18.4951 98.0596 18.2139L98.0596 16.9834Q97.6641 17.2822 97.1191 17.2822Q96.4072 17.2822 96.0996 16.8955Q95.792 16.5088 95.792 15.6035L95.792 10.5322L98.0596 10.5322L98.0596 9.30176L95.792 9.30176L95.792 6.63867L94.3506 7.10449L94.3506 9.30176L92.8037 9.30176L92.8037 10.5322L94.3506 10.5322L94.3506 15.8584Q94.3506 18.4951 96.7148 18.4951ZM18.6108 17.2515Q19.8018 18.5127 21.7969 18.5127Q23.8447 18.5127 25.062 17.2163Q26.2793 15.9199 26.2793 13.7666Q26.2793 11.5693 25.1499 10.3301Q24.0205 9.09082 22.0078 9.09082Q19.8984 9.09082 18.6592 10.3652Q17.4199 11.6396 17.4199 13.9072Q17.4199 15.9902 18.6108 17.2515ZM36.0527 18.3018L34.6113 18.3018L34.6113 13.1689Q34.6113 10.3037 32.5195 10.3037Q31.4385 10.3037 30.731 11.1167Q30.0234 11.9297 30.0234 13.1689L30.0234 18.3018L28.582 18.3018L28.582 9.30176L30.0234 9.30176L30.0234 10.7959L30.0586 10.7959Q31.0781 9.09082 33.0117 9.09082Q34.4883 9.09082 35.2705 10.0444Q36.0527 10.998 36.0527 12.7998L36.0527 18.3018ZM52.1016 14.1621L45.7471 14.1621Q45.7822 15.665 46.5557 16.4824Q47.3291 17.2998 48.6826 17.2998Q50.2031 17.2998 51.4775 16.2979L51.4775 17.6514Q50.291 18.5127 48.3398 18.5127Q46.4326 18.5127 45.3428 17.2866Q44.2529 16.0605 44.2529 13.8369Q44.2529 11.7363 45.4438 10.4136Q46.6348 9.09082 48.4014 9.09082Q50.168 9.09082 51.1348 10.2334Q52.1016 11.376 52.1016 13.4063L52.1016 14.1621ZM65.6191 18.3018L67.0605 18.3018L67.0605 12.7559Q67.0605 9.09082 64.0898 9.09082Q62.1035 9.09082 61.1016 10.9541Q60.8467 10.1191 60.1611 9.60498Q59.4756 9.09082 58.5527 9.09082Q56.7158 9.09082 55.7578 10.7256L55.7227 10.7256L55.7227 9.30176L54.2813 9.30176L54.2813 18.3018L55.7227 18.3018L55.7227 13.1689Q55.7227 11.8945 56.3379 11.0991Q56.9531 10.3037 57.9023 10.3037Q59.9502 10.3037 59.9502 12.958L59.9502 18.3018L61.3916 18.3018L61.3916 13.1689Q61.3916 11.9912 62.0376 11.1475Q62.6836 10.3037 63.6064 10.3037Q64.6963 10.3037 65.1577 10.9717Q65.6191 11.6396 65.6191 13.1338L65.6191 18.3018ZM71.2617 17.001L71.2266 17.001L71.2266 22.4414L69.7852 22.4414L69.7852 9.30176L71.2266 9.30176L71.2266 10.8838L71.2617 10.8838Q72.3252 9.09082 74.373 9.09082Q76.1133 9.09082 77.0889 10.2993Q78.0645 11.5078 78.0645 13.5381Q78.0645 15.7969 76.9658 17.1548Q75.8672 18.5127 73.96 18.5127Q72.2109 18.5127 71.2617 17.001ZM91.1689 18.3018L89.7275 18.3018L89.7275 16.8955L89.6924 16.8955Q88.752 18.5127 86.9238 18.5127Q85.5791 18.5127 84.8188 17.8008Q84.0586 17.0889 84.0586 15.9111Q84.0586 13.3887 87.0293 12.9756L89.7275 12.5977Q89.7275 10.3037 87.873 10.3037Q86.2471 10.3037 84.9375 11.4111L84.9375 9.93457Q86.2646 9.09082 87.9961 9.09082Q91.1689 9.09082 91.1689 12.4482L91.1689 18.3018ZM104.919 17.2515Q106.11 18.5127 108.105 18.5127Q110.153 18.5127 111.371 17.2163Q112.588 15.9199 112.588 13.7666Q112.588 11.5693 111.458 10.3301Q110.329 9.09082 108.316 9.09082Q106.207 9.09082 104.968 10.3652Q103.729 11.6396 103.729 13.9072Q103.729 15.9902 104.919 17.2515ZM122.361 18.3018L120.92 18.3018L120.92 13.1689Q120.92 10.3037 118.828 10.3037Q117.747 10.3037 117.04 11.1167Q116.332 11.9297 116.332 13.1689L116.332 18.3018L114.891 18.3018L114.891 9.30176L116.332 9.30176L116.332 10.7959L116.367 10.7959Q117.387 9.09082 119.32 9.09082Q120.797 9.09082 121.579 10.0444Q122.361 10.998 122.361 12.7998L122.361 18.3018ZM101.426 18.3018L99.9844 18.3018L99.9844 9.30176L101.426 9.30176L101.426 18.3018ZM19.7051 11.2485Q20.5137 10.3037 21.9023 10.3037Q23.2998 10.3037 24.0513 11.2178Q24.8027 12.1318 24.8027 13.8193Q24.8027 15.4893 24.0513 16.3945Q23.2998 17.2998 21.9023 17.2998Q20.5313 17.2998 19.7139 16.377Q18.8965 15.4541 18.8965 13.8545Q18.8965 12.1934 19.7051 11.2485ZM50.625 12.9404Q50.6162 11.6924 50.0229 10.998Q49.4297 10.3037 48.375 10.3037Q47.3555 10.3037 46.6436 11.0332Q45.9316 11.7627 45.7646 12.9404L50.625 12.9404ZM71.2266 13.3711L71.2266 14.6279Q71.2266 15.7441 71.9517 16.522Q72.6768 17.2998 73.793 17.2998Q75.1025 17.2998 75.8452 16.2979Q76.5879 15.2959 76.5879 13.5117Q76.5879 12.0088 75.8936 11.1563Q75.1992 10.3037 74.0127 10.3037Q72.7559 10.3037 71.9912 11.1782Q71.2266 12.0527 71.2266 13.3711ZM106.014 11.2485Q106.822 10.3037 108.211 10.3037Q109.608 10.3037 110.36 11.2178Q111.111 12.1318 111.111 13.8193Q111.111 15.4893 110.36 16.3945Q109.608 17.2998 108.211 17.2998Q106.84 17.2998 106.022 16.377Q105.205 15.4541 105.205 13.8545Q105.205 12.1934 106.014 11.2485ZM89.7275 13.749L87.5566 14.0479Q86.5547 14.1885 86.0449 14.5444Q85.5352 14.9004 85.5352 15.8057Q85.5352 16.4648 86.0054 16.8823Q86.4756 17.2998 87.2578 17.2998Q88.3301 17.2998 89.0288 16.5483Q89.7275 15.7969 89.7275 14.6455L89.7275 13.749Z" />
  </g>
  <g id="(Meditation)" fill="#7253ED" transform="matrix(0.6819984 -0.7313537 0.7313537 0.6819984 156.0699 314.7573)">
    <path d="M38.707 18.3018L40.1484 18.3018L40.1484 4.97754L38.707 4.97754L38.707 10.5498L38.6719 10.5498Q37.8281 9.09082 35.9736 9.09082Q34.1016 9.09082 32.9766 10.4355Q31.8516 11.7803 31.8516 14.0127Q31.8516 16.0957 32.8667 17.3042Q33.8818 18.5127 35.5781 18.5127Q37.6699 18.5127 38.6719 16.7725L38.707 16.7725L38.707 18.3018ZM43.8047 7.0166Q43.418 7.0166 43.1455 6.75293Q42.873 6.48926 42.873 6.08496Q42.873 5.68066 43.1455 5.4126Q43.418 5.14453 43.8047 5.14453Q44.2002 5.14453 44.4771 5.4126Q44.7539 5.68066 44.7539 6.08496Q44.7539 6.47168 44.4771 6.74414Q44.2002 7.0166 43.8047 7.0166ZM69.5215 7.0166Q69.1348 7.0166 68.8623 6.75293Q68.5898 6.48926 68.5898 6.08496Q68.5898 5.68066 68.8623 5.4126Q69.1348 5.14453 69.5215 5.14453Q69.917 5.14453 70.1938 5.4126Q70.4707 5.68066 70.4707 6.08496Q70.4707 6.47168 70.1938 6.74414Q69.917 7.0166 69.5215 7.0166ZM3.95508 21.167L5.23828 21.167Q2.49609 17.8799 2.49609 13.4766Q2.49609 9.03809 5.25586 5.69824L3.95508 5.69824Q1.23047 8.91504 1.23047 13.4941Q1.23047 18.0557 3.95508 21.167ZM18.4658 18.3018L19.9336 18.3018L19.9336 5.69824L18.0879 5.69824L14.1416 14.4521Q13.9131 14.9619 13.5352 15.999L13.4824 15.999Q13.3506 15.498 12.9023 14.4873L9.03516 5.69824L7.08398 5.69824L7.08398 18.3018L8.50781 18.3018L8.50781 9.86426Q8.50781 8.15039 8.4375 7.39453L8.47266 7.39453Q8.66602 8.26465 8.85059 8.68652L13.1484 18.3018L13.8691 18.3018L18.1758 8.61621Q18.3428 8.24707 18.5537 7.39453L18.5889 7.39453Q18.4658 8.84473 18.4658 9.84668L18.4658 18.3018ZM92.6279 21.167L93.9111 21.167Q96.6533 18.0557 96.6533 13.4941Q96.6533 8.91504 93.9111 5.69824L92.6104 5.69824Q95.3701 9.03809 95.3701 13.4766Q95.3701 17.8799 92.6279 21.167ZM50.2559 18.4951Q51.0908 18.4951 51.6006 18.2139L51.6006 16.9834Q51.2051 17.2822 50.6602 17.2822Q49.9482 17.2822 49.6406 16.8955Q49.333 16.5088 49.333 15.6035L49.333 10.5322L51.6006 10.5322L51.6006 9.30176L49.333 9.30176L49.333 6.63867L47.8916 7.10449L47.8916 9.30176L46.3447 9.30176L46.3447 10.5322L47.8916 10.5322L47.8916 15.8584Q47.8916 18.4951 50.2559 18.4951ZM65.5137 18.4951Q66.3486 18.4951 66.8584 18.2139L66.8584 16.9834Q66.4629 17.2822 65.918 17.2822Q65.2061 17.2822 64.8984 16.8955Q64.5908 16.5088 64.5908 15.6035L64.5908 10.5322L66.8584 10.5322L66.8584 9.30176L64.5908 9.30176L64.5908 6.63867L63.1494 7.10449L63.1494 9.30176L61.6025 9.30176L61.6025 10.5322L63.1494 10.5322L63.1494 15.8584Q63.1494 18.4951 65.5137 18.4951ZM30.2871 14.1621L23.9326 14.1621Q23.9678 15.665 24.7412 16.4824Q25.5146 17.2998 26.8682 17.2998Q28.3887 17.2998 29.6631 16.2979L29.6631 17.6514Q28.4766 18.5127 26.5254 18.5127Q24.6182 18.5127 23.5283 17.2866Q22.4385 16.0605 22.4385 13.8369Q22.4385 11.7363 23.6294 10.4136Q24.8203 9.09082 26.5869 9.09082Q28.3535 9.09082 29.3203 10.2334Q30.2871 11.376 30.2871 13.4063L30.2871 14.1621ZM59.9678 18.3018L58.5264 18.3018L58.5264 16.8955L58.4912 16.8955Q57.5508 18.5127 55.7227 18.5127Q54.3779 18.5127 53.6177 17.8008Q52.8574 17.0889 52.8574 15.9111Q52.8574 13.3887 55.8281 12.9756L58.5264 12.5977Q58.5264 10.3037 56.6719 10.3037Q55.0459 10.3037 53.7363 11.4111L53.7363 9.93457Q55.0635 9.09082 56.7949 9.09082Q59.9678 9.09082 59.9678 12.4482L59.9678 18.3018ZM73.7183 17.2515Q74.9092 18.5127 76.9043 18.5127Q78.9521 18.5127 80.1694 17.2163Q81.3867 15.9199 81.3867 13.7666Q81.3867 11.5693 80.2573 10.3301Q79.1279 9.09082 77.1152 9.09082Q75.0059 9.09082 73.7666 10.3652Q72.5273 11.6396 72.5273 13.9072Q72.5273 15.9902 73.7183 17.2515ZM91.1602 18.3018L89.7188 18.3018L89.7188 13.1689Q89.7188 10.3037 87.627 10.3037Q86.5459 10.3037 85.8384 11.1167Q85.1309 11.9297 85.1309 13.1689L85.1309 18.3018L83.6895 18.3018L83.6895 9.30176L85.1309 9.30176L85.1309 10.7959L85.166 10.7959Q86.1855 9.09082 88.1191 9.09082Q89.5957 9.09082 90.3779 10.0444Q91.1602 10.998 91.1602 12.7998L91.1602 18.3018ZM44.5078 18.3018L43.0664 18.3018L43.0664 9.30176L44.5078 9.30176L44.5078 18.3018ZM70.2246 18.3018L68.7832 18.3018L68.7832 9.30176L70.2246 9.30176L70.2246 18.3018ZM28.8105 12.9404Q28.8018 11.6924 28.2085 10.998Q27.6152 10.3037 26.5605 10.3037Q25.541 10.3037 24.8291 11.0332Q24.1172 11.7627 23.9502 12.9404L28.8105 12.9404ZM38.707 12.9053L38.707 14.2324Q38.707 15.5596 37.9556 16.4297Q37.2041 17.2998 36 17.2998Q34.7783 17.2998 34.0532 16.3989Q33.3281 15.498 33.3281 13.9424Q33.3281 12.2373 34.084 11.2705Q34.8398 10.3037 36.1582 10.3037Q37.2656 10.3037 37.9863 11.0596Q38.707 11.8154 38.707 12.9053ZM74.8125 11.2485Q75.6211 10.3037 77.0098 10.3037Q78.4072 10.3037 79.1587 11.2178Q79.9102 12.1318 79.9102 13.8193Q79.9102 15.4893 79.1587 16.3945Q78.4072 17.2998 77.0098 17.2998Q75.6387 17.2998 74.8213 16.377Q74.0039 15.4541 74.0039 13.8545Q74.0039 12.1934 74.8125 11.2485ZM58.5264 13.749L56.3555 14.0479Q55.3535 14.1885 54.8438 14.5444Q54.334 14.9004 54.334 15.8057Q54.334 16.4648 54.8042 16.8823Q55.2744 17.2998 56.0566 17.2998Q57.1289 17.2998 57.8276 16.5483Q58.5264 15.7969 58.5264 14.6455L58.5264 13.749Z" />
  </g>
  <g id="Scaling-Down" fill="#7253ED" transform="matrix(0.6819984 -0.7313537 0.7313537 0.6819984 125.1596 294.632)">
    <path d="M29.9355 18.3018L28.4941 18.3018L28.4941 4.97754L29.9355 4.97754L29.9355 18.3018ZM32.9326 6.75293Q33.2051 7.0166 33.5918 7.0166Q33.9873 7.0166 34.2642 6.74414Q34.541 6.47168 34.541 6.08496Q34.541 5.68066 34.2642 5.4126Q33.9873 5.14453 33.5918 5.14453Q33.2051 5.14453 32.9326 5.4126Q32.6602 5.68066 32.6602 6.08496Q32.6602 6.48926 32.9326 6.75293ZM1.06348 17.792L1.06348 16.0518Q1.3623 16.3154 1.77979 16.5264Q2.19727 16.7373 2.65869 16.8823Q3.12012 17.0273 3.58594 17.1064Q4.05176 17.1855 4.44727 17.1855Q5.80957 17.1855 6.48193 16.6802Q7.1543 16.1748 7.1543 15.2256Q7.1543 14.7158 6.93018 14.3379Q6.70605 13.96 6.31055 13.6479Q5.91504 13.3359 5.37451 13.0503Q4.83398 12.7646 4.20996 12.4482Q3.55078 12.1143 2.97949 11.7715Q2.4082 11.4287 1.98633 11.0156Q1.56445 10.6025 1.32275 10.0796Q1.08105 9.55664 1.08105 8.85352Q1.08105 7.99219 1.45898 7.35498Q1.83691 6.71777 2.45215 6.30469Q3.06738 5.8916 3.854 5.68945Q4.64062 5.48731 5.45801 5.4873Q7.32129 5.4873 8.17383 5.93555L8.17383 7.59668Q7.05762 6.82324 5.30859 6.82324Q4.8252 6.82324 4.3418 6.92432Q3.8584 7.02539 3.48047 7.25391Q3.10254 7.48242 2.86523 7.84277Q2.62793 8.20313 2.62793 8.72168Q2.62793 9.20508 2.80811 9.55664Q2.98828 9.9082 3.33984 10.1982Q3.69141 10.4883 4.19678 10.7607Q4.70215 11.0332 5.36133 11.3584Q6.03809 11.6924 6.64453 12.0615Q7.25098 12.4307 7.70801 12.8789Q8.16504 13.3271 8.43311 13.8721Q8.70117 14.417 8.70117 15.1201Q8.70117 16.0518 8.33643 16.6978Q7.97168 17.3438 7.35205 17.748Q6.73242 18.1523 5.92383 18.3325Q5.11523 18.5127 4.21875 18.5127Q3.91992 18.5127 3.48047 18.4644Q3.04102 18.416 2.58398 18.3237Q2.12695 18.2314 1.71826 18.0952Q1.30957 17.959 1.06348 17.792ZM63.123 18.3018L63.123 5.69824L66.6035 5.69824Q73.2656 5.69824 73.2656 11.8418Q73.2656 14.7598 71.4155 16.5308Q69.5654 18.3018 66.4629 18.3018L63.123 18.3018ZM64.5996 7.03418L64.5996 16.9658L66.4805 16.9658Q68.959 16.9658 70.3389 15.6387Q71.7188 14.3115 71.7188 11.877Q71.7188 7.03418 66.5684 7.03418L64.5996 7.03418ZM17.1563 17.8887Q16.1191 18.5127 14.6953 18.5127Q12.7705 18.5127 11.5884 17.2603Q10.4063 16.0078 10.4063 14.0127Q10.4063 11.7891 11.6807 10.4399Q12.9551 9.09082 15.082 9.09082Q16.2686 9.09082 17.1738 9.53027L17.1738 11.0068Q16.1719 10.3037 15.0293 10.3037Q13.6494 10.3037 12.7661 11.2925Q11.8828 12.2813 11.8828 13.8896Q11.8828 15.4717 12.7134 16.3857Q13.5439 17.2998 14.9414 17.2998Q16.1191 17.2998 17.1563 16.5176L17.1563 17.8887ZM24.3369 18.3018L25.7783 18.3018L25.7783 12.4482Q25.7783 9.09082 22.6055 9.09082Q20.874 9.09082 19.5469 9.93457L19.5469 11.4111Q20.8564 10.3037 22.4824 10.3037Q24.3369 10.3037 24.3369 12.5977L21.6387 12.9756Q18.668 13.3887 18.668 15.9111Q18.668 17.0889 19.4282 17.8008Q20.1885 18.5127 21.5332 18.5127Q23.3613 18.5127 24.3018 16.8955L24.3369 16.8955L24.3369 18.3018ZM44.6836 18.3018L43.2422 18.3018L43.2422 13.1689Q43.2422 10.3037 41.1504 10.3037Q40.0693 10.3037 39.3618 11.1167Q38.6543 11.9297 38.6543 13.1689L38.6543 18.3018L37.2129 18.3018L37.2129 9.30176L38.6543 9.30176L38.6543 10.7959L38.6895 10.7959Q39.709 9.09082 41.6426 9.09082Q43.1191 9.09082 43.9014 10.0444Q44.6836 10.998 44.6836 12.7998L44.6836 18.3018ZM50.335 22.5381Q55.0811 22.5381 55.0811 17.5811L55.0811 9.30176L53.6396 9.30176L53.6396 10.5498L53.6045 10.5498Q52.7256 9.09082 50.9063 9.09082Q48.9902 9.09082 47.8872 10.4443Q46.7842 11.7979 46.7842 14.0918Q46.7842 16.1133 47.8081 17.313Q48.832 18.5127 50.5107 18.5127Q52.5762 18.5127 53.6045 16.79L53.6396 16.79L53.6396 17.7744Q53.6396 21.3076 50.3174 21.3076Q48.9375 21.3076 47.417 20.4639L47.417 21.9053Q48.665 22.5381 50.335 22.5381ZM76.1265 17.2515Q77.3174 18.5127 79.3125 18.5127Q81.3604 18.5127 82.5776 17.2163Q83.7949 15.9199 83.7949 13.7666Q83.7949 11.5693 82.6655 10.3301Q81.5361 9.09082 79.5234 9.09082Q77.4141 9.09082 76.1748 10.3652Q74.9355 11.6396 74.9355 13.9072Q74.9355 15.9902 76.1265 17.2515ZM105.135 18.3018L106.576 18.3018L106.576 12.7998Q106.576 10.998 105.794 10.0444Q105.012 9.09082 103.535 9.09082Q101.602 9.09082 100.582 10.7959L100.547 10.7959L100.547 9.30176L99.1055 9.30176L99.1055 18.3018L100.547 18.3018L100.547 13.1689Q100.547 11.9297 101.254 11.1167Q101.962 10.3037 103.043 10.3037Q105.135 10.3037 105.135 13.1689L105.135 18.3018ZM32.8535 18.3018L34.2949 18.3018L34.2949 9.30176L32.8535 9.30176L32.8535 18.3018ZM97.4355 9.30176L94.7373 18.3018L93.2432 18.3018L91.3887 11.8594Q91.2832 11.4902 91.248 11.0244L91.2129 11.0244Q91.1865 11.3408 91.0283 11.8418L89.0156 18.3018L87.5742 18.3018L84.8496 9.30176L86.3613 9.30176L88.2246 16.0693Q88.3125 16.377 88.3477 16.8779L88.418 16.8779Q88.4443 16.4912 88.5762 16.0518L90.6504 9.30176L91.9688 9.30176L93.832 16.0869Q93.9199 16.4121 93.9639 16.8955L94.0342 16.8955Q94.0518 16.5527 94.1836 16.0869L96.0117 9.30176L97.4355 9.30176ZM53.6396 12.9053L53.6396 14.2324Q53.6396 15.5771 52.8794 16.4385Q52.1191 17.2998 50.9063 17.2998Q49.7109 17.2998 48.9858 16.3989Q48.2607 15.498 48.2607 13.9951Q48.2607 12.2461 49.0166 11.2749Q49.7725 10.3037 51.1084 10.3037Q52.1895 10.3037 52.9146 11.0684Q53.6396 11.833 53.6396 12.9053ZM77.2207 11.2485Q78.0293 10.3037 79.418 10.3037Q80.8154 10.3037 81.5669 11.2178Q82.3184 12.1318 82.3184 13.8193Q82.3184 15.4893 81.5669 16.3945Q80.8154 17.2998 79.418 17.2998Q78.0469 17.2998 77.2295 16.377Q76.4121 15.4541 76.4121 13.8545Q76.4121 12.1934 77.2207 11.2485ZM22.166 14.0479L24.3369 13.749L24.3369 14.6455Q24.3369 15.7969 23.6382 16.5483Q22.9395 17.2998 21.8672 17.2998Q21.085 17.2998 20.6147 16.8823Q20.1445 16.4648 20.1445 15.8057Q20.1445 14.9004 20.6543 14.5444Q21.1641 14.1885 22.166 14.0479Z" />
  </g>
  <g id="Opacity" transform="translate(437 186)">
    <path d="M43.1631 6.75293Q43.4355 7.0166 43.8223 7.0166Q44.2178 7.0166 44.4946 6.74414Q44.7715 6.47168 44.7715 6.08496Q44.7715 5.68066 44.4946 5.4126Q44.2178 5.14453 43.8223 5.14453Q43.4355 5.14453 43.1631 5.4126Q42.8906 5.68066 42.8906 6.08496Q42.8906 6.48926 43.1631 6.75293ZM6.73242 18.5127Q4.05176 18.5127 2.43896 16.7461Q0.826172 14.9795 0.826172 12.1494Q0.826172 9.1084 2.46973 7.29785Q4.11328 5.48731 6.94336 5.4873Q9.55371 5.4873 11.1489 7.24512Q12.7441 9.00293 12.7441 11.8418Q12.7441 14.9268 11.1094 16.7197Q9.47461 18.5127 6.73242 18.5127ZM51.6182 18.2139Q51.1084 18.4951 50.2734 18.4951Q47.9092 18.4951 47.9092 15.8584L47.9092 10.5322L46.3623 10.5322L46.3623 9.30176L47.9092 9.30176L47.9092 7.10449L49.3506 6.63867L49.3506 9.30176L51.6182 9.30176L51.6182 10.5322L49.3506 10.5322L49.3506 15.6035Q49.3506 16.5088 49.6582 16.8955Q49.9658 17.2822 50.6777 17.2822Q51.2227 17.2822 51.6182 16.9834L51.6182 18.2139ZM6.83789 6.82324Q4.85156 6.82324 3.6123 8.25586Q2.37305 9.68848 2.37305 12.0176Q2.37305 14.3467 3.58154 15.7661Q4.79004 17.1855 6.73242 17.1855Q8.80664 17.1855 10.002 15.832Q11.1973 14.4785 11.1973 12.0439Q11.1973 9.54785 10.0371 8.18555Q8.87695 6.82324 6.83789 6.82324ZM16.5059 17.001L16.4707 17.001L16.4707 22.4414L15.0293 22.4414L15.0293 9.30176L16.4707 9.30176L16.4707 10.8838L16.5059 10.8838Q17.5693 9.09082 19.6172 9.09082Q21.3574 9.09082 22.333 10.2993Q23.3086 11.5078 23.3086 13.5381Q23.3086 15.7969 22.21 17.1548Q21.1113 18.5127 19.2041 18.5127Q17.4551 18.5127 16.5059 17.001ZM30.6123 18.3018L32.0537 18.3018L32.0537 12.4482Q32.0537 9.09082 28.8809 9.09082Q27.1494 9.09082 25.8223 9.93457L25.8223 11.4111Q27.1318 10.3037 28.7578 10.3037Q30.6123 10.3037 30.6123 12.5977L27.9141 12.9756Q24.9434 13.3887 24.9434 15.9111Q24.9434 17.0889 25.7036 17.8008Q26.4639 18.5127 27.8086 18.5127Q29.6367 18.5127 30.5771 16.8955L30.6123 16.8955L30.6123 18.3018ZM40.9043 17.8887Q39.8672 18.5127 38.4434 18.5127Q36.5186 18.5127 35.3364 17.2603Q34.1543 16.0078 34.1543 14.0127Q34.1543 11.7891 35.4287 10.4399Q36.7031 9.09082 38.8301 9.09082Q40.0166 9.09082 40.9219 9.53027L40.9219 11.0068Q39.9199 10.3037 38.7773 10.3037Q37.3975 10.3037 36.5142 11.2925Q35.6309 12.2813 35.6309 13.8896Q35.6309 15.4717 36.4614 16.3857Q37.292 17.2998 38.6895 17.2998Q39.8672 17.2998 40.9043 16.5176L40.9043 17.8887ZM43.084 18.3018L44.5254 18.3018L44.5254 9.30176L43.084 9.30176L43.084 18.3018ZM56.5664 19.7432L60.7061 9.30176L59.2119 9.30176L56.6543 16.2451Q56.5225 16.7021 56.4785 16.9131L56.4258 16.9131Q56.2852 16.3594 56.2412 16.2275L53.8066 9.30176L52.207 9.30176L55.7227 18.2842L55.002 19.9893Q54.457 21.29 53.3672 21.29Q52.9805 21.29 52.5146 21.1318L52.5146 22.4238Q52.8926 22.5381 53.4551 22.5381Q55.459 22.5381 56.5664 19.7432ZM16.4707 13.3711L16.4707 14.6279Q16.4707 15.7441 17.1958 16.522Q17.9209 17.2998 19.0371 17.2998Q20.3467 17.2998 21.0894 16.2979Q21.832 15.2959 21.832 13.5117Q21.832 12.0088 21.1377 11.1563Q20.4434 10.3037 19.2568 10.3037Q18 10.3037 17.2354 11.1782Q16.4707 12.0527 16.4707 13.3711ZM28.4414 14.0479L30.6123 13.749L30.6123 14.6455Q30.6123 15.7969 29.9136 16.5483Q29.2148 17.2998 28.1426 17.2998Q27.3604 17.2998 26.8901 16.8823Q26.4199 16.4648 26.4199 15.8057Q26.4199 14.9004 26.9297 14.5444Q27.4395 14.1885 28.4414 14.0479Z" />
  </g>
  <g id="Transparency" transform="translate(0 187)">
    <path d="M5.4668 7.03418L9.10547 7.03418L9.10547 5.69824L0.360352 5.69824L0.360352 7.03418L3.99023 7.03418L3.99023 18.3018L5.4668 18.3018L5.4668 7.03418ZM23.5898 18.3018L22.1484 18.3018L22.1484 16.8955L22.1133 16.8955Q21.1729 18.5127 19.3447 18.5127Q18 18.5127 17.2397 17.8008Q16.4795 17.0889 16.4795 15.9111Q16.4795 13.3887 19.4502 12.9756L22.1484 12.5977Q22.1484 10.3037 20.2939 10.3037Q18.668 10.3037 17.3584 11.4111L17.3584 9.93457Q18.6855 9.09082 20.417 9.09082Q23.5898 9.09082 23.5898 12.4482L23.5898 18.3018ZM32.335 18.3018L33.7764 18.3018L33.7764 12.7998Q33.7764 10.998 32.9941 10.0444Q32.2119 9.09082 30.7354 9.09082Q28.8018 9.09082 27.7822 10.7959L27.7471 10.7959L27.7471 9.30176L26.3057 9.30176L26.3057 18.3018L27.7471 18.3018L27.7471 13.1689Q27.7471 11.9297 28.4546 11.1167Q29.1621 10.3037 30.2432 10.3037Q32.335 10.3037 32.335 13.1689L32.335 18.3018ZM35.9473 17.9766L35.9473 16.4297Q37.125 17.2998 38.54 17.2998Q40.4385 17.2998 40.4385 16.0342Q40.4385 15.6738 40.2759 15.4233Q40.1133 15.1729 39.8364 14.9795Q39.5596 14.7861 39.186 14.6323Q38.8125 14.4785 38.3818 14.3115Q37.7842 14.0742 37.3315 13.8325Q36.8789 13.5908 36.5757 13.2876Q36.2725 12.9844 36.1187 12.5977Q35.9648 12.2109 35.9648 11.6924Q35.9648 11.0596 36.2549 10.5718Q36.5449 10.084 37.0283 9.75439Q37.5117 9.4248 38.1313 9.25781Q38.751 9.09082 39.4102 9.09082Q40.5791 9.09082 41.502 9.49512L41.502 10.9541Q40.5088 10.3037 39.2168 10.3037Q38.8125 10.3037 38.4873 10.396Q38.1621 10.4883 37.9292 10.6553Q37.6963 10.8223 37.5688 11.0552Q37.4414 11.2881 37.4414 11.5693Q37.4414 11.9209 37.5688 12.1582Q37.6963 12.3955 37.9424 12.5801Q38.1885 12.7646 38.54 12.9141Q38.8916 13.0635 39.3398 13.2393Q39.9375 13.4678 40.4121 13.7095Q40.8867 13.9512 41.2207 14.2544Q41.5547 14.5576 41.7349 14.9531Q41.915 15.3486 41.915 15.8936Q41.915 16.5615 41.6206 17.0537Q41.3262 17.5459 40.834 17.8711Q40.3418 18.1963 39.7002 18.3545Q39.0586 18.5127 38.3555 18.5127Q36.9668 18.5127 35.9473 17.9766ZM45.5713 17.001L45.6064 17.001Q46.5557 18.5127 48.3047 18.5127Q50.2119 18.5127 51.3105 17.1548Q52.4092 15.7969 52.4092 13.5381Q52.4092 11.5078 51.4336 10.2993Q50.458 9.09082 48.7178 9.09082Q46.6699 9.09082 45.6064 10.8838L45.5713 10.8838L45.5713 9.30176L44.1299 9.30176L44.1299 22.4414L45.5713 22.4414L45.5713 17.001ZM61.1543 18.3018L59.7129 18.3018L59.7129 16.8955L59.6777 16.8955Q58.7373 18.5127 56.9092 18.5127Q55.5645 18.5127 54.8042 17.8008Q54.0439 17.0889 54.0439 15.9111Q54.0439 13.3887 57.0146 12.9756L59.7129 12.5977Q59.7129 10.3037 57.8584 10.3037Q56.2324 10.3037 54.9229 11.4111L54.9229 9.93457Q56.25 9.09082 57.9814 9.09082Q61.1543 9.09082 61.1543 12.4482L61.1543 18.3018ZM77.3613 14.1621L71.0068 14.1621Q71.042 15.665 71.8154 16.4824Q72.5889 17.2998 73.9424 17.2998Q75.4629 17.2998 76.7373 16.2979L76.7373 17.6514Q75.5508 18.5127 73.5996 18.5127Q71.6924 18.5127 70.6025 17.2866Q69.5127 16.0605 69.5127 13.8369Q69.5127 11.7363 70.7036 10.4136Q71.8945 9.09082 73.6611 9.09082Q75.4277 9.09082 76.3945 10.2334Q77.3613 11.376 77.3613 13.4063L77.3613 14.1621ZM85.5703 18.3018L87.0117 18.3018L87.0117 12.7998Q87.0117 10.998 86.2295 10.0444Q85.4473 9.09082 83.9707 9.09082Q82.0371 9.09082 81.0176 10.7959L80.9824 10.7959L80.9824 9.30176L79.541 9.30176L79.541 18.3018L80.9824 18.3018L80.9824 13.1689Q80.9824 11.9297 81.6899 11.1167Q82.3975 10.3037 83.4785 10.3037Q85.5703 10.3037 85.5703 13.1689L85.5703 18.3018ZM95.8623 17.8887Q94.8252 18.5127 93.4014 18.5127Q91.4766 18.5127 90.2944 17.2603Q89.1123 16.0078 89.1123 14.0127Q89.1123 11.7891 90.3867 10.4399Q91.6611 9.09082 93.7881 9.09082Q94.9746 9.09082 95.8799 9.53027L95.8799 11.0068Q94.8779 10.3037 93.7354 10.3037Q92.3555 10.3037 91.4722 11.2925Q90.5889 12.2813 90.5889 13.8896Q90.5889 15.4717 91.4194 16.3857Q92.25 17.2998 93.6475 17.2998Q94.8252 17.2998 95.8623 16.5176L95.8623 17.8887ZM14.4932 10.4707Q15.2051 10.4707 15.583 10.7607L15.583 9.2666Q15.2842 9.14355 14.7217 9.14355Q13.9395 9.14355 13.3066 9.67529Q12.6738 10.207 12.3662 11.1563L12.3311 11.1563L12.3311 9.30176L10.8896 9.30176L10.8896 18.3018L12.3311 18.3018L12.3311 13.7139Q12.3311 12.2109 12.9507 11.3408Q13.5703 10.4707 14.4932 10.4707ZM67.4736 10.4707Q68.1855 10.4707 68.5635 10.7607L68.5635 9.2666Q68.2646 9.14355 67.7021 9.14355Q66.9199 9.14355 66.2871 9.67529Q65.6543 10.207 65.3467 11.1563L65.3115 11.1563L65.3115 9.30176L63.8701 9.30176L63.8701 18.3018L65.3115 18.3018L65.3115 13.7139Q65.3115 12.2109 65.9312 11.3408Q66.5508 10.4707 67.4736 10.4707ZM101.065 19.7432L105.205 9.30176L103.711 9.30176L101.153 16.2451Q101.021 16.7021 100.978 16.9131L100.925 16.9131Q100.784 16.3594 100.74 16.2275L98.3057 9.30176L96.7061 9.30176L100.222 18.2842L99.501 19.9893Q98.9561 21.29 97.8662 21.29Q97.4795 21.29 97.0137 21.1318L97.0137 22.4238Q97.3916 22.5381 97.9541 22.5381Q99.958 22.5381 101.065 19.7432ZM45.5713 14.6279L45.5713 13.3711Q45.5713 12.0527 46.3359 11.1782Q47.1006 10.3037 48.3574 10.3037Q49.5439 10.3037 50.2383 11.1563Q50.9326 12.0088 50.9326 13.5117Q50.9326 15.2959 50.1899 16.2979Q49.4473 17.2998 48.1377 17.2998Q47.0215 17.2998 46.2964 16.522Q45.5713 15.7441 45.5713 14.6279ZM75.8848 12.9404Q75.876 11.6924 75.2827 10.998Q74.6895 10.3037 73.6348 10.3037Q72.6152 10.3037 71.9033 11.0332Q71.1914 11.7627 71.0244 12.9404L75.8848 12.9404ZM22.1484 13.749L19.9775 14.0479Q18.9756 14.1885 18.4658 14.5444Q17.9561 14.9004 17.9561 15.8057Q17.9561 16.4648 18.4263 16.8823Q18.8965 17.2998 19.6787 17.2998Q20.751 17.2998 21.4497 16.5483Q22.1484 15.7969 22.1484 14.6455L22.1484 13.749ZM59.7129 13.749L57.542 14.0479Q56.54 14.1885 56.0303 14.5444Q55.5205 14.9004 55.5205 15.8057Q55.5205 16.4648 55.9907 16.8823Q56.4609 17.2998 57.2432 17.2998Q58.3154 17.2998 59.0142 16.5483Q59.7129 15.7969 59.7129 14.6455L59.7129 13.749Z" />
  </g>
  <g id="Features" transform="translate(232 356)">
    <path d="M3.12891 7.03418L8.05078 7.03418L8.05078 5.69824L1.65234 5.69824L1.65234 18.3018L3.12891 18.3018L3.12891 12.7207L7.68164 12.7207L7.68164 11.3936L3.12891 11.3936L3.12891 7.03418ZM31.6494 18.4951Q32.4844 18.4951 32.9941 18.2139L32.9941 16.9834Q32.5986 17.2822 32.0537 17.2822Q31.3418 17.2822 31.0342 16.8955Q30.7266 16.5088 30.7266 15.6035L30.7266 10.5322L32.9941 10.5322L32.9941 9.30176L30.7266 9.30176L30.7266 6.63867L29.2852 7.10449L29.2852 9.30176L27.7383 9.30176L27.7383 10.5322L29.2852 10.5322L29.2852 15.8584Q29.2852 18.4951 31.6494 18.4951ZM11.127 14.1621L17.4814 14.1621L17.4814 13.4063Q17.4814 11.376 16.5146 10.2334Q15.5479 9.09082 13.7813 9.09082Q12.0146 9.09082 10.8237 10.4136Q9.63281 11.7363 9.63281 13.8369Q9.63281 16.0605 10.7227 17.2866Q11.8125 18.5127 13.7197 18.5127Q15.6709 18.5127 16.8574 17.6514L16.8574 16.2979Q15.583 17.2998 14.0625 17.2998Q12.709 17.2998 11.9355 16.4824Q11.1621 15.665 11.127 14.1621ZM26.1035 18.3018L24.6621 18.3018L24.6621 16.8955L24.627 16.8955Q23.6865 18.5127 21.8584 18.5127Q20.5137 18.5127 19.7534 17.8008Q18.9932 17.0889 18.9932 15.9111Q18.9932 13.3887 21.9639 12.9756L24.6621 12.5977Q24.6621 10.3037 22.8076 10.3037Q21.1816 10.3037 19.8721 11.4111L19.8721 9.93457Q21.1992 9.09082 22.9307 9.09082Q26.1035 9.09082 26.1035 12.4482L26.1035 18.3018ZM58.5967 14.1621L52.2422 14.1621Q52.2773 15.665 53.0508 16.4824Q53.8242 17.2998 55.1777 17.2998Q56.6982 17.2998 57.9727 16.2979L57.9727 17.6514Q56.7861 18.5127 54.835 18.5127Q52.9277 18.5127 51.8379 17.2866Q50.748 16.0605 50.748 13.8369Q50.748 11.7363 51.939 10.4136Q53.1299 9.09082 54.8965 9.09082Q56.6631 9.09082 57.6299 10.2334Q58.5967 11.376 58.5967 13.4063L58.5967 14.1621ZM60.2314 16.4297L60.2314 17.9766Q61.251 18.5127 62.6396 18.5127Q63.3428 18.5127 63.9844 18.3545Q64.626 18.1963 65.1182 17.8711Q65.6104 17.5459 65.9048 17.0537Q66.1992 16.5615 66.1992 15.8936Q66.1992 15.3486 66.019 14.9531Q65.8389 14.5576 65.5049 14.2544Q65.1709 13.9512 64.6963 13.7095Q64.2217 13.4678 63.624 13.2393Q63.1758 13.0635 62.8242 12.9141Q62.4727 12.7646 62.2266 12.5801Q61.9805 12.3955 61.853 12.1582Q61.7256 11.9209 61.7256 11.5693Q61.7256 11.2881 61.853 11.0552Q61.9805 10.8223 62.2134 10.6553Q62.4463 10.4883 62.7715 10.396Q63.0967 10.3037 63.501 10.3037Q64.793 10.3037 65.7861 10.9541L65.7861 9.49512Q64.8633 9.09082 63.6943 9.09082Q63.0352 9.09082 62.4155 9.25781Q61.7959 9.4248 61.3125 9.75439Q60.8291 10.084 60.5391 10.5718Q60.249 11.0596 60.249 11.6924Q60.249 12.2109 60.4028 12.5977Q60.5566 12.9844 60.8599 13.2876Q61.1631 13.5908 61.6157 13.8325Q62.0684 14.0742 62.666 14.3115Q63.0967 14.4785 63.4702 14.6323Q63.8438 14.7861 64.1206 14.9795Q64.3975 15.1729 64.5601 15.4233Q64.7227 15.6738 64.7227 16.0342Q64.7227 17.2998 62.8242 17.2998Q61.4092 17.2998 60.2314 16.4297ZM48.709 10.4707Q49.4209 10.4707 49.7988 10.7607L49.7988 9.2666Q49.5 9.14355 48.9375 9.14355Q48.1553 9.14355 47.5225 9.67529Q46.8896 10.207 46.582 11.1563L46.5469 11.1563L46.5469 9.30176L45.1055 9.30176L45.1055 18.3018L46.5469 18.3018L46.5469 13.7139Q46.5469 12.2109 47.1665 11.3408Q47.7861 10.4707 48.709 10.4707ZM42.1963 18.3018L40.7549 18.3018L40.7549 16.8779L40.7197 16.8779Q39.8232 18.5127 37.9424 18.5127Q34.7256 18.5127 34.7256 14.6807L34.7256 9.30176L36.1582 9.30176L36.1582 14.4521Q36.1582 17.2998 38.3379 17.2998Q39.3926 17.2998 40.0737 16.522Q40.7549 15.7441 40.7549 14.4873L40.7549 9.30176L42.1963 9.30176L42.1963 18.3018ZM15.4028 10.998Q15.9961 11.6924 16.0049 12.9404L11.1445 12.9404Q11.3115 11.7627 12.0234 11.0332Q12.7354 10.3037 13.7549 10.3037Q14.8096 10.3037 15.4028 10.998ZM57.1201 12.9404Q57.1113 11.6924 56.5181 10.998Q55.9248 10.3037 54.8701 10.3037Q53.8506 10.3037 53.1387 11.0332Q52.4268 11.7627 52.2598 12.9404L57.1201 12.9404ZM24.6621 13.749L22.4912 14.0479Q21.4893 14.1885 20.9795 14.5444Q20.4697 14.9004 20.4697 15.8057Q20.4697 16.4648 20.9399 16.8823Q21.4102 17.2998 22.1924 17.2998Q23.2646 17.2998 23.9634 16.5483Q24.6621 15.7969 24.6621 14.6455L24.6621 13.749Z" />
  </g>
  <path d="M0 147L138 0" transform="translate(269 39)" id="Arrow-5" fill="none" stroke="#7253ED" stroke-width="2" stroke-dasharray="2 2 0 0" />
  <path d="M134 0L0 148" transform="translate(111 208)" id="Arrow-6" fill="none" stroke="#7253ED" stroke-width="2" stroke-dasharray="2 2 0 0" />
</svg>