<?xml version="1.0" encoding="utf-8"?>
<svg width="293px" height="84px" viewBox="0 0 293 84" version="1.1" xmlns:xlink="http://www.w3.org/1999/xlink" xmlns="http://www.w3.org/2000/svg">
  <desc>Created with Lunacy</desc>
  <g id="sequence-2" transform="matrix(-1.518201E-07 -1 1 -1.518201E-07 1 61.50015)">
    <path d="M0 7.5C0 3.35786 3.35786 0 7.5 0C11.6421 0 15 3.35786 15 7.5C15 11.6421 11.6421 15 7.5 15C3.35786 15 0 11.6421 0 7.5Z" transform="translate(6.103516E-05 0)" id="Ellipse" fill="#D3D3D3" stroke="#808080" stroke-width="1" />
    <path d="M0 7.5C0 3.35786 3.35786 0 7.5 0C11.6421 0 15 3.35786 15 7.5C15 11.6421 11.6421 15 7.5 15C3.35786 15 0 11.6421 0 7.5Z" transform="translate(6.103516E-05 0)" id="Ellipse-2" fill="#D3D3D3" stroke="#808080" stroke-width="1" />
    <path d="M4.40759e-05 11L0 0" transform="translate(8.000061 14.99982)" id="Line-3" fill="none" stroke="#808080" stroke-width="2" />
    <path d="M0 7.5C0 3.35786 3.35786 0 7.5 0C11.6421 0 15 3.35786 15 7.5C15 11.6421 11.6421 15 7.5 15C3.35786 15 0 11.6421 0 7.5Z" transform="translate(0 25.99982)" id="Ellipse-3" fill="#D3D3D3" stroke="#808080" stroke-width="1" />
    <path d="M0.000127324 12L0 0" transform="translate(8 40.99976)" id="Line-4" fill="none" stroke="#808080" stroke-width="2" />
    <path d="M0 7.5C0 3.35786 3.35786 0 7.5 0C11.6421 0 15 3.35786 15 7.5C15 11.6421 11.6421 15 7.5 15C3.35786 15 0 11.6421 0 7.5Z" transform="translate(1 52.99969)" id="Ellipse-4" fill="#D3D3D3" stroke="#808080" stroke-width="1" />
    <path d="M0 12L5.01797e-05 0" transform="translate(7.999939 67.99976)" id="Line-5" fill="none" stroke="#808080" stroke-width="2" />
    <path d="M0 7.5C0 3.35786 3.35786 0 7.5 0C11.6421 0 15 3.35786 15 7.5C15 11.6421 11.6421 15 7.5 15C3.35786 15 0 11.6421 0 7.5Z" transform="translate(1 79.99969)" id="Ellipse-5" fill="#D3D3D3" stroke="#808080" stroke-width="1" />
    <path d="M0 11.4999L1.78354e-05 0" transform="translate(7.999969 95.49976)" id="Line-6" fill="none" stroke="#808080" stroke-width="2" />
    <path d="M0 7.5C0 3.35786 3.35786 0 7.5 0C11.6421 0 15 3.35786 15 7.5C15 11.6421 11.6421 15 7.5 15C3.35786 15 0 11.6421 0 7.5Z" transform="translate(0.999939 106.9998)" id="Ellipse-6" fill="#D3D3D3" stroke="#808080" stroke-width="1" />
  </g>
  <g id="sequence-3" transform="matrix(-1.518201E-07 -1 1 -1.518201E-07 169.0002 67.00015)">
    <path d="M0 7.5C0 3.35786 3.35786 0 7.5 0C11.6421 0 15 3.35786 15 7.5C15 11.6421 11.6421 15 7.5 15C3.35786 15 0 11.6421 0 7.5Z" transform="translate(6.500092 0)" id="Ellipse" fill="#D3D3D3" stroke="#808080" stroke-width="1" />
    <path d="M0 7.5C0 3.35786 3.35786 0 7.5 0C11.6421 0 15 3.35786 15 7.5C15 11.6421 11.6421 15 7.5 15C3.35786 15 0 11.6421 0 7.5Z" transform="translate(6.500092 0)" id="Ellipse-2" fill="#D3D3D3" stroke="#808080" stroke-width="1" />
    <path d="M4.40759e-05 11L0 0" transform="translate(14.50009 14.99982)" id="Line-3" fill="none" stroke="#808080" stroke-width="2" />
    <path d="M6.50006 0L0 0" transform="translate(21.5 6.999817)" id="Line-7" fill="none" stroke="#808080" stroke-width="1" stroke-dasharray="1 1" />
    <path d="M6.50006 0L0 0" transform="translate(0 7.999817)" id="Line-13" fill="none" stroke="#808080" stroke-width="1" stroke-dasharray="1 1" />
    <path d="M6.50006 0L0 0" transform="translate(0 33.99908)" id="Line-14" fill="none" stroke="#808080" stroke-width="1" stroke-dasharray="1 1" />
    <path d="M6.50006 0L0 0" transform="translate(22.50003 59.99957)" id="Line-10" fill="none" stroke="#808080" stroke-width="1" stroke-dasharray="1 1" />
    <path d="M6.50006 0L0 0" transform="translate(44.49997 59.99976)" id="Line-18" fill="none" stroke="#808080" stroke-width="1" stroke-dasharray="1 1" />
    <path d="M6.50006 0L0 0" transform="translate(22.49997 87.9986)" id="Line-11" fill="none" stroke="#808080" stroke-width="1" stroke-dasharray="1 1" />
    <path d="M6.50006 0L0 0" transform="translate(22.50006 114.999)" id="Line-12" fill="none" stroke="#808080" stroke-width="1" stroke-dasharray="1 1" />
    <path d="M6.50006 0L0 0" transform="translate(1 60.99908)" id="Line-15" fill="none" stroke="#808080" stroke-width="1" stroke-dasharray="1 1" />
    <path d="M6.50006 0L0 0" transform="translate(0.5003662 114.9995)" id="Line-17" fill="none" stroke="#808080" stroke-width="1" stroke-dasharray="1 1" />
    <path d="M0 7.5C0 3.35786 3.35786 0 7.5 0C11.6421 0 15 3.35786 15 7.5C15 11.6421 11.6421 15 7.5 15C3.35786 15 0 11.6421 0 7.5Z" transform="translate(6.500031 25.99182)" id="Ellipse-3" fill="#D3D3D3" stroke="#808080" stroke-width="1" />
    <path d="M0.000127324 12L0 0" transform="translate(14.50003 40.99176)" id="Line-4" fill="none" stroke="#808080" stroke-width="2" />
    <path d="M0 7.5C0 3.35786 3.35786 0 7.5 0C11.6421 0 15 3.35786 15 7.5C15 11.6421 11.6421 15 7.5 15C3.35786 15 0 11.6421 0 7.5Z" transform="translate(7.500031 52.9917)" id="Ellipse-4" fill="#D3D3D3" stroke="#808080" stroke-width="1" />
    <path d="M0 12L5.01797e-05 0" transform="translate(14.49597 67.99176)" id="Line-5" fill="none" stroke="#808080" stroke-width="2" />
    <path d="M0 7.5C0 3.35786 3.35786 0 7.5 0C11.6421 0 15 3.35786 15 7.5C15 11.6421 11.6421 15 7.5 15C3.35786 15 0 11.6421 0 7.5Z" transform="translate(7.496033 79.9917)" id="Ellipse-5" fill="#D3D3D3" stroke="#808080" stroke-width="1" />
    <path d="M0 11.4999L1.78354e-05 0" transform="translate(14.49997 95.49176)" id="Line-6" fill="none" stroke="#808080" stroke-width="2" />
    <path d="M0 7.5C0 3.35786 3.35786 0 7.5 0C11.6421 0 15 3.35786 15 7.5C15 11.6421 11.6421 15 7.5 15C3.35786 15 0 11.6421 0 7.5Z" transform="translate(7.499969 106.9918)" id="Ellipse-6" fill="#D3D3D3" stroke="#808080" stroke-width="1" />
  </g>
  <g id="sequence-4" transform="matrix(-1.518201E-07 -1 1 -1.518201E-07 170.0002 82.50009)">
    <path d="M0 7.5C0 3.35786 3.35786 0 7.5 0C11.6421 0 15 3.35786 15 7.5C15 11.6421 11.6421 15 7.5 15C3.35786 15 0 11.6421 0 7.5Z" transform="translate(6.103516E-05 0)" id="Ellipse" fill="#D3D3D3" stroke="#808080" stroke-width="1" />
    <path d="M0 7.5C0 3.35786 3.35786 0 7.5 0C11.6421 0 15 3.35786 15 7.5C15 11.6421 11.6421 15 7.5 15C3.35786 15 0 11.6421 0 7.5Z" transform="translate(6.103516E-05 0)" id="Ellipse-2" fill="#D3D3D3" stroke="#808080" stroke-width="1" />
    <path d="M0 7.5C0 3.35786 3.35786 0 7.5 0C11.6421 0 15 3.35786 15 7.5C15 11.6421 11.6421 15 7.5 15C3.35786 15 0 11.6421 0 7.5Z" transform="translate(0 25.99982)" id="Ellipse-3" fill="#D3D3D3" stroke="#808080" stroke-width="1" />
    <path d="M0 7.5C0 3.35786 3.35786 0 7.5 0C11.6421 0 15 3.35786 15 7.5C15 11.6421 11.6421 15 7.5 15C3.35786 15 0 11.6421 0 7.5Z" transform="translate(1 52.99969)" id="Ellipse-4" fill="#D3D3D3" stroke="#808080" stroke-width="1" />
    <path d="M0 7.5C0 3.35786 3.35786 0 7.5 0C11.6421 0 15 3.35786 15 7.5C15 11.6421 11.6421 15 7.5 15C3.35786 15 0 11.6421 0 7.5Z" transform="translate(0.999939 106.9998)" id="Ellipse-6" fill="#D3D3D3" stroke="#808080" stroke-width="1" />
  </g>
  <g id="sequence-5" transform="matrix(-1.518201E-07 -1 1 -1.518201E-07 169 38.50006)">
    <path d="M0 7.50001C0 3.35787 3.35787 0 7.50001 0C11.6422 0 15 3.35787 15 7.50001C15 11.6421 11.6422 15 7.50001 15C3.35787 15 0 11.6421 0 7.50001Z" id="Ellipse" fill="#D3D3D3" stroke="#808080" stroke-width="1" />
    <path d="M0 7.50001C0 3.35787 3.35787 0 7.50001 0C11.6422 0 15 3.35787 15 7.50001C15 11.6421 11.6422 15 7.50001 15C3.35787 15 0 11.6421 0 7.50001Z" id="Ellipse-2" fill="#D3D3D3" stroke="#808080" stroke-width="1" />
    <path d="M0 7.50001C0 3.35787 3.35787 0 7.50001 0C11.6422 0 15 3.35787 15 7.50001C15 11.6421 11.6422 15 7.50001 15C3.35787 15 0 11.6421 0 7.50001Z" transform="translate(0.9992676 52.99841)" id="Ellipse-4" fill="#D3D3D3" stroke="#808080" stroke-width="1" />
    <path d="M0 7.50001C0 3.35787 3.35787 0 7.50001 0C11.6422 0 15 3.35787 15 7.50001C15 11.6421 11.6422 15 7.50001 15C3.35787 15 0 11.6421 0 7.50001Z" transform="translate(22.99997 53)" id="Ellipse-7" fill="#D3D3D3" stroke="#808080" stroke-width="1" />
    <path d="M0 7.50001C0 3.35787 3.35787 0 7.50001 0C11.6422 0 15 3.35787 15 7.50001C15 11.6421 11.6422 15 7.50001 15C3.35787 15 0 11.6421 0 7.50001Z" transform="translate(0.9992676 79.99841)" id="Ellipse-5" fill="#D3D3D3" stroke="#808080" stroke-width="1" />
    <path d="M0 7.5C0 3.35787 3.35787 0 7.50001 0C11.6422 0 15 3.35787 15 7.5C15 11.6421 11.6422 15 7.50001 15C3.35787 15 0 11.6421 0 7.5Z" transform="translate(0.9998779 106.9986)" id="Ellipse-6" fill="#D3D3D3" stroke="#808080" stroke-width="1" />
  </g>
</svg>