<?xml version="1.0" encoding="utf-8"?>
<svg width="369px" height="101px" viewBox="0 0 369 101" version="1.1" xmlns:xlink="http://www.w3.org/1999/xlink" xmlns="http://www.w3.org/2000/svg">
  <desc>Created with Lunacy</desc>
  <g id="sequence-2" transform="matrix(-1.518201E-07 -1 1 -1.518201E-07 226.0001 74.00003)">
    <path d="M0 7.5C0 3.35786 3.35786 0 7.5 0C11.6421 0 15 3.35786 15 7.5C15 11.6421 11.6421 15 7.5 15C3.35786 15 0 11.6421 0 7.5Z" id="Ellipse" fill="#D3D3D3" stroke="#808080" stroke-width="1" />
    <path d="M0 7.5C0 3.35786 3.35786 0 7.5 0C11.6421 0 15 3.35786 15 7.5C15 11.6421 11.6421 15 7.5 15C3.35786 15 0 11.6421 0 7.5Z" id="Ellipse-2" fill="#D3D3D3" stroke="#808080" stroke-width="1" />
    <path d="M3.99999 11.0002L0 0" transform="translate(7.999939 14.99982)" id="Line-3" fill="none" stroke="#808080" stroke-width="2" />
    <path d="M0 7.5C0 3.35786 3.35786 0 7.5 0C11.6421 0 15 3.35786 15 7.5C15 11.6421 11.6421 15 7.5 15C3.35786 15 0 11.6421 0 7.5Z" transform="translate(7.994141 25.99994)" id="Ellipse-3" fill="#D3D3D3" stroke="#808080" stroke-width="1" />
    <path d="M11.5048 15.0001L0 0" transform="translate(17.49509 40.5)" id="Line-4" fill="none" stroke="#808080" stroke-width="2" />
    <path d="M0 7.5C0 3.35786 3.35786 0 7.5 0C11.6421 0 15 3.35786 15 7.5C15 11.6421 11.6421 15 7.5 15C3.35786 15 0 11.6421 0 7.5Z" transform="translate(24.99576 55)" id="Ellipse-4" fill="#D3D3D3" stroke="#808080" stroke-width="1" />
    <path d="M4.50065 11.5001L0 0" transform="translate(34.99997 70.00006)" id="Line-5" fill="none" stroke="#808080" stroke-width="2" />
    <path d="M0 7.5C0 3.35786 3.35786 0 7.5 0C11.6421 0 15 3.35786 15 7.5C15 11.6421 11.6421 15 7.5 15C3.35786 15 0 11.6421 0 7.5Z" transform="translate(33.00003 80)" id="Ellipse-5" fill="#D3D3D3" stroke="#808080" stroke-width="1" />
    <path d="M5.4999 14.5L0 0" transform="translate(41.99997 95.00006)" id="Line-6" fill="none" stroke="#808080" stroke-width="2" />
    <path d="M0 7.5C0 3.35786 3.35786 0 7.5 0C11.6421 0 15 3.35786 15 7.5C15 11.6421 11.6421 15 7.5 15C3.35786 15 0 11.6421 0 7.5Z" transform="translate(41.99997 109.0001)" id="Ellipse-6" fill="#D3D3D3" stroke="#808080" stroke-width="1" />
  </g>
  <g id="sequence-3" transform="matrix(-1.518201E-07 -1 1 -1.518201E-07 27.00009 75.00006)">
    <path d="M0 7.5C0 3.35786 3.35786 0 7.5 0C11.6421 0 15 3.35786 15 7.5C15 11.6421 11.6421 15 7.5 15C3.35786 15 0 11.6421 0 7.5Z" transform="translate(6.103516E-05 0)" id="Ellipse" fill="#D3D3D3" stroke="#808080" stroke-width="1" />
    <path d="M0 7.5C0 3.35786 3.35786 0 7.5 0C11.6421 0 15 3.35786 15 7.5C15 11.6421 11.6421 15 7.5 15C3.35786 15 0 11.6421 0 7.5Z" transform="translate(6.103516E-05 0)" id="Ellipse-2" fill="#D3D3D3" stroke="#808080" stroke-width="1" />
    <path d="M4.40759e-05 11L0 0" transform="translate(8.000061 14.99982)" id="Line-3" fill="none" stroke="#808080" stroke-width="2" />
    <path d="M0 7.5C0 3.35786 3.35786 0 7.5 0C11.6421 0 15 3.35786 15 7.5C15 11.6421 11.6421 15 7.5 15C3.35786 15 0 11.6421 0 7.5Z" transform="translate(0 25.99982)" id="Ellipse-3" fill="#D3D3D3" stroke="#808080" stroke-width="1" />
    <path d="M0.000127324 12L0 0" transform="translate(7.999695 40.99976)" id="Line-4" fill="none" stroke="#808080" stroke-width="2" />
    <path d="M0 7.5C0 3.35786 3.35786 0 7.5 0C11.6421 0 15 3.35786 15 7.5C15 11.6421 11.6421 15 7.5 15C3.35786 15 0 11.6421 0 7.5Z" transform="translate(0.9996948 52.99969)" id="Ellipse-4" fill="#D3D3D3" stroke="#808080" stroke-width="1" />
    <path d="M0 12L5.01797e-05 0" transform="translate(7.999573 67.99982)" id="Line-5" fill="none" stroke="#808080" stroke-width="2" />
    <path d="M0 7.5C0 3.35786 3.35786 0 7.5 0C11.6421 0 15 3.35786 15 7.5C15 11.6421 11.6421 15 7.5 15C3.35786 15 0 11.6421 0 7.5Z" transform="translate(0.9996338 79.99976)" id="Ellipse-5" fill="#D3D3D3" stroke="#808080" stroke-width="1" />
    <path d="M0 11.4999L1.78354e-05 0" transform="translate(7.999939 95.49982)" id="Line-6" fill="none" stroke="#808080" stroke-width="2" />
    <path d="M0 7.5C0 3.35786 3.35786 0 7.5 0C11.6421 0 15 3.35786 15 7.5C15 11.6421 11.6421 15 7.5 15C3.35786 15 0 11.6421 0 7.5Z" transform="translate(1 106.9999)" id="Ellipse-6" fill="#D3D3D3" stroke="#808080" stroke-width="1" />
  </g>
  <g id="pfeil" transform="translate(210.0001 15.00003)">
    <path d="M0 61.5L0 0" transform="translate(4.793213 7.25)" id="New-shape" fill="none" stroke="#808080" stroke-width="2" />
    <path d="M0 9L5 0L9 9" id="New-shape-2" fill="none" stroke="#808080" stroke-width="2" />
  </g>
  <g id="pfeil-2" transform="matrix(-0.0174523 0.9998477 -0.9998477 -0.0174523 362.1571 78.00156)">
    <path d="M2.54469 140.298L0 0" transform="translate(4.631622 7.576843)" id="New-shape" fill="none" stroke="#808080" stroke-width="2" />
    <path d="M0 9L5 0L9 9" id="New-shape-2" fill="none" stroke="#808080" stroke-width="2" />
  </g>
  <g id="x" fill="#808080" transform="translate(360.0002 78.00003)">
    <path d="M2.304 9.77776L4.014 12.2798L5.58 9.79576L5.994 9.05776L7.326 9.05776L4.752 13.0898L7.506 17.2298L5.994 17.3738L5.598 16.5278L3.834 13.9178L2.106 16.5998L1.746 17.3018L0.414 17.3018L3.06 13.1078L0.432 9.11176L1.962 9.00376L2.304 9.77776Z" />
  </g>
  <g id="t" fill="#808080" transform="translate(201.0001 1.000031)">
    <path d="M4.032 16.2038Q4.626 16.2038 5.328 15.8438L5.49 15.9518L5.346 16.8878Q4.374 17.3378 3.546 17.4098Q2.52 17.2118 2.07 16.6538Q1.62 16.0958 1.62 15.0338L1.674 13.7558L1.656 10.0298L0.522 10.0298L0.45 9.92176L0.54 9.07576L1.638 9.07576L1.638 7.74376L2.88 7.20376L3.024 7.32976L2.988 9.07576L5.436 9.07576L5.508 9.18376L5.418 10.0298L2.988 10.0298L2.898 14.9078Q2.88 15.6278 3.15 15.9158Q3.42 16.2038 4.032 16.2038Z" />
  </g>
  <g id="pfeil-3" transform="translate(9 14)">
    <path d="M0 61.5L0 0" transform="translate(4.793213 7.25)" id="New-shape" fill="none" stroke="#808080" stroke-width="2" />
    <path d="M0 9L5 0L9 9" id="New-shape-2" fill="none" stroke="#808080" stroke-width="2" />
  </g>
  <g id="pfeil-4" transform="matrix(-0.0174523 0.9998477 -0.9998477 -0.0174523 161.157 77.00159)">
    <path d="M2.54469 140.298L0 0" transform="translate(4.631744 7.576721)" id="New-shape" fill="none" stroke="#808080" stroke-width="2" />
    <path d="M0 9L5 0L9 9" id="New-shape-2" fill="none" stroke="#808080" stroke-width="2" />
  </g>
  <g id="x" fill="#808080" transform="translate(159.0001 77)">
    <path d="M2.304 9.77776L4.014 12.2798L5.58 9.79576L5.994 9.05776L7.326 9.05776L4.752 13.0898L7.506 17.2298L5.994 17.3738L5.598 16.5278L3.834 13.9178L2.106 16.5998L1.746 17.3018L0.414 17.3018L3.06 13.1078L0.432 9.11176L1.962 9.00376L2.304 9.77776Z" />
  </g>
  <g id="all-content-is-available--simu" transform="translate(25.00009 3.000092)">
    <g id="all-content-is-available" fill="#808080">
      <path d="M7.44 6.434L7.5 8.846L6.552 8.846L6.624 6.506L6.564 0.506L7.512 0.422L7.44 6.434ZM10.464 8.846L10.404 6.434L10.476 0.422L9.528 0.506L9.588 6.506L9.516 8.846L10.464 8.846ZM81.864 8.846L81.804 6.434L81.876 0.422L80.928 0.506L80.988 6.506L80.916 8.846L81.864 8.846ZM93.522 3.98Q92.976 3.29 91.932 3.29Q91.5 3.41 91.164 3.59Q90.828 3.77 90.42 4.106L90.348 4.106L90.384 0.422L89.436 0.506L89.496 6.542L89.424 8.882L89.592 8.978L90.252 8.678Q90.852 8.942 91.428 8.942Q92.676 8.942 93.372 8.156Q94.068 7.37 94.068 5.93Q94.068 4.67 93.522 3.98ZM96.48 6.434L96.54 8.846L95.592 8.846L95.664 6.506L95.604 0.506L96.552 0.422L96.48 6.434ZM53.364 1.034Q53.22 0.89 52.98 0.889999Q52.716 0.89 52.566 1.046Q52.416 1.202 52.416 1.454Q52.416 1.718 52.554 1.862Q52.692 2.006 52.944 2.006Q53.208 2.006 53.358 1.85Q53.508 1.694 53.508 1.43Q53.508 1.178 53.364 1.034ZM78.468 0.889999Q78.708 0.89 78.852 1.034Q78.996 1.178 78.996 1.43Q78.996 1.694 78.846 1.85Q78.696 2.006 78.432 2.006Q78.18 2.006 78.042 1.862Q77.904 1.718 77.904 1.454Q77.904 1.202 78.054 1.046Q78.204 0.89 78.468 0.889999ZM33.708 7.874Q33.24 8.114 32.844 8.114Q32.436 8.114 32.256 7.922Q32.076 7.73 32.088 7.25L32.148 3.998L33.768 3.998L33.828 3.434L33.78 3.362L32.148 3.362L32.172 2.198L32.076 2.114L31.248 2.474L31.248 3.362L30.516 3.362L30.456 3.926L30.504 3.998L31.26 3.998L31.272 6.482L31.236 7.334Q31.236 8.042 31.536 8.414Q31.836 8.786 32.52 8.918Q33.072 8.87 33.72 8.57L33.816 7.946L33.708 7.874ZM48.396 8.114Q48.792 8.114 49.26 7.874L49.368 7.946L49.272 8.57Q48.624 8.87 48.072 8.918Q47.388 8.786 47.088 8.414Q46.788 8.042 46.788 7.334L46.824 6.482L46.812 3.998L46.056 3.998L46.008 3.926L46.068 3.362L46.8 3.362L46.8 2.474L47.628 2.114L47.724 2.198L47.7 3.362L49.332 3.362L49.38 3.434L49.32 3.998L47.7 3.998L47.64 7.25Q47.628 7.73 47.808 7.922Q47.988 8.114 48.396 8.114ZM2.772 3.254Q3.552 3.254 4.002 3.638Q4.452 4.022 4.452 4.694Q4.452 4.898 4.38 6.17Q4.308 7.442 4.308 7.658Q4.308 7.922 4.392 8.024Q4.476 8.126 4.68 8.126Q4.86 8.126 5.088 8.054L5.184 8.138L5.088 8.678Q4.74 8.882 4.404 8.918Q4.032 8.882 3.81 8.654Q3.588 8.426 3.576 8.03L3.492 8.03Q2.844 8.69 2.208 8.93Q1.404 8.93 0.954 8.528Q0.504 8.126 0.504 7.43Q0.504 6.902 0.786 6.59Q1.068 6.278 1.62 6.146L3.564 5.69L3.576 4.91Q3.576 4.442 3.33 4.19Q3.084 3.938 2.628 3.938Q2.22 3.938 1.812 4.13Q1.404 4.322 0.936 4.73L0.84 4.682L0.72 3.998Q1.716 3.254 2.772 3.254ZM16.392 3.254Q16.764 3.254 17.166 3.344Q17.568 3.434 17.868 3.578L17.7 4.406L17.592 4.442Q16.968 4.034 16.356 4.034Q15.648 4.034 15.252 4.574Q14.856 5.114 14.856 6.086Q14.856 7.058 15.27 7.616Q15.684 8.174 16.416 8.174Q16.74 8.174 17.094 8.066Q17.448 7.958 17.76 7.766L17.868 7.826L17.76 8.63Q17.028 8.942 16.296 8.942Q15.204 8.942 14.58 8.192Q13.956 7.442 13.956 6.134Q13.956 4.802 14.61 4.028Q15.264 3.254 16.392 3.254ZM22.818 3.98Q22.2 3.254 21.084 3.254Q19.884 3.254 19.23 4.016Q18.576 4.778 18.576 6.17Q18.576 7.49 19.194 8.216Q19.812 8.942 20.94 8.942Q22.14 8.942 22.788 8.18Q23.436 7.418 23.436 6.026Q23.436 4.706 22.818 3.98ZM35.376 6.062L35.376 6.086Q35.376 7.094 35.832 7.634Q36.288 8.174 37.128 8.174Q37.548 8.174 37.968 8.036Q38.388 7.898 38.736 7.646L38.832 7.718L38.688 8.534Q37.848 8.942 37.008 8.942Q35.832 8.942 35.16 8.192Q34.488 7.442 34.488 6.134Q34.488 4.814 35.16 4.034Q35.832 3.254 36.972 3.254Q37.932 3.254 38.46 3.8Q38.988 4.346 38.988 5.318Q38.988 5.642 38.94 5.93L38.82 6.05L35.376 6.062ZM64.842 3.638Q64.392 3.254 63.612 3.254Q62.556 3.254 61.56 3.998L61.68 4.682L61.776 4.73Q62.244 4.322 62.652 4.13Q63.06 3.938 63.468 3.938Q63.924 3.938 64.17 4.19Q64.416 4.442 64.416 4.91L64.404 5.69L62.46 6.146Q61.908 6.278 61.626 6.59Q61.344 6.902 61.344 7.43Q61.344 8.126 61.794 8.528Q62.244 8.93 63.048 8.93Q63.684 8.69 64.332 8.03L64.416 8.03Q64.428 8.426 64.65 8.654Q64.872 8.882 65.244 8.918Q65.58 8.882 65.928 8.678L66.024 8.138L65.928 8.054Q65.7 8.126 65.52 8.126Q65.316 8.126 65.232 8.024Q65.148 7.922 65.148 7.658Q65.148 7.442 65.22 6.17Q65.292 4.898 65.292 4.694Q65.292 4.022 64.842 3.638ZM75.462 3.638Q75.012 3.254 74.232 3.254Q73.176 3.254 72.18 3.998L72.3 4.682L72.396 4.73Q72.864 4.322 73.272 4.13Q73.68 3.938 74.088 3.938Q74.544 3.938 74.79 4.19Q75.036 4.442 75.036 4.91L75.024 5.69L73.08 6.146Q72.528 6.278 72.246 6.59Q71.964 6.902 71.964 7.43Q71.964 8.126 72.414 8.528Q72.864 8.93 73.668 8.93Q74.304 8.69 74.952 8.03L75.036 8.03Q75.048 8.426 75.27 8.654Q75.492 8.882 75.864 8.918Q76.2 8.882 76.548 8.678L76.644 8.138L76.548 8.054Q76.32 8.126 76.14 8.126Q75.936 8.126 75.852 8.024Q75.768 7.922 75.768 7.658Q75.768 7.442 75.84 6.17Q75.912 4.898 75.912 4.694Q75.912 4.022 75.462 3.638ZM85.644 3.254Q86.424 3.254 86.874 3.638Q87.324 4.022 87.324 4.694Q87.324 4.898 87.252 6.17Q87.18 7.442 87.18 7.658Q87.18 7.922 87.264 8.024Q87.348 8.126 87.552 8.126Q87.732 8.126 87.96 8.054L88.056 8.138L87.96 8.678Q87.612 8.882 87.276 8.918Q86.904 8.882 86.682 8.654Q86.46 8.426 86.448 8.03L86.364 8.03Q85.716 8.69 85.08 8.93Q84.276 8.93 83.826 8.528Q83.376 8.126 83.376 7.43Q83.376 6.902 83.658 6.59Q83.94 6.278 84.492 6.146L86.436 5.69L86.448 4.91Q86.448 4.442 86.202 4.19Q85.956 3.938 85.5 3.938Q85.092 3.938 84.684 4.13Q84.276 4.322 83.808 4.73L83.712 4.682L83.592 3.998Q84.588 3.254 85.644 3.254ZM98.94 6.086L98.94 6.062L102.384 6.05L102.504 5.93Q102.552 5.642 102.552 5.318Q102.552 4.346 102.024 3.8Q101.496 3.254 100.536 3.254Q99.396 3.254 98.724 4.034Q98.052 4.814 98.052 6.134Q98.052 7.442 98.724 8.192Q99.396 8.942 100.572 8.942Q101.412 8.942 102.252 8.534L102.396 7.718L102.3 7.646Q101.952 7.898 101.532 8.036Q101.112 8.174 100.692 8.174Q99.852 8.174 99.396 7.634Q98.94 7.094 98.94 6.086ZM56.88 3.266Q57.564 3.266 58.2 3.53L58.068 4.31L57.924 4.346Q57.324 3.95 56.772 3.95Q56.364 3.95 56.112 4.178Q55.86 4.406 55.86 4.73Q55.86 5.054 56.118 5.252Q56.376 5.45 56.916 5.702Q57.384 5.918 57.666 6.092Q57.948 6.266 58.152 6.554Q58.356 6.842 58.356 7.262Q58.356 7.706 58.128 8.09Q57.9 8.474 57.456 8.708Q57.012 8.942 56.4 8.942Q55.56 8.942 54.804 8.546L54.924 7.73L55.032 7.658Q55.368 7.946 55.758 8.102Q56.148 8.258 56.496 8.258Q56.94 8.258 57.216 8.012Q57.492 7.766 57.492 7.43Q57.492 7.106 57.234 6.908Q56.976 6.71 56.436 6.458Q55.968 6.242 55.68 6.068Q55.392 5.894 55.188 5.594Q54.984 5.294 54.984 4.85Q54.984 4.154 55.494 3.71Q56.004 3.266 56.88 3.266ZM28.392 5.114Q28.404 4.622 28.164 4.346Q27.924 4.07 27.456 4.07Q26.7 4.07 25.824 4.922L25.824 6.434L25.872 8.846L24.924 8.846L24.984 6.518L24.936 3.41L25.836 3.326L25.836 4.13L25.908 4.13Q26.652 3.47 27.432 3.278Q28.332 3.278 28.806 3.698Q29.28 4.118 29.268 4.898L29.244 6.458L29.292 8.846L28.332 8.846L28.392 5.114ZM43.716 4.346Q43.956 4.622 43.944 5.114L43.884 8.846L44.844 8.846L44.796 6.458L44.82 4.898Q44.832 4.118 44.358 3.698Q43.884 3.278 42.984 3.278Q42.204 3.47 41.46 4.13L41.388 4.13L41.388 3.326L40.488 3.41L40.536 6.518L40.476 8.846L41.424 8.846L41.376 6.434L41.376 4.922Q42.252 4.07 43.008 4.07Q43.476 4.07 43.716 4.346ZM67.668 4.046L68.856 7.898L68.928 7.898L70.32 4.094L70.512 3.35L71.364 3.35L69.348 8.846L68.328 8.846L66.624 3.374L67.512 3.314L67.668 4.046ZM52.5 3.41L52.536 6.518L52.488 8.846L53.424 8.846L53.4 6.434L53.424 3.326L52.5 3.41ZM78.024 6.518L77.988 3.41L78.912 3.326L78.888 6.434L78.912 8.846L77.976 8.846L78.024 6.518ZM19.872 4.442Q20.268 3.926 21.024 3.926Q21.768 3.926 22.158 4.514Q22.548 5.102 22.548 6.242Q22.548 7.25 22.152 7.754Q21.756 8.258 21 8.258Q20.256 8.258 19.866 7.682Q19.476 7.106 19.476 5.954Q19.476 4.958 19.872 4.442ZM36.972 3.926Q36.372 3.926 35.97 4.316Q35.568 4.706 35.436 5.414L38.088 5.366L38.112 5.198Q38.112 4.586 37.818 4.256Q37.524 3.926 36.972 3.926ZM99.534 4.316Q99.936 3.926 100.536 3.926Q101.088 3.926 101.382 4.256Q101.676 4.586 101.676 5.198L101.652 5.366L99 5.414Q99.132 4.706 99.534 4.316ZM92.724 7.706Q92.28 8.246 91.512 8.246Q90.936 8.246 90.36 7.862L90.324 6.434L90.336 4.91Q90.744 4.478 91.11 4.274Q91.476 4.07 91.848 4.07Q92.484 4.07 92.826 4.604Q93.168 5.138 93.168 6.11Q93.168 7.166 92.724 7.706ZM1.812 6.722Q1.572 6.794 1.464 6.92Q1.356 7.046 1.356 7.298Q1.356 7.694 1.578 7.916Q1.8 8.138 2.172 8.138Q2.832 8.138 3.516 7.286L3.552 6.302L1.812 6.722ZM62.304 6.92Q62.412 6.794 62.652 6.722L64.392 6.302L64.356 7.286Q63.672 8.138 63.012 8.138Q62.64 8.138 62.418 7.916Q62.196 7.694 62.196 7.298Q62.196 7.046 62.304 6.92ZM72.924 6.92Q73.032 6.794 73.272 6.722L75.012 6.302L74.976 7.286Q74.292 8.138 73.632 8.138Q73.26 8.138 73.038 7.916Q72.816 7.694 72.816 7.298Q72.816 7.046 72.924 6.92ZM84.684 6.722Q84.444 6.794 84.336 6.92Q84.228 7.046 84.228 7.298Q84.228 7.694 84.45 7.916Q84.672 8.138 85.044 8.138Q85.704 8.138 86.388 7.286L86.424 6.302L84.684 6.722Z" />
    </g>
    <g id="simultaneously" fill="#808080">
      <path d="M24.96 16.7892L25.02 19.2012L24.072 19.2012L24.144 16.8612L24.084 10.8612L25.032 10.7772L24.96 16.7892ZM65.472 16.7892L65.532 19.2012L64.584 19.2012L64.656 16.8612L64.596 10.8612L65.544 10.7772L65.472 16.7892ZM6.288 11.3892Q6.144 11.2452 5.904 11.2452Q5.64 11.2452 5.49 11.4012Q5.34 11.5572 5.34 11.8092Q5.34 12.0732 5.478 12.2172Q5.616 12.3612 5.868 12.3612Q6.132 12.3612 6.282 12.2052Q6.432 12.0492 6.432 11.7852Q6.432 11.5332 6.288 11.3892ZM29.58 18.2292Q29.112 18.4692 28.716 18.4692Q28.308 18.4692 28.128 18.2772Q27.948 18.0852 27.96 17.6052L28.02 14.3532L29.64 14.3532L29.7 13.7892L29.652 13.7172L28.02 13.7172L28.044 12.5532L27.948 12.4692L27.12 12.8292L27.12 13.7172L26.388 13.7172L26.328 14.2812L26.376 14.3532L27.132 14.3532L27.144 16.8372L27.108 17.6892Q27.108 18.3972 27.408 18.7692Q27.708 19.1412 28.392 19.2732Q28.944 19.2252 29.592 18.9252L29.688 18.3012L29.58 18.2292ZM32.628 13.6092Q33.408 13.6092 33.858 13.9932Q34.308 14.3772 34.308 15.0492Q34.308 15.2532 34.236 16.5252Q34.164 17.7972 34.164 18.0132Q34.164 18.2772 34.248 18.3792Q34.332 18.4812 34.536 18.4812Q34.716 18.4812 34.944 18.4092L35.04 18.4932L34.944 19.0332Q34.596 19.2372 34.26 19.2732Q33.888 19.2372 33.666 19.0092Q33.444 18.7812 33.432 18.3852L33.348 18.3852Q32.7 19.0452 32.064 19.2852Q31.26 19.2852 30.81 18.8832Q30.36 18.4812 30.36 17.7852Q30.36 17.2572 30.642 16.9452Q30.924 16.6332 31.476 16.5012L33.42 16.0452L33.432 15.2652Q33.432 14.7972 33.186 14.5452Q32.94 14.2932 32.484 14.2932Q32.076 14.2932 31.668 14.4852Q31.26 14.6772 30.792 15.0852L30.696 15.0372L30.576 14.3532Q31.572 13.6092 32.628 13.6092ZM42.984 16.4172L42.984 16.4412Q42.984 17.4492 43.44 17.9892Q43.896 18.5292 44.736 18.5292Q45.156 18.5292 45.576 18.3912Q45.996 18.2532 46.344 18.0012L46.44 18.0732L46.296 18.8892Q45.456 19.2972 44.616 19.2972Q43.44 19.2972 42.768 18.5472Q42.096 17.7972 42.096 16.4892Q42.096 15.1692 42.768 14.3892Q43.44 13.6092 44.58 13.6092Q45.54 13.6092 46.068 14.1552Q46.596 14.7012 46.596 15.6732Q46.596 15.9972 46.548 16.2852L46.428 16.4052L42.984 16.4172ZM51.87 14.3352Q51.252 13.6092 50.136 13.6092Q48.936 13.6092 48.282 14.3712Q47.628 15.1332 47.628 16.5252Q47.628 17.8452 48.246 18.5712Q48.864 19.2972 49.992 19.2972Q51.192 19.2972 51.84 18.5352Q52.488 17.7732 52.488 16.3812Q52.488 15.0612 51.87 14.3352ZM3.78 13.8852Q3.144 13.6212 2.46 13.6212Q1.584 13.6212 1.074 14.0652Q0.564 14.5092 0.564 15.2052Q0.564 15.6492 0.768 15.9492Q0.972 16.2492 1.26 16.4232Q1.548 16.5972 2.016 16.8132Q2.556 17.0652 2.814 17.2632Q3.072 17.4612 3.072 17.7852Q3.072 18.1212 2.796 18.3672Q2.52 18.6132 2.076 18.6132Q1.728 18.6132 1.338 18.4572Q0.948 18.3012 0.612 18.0132L0.504 18.0852L0.384 18.9012Q1.14 19.2972 1.98 19.2972Q2.592 19.2972 3.036 19.0632Q3.48 18.8292 3.708 18.4452Q3.936 18.0612 3.936 17.6172Q3.936 17.1972 3.732 16.9092Q3.528 16.6212 3.246 16.4472Q2.964 16.2732 2.496 16.0572Q1.956 15.8052 1.698 15.6072Q1.44 15.4092 1.44 15.0852Q1.44 14.7612 1.692 14.5332Q1.944 14.3052 2.352 14.3052Q2.904 14.3052 3.504 14.7012L3.648 14.6652L3.78 13.8852ZM62.916 13.8852Q62.28 13.6212 61.596 13.6212Q60.72 13.6212 60.21 14.0652Q59.7 14.5092 59.7 15.2052Q59.7 15.6492 59.904 15.9492Q60.108 16.2492 60.396 16.4232Q60.684 16.5972 61.152 16.8132Q61.692 17.0652 61.95 17.2632Q62.208 17.4612 62.208 17.7852Q62.208 18.1212 61.932 18.3672Q61.656 18.6132 61.212 18.6132Q60.864 18.6132 60.474 18.4572Q60.084 18.3012 59.748 18.0132L59.64 18.0852L59.52 18.9012Q60.276 19.2972 61.116 19.2972Q61.728 19.2972 62.172 19.0632Q62.616 18.8292 62.844 18.4452Q63.072 18.0612 63.072 17.6172Q63.072 17.1972 62.868 16.9092Q62.664 16.6212 62.382 16.4472Q62.1 16.2732 61.632 16.0572Q61.092 15.8052 60.834 15.6072Q60.576 15.4092 60.576 15.0852Q60.576 14.7612 60.828 14.5332Q61.08 14.3052 61.488 14.3052Q62.04 14.3052 62.64 14.7012L62.784 14.6652L62.916 13.8852ZM15.18 15.4692Q15.192 14.9772 14.952 14.7012Q14.712 14.4252 14.244 14.4252Q13.476 14.4252 12.648 15.2532L12.624 16.8132L12.672 19.2012L11.7 19.2012L11.772 15.4692Q11.784 14.9772 11.544 14.7012Q11.304 14.4252 10.836 14.4252Q10.08 14.4252 9.204 15.2772L9.204 16.7892L9.252 19.2012L8.304 19.2012L8.364 16.8732L8.316 13.7652L9.216 13.6812L9.216 14.4852L9.288 14.4852Q10.032 13.8252 10.812 13.6332Q11.484 13.6332 11.916 13.8672Q12.348 14.1012 12.528 14.5452L12.6 14.5452Q13.356 13.8612 14.22 13.6332Q15.132 13.6332 15.6 14.0532Q16.068 14.4732 16.056 15.2532L16.032 16.8132L16.08 19.2012L15.12 19.2012L15.18 15.4692ZM39.6 14.7012Q39.84 14.9772 39.828 15.4692L39.768 19.2012L40.728 19.2012L40.68 16.8132L40.704 15.2532Q40.716 14.4732 40.242 14.0532Q39.768 13.6332 38.868 13.6332Q38.088 13.8252 37.344 14.4852L37.272 14.4852L37.272 13.6812L36.372 13.7652L36.42 16.8732L36.36 19.2012L37.308 19.2012L37.26 16.7892L37.26 15.2772Q38.136 14.4252 38.892 14.4252Q39.36 14.4252 39.6 14.7012ZM69.048 18.1692L67.728 14.3772L67.548 13.6692L66.648 13.7292L68.664 19.2012Q68.244 19.9812 67.758 20.3112Q67.272 20.6412 66.36 20.8212L66.336 20.9292Q66.48 21.2412 66.732 21.4932L66.816 21.4932Q67.608 21.3012 68.094 21.0312Q68.58 20.7612 68.922 20.2932Q69.264 19.8252 69.564 19.0092L71.532 13.7052L70.68 13.7052L70.5 14.4612L69.132 18.1692L69.048 18.1692ZM5.424 13.7652L5.46 16.8732L5.412 19.2012L6.348 19.2012L6.324 16.7892L6.348 13.6812L5.424 13.7652ZM22.728 19.0332L22.824 18.4932L22.728 18.4092Q22.5 18.4812 22.308 18.4812Q22.116 18.4812 22.038 18.3792Q21.96 18.2772 21.96 18.0252L22.02 13.6812L21.108 13.7652L21.108 17.7492Q20.364 18.4692 19.62 18.4692Q19.164 18.4692 18.93 18.1932Q18.696 17.9172 18.696 17.4252L18.768 13.6812L17.808 13.7652L17.844 16.1292L17.832 17.6532Q17.82 18.4332 18.282 18.8532Q18.744 19.2732 19.632 19.2732Q20.4 19.0812 21.12 18.4332L21.192 18.4332Q21.276 18.8292 21.486 19.0272Q21.696 19.2252 22.044 19.2732Q22.38 19.2372 22.728 19.0332ZM58.896 18.4932L58.8 19.0332Q58.452 19.2372 58.116 19.2732Q57.768 19.2252 57.558 19.0272Q57.348 18.8292 57.264 18.4332L57.192 18.4332Q56.472 19.0812 55.704 19.2732Q54.816 19.2732 54.354 18.8532Q53.892 18.4332 53.904 17.6532L53.916 16.1292L53.88 13.7652L54.84 13.6812L54.768 17.4252Q54.768 17.9172 55.002 18.1932Q55.236 18.4692 55.692 18.4692Q56.436 18.4692 57.18 17.7492L57.18 13.7652L58.092 13.6812L58.032 18.0252Q58.032 18.2772 58.11 18.3792Q58.188 18.4812 58.38 18.4812Q58.572 18.4812 58.8 18.4092L58.896 18.4932ZM44.58 14.2812Q43.98 14.2812 43.578 14.6712Q43.176 15.0612 43.044 15.7692L45.696 15.7212L45.72 15.5532Q45.72 14.9412 45.426 14.6112Q45.132 14.2812 44.58 14.2812ZM48.924 14.7972Q49.32 14.2812 50.076 14.2812Q50.82 14.2812 51.21 14.8692Q51.6 15.4572 51.6 16.5972Q51.6 17.6052 51.204 18.1092Q50.808 18.6132 50.052 18.6132Q49.308 18.6132 48.918 18.0372Q48.528 17.4612 48.528 16.3092Q48.528 15.3132 48.924 14.7972ZM31.668 17.0772Q31.428 17.1492 31.32 17.2752Q31.212 17.4012 31.212 17.6532Q31.212 18.0492 31.434 18.2712Q31.656 18.4932 32.028 18.4932Q32.688 18.4932 33.372 17.6412L33.408 16.6572L31.668 17.0772Z" />
    </g>
  </g>
  <g id="content-is-gradually-unlocked" transform="translate(225.0001 3)">
    <g id="content-is-gradually" fill="#808080">
      <path d="M67.728 6.434L67.764 7.67Q67.776 7.922 67.848 8.024Q67.92 8.126 68.112 8.126Q68.304 8.126 68.52 8.054L68.616 8.138L68.52 8.678Q68.196 8.882 67.848 8.918Q67.476 8.882 67.266 8.666Q67.056 8.45 67.008 8.078L66.924 8.078Q66.564 8.39 66.276 8.576Q65.988 8.762 65.616 8.906Q64.428 8.906 63.792 8.18Q63.156 7.454 63.156 6.11Q63.156 4.754 63.864 4.004Q64.572 3.254 65.82 3.254Q66.384 3.254 66.876 3.374L66.864 0.506L67.812 0.422L67.728 6.434ZM82.488 8.846L82.428 6.434L82.5 0.422L81.552 0.506L81.612 6.506L81.54 8.846L82.488 8.846ZM85.392 6.434L85.452 8.846L84.504 8.846L84.576 6.506L84.516 0.506L85.464 0.422L85.392 6.434ZM39.912 1.034Q39.768 0.89 39.528 0.889999Q39.264 0.89 39.114 1.046Q38.964 1.202 38.964 1.454Q38.964 1.718 39.102 1.862Q39.24 2.006 39.492 2.006Q39.756 2.006 39.906 1.85Q40.056 1.694 40.056 1.43Q40.056 1.178 39.912 1.034ZM20.256 7.874Q19.788 8.114 19.392 8.114Q18.984 8.114 18.804 7.922Q18.624 7.73 18.636 7.25L18.696 3.998L20.316 3.998L20.376 3.434L20.328 3.362L18.696 3.362L18.72 2.198L18.624 2.114L17.796 2.474L17.796 3.362L17.064 3.362L17.004 3.926L17.052 3.998L17.808 3.998L17.82 6.482L17.784 7.334Q17.784 8.042 18.084 8.414Q18.384 8.786 19.068 8.918Q19.62 8.87 20.268 8.57L20.364 7.946L20.256 7.874ZM34.944 8.114Q35.34 8.114 35.808 7.874L35.916 7.946L35.82 8.57Q35.172 8.87 34.62 8.918Q33.936 8.786 33.636 8.414Q33.336 8.042 33.336 7.334L33.372 6.482L33.36 3.998L32.604 3.998L32.556 3.926L32.616 3.362L33.348 3.362L33.348 2.474L34.176 2.114L34.272 2.198L34.248 3.362L35.88 3.362L35.928 3.434L35.868 3.998L34.248 3.998L34.188 7.25Q34.176 7.73 34.356 7.922Q34.536 8.114 34.944 8.114ZM52.104 4.07Q52.836 3.926 53.208 3.818L53.208 3.17L53.112 3.098Q52.2 3.35 51.372 3.506Q50.928 3.29 50.292 3.29Q49.32 3.29 48.738 3.8Q48.156 4.31 48.156 5.21Q48.156 5.726 48.354 6.116Q48.552 6.506 48.936 6.746L48.936 6.794Q48.456 7.106 48.204 7.526Q48.204 7.91 48.438 8.132Q48.672 8.354 49.104 8.486L49.104 8.546Q48.336 9.014 48.048 9.59Q48.048 10.286 48.582 10.724Q49.116 11.162 50.076 11.162Q50.784 11.162 51.378 10.922Q51.972 10.682 52.314 10.262Q52.656 9.842 52.656 9.338C52.656 9.018 52.548 8.768 52.332 8.588Q52.008 8.318 51.564 8.198Q51.12 8.078 50.424 7.982Q49.716 7.874 49.404 7.772Q49.092 7.67 49.092 7.418Q49.092 7.298 49.164 7.202Q49.236 7.106 49.44 6.95Q49.788 7.046 50.184 7.046Q51.18 7.046 51.762 6.53Q52.344 6.014 52.344 5.138Q52.344 4.538 52.08 4.118L52.104 4.07ZM3.714 3.344Q3.312 3.254 2.94 3.254Q1.812 3.254 1.158 4.028Q0.504 4.802 0.504 6.134Q0.504 7.442 1.128 8.192Q1.752 8.942 2.844 8.942Q3.576 8.942 4.308 8.63L4.416 7.826L4.308 7.766Q3.996 7.958 3.642 8.066Q3.288 8.174 2.964 8.174Q2.232 8.174 1.818 7.616Q1.404 7.058 1.404 6.086Q1.404 5.114 1.8 4.574Q2.196 4.034 2.904 4.034Q3.516 4.034 4.14 4.442L4.248 4.406L4.416 3.578Q4.116 3.434 3.714 3.344ZM9.366 3.98Q8.748 3.254 7.632 3.254Q6.432 3.254 5.778 4.016Q5.124 4.778 5.124 6.17Q5.124 7.49 5.742 8.216Q6.36 8.942 7.488 8.942Q8.688 8.942 9.336 8.18Q9.984 7.418 9.984 6.026Q9.984 4.706 9.366 3.98ZM21.924 6.062L21.924 6.086Q21.924 7.094 22.38 7.634Q22.836 8.174 23.676 8.174Q24.096 8.174 24.516 8.036Q24.936 7.898 25.284 7.646L25.38 7.718L25.236 8.534Q24.396 8.942 23.556 8.942Q22.38 8.942 21.708 8.192Q21.036 7.442 21.036 6.134Q21.036 4.814 21.708 4.034Q22.38 3.254 23.52 3.254Q24.48 3.254 25.008 3.8Q25.536 4.346 25.536 5.318Q25.536 5.642 25.488 5.93L25.368 6.05L21.924 6.062ZM61.11 3.638Q60.66 3.254 59.88 3.254Q58.824 3.254 57.828 3.998L57.948 4.682L58.044 4.73Q58.512 4.322 58.92 4.13Q59.328 3.938 59.736 3.938Q60.192 3.938 60.438 4.19Q60.684 4.442 60.684 4.91L60.672 5.69L58.728 6.146Q58.176 6.278 57.894 6.59Q57.612 6.902 57.612 7.43Q57.612 8.126 58.062 8.528Q58.512 8.93 59.316 8.93Q59.952 8.69 60.6 8.03L60.684 8.03Q60.696 8.426 60.918 8.654Q61.14 8.882 61.512 8.918Q61.848 8.882 62.196 8.678L62.292 8.138L62.196 8.054Q61.968 8.126 61.788 8.126Q61.584 8.126 61.5 8.024Q61.416 7.922 61.416 7.658Q61.416 7.442 61.488 6.17Q61.56 4.898 61.56 4.694Q61.56 4.022 61.11 3.638ZM77.76 3.254Q78.54 3.254 78.99 3.638Q79.44 4.022 79.44 4.694Q79.44 4.898 79.368 6.17Q79.296 7.442 79.296 7.658Q79.296 7.922 79.38 8.024Q79.464 8.126 79.668 8.126Q79.848 8.126 80.076 8.054L80.172 8.138L80.076 8.678Q79.728 8.882 79.392 8.918Q79.02 8.882 78.798 8.654Q78.576 8.426 78.564 8.03L78.48 8.03Q77.832 8.69 77.196 8.93Q76.392 8.93 75.942 8.528Q75.492 8.126 75.492 7.43Q75.492 6.902 75.774 6.59Q76.056 6.278 76.608 6.146L78.552 5.69L78.564 4.91Q78.564 4.442 78.318 4.19Q78.072 3.938 77.616 3.938Q77.208 3.938 76.8 4.13Q76.392 4.322 75.924 4.73L75.828 4.682L75.708 3.998Q76.704 3.254 77.76 3.254ZM43.428 3.266Q44.112 3.266 44.748 3.53L44.616 4.31L44.472 4.346Q43.872 3.95 43.32 3.95Q42.912 3.95 42.66 4.178Q42.408 4.406 42.408 4.73Q42.408 5.054 42.666 5.252Q42.924 5.45 43.464 5.702Q43.932 5.918 44.214 6.092Q44.496 6.266 44.7 6.554Q44.904 6.842 44.904 7.262Q44.904 7.706 44.676 8.09Q44.448 8.474 44.004 8.708Q43.56 8.942 42.948 8.942Q42.108 8.942 41.352 8.546L41.472 7.73L41.58 7.658Q41.916 7.946 42.306 8.102Q42.696 8.258 43.044 8.258Q43.488 8.258 43.764 8.012Q44.04 7.766 44.04 7.43Q44.04 7.106 43.782 6.908Q43.524 6.71 42.984 6.458Q42.516 6.242 42.228 6.068Q41.94 5.894 41.736 5.594Q41.532 5.294 41.532 4.85Q41.532 4.154 42.042 3.71Q42.552 3.266 43.428 3.266ZM14.94 5.114Q14.952 4.622 14.712 4.346Q14.472 4.07 14.004 4.07Q13.248 4.07 12.372 4.922L12.372 6.434L12.42 8.846L11.472 8.846L11.532 6.518L11.484 3.41L12.384 3.326L12.384 4.13L12.456 4.13Q13.2 3.47 13.98 3.278Q14.88 3.278 15.354 3.698Q15.828 4.118 15.816 4.898L15.792 6.458L15.84 8.846L14.88 8.846L14.94 5.114ZM30.264 4.346Q30.504 4.622 30.492 5.114L30.432 8.846L31.392 8.846L31.344 6.458L31.368 4.898Q31.38 4.118 30.906 3.698Q30.432 3.278 29.532 3.278Q28.752 3.47 28.008 4.13L27.936 4.13L27.936 3.326L27.036 3.41L27.084 6.518L27.024 8.846L27.972 8.846L27.924 6.434L27.924 4.922Q28.8 4.07 29.556 4.07Q30.024 4.07 30.264 4.346ZM88.968 7.814L87.648 4.022L87.468 3.314L86.568 3.374L88.584 8.846Q88.164 9.626 87.678 9.956Q87.192 10.286 86.28 10.466L86.256 10.574Q86.4 10.886 86.652 11.138L86.736 11.138Q87.528 10.946 88.014 10.676Q88.5 10.406 88.842 9.938Q89.184 9.47 89.484 8.654L91.452 3.35L90.6 3.35L90.42 4.106L89.052 7.814L88.968 7.814ZM39.048 3.41L39.084 6.518L39.036 8.846L39.972 8.846L39.948 6.434L39.972 3.326L39.048 3.41ZM56.712 3.338Q56.856 3.338 57.024 3.362L57.024 4.286L56.916 4.322Q56.712 4.262 56.472 4.262Q56.076 4.262 55.746 4.58Q55.416 4.898 55.092 5.594L55.08 6.434L55.14 8.846L54.192 8.846L54.252 6.518L54.204 3.41L55.104 3.326L55.092 4.454L55.164 4.454Q55.5 3.854 55.908 3.596Q56.316 3.338 56.712 3.338ZM74.652 8.678L74.748 8.138L74.652 8.054Q74.424 8.126 74.232 8.126Q74.04 8.126 73.962 8.024Q73.884 7.922 73.884 7.67L73.944 3.326L73.032 3.41L73.032 7.394Q72.288 8.114 71.544 8.114Q71.088 8.114 70.854 7.838Q70.62 7.562 70.62 7.07L70.692 3.326L69.732 3.41L69.768 5.774L69.756 7.298Q69.744 8.078 70.206 8.498Q70.668 8.918 71.556 8.918Q72.324 8.726 73.044 8.078L73.116 8.078Q73.2 8.474 73.41 8.672Q73.62 8.87 73.968 8.918Q74.304 8.882 74.652 8.678ZM6.42 4.442Q6.816 3.926 7.572 3.926Q8.316 3.926 8.706 4.514Q9.096 5.102 9.096 6.242Q9.096 7.25 8.7 7.754Q8.304 8.258 7.548 8.258Q6.804 8.258 6.414 7.682Q6.024 7.106 6.024 5.954Q6.024 4.958 6.42 4.442ZM23.52 3.926Q22.92 3.926 22.518 4.316Q22.116 4.706 21.984 5.414L24.636 5.366L24.66 5.198Q24.66 4.586 24.366 4.256Q24.072 3.926 23.52 3.926ZM51.162 6.062Q50.832 6.398 50.232 6.398Q49.644 6.398 49.326 6.074Q49.008 5.75 49.008 5.174Q49.008 4.574 49.344 4.25Q49.68 3.926 50.28 3.926Q50.868 3.926 51.18 4.238Q51.492 4.55 51.492 5.126Q51.492 5.726 51.162 6.062ZM65.712 3.926Q64.944 3.926 64.5 4.448Q64.056 4.97 64.056 5.954Q64.056 6.974 64.458 7.538Q64.86 8.102 65.568 8.102Q65.904 8.102 66.222 7.934Q66.54 7.766 66.888 7.37L66.912 6.506L66.876 4.226Q66.24 3.926 65.712 3.926ZM58.572 6.92Q58.68 6.794 58.92 6.722L60.66 6.302L60.624 7.286Q59.94 8.138 59.28 8.138Q58.908 8.138 58.686 7.916Q58.464 7.694 58.464 7.298Q58.464 7.046 58.572 6.92ZM76.8 6.722Q76.56 6.794 76.452 6.92Q76.344 7.046 76.344 7.298Q76.344 7.694 76.566 7.916Q76.788 8.138 77.16 8.138Q77.82 8.138 78.504 7.286L78.54 6.302L76.8 6.722ZM51.414 8.966Q51.816 9.122 51.816 9.518Q51.816 9.926 51.348 10.208Q50.88 10.49 50.184 10.49Q49.572 10.49 49.23 10.262Q48.888 10.034 48.888 9.686Q48.888 9.41 49.122 9.158Q49.356 8.906 49.812 8.63L50.196 8.69Q51.012 8.81 51.414 8.966Z" />
    </g>
    <g id="unlocked" fill="#808080">
      <path d="M14.208 16.7892L14.268 19.2012L13.32 19.2012L13.392 16.8612L13.332 10.8612L14.28 10.7772L14.208 16.7892ZM27.744 19.2012L27.684 16.7892L27.756 10.7772L26.808 10.8612L26.868 16.8612L26.796 19.2012L27.744 19.2012ZM41.904 18.0252L41.868 16.7892L41.952 10.7772L41.004 10.8612L41.016 13.7292Q40.524 13.6092 39.96 13.6092Q38.712 13.6092 38.004 14.3592Q37.296 15.1092 37.296 16.4652Q37.296 17.8092 37.932 18.5352Q38.568 19.2612 39.756 19.2612Q40.128 19.1172 40.416 18.9312Q40.704 18.7452 41.064 18.4332L41.148 18.4332Q41.196 18.8052 41.406 19.0212Q41.616 19.2372 41.988 19.2732Q42.336 19.2372 42.66 19.0332L42.756 18.4932L42.66 18.4092Q42.444 18.4812 42.252 18.4812Q42.06 18.4812 41.988 18.3792Q41.916 18.2772 41.904 18.0252ZM20.022 14.3352Q19.404 13.6092 18.288 13.6092Q17.088 13.6092 16.434 14.3712Q15.78 15.1332 15.78 16.5252Q15.78 17.8452 16.398 18.5712Q17.016 19.2972 18.144 19.2972Q19.344 19.2972 19.992 18.5352Q20.64 17.7732 20.64 16.3812Q20.64 15.0612 20.022 14.3352ZM24.108 13.6092Q24.48 13.6092 24.882 13.6992Q25.284 13.7892 25.584 13.9332L25.416 14.7612L25.308 14.7972Q24.684 14.3892 24.072 14.3892Q23.364 14.3892 22.968 14.9292Q22.572 15.4692 22.572 16.4412Q22.572 17.4132 22.986 17.9712Q23.4 18.5292 24.132 18.5292Q24.456 18.5292 24.81 18.4212Q25.164 18.3132 25.476 18.1212L25.584 18.1812L25.476 18.9852Q24.744 19.2972 24.012 19.2972Q22.92 19.2972 22.296 18.5472Q21.672 17.7972 21.672 16.4892Q21.672 15.1572 22.326 14.3832Q22.98 13.6092 24.108 13.6092ZM32.652 16.4172L32.652 16.4412Q32.652 17.4492 33.108 17.9892Q33.564 18.5292 34.404 18.5292Q34.824 18.5292 35.244 18.3912Q35.664 18.2532 36.012 18.0012L36.108 18.0732L35.964 18.8892Q35.124 19.2972 34.284 19.2972Q33.108 19.2972 32.436 18.5472Q31.764 17.7972 31.764 16.4892Q31.764 15.1692 32.436 14.3892Q33.108 13.6092 34.248 13.6092Q35.208 13.6092 35.736 14.1552Q36.264 14.7012 36.264 15.6732Q36.264 15.9972 36.216 16.2852L36.096 16.4052L32.652 16.4172ZM10.32 14.7012Q10.56 14.9772 10.548 15.4692L10.488 19.2012L11.448 19.2012L11.4 16.8132L11.424 15.2532Q11.436 14.4732 10.962 14.0532Q10.488 13.6332 9.588 13.6332Q8.808 13.8252 8.064 14.4852L7.992 14.4852L7.992 13.6812L7.092 13.7652L7.14 16.8732L7.08 19.2012L8.028 19.2012L7.98 16.7892L7.98 15.2772Q8.856 14.4252 9.612 14.4252Q10.08 14.4252 10.32 14.7012ZM5.784 19.0332L5.88 18.4932L5.784 18.4092Q5.556 18.4812 5.364 18.4812Q5.172 18.4812 5.094 18.3792Q5.016 18.2772 5.016 18.0252L5.076 13.6812L4.164 13.7652L4.164 17.7492Q3.42 18.4692 2.676 18.4692Q2.22 18.4692 1.986 18.1932Q1.752 17.9172 1.752 17.4252L1.824 13.6812L0.864 13.7652L0.9 16.1292L0.888 17.6532Q0.876 18.4332 1.338 18.8532Q1.8 19.2732 2.688 19.2732Q3.456 19.0812 4.176 18.4332L4.248 18.4332Q4.332 18.8292 4.542 19.0272Q4.752 19.2252 5.1 19.2732Q5.436 19.2372 5.784 19.0332ZM31.164 19.0332Q29.688 17.3412 28.86 16.2252L31.02 13.7052L29.94 13.7052L29.628 14.1972L27.912 16.2252L27.912 16.3092Q28.836 17.6532 30.192 19.2612L30.312 19.3092Q30.396 19.2972 30.666 19.2552Q30.936 19.2132 31.164 19.1412L31.164 19.0332ZM17.076 14.7972Q17.472 14.2812 18.228 14.2812Q18.972 14.2812 19.362 14.8692Q19.752 15.4572 19.752 16.5972Q19.752 17.6052 19.356 18.1092Q18.96 18.6132 18.204 18.6132Q17.46 18.6132 17.07 18.0372Q16.68 17.4612 16.68 16.3092Q16.68 15.3132 17.076 14.7972ZM34.248 14.2812Q33.648 14.2812 33.246 14.6712Q32.844 15.0612 32.712 15.7692L35.364 15.7212L35.388 15.5532Q35.388 14.9412 35.094 14.6112Q34.8 14.2812 34.248 14.2812ZM38.64 14.8032Q39.084 14.2812 39.852 14.2812Q40.38 14.2812 41.016 14.5812L41.052 16.8612L41.028 17.7252Q40.68 18.1212 40.362 18.2892Q40.044 18.4572 39.708 18.4572Q39 18.4572 38.598 17.8932Q38.196 17.3292 38.196 16.3092Q38.196 15.3252 38.64 14.8032Z" />
    </g>
  </g>
  <g id="t" fill="#808080">
    <path d="M4.032 16.2038Q4.626 16.2038 5.328 15.8438L5.49 15.9518L5.346 16.8878Q4.374 17.3378 3.546 17.4098Q2.52 17.2118 2.07 16.6538Q1.62 16.0958 1.62 15.0338L1.674 13.7558L1.656 10.0298L0.522 10.0298L0.45 9.92176L0.54 9.07576L1.638 9.07576L1.638 7.74376L2.88 7.20376L3.024 7.32976L2.988 9.07576L5.436 9.07576L5.508 9.18376L5.418 10.0298L2.988 10.0298L2.898 14.9078Q2.88 15.6278 3.15 15.9158Q3.42 16.2038 4.032 16.2038Z" />
  </g>
</svg>